<svg width="124" height="124" viewBox="0 0 124 124" fill="none" xmlns="http://www.w3.org/2000/svg">
<path d="M35.3187 102.001L29.6384 70.0285H39.0515L44.7318 100.743L35.3187 102.001Z" fill="#1FC16B" stroke="#111111" stroke-width="1.5"/>
<path d="M41.8067 85.2487L30.4055 72.9548L39.9403 75.8761L41.8067 85.2487Z" fill="#111111" stroke="#111111" stroke-width="1.5"/>
<ellipse cx="19.2878" cy="64.3546" rx="9.00736" ry="9.08851" fill="#F6B51E" stroke="#111111" stroke-width="1.5"/>
<ellipse cx="19.8586" cy="64.3124" rx="6.65409" ry="6.69466" fill="#111111"/>
<path d="M88.5502 35.6676C88.5502 35.6676 34.9321 54.0201 22.9755 58.1425C11.019 62.2649 12.0193 68.0124 22.9755 70.7078C33.9317 73.4032 88.7102 90.6855 88.7102 90.6855C78.7439 70.5858 78.3214 60.0535 88.5502 35.6676Z" fill="#01CBEA" stroke="#111111" stroke-width="1.5"/>
<path d="M89.7267 34.8524C104.13 34.8524 102.108 91.2904 89.7267 91.2904C74.1233 91.2904 72.2455 34.8524 89.7267 34.8524Z" fill="#F6B51E" stroke="#111111" stroke-width="1.5"/>
<rect x="105.156" y="43.92" width="4.8842" height="10.8465" transform="rotate(-135.858 105.156 43.92)" fill="#111111"/>
<rect x="90.1306" y="64.4299" width="4.62222" height="5.23904" transform="rotate(-135.858 90.1306 64.4299)" fill="#1FC16B"/>
<rect x="103.022" y="93.4326" width="4.62222" height="5.23904" transform="rotate(118.506 103.022 93.4326)" fill="#F6B51E"/>
<rect x="114.281" y="74.4707" width="5.61741" height="7.73485" transform="rotate(151.262 114.281 74.4707)" fill="#01CBEA"/>
</svg>
