<svg width="124" height="124" viewBox="0 0 124 124" fill="none" xmlns="http://www.w3.org/2000/svg">
<path d="M56.5233 44.8758C71.3982 44.8758 86.5644 40.4221 86.5644 36.2572C86.5644 32.0922 71.5059 27.6385 56.631 27.6385C41.7562 27.6385 27.59 32.0922 27.59 36.2572C27.59 40.4221 41.6484 44.8758 56.5233 44.8758Z" fill="#111111"/>
<path d="M26.6204 45.9532L28.2364 48.1078L33.4684 105.745C47.4737 115.441 66.3271 113.287 78.7164 105.745L85.4871 48.1078L86.5644 45.9532C74.1751 55.1105 40.6257 55.6492 26.6204 45.9532Z" fill="#01CBEA"/>
<path d="M27.159 40.5665L26.6204 45.9532C40.6257 55.6492 74.1751 55.1105 86.5644 45.9532V40.5665C71.4817 50.2625 41.1644 50.2625 27.159 40.5665Z" fill="#F6B51E"/>
<path d="M86.5644 36.2572C86.5644 40.4221 71.3982 44.8758 56.5233 44.8758C41.6484 44.8758 27.59 40.4221 27.59 36.2572L27.159 40.5665C41.1644 50.2625 71.4817 50.2625 86.5644 40.5665V36.2572Z" fill="#1FC16B"/>
<path d="M86.5644 36.2572C86.5644 40.4221 71.3982 44.8758 56.5233 44.8758C41.6484 44.8758 27.59 40.4221 27.59 36.2572M86.5644 36.2572C86.5644 32.0922 71.5059 27.6385 56.631 27.6385C41.7562 27.6385 27.59 32.0922 27.59 36.2572M86.5644 36.2572V40.5665M27.59 36.2572L27.159 40.5665M26.6204 45.9532L28.2364 48.1078L33.4684 105.745C47.4737 115.441 66.3271 113.287 78.7164 105.745L85.4871 48.1078L86.5644 45.9532M26.6204 45.9532L27.159 40.5665M26.6204 45.9532C40.6257 55.6492 74.1751 55.1105 86.5644 45.9532M86.5644 45.9532V40.5665M27.159 40.5665C41.1644 50.2625 71.4817 50.2625 86.5644 40.5665" stroke="#111111" stroke-width="1.616" stroke-linejoin="round"/>
<path d="M60.8083 38.5524C76.3805 43.8344 90.6161 43.7352 92.018 39.6024C93.4199 35.4695 82.2952 26.7681 66.723 21.4861C51.1508 16.204 36.9152 16.3032 35.5133 20.4361C34.1114 24.5689 45.2362 33.2703 60.8083 38.5524Z" fill="#1FC16B"/>
<path d="M33.6117 24.5592L31.2347 29.7131C42.6331 44.3077 72.7021 53.911 88.7545 49.2237L90.5675 43.8785C71.5143 48.144 45.0101 39.1538 33.6117 24.5592Z" fill="#1FC16B"/>
<path d="M92.018 39.6024C90.6161 43.7352 76.3805 43.8344 60.8083 38.5524C45.2362 33.2703 34.1114 24.5689 35.5133 20.4361L33.6117 24.5592C45.0101 39.1538 71.5143 48.144 90.5675 43.8785L92.018 39.6024Z" fill="#01CBEA"/>
<path d="M92.018 39.6024C90.6161 43.7352 76.3805 43.8344 60.8083 38.5524C45.2362 33.2703 34.1114 24.5689 35.5133 20.4361M92.018 39.6024C93.4199 35.4695 82.2952 26.7681 66.723 21.4861C51.1508 16.204 36.9152 16.3032 35.5133 20.4361M92.018 39.6024L90.5675 43.8785M35.5133 20.4361L33.6117 24.5592M33.6117 24.5592L31.2347 29.7131C42.6331 44.3077 72.7021 53.911 88.7545 49.2237L90.5675 43.8785M33.6117 24.5592C45.0101 39.1538 71.5143 48.144 90.5675 43.8785" stroke="#111111" stroke-width="1.616" stroke-linejoin="round"/>
<path d="M51.8391 24.5847C50.8875 24.1769 50.3951 23.1185 50.6962 22.1279L52.7368 15.4149C53.8207 11.8489 57.6876 9.93599 61.1798 11.2382L80.7656 18.5413C83.9894 19.7434 85.7066 23.2601 84.6721 26.5416L82.6917 32.823C82.2942 34.084 80.8934 34.7246 79.6795 34.2005C78.6445 33.7536 78.1055 32.605 78.4232 31.5234L80.5613 24.2431C80.8818 23.152 80.2991 21.9997 79.2303 21.611L59.5825 14.4664C58.4156 14.042 57.1324 14.6892 56.7801 15.8799L54.5859 23.2946C54.241 24.4601 52.9563 25.0635 51.8391 24.5847Z" fill="#F6B51E" stroke="#111111" stroke-width="1.616"/>
<path d="M34.9859 56.6352C34.9288 56.0453 35.3685 55.524 35.9595 55.4808C36.5313 55.439 37.032 55.8612 37.0872 56.4319L41.4738 101.768C41.5309 102.358 41.0912 102.88 40.5002 102.923C39.9284 102.965 39.4277 102.542 39.3725 101.972L34.9859 56.6352Z" fill="#111111"/>
<path d="M45.3862 59.8691C45.3679 59.2857 45.8264 58.7982 46.4098 58.7807C46.9921 58.7632 47.4785 59.2206 47.4968 59.8029L48.9283 105.432C48.9466 106.016 48.488 106.503 47.9046 106.521C47.3223 106.538 46.8359 106.081 46.8176 105.499L45.3862 59.8691Z" fill="#111111"/>
<rect x="55.5491" y="58.7471" width="2.11168" height="49.7915" rx="1.05584" transform="rotate(-0.361159 55.5491 58.7471)" fill="#111111"/>
<path d="M64.9762 58.7637C64.989 58.1811 65.4714 57.719 66.054 57.7313C66.6374 57.7436 67.1002 58.2267 67.0874 58.8101L66.08 104.598C66.0672 105.181 65.5848 105.643 65.0022 105.63C64.4188 105.618 63.956 105.135 63.9689 104.552L64.9762 58.7637Z" fill="#111111"/>
<path d="M76.0199 56.3828C76.0721 55.8029 76.5839 55.3747 77.164 55.4257C77.7457 55.4768 78.1754 55.9905 78.1231 56.5721L74.1434 100.784C74.0912 101.364 73.5794 101.793 72.9994 101.742C72.4176 101.69 71.9879 101.177 72.0403 100.595L76.0199 56.3828Z" fill="#111111"/>
</svg>
