<svg fill="none" height="53" viewBox="0 0 84 53" width="84" xmlns="http://www.w3.org/2000/svg"><path d="m59.9302 14.2011c-4.8923-6.42581-11.0456-9.07147-22.8467-13.538746l-35.53928 20.731246c1.62115.6974 3.17373 1.3483 4.65396 1.9679.08836.037.17646.0739.2643.1106 8.73262 3.6551 14.90922 6.2403 17.73762 10.9277l.1908.1095z" fill="#01cbea"/><path d="m24.3909 34.5093 22.8467 13.5388 35.5394-20.3082-22.8468-13.5388z" fill="#01cbea"/><path d="m47.2376 48.0481-22.8467-13.5388-.1908-.1095v3.9173l23.0375 13.5388 35.5394-20.7313v-3.3847z" fill="#1fc16b"/><path d="m24.2001 38.3171v-3.9173c-2.8284-4.6874-9.005-7.2726-17.73762-10.9277l-.2643-.1106-4.65396 2.6861c9.83278 2.6977 15.39758 4.1 22.65588 12.2695z" fill="#111"/><path d="m24.3909 34.5093 22.8467 13.5388 35.5394-20.3082m-58.3861 6.7694-.1908-.1095m.1908.1095 35.5393-20.3082m22.8468 13.5388-22.8468-13.5388m22.8468 13.5388v3.3847l-35.5394 20.7313-23.0375-13.5388m35.7301-24.116c-4.8923-6.42581-11.0456-9.07146-22.8467-13.538746l-35.53928 20.731246c1.62115.6974 3.17373 1.3483 4.65396 1.9679m18.00192 11.0383v3.9173m0-3.9173c-2.8284-4.6874-9.005-7.2726-17.73762-10.9277m17.73762 14.845c-7.2583-8.1695-12.8231-9.5718-22.65588-12.2695l4.65396-2.6861m0 0 .2643.1106m-.2643-.1106c.08836.037.17646.0739.2643.1106" stroke="#111" stroke-width="1.2"/><path d="m34.9681 32.3938 10.1541-5.9232 15.6542 8.4617-10.1541 6.3463z" fill="#1fc16b"/><path d="m50.6223 26.8937 11.4234-7.1925 12.6926 7.1925-11.8464 6.7693z" fill="#f6b51e"/><path d="m30.7372 35.3554 2.1155-1.2693 10.5772 5.9233-2.1155 1.6923z" fill="#f6b51e"/><g stroke="#111" stroke-width="1.2"><path d="m34.9681 32.3938 10.1541-5.9232 15.6542 8.4617-10.1541 6.3463z"/><path d="m50.6223 26.8937 11.4234-7.1925 12.6926 7.1925-11.8464 6.7693z"/><path d="m30.7372 35.3554 2.1155-1.2693 10.5772 5.9233-2.1155 1.6923z"/></g><path d="m63.5926 6.56909c.0445 1.10126.3555 1.57317 1.6864 2.02542-1.4271-.05102-1.8035.39554-2.0254 1.68639-.1336-1.51141-.589-1.83585-1.6864-2.02538 1.3716-.13796 1.709-.59496 2.0254-1.68643z" fill="#f6b51e"/><path d="m78.0337 26.4707c.0446 1.1013.3555 1.5732 1.6865 2.0254-1.4272-.051-1.8035.3956-2.0254 1.6864-.1337-1.5114-.5891-1.8358-1.6865-2.0254 1.3716-.1379 1.709-.5949 2.0254-1.6864z" fill="#f6b51e"/></svg>