<svg width="124" height="124" viewBox="0 0 124 124" fill="none" xmlns="http://www.w3.org/2000/svg">
<path d="M87.4999 54L88.4999 47H78.4999L79.9999 54V87.5H75.4999V54L76.9999 47H65.9999L66.9999 54L67.4999 87.5H62.9999V54L64.4999 47H52.9999L54.4999 54V87.5H49.9999L50.4999 54L51.4999 47H40.9999L42.4999 54V87.5H37.4999V54L38.4999 47H28.9999L29.9999 54V90H87.4999V54Z" fill="#01CBEA"/>
<path d="M88.4999 47H92.4999V39.5H25.4999V47H28.9999H38.4999H40.9999H51.4999H52.9999H64.4999H65.9999H76.9999H78.4999H88.4999Z" fill="#F6B51E"/>
<path d="M58.9999 22L25.4999 36V39.5H92.4999V36L58.9999 22Z" fill="#1FC16B"/>
<path d="M91.4999 90H87.4999H29.9999H25.4999V93.5H91.4999V90Z" fill="#F6B51E"/>
<path d="M99.4999 93.5H91.4999H25.4999H17.9999V97H22.9999H99.4999V93.5Z" fill="#1FC16B"/>
<path d="M76.9999 47L75.4999 54V87.5H79.9999V54L78.4999 47H76.9999Z" fill="#111111"/>
<path d="M64.4999 47L62.9999 54V87.5H67.4999L66.9999 54L65.9999 47H64.4999Z" fill="#111111"/>
<path d="M51.4999 47L50.4999 54L49.9999 87.5H54.4999V54L52.9999 47H51.4999Z" fill="#111111"/>
<path d="M38.4999 47L37.4999 54V87.5H42.4999V54L40.9999 47H38.4999Z" fill="#111111"/>
<path d="M99.4999 97H22.9999L89.9999 103L105.5 98.5L99.4999 97Z" fill="#111111"/>
<path d="M88.4999 47H92.4999V39.5M88.4999 47L87.4999 54V90M88.4999 47H78.4999M87.4999 90H91.4999V93.5M87.4999 90H29.9999M91.4999 93.5H99.4999V97M91.4999 93.5H25.4999M99.4999 97H22.9999M99.4999 97L105.5 98.5L89.9999 103L22.9999 97M25.4999 93.5H17.9999V97H22.9999M25.4999 93.5V90H29.9999M29.9999 90V54L28.9999 47M28.9999 47H25.4999V39.5M28.9999 47H38.4999M25.4999 39.5V36L58.9999 22L92.4999 36V39.5M25.4999 39.5H92.4999M38.4999 47L37.4999 54V87.5H42.4999V54L40.9999 47M38.4999 47H40.9999M40.9999 47H51.4999M51.4999 47L50.4999 54L49.9999 87.5H54.4999V54L52.9999 47M51.4999 47H52.9999M52.9999 47H64.4999M64.4999 47L62.9999 54V87.5H67.4999L66.9999 54L65.9999 47M64.4999 47H65.9999M65.9999 47H76.9999M76.9999 47L75.4999 54V87.5H79.9999V54L78.4999 47M76.9999 47H78.4999" stroke="#111111" stroke-width="1.5"/>
</svg>
