<svg width="124" height="124" viewBox="0 0 124 124" fill="none" xmlns="http://www.w3.org/2000/svg">
<path d="M21.0017 64.1145L22.0708 65.7182L61.628 81.2203L68.5772 78.7257L103.323 66.2528L103.858 63.58V45.405H21.4084L21.0017 64.1145Z" fill="#F6B51E"/>
<path d="M72.8537 30.4382C70.0106 25.19 56.3014 24.0879 51.4714 29.9069C49.4254 32.3719 48.9155 37.8789 49.5353 40.0616H52.8757C52.7203 39.0048 52.8422 37.4692 53.0751 36.3176C53.8545 32.4641 57.7051 30.456 61.628 30.3647C65.6873 30.2702 69.824 32.2282 70.7155 36.3176C70.9657 37.4657 71.072 39.0045 70.9157 40.0616H74.1834C74.6476 37.956 74.3658 33.2294 72.8537 30.4382Z" fill="#01CBEA"/>
<path fill-rule="evenodd" clip-rule="evenodd" d="M52.8757 40.0616H54.1442L55.4587 40.2029L103.858 45.405H21.4084L23.1399 40.0616H49.5353H52.7427C52.7427 40.0616 53.0751 40.0634 52.8757 40.0616Z" fill="#1FC16B"/>
<path d="M103.858 45.405L102.254 40.0616H74.1834C74.037 40.7253 74.4574 40.0634 74.4574 40.0634L70.9157 40.0616H55.4725H54.1442L55.4587 40.2029L103.858 45.405Z" fill="#111111"/>
<path d="M53.0751 36.3176C52.8422 37.4692 52.7203 39.0048 52.8757 40.0616H54.1442H55.4725C54.3388 35.3516 56.0569 33.2698 61.628 30.3647C57.7051 30.456 53.8545 32.4641 53.0751 36.3176Z" fill="#111111"/>
<path fill-rule="evenodd" clip-rule="evenodd" d="M22.0708 98.3262V65.7182L61.628 81.2203L68.5772 78.7257L103.323 69.464V98.3262H22.0708Z" fill="#01CBEA"/>
<path d="M103.323 66.2528L68.5772 78.7257L103.323 69.464V66.2528Z" fill="#111111"/>
<path d="M22.0708 65.7182L21.0017 64.1145L21.4084 45.405M22.0708 65.7182V98.3262H103.323V69.464M22.0708 65.7182L61.628 81.2203L68.5772 78.7257M103.323 66.2528L103.858 63.58V45.405M103.323 66.2528L68.5772 78.7257M103.323 66.2528V69.464M21.4084 45.405L23.1399 40.0616H49.5353M21.4084 45.405H103.858M103.858 45.405L102.254 40.0616H74.1834M103.858 45.405L55.4587 40.2029M49.5353 40.0616H52.7427C52.7427 40.0616 53.0751 40.0634 52.8757 40.0616M49.5353 40.0616C48.9155 37.8789 49.4254 32.3719 51.4714 29.9069C56.3014 24.0879 70.0106 25.19 72.8537 30.4382C74.3658 33.2294 74.6476 37.956 74.1834 40.0616M49.5353 40.0616H52.8757M70.9157 40.0616L74.4574 40.0634C74.4574 40.0634 74.037 40.7253 74.1834 40.0616M70.9157 40.0616C71.072 39.0045 70.9657 37.4657 70.7155 36.3176C69.824 32.2282 65.6873 30.2702 61.628 30.3647M70.9157 40.0616H74.1834M70.9157 40.0616H55.4725M52.8757 40.0616C52.7203 39.0048 52.8422 37.4692 53.0751 36.3176C53.8545 32.4641 57.7051 30.456 61.628 30.3647M52.8757 40.0616H54.1442M54.1442 40.0616L55.4587 40.2029M54.1442 40.0616H55.4725M55.4587 40.2029C55.4632 40.1555 55.4678 40.1084 55.4725 40.0616M61.628 30.3647C56.0569 33.2698 54.3388 35.3516 55.4725 40.0616M68.5772 78.7257L103.323 69.464" stroke="#111111" stroke-width="1.5"/>
<path d="M55.7498 75.8777H67.51V79.6196L66.4409 80.1541V84.4306H56.8189V80.1541L55.7498 79.6196V75.8777Z" fill="#1FC16B"/>
<path d="M66.4409 80.1541L67.51 79.6196V75.8777H55.7498V79.6196L56.8189 80.1541M66.4409 80.1541V84.4306H56.8189V80.1541M66.4409 80.1541L61.0953 81.2232L56.8189 80.1541" stroke="#111111" stroke-width="1.5"/>
</svg>
