<svg width="124" height="124" viewBox="0 0 124 124" fill="none" xmlns="http://www.w3.org/2000/svg">
<ellipse cx="62.4384" cy="91.5196" rx="35.8344" ry="2.52082" fill="#111111"/>
<path d="M24.3628 36.3247C22.4451 37.7476 21.7868 38.7699 21.001 40.8071V56.4956H103.926V40.8071C103.097 38.6523 102.445 37.5901 100.564 36.3247H80.3931L73.6695 29.601C65.4851 28.7622 60.7912 28.839 52.378 29.601L45.6543 36.3247H41.1719H27.1643H24.3628Z" fill="#01CBEA"/>
<path d="M100.564 90.1138C102.289 88.6607 103.085 87.7051 103.926 85.6314V76.1062H21.001V86.1917C21.3506 88.5305 21.9522 89.6863 24.3628 90.6741L100.564 90.1138Z" fill="#01CBEA"/>
<path d="M27.1643 32.9629V36.3247H41.1719V32.9629L39.491 31.2819H28.8452L27.1643 32.9629Z" fill="#111111"/>
<path d="M103.926 56.4956H21.001V76.1062H103.926V56.4956Z" fill="#1FC16B"/>
<path d="M21.001 56.4956V40.8071C21.7868 38.7699 22.4451 37.7476 24.3628 36.3247H27.1643M21.001 56.4956H103.926M21.001 56.4956V76.1062M103.926 56.4956V40.8071C103.097 38.6523 102.445 37.5901 100.564 36.3247H80.3931L73.6695 29.601C65.4851 28.7622 60.7912 28.839 52.378 29.601L45.6543 36.3247H41.1719M103.926 56.4956V76.1062M103.926 76.1062V85.6314C103.085 87.7051 102.289 88.6607 100.564 90.1138L24.3628 90.6741C21.9522 89.6863 21.3506 88.5305 21.001 86.1917V76.1062M103.926 76.1062H21.001M27.1643 36.3247V32.9629L28.8452 31.2819H39.491L41.1719 32.9629V36.3247M27.1643 36.3247H41.1719" stroke="#111111" stroke-width="1.5" stroke-linejoin="round"/>
<circle cx="62.4634" cy="65.466" r="22.4121" fill="#1FC16B" stroke="#111111" stroke-width="1.5"/>
<circle cx="62.4634" cy="65.466" r="16.8091" fill="#F6B51E" stroke="#111111" stroke-width="1.5"/>
<circle cx="62.4634" cy="65.466" r="13.4473" fill="#111111" stroke="#111111" stroke-width="1.5"/>
<rect x="87.1167" y="41.9333" width="13.4473" height="5.60303" fill="#F6B51E" stroke="black" stroke-width="1.5" stroke-linejoin="round"/>
</svg>
