<svg width="124" height="124" viewBox="0 0 124 124" fill="none" xmlns="http://www.w3.org/2000/svg">
<path d="M28.3767 98.8506C30.3887 91.9042 30.3 87.7747 28.4418 80.0895C55.6305 75.8685 67.9763 69.6193 86.1802 53.353C88.9147 60.4418 89.9347 64.4163 88.8997 71.5048C69.4927 88.7578 56.5473 95.2159 28.3767 98.8506Z" fill="#F6B51E" stroke="#111111" stroke-width="1.5"/>
<path d="M35.4036 83.8855C36.6857 76.5648 36.5492 72.4639 34.0225 65.1752C60.8051 58.8712 72.6325 51.6891 89.5286 34.0681C92.4781 40.189 93.4757 44.0416 93.6389 51.9563C75.6194 70.6538 63.2103 78.0904 35.4036 83.8855Z" fill="#1FC16B" stroke="#111111" stroke-width="1.5"/>
<path d="M38.6814 72.9856C39.0526 65.3781 38.6076 61.2704 35.5775 54.4829C61.6631 45.7314 72.7763 37.4872 87.9721 18.3805C91.5693 23.5534 93.0099 27.151 93.7176 35.8124C77.5027 56.0948 65.8338 64.6461 38.6814 72.9856Z" fill="#01CBEA" stroke="#111111" stroke-width="1.5"/>
<path d="M41.156 75.3045L40.4326 72.7396C62.8102 66.2828 73.7706 58.8318 90.9404 39.824L92.4859 44.8222C74.6229 61.5172 63.4189 68.2932 41.156 75.3045Z" fill="#111111"/>
<path d="M34.9492 85.2273L34.6753 82.827C55.6384 80.3069 66.5302 75.2354 84.6605 60.7268L85.3158 65.4241C66.902 77.7623 55.8904 82.1945 34.9492 85.2273Z" fill="#111111"/>
<ellipse cx="66.4605" cy="50.8017" rx="7.72744" ry="3.69106" transform="rotate(-30.5281 66.4605 50.8017)" fill="#111111"/>
<ellipse cx="60.3438" cy="81.3172" rx="7.72744" ry="3.69106" transform="rotate(-26.3622 60.3438 81.3172)" fill="#111111"/>
<ellipse cx="67.6089" cy="65.6582" rx="7.72744" ry="2.72969" transform="rotate(-26.3622 67.6089 65.6582)" fill="#111111"/>
<ellipse cx="61.8421" cy="104.403" rx="30.3836" ry="1.08513" fill="#111111"/>
<path d="M35.3873 48.0568C35.4461 49.5096 35.8563 50.1321 37.6121 50.7288C35.7294 50.6615 35.2329 51.2506 34.9401 52.9536C34.7638 50.9596 34.163 50.5316 32.7153 50.2816C34.5248 50.0996 34.9699 49.4967 35.3873 48.0568Z" fill="#F6B51E"/>
<path d="M93.0297 70.4679C93.0884 71.9207 93.4987 72.5433 95.2545 73.1399C93.3718 73.0726 92.8752 73.6617 92.5825 75.3647C92.4062 73.3707 91.8054 72.9427 90.3577 72.6927C92.1672 72.5107 92.6123 71.9078 93.0297 70.4679Z" fill="#F6B51E"/>
</svg>
