<svg width="124" height="124" viewBox="0 0 124 124" fill="none" xmlns="http://www.w3.org/2000/svg">
<rect x="32.4136" y="58.8115" width="23.1179" height="43.8477" fill="#1FC16B" stroke="#111111" stroke-width="1.5"/>
<rect x="55.5306" y="58.8115" width="37.0651" height="43.8477" fill="#01CBEA" stroke="#111111" stroke-width="1.5"/>
<path d="M32.3194 58.2349H55.915L45.1203 76.242H20.9993L32.3194 58.2349Z" fill="#F6B51E" stroke="#111111" stroke-width="1.5"/>
<path d="M55.9172 58.1431H92.3137L103.443 76.198H67.9539L55.9172 58.1431Z" fill="#F6B51E" stroke="#111111" stroke-width="1.5"/>
<rect x="35.8866" y="38.6998" width="5.7498" height="12.7687" transform="rotate(122.633 35.8866 38.6998)" fill="#111111"/>
<rect x="83.5901" y="29.9042" width="2.3024" height="5.11301" transform="rotate(122.633 83.5901 29.9042)" fill="#111111"/>
<rect x="63.0789" y="51.2141" width="5.44139" height="6.16753" transform="rotate(122.633 63.0789 51.2141)" fill="#1FC16B"/>
<rect x="93.505" y="29.5282" width="5.44139" height="6.16752" transform="rotate(16.9963 93.505 29.5282)" fill="#F6B51E"/>
<rect x="49.7871" y="30.3378" width="5.44139" height="6.16752" transform="rotate(16.9963 49.7871 30.3378)" fill="#F6B51E"/>
<rect x="68.9825" y="20.9995" width="6.61295" height="9.10566" transform="rotate(49.7528 68.9825 20.9995)" fill="#01CBEA"/>
<rect x="76.7167" y="42.474" width="6.61295" height="9.10566" transform="rotate(49.7528 76.7167 42.474)" fill="#01CBEA"/>
<path d="M33.0352 101.99L55.0228 86.1342L55.7232 101.99H33.0352Z" fill="#111111" stroke="#111111" stroke-width="1.5"/>
</svg>
