<svg width="124" height="124" viewBox="0 0 124 124" fill="none" xmlns="http://www.w3.org/2000/svg">
<path d="M45.4535 99.3159L32.3623 102.627L42.1422 97.7373L45.4535 99.3159Z" fill="#111111"/>
<path d="M75.2528 98.9688L61.8988 103.774L71.7169 97.4591L75.2528 98.9688Z" fill="#111111"/>
<path d="M105.381 97.9649L92.0267 102.656L101.845 96.4911L105.381 97.9649Z" fill="#111111"/>
<path d="M18.3464 61.3113L32.4245 59.1196L41.6025 61.3113V98.7367L32.4245 101.974L18.3464 98.7367V61.3113Z" fill="#F6B51E" stroke="#111111" stroke-width="1.5"/>
<path d="M32.3615 101.126V59.3495L41.1018 61.3902L41.3328 98.238L32.3615 101.126Z" fill="#1FC16B" stroke="#111111" stroke-width="1.5"/>
<path d="M47.8457 29.1414L61.9238 25.1594L71.1018 29.1414V97.1381L61.9238 103.02L47.8457 97.1381V29.1414Z" fill="#01CBEA" stroke="#111111" stroke-width="1.5"/>
<path d="M62.0918 101.759V25.7916L70.8696 29.5025L71.1016 96.5076L62.0918 101.759Z" fill="#1FC16B" stroke="#111111" stroke-width="1.5"/>
<path d="M77.9197 29.8914L91.9977 26.0043L101.176 29.8914V96.2685L91.9977 102.01L77.9197 96.2685V29.8914Z" fill="#01CBEA" stroke="#111111" stroke-width="1.5"/>
<path d="M92.1671 100.78V26.6219L100.945 30.2444L101.177 95.6535L92.1671 100.78Z" fill="#1FC16B" stroke="#111111" stroke-width="1.5"/>
</svg>
