<svg fill="none" height="66" viewBox="0 0 43 66" width="43" xmlns="http://www.w3.org/2000/svg"><path d="m4.06965 8.52745c-2.93911 3.48135-2.31298 11.58205-1.15649 16.19085.44254 1.7636 5.11863 7.8505 10.72344 14.6937 2.7166-2.555 5.2385-5.092 7.7439-7.7854-5.2648-5.4189-9.067-10.2894-12.68503-15.7348-1.54238-2.3213-3.0513-4.7471-4.62582-7.36435z" fill="#01cbea"/><path d="m38.7642 9.08834-4.6259 7.53456c-4.7099 5.8983-8.7124 10.6549-12.7578 15.0037-2.5054 2.6934-5.0273 5.2304-7.7439 7.7854-3.80152 3.5754-7.98425 7.1861-13.036563 11.31l8.095433 13.8781c4.44643-4.502 9.17413-9.7366 13.57173-14.8726 2.8596-3.3397 5.5795-6.6377 7.9917-9.6655 5.3073-6.6616 9.1248-12.015 9.6618-13.6261 1.7122-10.5889 1.2629-14.0152-1.1565-17.34756z" fill="#01cbea"/><path d="m34.1383 16.6229 4.6259-7.53456-6.0887 5.78266c.5001.5469.9884 1.131 1.4628 1.7519z" fill="#111"/><path clip-rule="evenodd" d="m38.7642 9.08834c-12.1626-11.24366-23.7859-11.20162-34.69455-.56089l5.88743 5.76535c6.48832-7.45193 15.75842-7.03256 22.71842.5782z" fill="#1fc16b" fill-rule="evenodd"/><path d="m4.06965 8.52745c1.57452 2.61725 3.08344 5.04305 4.62582 7.36435.40711-.5682.82815-1.1012 1.26161-1.599z" fill="#111"/><path clip-rule="evenodd" d="m42.2338 50.1611-8.0954 13.2997s-5.4915-6.2339-11.8712-13.7333l10.7146-7.2793c2.7614 2.3865 5.8244 4.939 9.252 7.7129z" fill="#01cbea" fill-rule="evenodd"/><path d="m30.2589 40.062c-2.4122 3.0278-5.1321 6.3258-7.9917 9.6655l10.7146-7.2793c-.9419-.8139-1.8487-1.6086-2.7229-2.3862z" fill="#111"/><path d="m4.06965 8.52745c-2.93911 3.48135-2.31298 11.58205-1.15649 16.19085.44254 1.7636 5.11863 7.8505 10.72344 14.6937m-9.56695-30.88455c10.90865-10.64073 22.53195-10.68277 34.69455.56089m-34.69455-.56089c1.57451 2.61725 3.08344 5.04305 4.62582 7.36435m-4.62582-7.36435 5.88743 5.76535m28.80712-5.20446-4.6259 7.53456m4.6259-7.53456c2.4194 3.33236 2.8687 6.75866 1.1565 17.34756-.537 1.6111-4.3545 6.9645-9.6618 13.6261m8.5053-30.97366-6.0887 5.78266m1.4628 1.7519c-4.7099 5.8983-8.7124 10.6549-12.7578 15.0037m12.7578-15.0037c-.4744-.6209-.9627-1.205-1.4628-1.7519m-23.98003 1.0208c3.61803 5.4454 7.42023 10.3159 12.68503 15.7348m-12.68503-15.7348c.40711-.5682.82815-1.1012 1.26161-1.599m3.67952 25.1192c2.7166-2.555 5.2385-5.092 7.7439-7.7854m-7.7439 7.7854c-3.80152 3.5754-7.98425 7.1861-13.036563 11.31l8.095433 13.8781c4.44643-4.502 9.17413-9.7366 13.57173-14.8726m7.9917-9.6655c-2.4122 3.0278-5.1321 6.3258-7.9917 9.6655m7.9917-9.6655c.8742.7776 1.781 1.5723 2.7229 2.3862m-10.7146 7.2793c6.3797 7.4994 11.8712 13.7333 11.8712 13.7333l8.0954-13.2997c-3.4276-2.7739-6.4906-5.3264-9.252-7.7129m-10.7146 7.2793 10.7146-7.2793m-.3063-27.5772c-6.96-7.61076-16.2301-8.03013-22.71842-.5782" stroke="#111" stroke-linejoin="round" stroke-width="1.2"/></svg>