<svg width="124" height="124" viewBox="0 0 124 124" fill="none" xmlns="http://www.w3.org/2000/svg">
<path d="M59.688 64.9949L60.1802 65.1248L96.395 74.7166C91.66 90.5066 77.1652 102 60.0151 102C39.0201 102 22.0006 84.7764 22.0005 63.5301C22.0005 42.3941 38.8435 25.2422 59.688 25.0643V64.9949Z" fill="#01CBEA"/>
<path d="M59.688 64.9949H58.938V65.5727L59.4966 65.7201L59.688 64.9949ZM60.1802 65.1248L60.3722 64.3998L60.3715 64.3996L60.1802 65.1248ZM96.395 74.7166L97.1134 74.932L97.3359 74.19L96.587 73.9916L96.395 74.7166ZM60.0151 102L60.0151 102.75H60.0151V102ZM22.0005 63.5301H21.2505V63.5301L22.0005 63.5301ZM59.688 25.0643H60.438V24.3078L59.6816 24.3143L59.688 25.0643ZM59.688 64.9949L59.4966 65.7201L59.9888 65.85L60.1802 65.1248L60.3715 64.3996L59.8794 64.2698L59.688 64.9949ZM60.1802 65.1248L59.9882 65.8498L96.203 75.4416L96.395 74.7166L96.587 73.9916L60.3722 64.3998L60.1802 65.1248ZM96.395 74.7166L95.6766 74.5012C91.0326 89.9878 76.8197 101.25 60.0151 101.25V102V102.75C77.5107 102.75 92.2874 91.0255 97.1134 74.932L96.395 74.7166ZM60.0151 102L60.0151 101.25C39.4427 101.25 22.7506 84.3707 22.7505 63.5301L22.0005 63.5301L21.2505 63.5301C21.2506 85.1822 38.5975 102.75 60.0151 102.75L60.0151 102ZM22.0005 63.5301H22.7505C22.7505 42.7979 39.2695 25.9886 59.6944 25.8142L59.688 25.0643L59.6816 24.3143C38.4176 24.4958 21.2505 41.9903 21.2505 63.5301H22.0005ZM59.688 25.0643H58.938V64.9949H59.688H60.438V25.0643H59.688Z" fill="#111111"/>
<mask id="path-3-inside-1_176978_2866" fill="white">
<path d="M89.9417 87.9336C89.6893 88.1841 89.4342 88.4315 89.175 88.6748C89.4341 88.4315 89.6894 88.1841 89.9417 87.9336ZM91.7786 85.9785C93.1997 84.3561 94.4883 82.6123 95.6252 80.7627C94.4881 82.6123 93.1999 84.3562 91.7786 85.9785ZM63.3264 22C84.3216 22.0001 101.342 39.2242 101.342 60.4707C101.342 67.5954 99.4251 74.2661 96.0891 79.9883C97.6021 77.3926 98.8233 74.6013 99.7053 71.6611L63.4856 62.0674L62.9934 61.9375V22.0039C63.1043 22.0029 63.2153 22 63.3264 22ZM25.8879 53.7646C25.9137 53.6165 25.9416 53.4689 25.969 53.3213C25.9416 53.4689 25.9137 53.6165 25.8879 53.7646ZM31.6116 39.2568C31.1598 39.947 30.7276 40.6516 30.3196 41.3721C30.7275 40.6516 31.1598 39.9471 31.6116 39.2568ZM34.4973 35.3945C34.0839 35.8808 33.6826 36.3778 33.2932 36.8848C33.6825 36.3778 34.0839 35.8808 34.4973 35.3945ZM36.2883 33.4297C36.7055 33.0025 37.1331 32.5858 37.5696 32.1787C37.1331 32.5858 36.7055 33.0025 36.2883 33.4297ZM38.9612 30.9424C39.1901 30.7487 39.4211 30.5574 39.6545 30.3691C39.4211 30.5574 39.1901 30.7487 38.9612 30.9424ZM41.9114 28.6816C41.1646 29.1978 40.437 29.7403 39.7297 30.3076C40.437 29.7402 41.1646 29.1978 41.9114 28.6816ZM45.7883 26.332C44.724 26.893 43.689 27.5032 42.6868 28.1602C43.689 27.5031 44.724 26.8931 45.7883 26.332ZM48.3225 25.1143C47.4778 25.4818 46.6489 25.8793 45.8372 26.3057C46.6489 25.8792 47.4778 25.4818 48.3225 25.1143ZM61.0393 22.0703C56.8745 22.3204 52.8901 23.2497 49.1926 24.749C52.8903 23.2493 56.8742 22.3205 61.0393 22.0703ZM62.9485 22.0039C62.3138 22.0102 61.6828 22.032 61.0559 22.0693C61.6828 22.032 62.3138 22.0102 62.9485 22.0039ZM90.5315 87.335C90.3934 87.4781 90.2557 87.6217 90.1155 87.7627C90.2557 87.6217 90.3934 87.4782 90.5315 87.335ZM25.7454 54.6426C25.7895 54.3488 25.8373 54.0562 25.8879 53.7646C25.8373 54.0562 25.7895 54.3488 25.7454 54.6426ZM27.2942 48.1748C27.3436 48.0263 27.3963 47.8791 27.4475 47.7314C27.3963 47.8791 27.3436 48.0263 27.2942 48.1748ZM27.9348 46.3994C28.0034 46.223 28.0757 46.0482 28.1467 45.873C28.0757 46.0482 28.0034 46.223 27.9348 46.3994ZM32.804 37.5342C32.9645 37.3157 33.1282 37.0996 33.2932 36.8848C33.1282 37.0996 32.9645 37.3157 32.804 37.5342ZM35.7317 34.0117C35.9152 33.8157 36.1008 33.6217 36.2883 33.4297C36.1008 33.6217 35.9152 33.8158 35.7317 34.0117ZM38.3616 31.459C38.5594 31.2845 38.7597 31.1128 38.9612 30.9424C38.7597 31.1128 38.5594 31.2845 38.3616 31.459Z"/>
</mask>
<path d="M89.9417 87.9336C89.6893 88.1841 89.4342 88.4315 89.175 88.6748C89.4341 88.4315 89.6894 88.1841 89.9417 87.9336ZM91.7786 85.9785C93.1997 84.3561 94.4883 82.6123 95.6252 80.7627C94.4881 82.6123 93.1999 84.3562 91.7786 85.9785ZM63.3264 22C84.3216 22.0001 101.342 39.2242 101.342 60.4707C101.342 67.5954 99.4251 74.2661 96.0891 79.9883C97.6021 77.3926 98.8233 74.6013 99.7053 71.6611L63.4856 62.0674L62.9934 61.9375V22.0039C63.1043 22.0029 63.2153 22 63.3264 22ZM25.8879 53.7646C25.9137 53.6165 25.9416 53.4689 25.969 53.3213C25.9416 53.4689 25.9137 53.6165 25.8879 53.7646ZM31.6116 39.2568C31.1598 39.947 30.7276 40.6516 30.3196 41.3721C30.7275 40.6516 31.1598 39.9471 31.6116 39.2568ZM34.4973 35.3945C34.0839 35.8808 33.6826 36.3778 33.2932 36.8848C33.6825 36.3778 34.0839 35.8808 34.4973 35.3945ZM36.2883 33.4297C36.7055 33.0025 37.1331 32.5858 37.5696 32.1787C37.1331 32.5858 36.7055 33.0025 36.2883 33.4297ZM38.9612 30.9424C39.1901 30.7487 39.4211 30.5574 39.6545 30.3691C39.4211 30.5574 39.1901 30.7487 38.9612 30.9424ZM41.9114 28.6816C41.1646 29.1978 40.437 29.7403 39.7297 30.3076C40.437 29.7402 41.1646 29.1978 41.9114 28.6816ZM45.7883 26.332C44.724 26.893 43.689 27.5032 42.6868 28.1602C43.689 27.5031 44.724 26.8931 45.7883 26.332ZM48.3225 25.1143C47.4778 25.4818 46.6489 25.8793 45.8372 26.3057C46.6489 25.8792 47.4778 25.4818 48.3225 25.1143ZM61.0393 22.0703C56.8745 22.3204 52.8901 23.2497 49.1926 24.749C52.8903 23.2493 56.8742 22.3205 61.0393 22.0703ZM62.9485 22.0039C62.3138 22.0102 61.6828 22.032 61.0559 22.0693C61.6828 22.032 62.3138 22.0102 62.9485 22.0039ZM90.5315 87.335C90.3934 87.4781 90.2557 87.6217 90.1155 87.7627C90.2557 87.6217 90.3934 87.4782 90.5315 87.335ZM25.7454 54.6426C25.7895 54.3488 25.8373 54.0562 25.8879 53.7646C25.8373 54.0562 25.7895 54.3488 25.7454 54.6426ZM27.2942 48.1748C27.3436 48.0263 27.3963 47.8791 27.4475 47.7314C27.3963 47.8791 27.3436 48.0263 27.2942 48.1748ZM27.9348 46.3994C28.0034 46.223 28.0757 46.0482 28.1467 45.873C28.0757 46.0482 28.0034 46.223 27.9348 46.3994ZM32.804 37.5342C32.9645 37.3157 33.1282 37.0996 33.2932 36.8848C33.1282 37.0996 32.9645 37.3157 32.804 37.5342ZM35.7317 34.0117C35.9152 33.8157 36.1008 33.6217 36.2883 33.4297C36.1008 33.6217 35.9152 33.8158 35.7317 34.0117ZM38.3616 31.459C38.5594 31.2845 38.7597 31.1128 38.9612 30.9424C38.7597 31.1128 38.5594 31.2845 38.3616 31.459Z" fill="#F6B51E"/>
<path d="M89.9417 87.9336L90.9985 88.9981L88.885 86.869L89.9417 87.9336ZM89.175 88.6748L88.1482 87.5814L90.2018 89.7683L89.175 88.6748ZM91.7786 85.9785L90.6502 84.9902L92.9068 86.967L91.7786 85.9785ZM95.6252 80.7627L96.9031 81.5482L94.3474 79.9771L95.6252 80.7627ZM63.3264 22L63.3264 20.5H63.3264L63.3264 22ZM101.342 60.4707L102.842 60.4707V60.4707H101.342ZM96.0891 79.9883L94.7932 79.2329L97.385 80.7438L96.0891 79.9883ZM99.7053 71.6611L101.142 72.0922L101.587 70.6079L100.089 70.2111L99.7053 71.6611ZM63.4856 62.0674L63.8697 60.6174L63.8683 60.617L63.4856 62.0674ZM62.9934 61.9375H61.4934V63.093L62.6107 63.3879L62.9934 61.9375ZM62.9934 22.0039L62.9804 20.504L61.4934 20.5169V22.0039H62.9934ZM25.969 53.3213L27.4438 53.5952L24.4942 53.0474L25.969 53.3213ZM31.6116 39.2568L32.8667 40.0782L30.3565 38.4354L31.6116 39.2568ZM30.3196 41.3721L29.0143 40.633L31.6248 42.1112L30.3196 41.3721ZM34.4973 35.3945L35.6402 36.3661L33.3545 34.4229L34.4973 35.3945ZM37.5696 32.1787L38.5928 33.2756L36.5465 31.0818L37.5696 32.1787ZM39.6545 30.3691L40.5962 31.5368L38.713 29.2014L39.6545 30.3691ZM41.9114 28.6816L42.7643 29.9155L41.0585 27.4477L41.9114 28.6816ZM39.7297 30.3076L38.7911 29.1376L40.6683 31.4777L39.7297 30.3076ZM45.7883 26.332L46.4879 27.6589L45.0889 25.0051L45.7883 26.332ZM42.6868 28.1602L41.8644 26.9057L43.509 29.4147L42.6868 28.1602ZM48.3225 25.1143L48.9211 26.4897L47.7241 23.7388L48.3225 25.1143ZM45.8372 26.3057L45.1396 24.9777L46.5347 27.6336L45.8372 26.3057ZM61.0393 22.0703L61.1292 23.5676L60.9494 20.573L61.0393 22.0703ZM49.1926 24.749L48.6289 23.359L49.7563 26.1391L49.1926 24.749ZM61.0559 22.0693L60.9666 20.572L61.1452 23.5667L61.0559 22.0693ZM90.5315 87.335L91.6113 88.3761L89.4518 86.2937L90.5315 87.335ZM90.1155 87.7627L89.0519 86.7049L91.1789 88.8206L90.1155 87.7627ZM25.7454 54.6426L24.262 54.4198L27.2287 54.8654L25.7454 54.6426ZM27.2942 48.1748L25.8711 47.7008L28.7173 48.6489L27.2942 48.1748ZM27.4475 47.7314L28.8648 48.2228L26.0303 47.2401L27.4475 47.7314ZM27.9348 46.3994L26.5366 45.8562L29.333 46.9427L27.9348 46.3994ZM28.1467 45.873L29.5367 46.4368L26.7567 45.3092L28.1467 45.873ZM32.804 37.5342L31.5953 36.6459L34.0126 38.4226L32.804 37.5342ZM35.7317 34.0117L34.6369 32.9864L36.8264 35.0372L35.7317 34.0117ZM38.3616 31.459L37.3694 30.334L39.3537 32.584L38.3616 31.459ZM89.9417 87.9336L88.885 86.869C88.6408 87.1114 88.3957 87.349 88.1483 87.5813L89.175 88.6748L90.2018 89.7683C90.4726 89.514 90.7379 89.2568 90.9983 88.9982L89.9417 87.9336ZM89.175 88.6748L90.2019 89.7682C90.4725 89.5141 90.7378 89.2569 90.9985 88.9981L89.9417 87.9336L88.8848 86.8691C88.6409 87.1112 88.3958 87.3489 88.1482 87.5814L89.175 88.6748ZM91.7786 85.9785L92.9069 86.9669C94.3829 85.2818 95.7217 83.4702 96.9031 81.5482L95.6252 80.7627L94.3474 79.9772C93.255 81.7544 92.0165 83.4304 90.6502 84.9902L91.7786 85.9785ZM95.6252 80.7627L94.3474 79.9771C93.2547 81.7545 92.0166 83.4305 90.6503 84.99L91.7786 85.9785L92.9068 86.967C94.3832 85.2818 95.7215 83.4701 96.9031 81.5483L95.6252 80.7627ZM63.3264 22L63.3264 23.5C83.4764 23.5001 99.842 40.0358 99.842 60.4707H101.342H102.842C102.842 38.4127 85.1668 20.5001 63.3264 20.5L63.3264 22ZM101.342 60.4707L99.842 60.4707C99.842 67.3231 97.999 73.734 94.7933 79.2328L96.0891 79.9883L97.385 80.7438C100.851 74.7983 102.842 67.8677 102.842 60.4707L101.342 60.4707ZM96.0891 79.9883L97.385 80.7437C98.9568 78.0471 100.226 75.1471 101.142 72.0922L99.7053 71.6611L98.2686 71.2301C97.421 74.0555 96.2474 76.738 94.7932 79.2329L96.0891 79.9883ZM99.7053 71.6611L100.089 70.2111L63.8697 60.6174L63.4856 62.0674L63.1015 63.5174L99.3213 73.1111L99.7053 71.6611ZM63.4856 62.0674L63.8683 60.617L63.3761 60.4871L62.9934 61.9375L62.6107 63.3879L63.1029 63.5177L63.4856 62.0674ZM62.9934 61.9375H64.4934V22.0039H62.9934H61.4934V61.9375H62.9934ZM62.9934 22.0039L63.0064 23.5038C63.1633 23.5025 63.2136 23.5 63.3264 23.5L63.3264 22L63.3264 20.5C63.2171 20.5 63.0452 20.5034 62.9804 20.504L62.9934 22.0039ZM25.8879 53.7646L27.3658 54.0214C27.3896 53.8844 27.4151 53.7494 27.4438 53.5952L25.969 53.3213L24.4942 53.0474C24.468 53.1884 24.4378 53.3486 24.4101 53.5079L25.8879 53.7646ZM25.969 53.3213L24.4942 53.0474C24.468 53.1884 24.4378 53.3486 24.4101 53.5079L25.8879 53.7646L27.3658 54.0214C27.3896 53.8844 27.4151 53.7493 27.4438 53.5952L25.969 53.3213ZM31.6116 39.2568L30.3565 38.4354C29.8887 39.1501 29.4395 39.8821 29.0143 40.6329L30.3196 41.3721L31.6248 42.1112C32.0156 41.4211 32.4309 40.744 32.8666 40.0783L31.6116 39.2568ZM30.3196 41.3721L31.6249 42.1111C32.0155 41.4212 32.4309 40.7441 32.8667 40.0782L31.6116 39.2568L30.3565 38.4354C29.8888 39.15 29.4395 39.882 29.0143 40.633L30.3196 41.3721ZM34.4973 35.3945L33.3545 34.4229C32.9247 34.9285 32.5077 35.4449 32.1036 35.9711L33.2932 36.8848L34.4828 37.7984C34.8574 37.3108 35.2431 36.8331 35.6401 36.3662L34.4973 35.3945ZM33.2932 36.8848L34.4829 37.7984C34.8573 37.3108 35.2431 36.8332 35.6402 36.3661L34.4973 35.3945L33.3545 34.423C32.9248 34.9285 32.5078 35.4448 32.1035 35.9712L33.2932 36.8848ZM36.2883 33.4297L37.3615 34.4777C37.7614 34.0683 38.1722 33.6679 38.5928 33.2756L37.5696 32.1787L36.5464 31.0819C36.094 31.5038 35.6497 31.9367 35.2152 32.3816L36.2883 33.4297ZM37.5696 32.1787L36.5465 31.0818C36.0939 31.5039 35.6496 31.9369 35.2153 32.3816L36.2883 33.4297L37.3614 34.4778C37.7614 34.0682 38.1723 33.6677 38.5927 33.2756L37.5696 32.1787ZM38.9612 30.9424L39.93 32.0876C40.151 31.9006 40.3728 31.7169 40.5962 31.5368L39.6545 30.3691L38.7129 29.2015C38.4693 29.398 38.2293 29.5968 37.9924 29.7972L38.9612 30.9424ZM39.6545 30.3691L38.713 29.2014C38.4692 29.398 38.2292 29.5969 37.9925 29.7971L38.9612 30.9424L39.9299 32.0876C40.1511 31.9005 40.3729 31.7168 40.5961 31.5368L39.6545 30.3691ZM41.9114 28.6816L41.0585 27.4477C40.2822 27.9842 39.526 28.5481 38.7912 29.1375L39.7297 30.3076L40.6683 31.4777C41.348 30.9325 42.047 30.4113 42.7642 29.9156L41.9114 28.6816ZM39.7297 30.3076L40.6684 31.4776C41.3479 30.9325 42.0469 30.4114 42.7643 29.9155L41.9114 28.6816L41.0584 27.4477C40.2823 27.9843 39.5261 28.5479 38.7911 29.1376L39.7297 30.3076ZM45.7883 26.332L45.0889 25.0051C43.9825 25.5883 42.9066 26.2226 41.8645 26.9056L42.6868 28.1602L43.509 29.4147C44.4715 28.7838 45.4655 28.1978 46.4878 27.659L45.7883 26.332ZM42.6868 28.1602L43.5091 29.4146C44.4714 28.7838 45.4654 28.198 46.4879 27.6589L45.7883 26.332L45.0888 25.0051C43.9826 25.5883 42.9067 26.2224 41.8644 26.9057L42.6868 28.1602ZM48.3225 25.1143L47.7241 23.7388C46.8457 24.121 45.9838 24.5343 45.1397 24.9777L45.8372 26.3057L46.5347 27.6336C47.314 27.2243 48.11 26.8426 48.921 26.4897L48.3225 25.1143ZM45.8372 26.3057L46.5348 27.6336C47.314 27.2242 48.1098 26.8427 48.9211 26.4897L48.3225 25.1143L47.724 23.7389C46.8458 24.121 45.9839 24.5342 45.1396 24.9777L45.8372 26.3057ZM61.0393 22.0703L60.9494 20.573C56.6189 20.8331 52.4747 21.7995 48.6289 23.359L49.1926 24.749L49.7563 26.1391C53.3055 24.6999 57.13 23.8078 61.1292 23.5676L61.0393 22.0703ZM49.1926 24.749L49.7564 26.139C53.3056 24.6995 57.1297 23.8078 61.1292 23.5676L61.0393 22.0703L60.9494 20.573C56.6187 20.8331 52.4749 21.7991 48.6289 23.359L49.1926 24.749ZM62.9485 22.0039L62.9337 20.504C62.2745 20.5105 61.6186 20.5331 60.9667 20.572L61.0559 22.0693L61.1452 23.5667C61.747 23.5308 62.3531 23.5099 62.9633 23.5038L62.9485 22.0039ZM61.0559 22.0693L61.1452 23.5667C61.747 23.5308 62.3531 23.5099 62.9633 23.5038L62.9485 22.0039L62.9337 20.504C62.2744 20.5105 61.6187 20.5331 60.9666 20.572L61.0559 22.0693ZM90.5315 87.335L89.4518 86.2937C89.3092 86.4415 89.1819 86.5742 89.0521 86.7048L90.1155 87.7627L91.1789 88.8206C91.3296 88.6692 91.4776 88.5148 91.6112 88.3762L90.5315 87.335ZM90.1155 87.7627L91.179 88.8205C91.3296 88.6691 91.4773 88.5151 91.6113 88.3761L90.5315 87.335L89.4517 86.2938C89.3095 86.4413 89.1819 86.5743 89.0519 86.7049L90.1155 87.7627ZM25.7454 54.6426L27.2287 54.8653C27.2709 54.5843 27.3169 54.3031 27.3658 54.0214L25.8879 53.7646L24.4101 53.5079C24.3577 53.8093 24.308 54.1133 24.262 54.4198L25.7454 54.6426ZM25.8879 53.7646L24.4101 53.5079C24.3577 53.8093 24.308 54.1133 24.262 54.4198L25.7454 54.6426L27.2287 54.8654C27.2709 54.5843 27.3169 54.3031 27.3658 54.0214L25.8879 53.7646ZM27.2942 48.1748L28.7173 48.6488C28.7631 48.5114 28.8069 48.3896 28.8648 48.2228L27.4475 47.7314L26.0303 47.2401C25.9857 47.3686 25.9242 47.5413 25.8711 47.7008L27.2942 48.1748ZM27.4475 47.7314L26.0303 47.2401C25.9857 47.3687 25.9242 47.5412 25.8711 47.7007L27.2942 48.1748L28.7173 48.6489C28.7631 48.5114 28.807 48.3895 28.8647 48.2228L27.4475 47.7314ZM27.9348 46.3994L29.333 46.9426C29.3962 46.78 29.4604 46.625 29.5367 46.4368L28.1467 45.873L26.7567 45.3093C26.6909 45.4714 26.6105 45.666 26.5366 45.8562L27.9348 46.3994ZM28.1467 45.873L26.7567 45.3092C26.6909 45.4716 26.6106 45.666 26.5367 45.8561L27.9348 46.3994L29.333 46.9427C29.3962 46.78 29.4605 46.6248 29.5367 46.4369L28.1467 45.873ZM32.804 37.5342L34.0126 38.4225C34.1648 38.2154 34.3217 38.0083 34.4829 37.7984L33.2932 36.8848L32.1035 35.9712C31.9347 36.191 31.7642 36.416 31.5953 36.6459L32.804 37.5342ZM33.2932 36.8848L32.1036 35.9711C31.9346 36.1911 31.7642 36.4161 31.5953 36.6458L32.804 37.5342L34.0126 38.4226C34.1649 38.2154 34.3217 38.0082 34.4828 37.7984L33.2932 36.8848ZM35.7317 34.0117L36.8265 35.0371C37.0029 34.8487 37.1812 34.6623 37.3615 34.4777L36.2883 33.4297L35.2152 32.3816C35.0203 32.5812 34.8276 32.7828 34.6369 32.9864L35.7317 34.0117ZM36.2883 33.4297L35.2153 32.3816C35.0202 32.5812 34.8275 32.7829 34.6369 32.9863L35.7317 34.0117L36.8264 35.0372C37.003 34.8487 37.1813 34.6622 37.3614 34.4778L36.2883 33.4297ZM38.3616 31.459L39.3538 32.5839C39.5413 32.4186 39.7332 32.2541 39.93 32.0876L38.9612 30.9424L37.9924 29.7972C37.7863 29.9715 37.5776 30.1504 37.3694 30.334L38.3616 31.459ZM38.9612 30.9424L37.9925 29.7971C37.7862 29.9716 37.5776 30.1504 37.3694 30.334L38.3616 31.459L39.3537 32.584C39.5413 32.4185 39.7333 32.2539 39.9299 32.0876L38.9612 30.9424Z" fill="#111111" mask="url(#path-3-inside-1_176978_2866)"/>
</svg>
