<svg width="124" height="124" viewBox="0 0 124 124" fill="none" xmlns="http://www.w3.org/2000/svg">
<rect x="26.8164" y="30.1604" width="66.3623" height="73.8397" fill="#01CBEA" stroke="#111111" stroke-width="1.5"/>
<rect x="32.5193" y="49.4086" width="54.8657" height="51.0335" stroke="#111111" stroke-width="1.5"/>
<rect x="32.5193" y="49.4086" width="9.2066" height="51.0335" stroke="#111111" stroke-width="1.5"/>
<rect x="41.6818" y="49.4086" width="9.2066" height="51.0335" stroke="#111111" stroke-width="1.5"/>
<rect x="50.7489" y="49.4086" width="9.2066" height="51.0335" stroke="#111111" stroke-width="1.5"/>
<rect x="59.9032" y="49.4086" width="9.2066" height="51.0335" stroke="#111111" stroke-width="1.5"/>
<rect x="68.9744" y="49.4086" width="9.2066" height="51.0335" stroke="#111111" stroke-width="1.5"/>
<rect x="78.1348" y="49.4086" width="9.2066" height="51.0335" stroke="#111111" stroke-width="1.5"/>
<rect x="26.8164" y="30.1604" width="66.3623" height="14.4875" fill="#1FC16B" stroke="#111111" stroke-width="1.5"/>
<path d="M26.8164 44.6468H93.1787V92.0351C64.192 81.5403 47.2542 77.2878 26.8164 46.4694V44.6468Z" fill="#F6B51E" stroke="#111111" stroke-width="1.5"/>
<rect x="36.2523" y="21" width="5.70155" height="17.572" rx="2.85077" fill="#01CBEA" stroke="#111111" stroke-width="1.5"/>
<rect x="50.1835" y="21.6485" width="5.70155" height="17.572" rx="2.85077" fill="#01CBEA" stroke="#111111" stroke-width="1.5"/>
<rect x="64.1105" y="21.6485" width="5.70155" height="17.572" rx="2.85077" fill="#01CBEA" stroke="#111111" stroke-width="1.5"/>
<rect x="78.0354" y="21.6485" width="5.70155" height="17.572" rx="2.85077" fill="#01CBEA" stroke="#111111" stroke-width="1.5"/>
<path d="M73.131 53.5255C71.1885 65.3319 62.6946 71.9242 48.9695 71.2376C64.5053 81.8722 73.7662 89.3767 92.3854 90.9127C103.994 89.3127 108.371 87.3574 112.855 82.2201C93.881 71.2376 87.9649 64.9939 73.131 53.5255Z" fill="#1A7544" stroke="#111111" stroke-width="1.5"/>
<path d="M92.5746 100.424L84.6279 88.9495L92.575 91.7266L92.5746 100.424Z" fill="#111111"/>
<path d="M47.704 30.5353L41.7688 37.1716L42.4231 30.8157L47.704 30.5353Z" fill="#111111"/>
<path d="M42.4231 30.5353V30.8157M42.4231 30.8157L41.7688 37.1716L47.704 30.5353L42.4231 30.8157Z" stroke="#111111" stroke-width="1.5"/>
<path d="M61.8216 30.1604L55.8864 36.7966L56.5406 30.4408L61.8216 30.1604Z" fill="#111111"/>
<path d="M56.5406 30.1604V30.4408M56.5406 30.4408L55.8864 36.7966L61.8216 30.1604L56.5406 30.4408Z" stroke="#111111" stroke-width="1.5"/>
<path d="M75.7506 30.1604L69.8154 36.7966L70.4697 30.4408L75.7506 30.1604Z" fill="#111111"/>
<path d="M70.4697 30.1604V30.4408M70.4697 30.4408L69.8154 36.7966L75.7506 30.1604L70.4697 30.4408Z" stroke="#111111" stroke-width="1.5"/>
<path d="M89.6736 30.1604L83.7384 36.7966L84.3927 30.4408L89.6736 30.1604Z" fill="#111111"/>
<path d="M84.3927 30.1604V30.4408M84.3927 30.4408L83.7384 36.7966L89.6736 30.1604L84.3927 30.4408Z" stroke="#111111" stroke-width="1.5"/>
</svg>
