<svg fill="none" height="53" viewBox="0 0 74 53" width="74" xmlns="http://www.w3.org/2000/svg"><path d="m55.2418 15.8098h-51.29759c-1.84696 0-3.344204 1.4973-3.344204 3.3442v29.7395c0 1.8469 1.497254 3.3442 3.344204 3.3442h51.29759c1.847 0 3.3442-1.4973 3.3442-3.3442v-29.7395c0-1.8469-1.4972-3.3442-3.3442-3.3442z" fill="#111"/><path d="m55.2418 15.8098h-51.29759c-1.84696 0-3.344204 1.4973-3.344204 3.3442v29.7395c0 1.8469 1.497254 3.3442 3.344204 3.3442h51.29759c1.847 0 3.3442-1.4973 3.3442-3.3442v-29.7395c0-1.8469-1.4972-3.3442-3.3442-3.3442z" stroke="#111" stroke-width="1.2"/><path d="m55.2418 15.8098h-51.29759c-1.84696 0-3.344204 1.4973-3.344204 3.3442v29.7395c0 1.8469 1.497254 3.3442 3.344204 3.3442h51.29759c1.847 0 3.3442-1.4973 3.3442-3.3442v-29.7395c0-1.8469-1.4972-3.3442-3.3442-3.3442z" stroke="#111" stroke-width="1.2"/><path d="m55.2418 15.8098h-51.29759c-1.84696 0-3.344204 1.4973-3.344204 3.3442v29.7395c0 1.8469 1.497254 3.3442 3.344204 3.3442h51.29759c1.847 0 3.3442-1.4973 3.3442-3.3442v-29.7395c0-1.8469-1.4972-3.3442-3.3442-3.3442z" stroke="#111" stroke-width="1.2"/><path d="m58.8244 15.8098h-51.29764c-1.84696 0-3.3442 1.4973-3.3442 3.3442v29.7395c0 1.8469 1.49725 3.3442 3.3442 3.3442h51.29764c1.8469 0 3.3442-1.4973 3.3442-3.3442v-29.7395c0-1.8469-1.4973-3.3442-3.3442-3.3442z" fill="#01cbea"/><path d="m58.8244 15.8098h-51.29764c-1.84696 0-3.3442 1.4973-3.3442 3.3442v29.7395c0 1.8469 1.49725 3.3442 3.3442 3.3442h51.29764c1.8469 0 3.3442-1.4973 3.3442-3.3442v-29.7395c0-1.8469-1.4973-3.3442-3.3442-3.3442z" stroke="#111" stroke-width="1.2"/><path d="m58.8244 15.8098h-51.29764c-1.84696 0-3.3442 1.4973-3.3442 3.3442v29.7395c0 1.8469 1.49725 3.3442 3.3442 3.3442h51.29764c1.8469 0 3.3442-1.4973 3.3442-3.3442v-29.7395c0-1.8469-1.4973-3.3442-3.3442-3.3442z" stroke="#111" stroke-width="1.2"/><path d="m58.8244 15.8098h-51.29764c-1.84696 0-3.3442 1.4973-3.3442 3.3442v29.7395c0 1.8469 1.49725 3.3442 3.3442 3.3442h51.29764c1.8469 0 3.3442-1.4973 3.3442-3.3442v-29.7395c0-1.8469-1.4973-3.3442-3.3442-3.3442z" stroke="#111" stroke-width="1.2"/><path d="m62.4086 15.8098h-51.2976c-1.84697 0-3.34422 1.4973-3.34422 3.3442v29.7395c0 1.8469 1.49726 3.3442 3.34422 3.3442h51.2976c1.8469 0 3.3442-1.4973 3.3442-3.3442v-29.7395c0-1.8469-1.4973-3.3442-3.3442-3.3442z" fill="#f6b51e"/><path d="m62.4086 15.8098h-51.2976c-1.84697 0-3.34422 1.4973-3.34422 3.3442v29.7395c0 1.8469 1.49726 3.3442 3.34422 3.3442h51.2976c1.8469 0 3.3442-1.4973 3.3442-3.3442v-29.7395c0-1.8469-1.4973-3.3442-3.3442-3.3442z" stroke="#111" stroke-width="1.2"/><path d="m62.4086 15.8098h-51.2976c-1.84697 0-3.34422 1.4973-3.34422 3.3442v29.7395c0 1.8469 1.49726 3.3442 3.34422 3.3442h51.2976c1.8469 0 3.3442-1.4973 3.3442-3.3442v-29.7395c0-1.8469-1.4973-3.3442-3.3442-3.3442z" stroke="#111" stroke-width="1.2"/><path d="m62.4086 15.8098h-51.2976c-1.84697 0-3.34422 1.4973-3.34422 3.3442v29.7395c0 1.8469 1.49726 3.3442 3.34422 3.3442h51.2976c1.8469 0 3.3442-1.4973 3.3442-3.3442v-29.7395c0-1.8469-1.4973-3.3442-3.3442-3.3442z" stroke="#111" stroke-width="1.2"/><path d="m69.8092 18.7527-44.4545-17.52613c-1.7182-.677418-3.6603.16634-4.3377 1.88457l-10.0982 25.61376c-.6774 1.7183.1663 3.6603 1.8846 4.3377l44.4544 17.5262c1.7183.6774 3.6603-.1663 4.3378-1.8846l10.0982-25.6138c.6774-1.7182-.1664-3.6603-1.8846-4.3377z" fill="#1fc16b"/><path d="m69.8092 18.7527-44.4545-17.52613c-1.7182-.677418-3.6603.16634-4.3377 1.88457l-10.0982 25.61376c-.6774 1.7183.1663 3.6603 1.8846 4.3377l44.4544 17.5262c1.7183.6774 3.6603-.1663 4.3378-1.8846l10.0982-25.6138c.6774-1.7182-.1664-3.6603-1.8846-4.3377z" stroke="#111" stroke-width="1.2"/><path d="m69.8092 18.7527-44.4545-17.52613c-1.7182-.677418-3.6603.16634-4.3377 1.88457l-10.0982 25.61376c-.6774 1.7183.1663 3.6603 1.8846 4.3377l44.4544 17.5262c1.7183.6774 3.6603-.1663 4.3378-1.8846l10.0982-25.6138c.6774-1.7182-.1664-3.6603-1.8846-4.3377z" stroke="#111" stroke-width="1.2"/><path d="m69.8092 18.7527-44.4545-17.52613c-1.7182-.677418-3.6603.16634-4.3377 1.88457l-10.0982 25.61376c-.6774 1.7183.1663 3.6603 1.8846 4.3377l44.4544 17.5262c1.7183.6774 3.6603-.1663 4.3378-1.8846l10.0982-25.6138c.6774-1.7182-.1664-3.6603-1.8846-4.3377z" stroke="#111" stroke-width="1.2"/><path d="m69.5754 15.8098h-51.2976c-1.847 0-3.3442 1.4973-3.3442 3.3442v29.7395c0 1.8469 1.4972 3.3442 3.3442 3.3442h51.2976c1.8469 0 3.3442-1.4973 3.3442-3.3442v-29.7395c0-1.8469-1.4973-3.3442-3.3442-3.3442z" fill="#01cbea"/><path d="m69.5754 15.8098h-51.2976c-1.847 0-3.3442 1.4973-3.3442 3.3442v29.7395c0 1.8469 1.4972 3.3442 3.3442 3.3442h51.2976c1.8469 0 3.3442-1.4973 3.3442-3.3442v-29.7395c0-1.8469-1.4973-3.3442-3.3442-3.3442z" stroke="#111" stroke-width="1.2"/><path d="m69.5754 15.8098h-51.2976c-1.847 0-3.3442 1.4973-3.3442 3.3442v29.7395c0 1.8469 1.4972 3.3442 3.3442 3.3442h51.2976c1.8469 0 3.3442-1.4973 3.3442-3.3442v-29.7395c0-1.8469-1.4973-3.3442-3.3442-3.3442z" stroke="#111" stroke-width="1.2"/><path d="m69.5754 15.8098h-51.2976c-1.847 0-3.3442 1.4973-3.3442 3.3442v29.7395c0 1.8469 1.4972 3.3442 3.3442 3.3442h51.2976c1.8469 0 3.3442-1.4973 3.3442-3.3442v-29.7395c0-1.8469-1.4973-3.3442-3.3442-3.3442z" stroke="#111" stroke-width="1.2"/><g fill="#111"><rect height="8.30078" rx="4.15039" width="11.0478" x="18.8127" y="25.7214"/><rect height="2.03041" rx="1.0152" width="43.2357" x="18.8127" y="37.0068"/><rect height="2.03041" rx="1.0152" width="10.3312" x="18.8127" y="20.7051"/><rect height="2.09012" rx="1.04506" width="9.49514" x="18.8127" y="47.5203"/><rect height="5.0163" rx="1.43323" width="9.49514" x="59.5402" y="44.593"/><path d="m13.4187 51.8156 1.2197-18.1183c.3486 8.4585 1.3686 18.1183 1.3686 18.1183z"/><path d="m6.13728 51.7868.91502-18.1183c.34855 8.4452 1.67332 18.1183 1.67332 18.1183z"/></g></svg>