<svg width="124" height="124" viewBox="0 0 124 124" fill="none" xmlns="http://www.w3.org/2000/svg">
<path d="M86.6475 48.3087H17.5073C15.0179 48.3087 12.9999 50.3268 12.9999 52.8161V92.8998C12.9999 95.3891 15.0179 97.4072 17.5073 97.4072H86.6475C89.1369 97.4072 91.1549 95.3891 91.1549 92.8998V52.8161C91.1549 50.3267 89.1369 48.3087 86.6475 48.3087Z" fill="#111111"/>
<path d="M86.6475 48.3087H17.5073C15.0179 48.3087 12.9999 50.3268 12.9999 52.8161V92.8998C12.9999 95.3891 15.0179 97.4072 17.5073 97.4072H86.6475C89.1369 97.4072 91.1549 95.3891 91.1549 92.8998V52.8161C91.1549 50.3267 89.1369 48.3087 86.6475 48.3087Z" stroke="#111111" stroke-width="1.5"/>
<path d="M86.6475 48.3087H17.5073C15.0179 48.3087 12.9999 50.3268 12.9999 52.8161V92.8998C12.9999 95.3891 15.0179 97.4072 17.5073 97.4072H86.6475C89.1369 97.4072 91.1549 95.3891 91.1549 92.8998V52.8161C91.1549 50.3267 89.1369 48.3087 86.6475 48.3087Z" stroke="#111111" stroke-width="1.5"/>
<path d="M86.6475 48.3087H17.5073C15.0179 48.3087 12.9999 50.3268 12.9999 52.8161V92.8998C12.9999 95.3891 15.0179 97.4072 17.5073 97.4072H86.6475C89.1369 97.4072 91.1549 95.3891 91.1549 92.8998V52.8161C91.1549 50.3267 89.1369 48.3087 86.6475 48.3087Z" stroke="#111111" stroke-width="1.5"/>
<path d="M91.4761 48.3087H22.3359C19.8465 48.3087 17.8285 50.3268 17.8285 52.8161V92.8998C17.8285 95.3891 19.8465 97.4072 22.3359 97.4072H91.4761C93.9655 97.4072 95.9835 95.3891 95.9835 92.8998V52.8161C95.9835 50.3267 93.9655 48.3087 91.4761 48.3087Z" fill="#01CBEA"/>
<path d="M91.4761 48.3087H22.3359C19.8465 48.3087 17.8285 50.3268 17.8285 52.8161V92.8998C17.8285 95.3891 19.8465 97.4072 22.3359 97.4072H91.4761C93.9655 97.4072 95.9835 95.3891 95.9835 92.8998V52.8161C95.9835 50.3267 93.9655 48.3087 91.4761 48.3087Z" stroke="#111111" stroke-width="1.5"/>
<path d="M91.4761 48.3087H22.3359C19.8465 48.3087 17.8285 50.3268 17.8285 52.8161V92.8998C17.8285 95.3891 19.8465 97.4072 22.3359 97.4072H91.4761C93.9655 97.4072 95.9835 95.3891 95.9835 92.8998V52.8161C95.9835 50.3267 93.9655 48.3087 91.4761 48.3087Z" stroke="#111111" stroke-width="1.5"/>
<path d="M91.4761 48.3087H22.3359C19.8465 48.3087 17.8285 50.3268 17.8285 52.8161V92.8998C17.8285 95.3891 19.8465 97.4072 22.3359 97.4072H91.4761C93.9655 97.4072 95.9835 95.3891 95.9835 92.8998V52.8161C95.9835 50.3267 93.9655 48.3087 91.4761 48.3087Z" stroke="#111111" stroke-width="1.5"/>
<path d="M96.3071 48.3087H27.1668C24.6775 48.3087 22.6594 50.3268 22.6594 52.8161V92.8998C22.6594 95.3891 24.6775 97.4072 27.1668 97.4072H96.3071C98.7964 97.4072 100.814 95.3891 100.814 92.8998V52.8161C100.814 50.3267 98.7964 48.3087 96.3071 48.3087Z" fill="#F6B51E"/>
<path d="M96.3071 48.3087H27.1668C24.6775 48.3087 22.6594 50.3268 22.6594 52.8161V92.8998C22.6594 95.3891 24.6775 97.4072 27.1668 97.4072H96.3071C98.7964 97.4072 100.814 95.3891 100.814 92.8998V52.8161C100.814 50.3267 98.7964 48.3087 96.3071 48.3087Z" stroke="#111111" stroke-width="1.5"/>
<path d="M96.3071 48.3087H27.1668C24.6775 48.3087 22.6594 50.3268 22.6594 52.8161V92.8998C22.6594 95.3891 24.6775 97.4072 27.1668 97.4072H96.3071C98.7964 97.4072 100.814 95.3891 100.814 92.8998V52.8161C100.814 50.3267 98.7964 48.3087 96.3071 48.3087Z" stroke="#111111" stroke-width="1.5"/>
<path d="M96.3071 48.3087H27.1668C24.6775 48.3087 22.6594 50.3268 22.6594 52.8161V92.8998C22.6594 95.3891 24.6775 97.4072 27.1668 97.4072H96.3071C98.7964 97.4072 100.814 95.3891 100.814 92.8998V52.8161C100.814 50.3267 98.7964 48.3087 96.3071 48.3087Z" stroke="#111111" stroke-width="1.5"/>
<path d="M106.282 52.2754L46.3649 28.6532C44.049 27.7402 41.4315 28.8774 40.5184 31.1933L26.9078 65.7162C25.9947 68.0321 27.132 70.6497 29.4479 71.5627L89.3648 95.1849C91.6807 96.098 94.2982 94.9607 95.2113 92.6448L108.822 58.1219C109.735 55.806 108.598 53.1885 106.282 52.2754Z" fill="#1FC16B"/>
<path d="M106.282 52.2754L46.3649 28.6532C44.049 27.7402 41.4315 28.8774 40.5184 31.1933L26.9078 65.7162C25.9947 68.0321 27.132 70.6497 29.4479 71.5627L89.3648 95.1849C91.6807 96.098 94.2982 94.9607 95.2113 92.6448L108.822 58.1219C109.735 55.806 108.598 53.1885 106.282 52.2754Z" stroke="#111111" stroke-width="1.5"/>
<path d="M106.282 52.2754L46.3649 28.6532C44.049 27.7402 41.4315 28.8774 40.5184 31.1933L26.9078 65.7162C25.9947 68.0321 27.132 70.6497 29.4479 71.5627L89.3648 95.1849C91.6807 96.098 94.2982 94.9607 95.2113 92.6448L108.822 58.1219C109.735 55.806 108.598 53.1885 106.282 52.2754Z" stroke="#111111" stroke-width="1.5"/>
<path d="M106.282 52.2754L46.3649 28.6532C44.049 27.7402 41.4315 28.8774 40.5184 31.1933L26.9078 65.7162C25.9947 68.0321 27.132 70.6497 29.4479 71.5627L89.3648 95.1849C91.6807 96.098 94.2982 94.9607 95.2113 92.6448L108.822 58.1219C109.735 55.806 108.598 53.1885 106.282 52.2754Z" stroke="#111111" stroke-width="1.5"/>
<path d="M105.967 48.3087H36.8264C34.337 48.3087 32.319 50.3268 32.319 52.8161V92.8998C32.319 95.3891 34.337 97.4072 36.8264 97.4072H105.967C108.456 97.4072 110.474 95.3891 110.474 92.8998V52.8161C110.474 50.3267 108.456 48.3087 105.967 48.3087Z" fill="#01CBEA"/>
<path d="M105.967 48.3087H36.8264C34.337 48.3087 32.319 50.3268 32.319 52.8161V92.8998C32.319 95.3891 34.337 97.4072 36.8264 97.4072H105.967C108.456 97.4072 110.474 95.3891 110.474 92.8998V52.8161C110.474 50.3267 108.456 48.3087 105.967 48.3087Z" stroke="#111111" stroke-width="1.5"/>
<path d="M105.967 48.3087H36.8264C34.337 48.3087 32.319 50.3268 32.319 52.8161V92.8998C32.319 95.3891 34.337 97.4072 36.8264 97.4072H105.967C108.456 97.4072 110.474 95.3891 110.474 92.8998V52.8161C110.474 50.3267 108.456 48.3087 105.967 48.3087Z" stroke="#111111" stroke-width="1.5"/>
<path d="M105.967 48.3087H36.8264C34.337 48.3087 32.319 50.3268 32.319 52.8161V92.8998C32.319 95.3891 34.337 97.4072 36.8264 97.4072H105.967C108.456 97.4072 110.474 95.3891 110.474 92.8998V52.8161C110.474 50.3267 108.456 48.3087 105.967 48.3087Z" stroke="#111111" stroke-width="1.5"/>
<rect x="37.5474" y="61.6682" width="14.8905" height="11.188" rx="5.594" fill="#111111"/>
<rect x="37.5474" y="76.8787" width="58.2742" height="2.73663" rx="1.36832" fill="#111111"/>
<rect x="37.5474" y="54.9067" width="13.9246" height="2.73663" rx="1.36832" fill="#111111"/>
<rect x="37.5474" y="91.049" width="12.7978" height="2.81712" rx="1.40856" fill="#111111"/>
<rect x="92.4409" y="87.1038" width="12.7978" height="6.7611" rx="1.93174" fill="#111111"/>
<path d="M30.2772 96.8383L31.9212 72.418C32.391 83.8186 33.7658 96.8383 33.7658 96.8383H30.2772Z" fill="#111111"/>
<path d="M20.4631 96.7996L21.6964 72.3793C22.1662 83.7619 23.9518 96.7996 23.9518 96.7996H20.4631Z" fill="#111111"/>
</svg>
