<svg width="92" height="92" viewBox="0 0 92 92" fill="none" xmlns="http://www.w3.org/2000/svg">
<path d="M64.2868 35.842H12.9892C11.1423 35.842 9.64503 37.3393 9.64503 39.1862V68.9257C9.64503 70.7727 11.1423 72.2699 12.9892 72.2699H64.2868C66.1338 72.2699 67.631 70.7727 67.631 68.9257V39.1862C67.631 37.3393 66.1338 35.842 64.2868 35.842Z" fill="#111111"/>
<path d="M64.2868 35.842H12.9892C11.1423 35.842 9.64503 37.3393 9.64503 39.1862V68.9257C9.64503 70.7727 11.1423 72.2699 12.9892 72.2699H64.2868C66.1338 72.2699 67.631 70.7727 67.631 68.9257V39.1862C67.631 37.3393 66.1338 35.842 64.2868 35.842Z" stroke="#111111" stroke-width="1.2"/>
<path d="M64.2868 35.842H12.9892C11.1423 35.842 9.64503 37.3393 9.64503 39.1862V68.9257C9.64503 70.7727 11.1423 72.2699 12.9892 72.2699H64.2868C66.1338 72.2699 67.631 70.7727 67.631 68.9257V39.1862C67.631 37.3393 66.1338 35.842 64.2868 35.842Z" stroke="#111111" stroke-width="1.2"/>
<path d="M64.2868 35.842H12.9892C11.1423 35.842 9.64503 37.3393 9.64503 39.1862V68.9257C9.64503 70.7727 11.1423 72.2699 12.9892 72.2699H64.2868C66.1338 72.2699 67.631 70.7727 67.631 68.9257V39.1862C67.631 37.3393 66.1338 35.842 64.2868 35.842Z" stroke="#111111" stroke-width="1.2"/>
<path d="M67.8694 35.842H16.5718C14.7248 35.842 13.2276 37.3393 13.2276 39.1862V68.9257C13.2276 70.7727 14.7248 72.2699 16.5718 72.2699H67.8694C69.7163 72.2699 71.2136 70.7727 71.2136 68.9257V39.1862C71.2136 37.3393 69.7163 35.842 67.8694 35.842Z" fill="#01CBEA"/>
<path d="M67.8694 35.842H16.5718C14.7248 35.842 13.2276 37.3393 13.2276 39.1862V68.9257C13.2276 70.7727 14.7248 72.2699 16.5718 72.2699H67.8694C69.7163 72.2699 71.2136 70.7727 71.2136 68.9257V39.1862C71.2136 37.3393 69.7163 35.842 67.8694 35.842Z" stroke="#111111" stroke-width="1.2"/>
<path d="M67.8694 35.842H16.5718C14.7248 35.842 13.2276 37.3393 13.2276 39.1862V68.9257C13.2276 70.7727 14.7248 72.2699 16.5718 72.2699H67.8694C69.7163 72.2699 71.2136 70.7727 71.2136 68.9257V39.1862C71.2136 37.3393 69.7163 35.842 67.8694 35.842Z" stroke="#111111" stroke-width="1.2"/>
<path d="M67.8694 35.842H16.5718C14.7248 35.842 13.2276 37.3393 13.2276 39.1862V68.9257C13.2276 70.7727 14.7248 72.2699 16.5718 72.2699H67.8694C69.7163 72.2699 71.2136 70.7727 71.2136 68.9257V39.1862C71.2136 37.3393 69.7163 35.842 67.8694 35.842Z" stroke="#111111" stroke-width="1.2"/>
<path d="M71.4536 35.842H20.156C18.3091 35.842 16.8118 37.3393 16.8118 39.1862V68.9257C16.8118 70.7727 18.3091 72.2699 20.156 72.2699H71.4536C73.3006 72.2699 74.7978 70.7727 74.7978 68.9257V39.1862C74.7978 37.3393 73.3006 35.842 71.4536 35.842Z" fill="#F6B51E"/>
<path d="M71.4536 35.842H20.156C18.3091 35.842 16.8118 37.3393 16.8118 39.1862V68.9257C16.8118 70.7727 18.3091 72.2699 20.156 72.2699H71.4536C73.3006 72.2699 74.7978 70.7727 74.7978 68.9257V39.1862C74.7978 37.3393 73.3006 35.842 71.4536 35.842Z" stroke="#111111" stroke-width="1.2"/>
<path d="M71.4536 35.842H20.156C18.3091 35.842 16.8118 37.3393 16.8118 39.1862V68.9257C16.8118 70.7727 18.3091 72.2699 20.156 72.2699H71.4536C73.3006 72.2699 74.7978 70.7727 74.7978 68.9257V39.1862C74.7978 37.3393 73.3006 35.842 71.4536 35.842Z" stroke="#111111" stroke-width="1.2"/>
<path d="M71.4536 35.842H20.156C18.3091 35.842 16.8118 37.3393 16.8118 39.1862V68.9257C16.8118 70.7727 18.3091 72.2699 20.156 72.2699H71.4536C73.3006 72.2699 74.7978 70.7727 74.7978 68.9257V39.1862C74.7978 37.3393 73.3006 35.842 71.4536 35.842Z" stroke="#111111" stroke-width="1.2"/>
<path d="M78.8542 38.785L34.3997 21.2588C32.6815 20.5814 30.7395 21.4251 30.062 23.1434L19.9638 48.7572C19.2864 50.4754 20.1301 52.4175 21.8484 53.0949L66.3029 70.621C68.0211 71.2985 69.9632 70.4547 70.6406 68.7365L80.7388 43.1227C81.4162 41.4044 80.5725 39.4624 78.8542 38.785Z" fill="#1FC16B"/>
<path d="M78.8542 38.785L34.3997 21.2588C32.6815 20.5814 30.7395 21.4251 30.062 23.1434L19.9638 48.7572C19.2864 50.4754 20.1301 52.4175 21.8484 53.0949L66.3029 70.621C68.0211 71.2985 69.9632 70.4547 70.6406 68.7365L80.7388 43.1227C81.4162 41.4044 80.5725 39.4624 78.8542 38.785Z" stroke="#111111" stroke-width="1.2"/>
<path d="M78.8542 38.785L34.3997 21.2588C32.6815 20.5814 30.7395 21.4251 30.062 23.1434L19.9638 48.7572C19.2864 50.4754 20.1301 52.4175 21.8484 53.0949L66.3029 70.621C68.0211 71.2985 69.9632 70.4547 70.6406 68.7365L80.7388 43.1227C81.4162 41.4044 80.5725 39.4624 78.8542 38.785Z" stroke="#111111" stroke-width="1.2"/>
<path d="M78.8542 38.785L34.3997 21.2588C32.6815 20.5814 30.7395 21.4251 30.062 23.1434L19.9638 48.7572C19.2864 50.4754 20.1301 52.4175 21.8484 53.0949L66.3029 70.621C68.0211 71.2985 69.9632 70.4547 70.6406 68.7365L80.7388 43.1227C81.4162 41.4044 80.5725 39.4624 78.8542 38.785Z" stroke="#111111" stroke-width="1.2"/>
<path d="M78.6204 35.842H27.3228C25.4758 35.842 23.9786 37.3393 23.9786 39.1862V68.9257C23.9786 70.7727 25.4758 72.2699 27.3228 72.2699H78.6204C80.4674 72.2699 81.9646 70.7727 81.9646 68.9257V39.1862C81.9646 37.3393 80.4673 35.842 78.6204 35.842Z" fill="#01CBEA"/>
<path d="M78.6204 35.842H27.3228C25.4758 35.842 23.9786 37.3393 23.9786 39.1862V68.9257C23.9786 70.7727 25.4758 72.2699 27.3228 72.2699H78.6204C80.4674 72.2699 81.9646 70.7727 81.9646 68.9257V39.1862C81.9646 37.3393 80.4673 35.842 78.6204 35.842Z" stroke="#111111" stroke-width="1.2"/>
<path d="M78.6204 35.842H27.3228C25.4758 35.842 23.9786 37.3393 23.9786 39.1862V68.9257C23.9786 70.7727 25.4758 72.2699 27.3228 72.2699H78.6204C80.4674 72.2699 81.9646 70.7727 81.9646 68.9257V39.1862C81.9646 37.3393 80.4673 35.842 78.6204 35.842Z" stroke="#111111" stroke-width="1.2"/>
<path d="M78.6204 35.842H27.3228C25.4758 35.842 23.9786 37.3393 23.9786 39.1862V68.9257C23.9786 70.7727 25.4758 72.2699 27.3228 72.2699H78.6204C80.4674 72.2699 81.9646 70.7727 81.9646 68.9257V39.1862C81.9646 37.3393 80.4673 35.842 78.6204 35.842Z" stroke="#111111" stroke-width="1.2"/>
<rect x="27.8577" y="45.7537" width="11.0478" height="8.30078" rx="4.15039" fill="#111111"/>
<rect x="27.8577" y="57.0391" width="43.2357" height="2.03041" rx="1.0152" fill="#111111"/>
<rect x="27.8577" y="40.7373" width="10.3312" height="2.03041" rx="1.0152" fill="#111111"/>
<rect x="27.8577" y="67.5525" width="9.49514" height="2.09012" rx="1.04506" fill="#111111"/>
<rect x="68.5852" y="64.6252" width="9.49514" height="5.0163" rx="1.43323" fill="#111111"/>
<path d="M22.4637 71.8478L23.6835 53.7295C24.032 62.1881 25.052 71.8478 25.052 71.8478H22.4637Z" fill="#111111"/>
<path d="M15.1823 71.819L16.0973 53.7007C16.4459 62.1459 17.7706 71.819 17.7706 71.819H15.1823Z" fill="#111111"/>
</svg>
