<svg fill="none" height="92" viewBox="0 0 92 92" width="92" xmlns="http://www.w3.org/2000/svg"><path d="m3.00003 31.6539 44.64777-7.6539 41.4587 10.843-41.4587 7.0161z" fill="#1fc16b" stroke="#111" stroke-linejoin="round" stroke-width="1.2"/><path d="m27.2374 33.5595-.6378 19.7805c15.0275 4.664 22.3932 4.5221 38.2695 1.2757v-21.0562c-.6495-.0818-1.2871-.1617-1.9134-.2395-14.5465-1.807-23.0607-2.4858-35.7183.2395z" fill="#01cbea"/><path d="m27.2374 33.5595c12.6576-2.7253 21.1718-2.0465 35.7183-.2395l-15.9457-3.5795z" fill="#111"/><path d="m27.2374 33.5595-.6378 19.7805c15.0275 4.664 22.3932 4.5221 38.2695 1.2757v-21.0562c-.6495-.0818-1.2871-.1617-1.9134-.2395m-35.7183.2395c12.6576-2.7253 21.1718-2.0465 35.7183-.2395m-35.7183.2395 19.7726-3.819 15.9457 3.5795" stroke="#111" stroke-linejoin="round" stroke-width="1.2"/><path d="m68.0582 29.1025 1.9135 8.2918h1.9135l-1.2757-7.6539z" fill="#f6b51e" stroke="#111" stroke-linejoin="round" stroke-width="1.2"/><circle cx="71.2474" cy="40.5834" fill="#f6b51e" r="3.18913" stroke="#111" stroke-linejoin="round" stroke-width="1.2"/><g fill="#111"><path d="m76.35 46.3239c-1.69 2.011 8.1078 18.2305 7.6539 19.1348-.454.9042-14.0322-17.3735-14.0322-19.1348s1.4278-3.1891 3.1892-3.1891c1.7613 0 3.1891 1.4278 3.1891 3.1891z"/><path d="m76.35 46.3239c-1.69 2.011 8.1078 18.2305 7.6539 19.1348-.454.9042-14.0322-17.3735-14.0322-19.1348s1.4278-3.1891 3.1892-3.1891c1.7613 0 3.1891 1.4278 3.1891 3.1891z"/><path d="m76.0163 47.4371c-2.2111 1.4181 2.3252 19.8163 1.623 20.5448-.7021.7285-8.2365-20.7581-7.7132-22.4398.5233-1.6818 2.3109-2.6209 3.9927-2.0976 1.6817.5233 2.6208 2.3109 2.0975 3.9926z"/><path d="m76.0163 47.4371c-2.2111 1.4181 2.3252 19.8163 1.623 20.5448-.7021.7285-8.2365-20.7581-7.7132-22.4398.5233-1.6818 2.3109-2.6209 3.9927-2.0976 1.6817.5233 2.6208 2.3109 2.0975 3.9926z"/><path d="m76.9878 46.9617c.6378 1.9135 12.7819 14.5455 12.7692 15.8834s-17.9152-13.3336-18.3536-15.0395.589-3.4442 2.2949-3.8826 2.8511 1.3329 3.2895 3.0387z"/><path d="m76.9878 46.9617c.6378 1.9135 12.7819 14.5455 12.7692 15.8834s-17.9152-13.3336-18.3536-15.0395.589-3.4442 2.2949-3.8826 2.8511 1.3329 3.2895 3.0387z"/><ellipse cx="46.3546" cy="77.0146" rx="21.3546" ry="2.01459"/></g></svg>