<svg fill="none" height="69" viewBox="0 0 45 69" width="45" xmlns="http://www.w3.org/2000/svg"><path d="m4.9426 31.7868c0-6.8524 5.555-12.4074 12.4074-12.4074h2.4815c6.8524 0 12.4074 5.555 12.4074 12.4074v33.5c0 1.3705-1.111 2.4815-2.4815 2.4815h-22.33332c-1.37049 0-2.48148-1.111-2.48148-2.4815v-24.8148z" fill="#01cbea"/><path d="m32.2389 40.472h-27.2963m0 0v24.8148c0 1.3705 1.11099 2.4815 2.48148 2.4815h22.33332c1.3705 0 2.4815-1.111 2.4815-2.4815v-33.5c0-6.8524-5.555-12.4074-12.4074-12.4074h-2.4815c-6.8524 0-12.4074 5.555-12.4074 12.4074zm.62037 7.4444h26.67593" stroke="#111" stroke-width="1.2"/><path d="m13.6278 8.213-13.027794 5.5833v1.8611l13.027794-1.8611z" fill="#1fc16b"/><path d="m13.6278 3.25004h2.4815l-9.92596-2.481485v1.861115l7.44446 4.96296z" fill="#1fc16b"/><path d="m22.313 7.59263v1.86111 1.86106c6.871-.2551 10.5463 6.2038 11.787 10.5463 1.2407 4.3426 2.4815 13.6482 2.4815 13.6482h3.7113c-.4134-.0878-1.9889-9.877-3.7113-16.1296-1.738-6.3091-6.3658-10.60367-14.2685-11.78707z" fill="#f6b51e"/><path d="m36.5815 35.5093h-2.4815l-.6204 17.9907h9.926l-.6204-17.9907h-2.4815c-.0035.0008-.0072.0008-.0109 0z" fill="#f6b51e"/><path d="m13.6278 20.6204h8.6852v-6.2037-3.1019-1.86106-1.86111-4.34259h-6.2037-2.4815v4.34259.62037 5.5833z" fill="#1fc16b"/><path d="m16.1093 3.25004h-2.4815v4.34259m2.4815-4.34259h6.2037v4.34259m-6.2037-4.34259-9.92596-2.481485v1.861115l7.44446 4.96296m0 0v.62037m0 0-13.027794 5.5833v1.8611l13.027794-1.8611m0-5.5833v5.5833m0 0v6.8241h8.6852v-6.2037-3.1018m0-3.72227v1.86111 1.86116m0-3.72227c7.9027 1.1834 12.5305 5.47797 14.2685 11.78707 1.7224 6.2526 3.2979 16.0418 3.7113 16.1296m.0109 0h2.4815l.6204 17.9907h-9.926l.6204-17.9907h2.4815m3.7222 0h-.0109m.0109 0c-.0035.0008-.0072.0008-.0109 0m-3.7113 0s-1.2408-9.3056-2.4815-13.6482c-1.2407-4.3425-4.916-10.8014-11.787-10.5462m14.2685 24.1944h3.7113" stroke="#111" stroke-width="1.2"/></svg>