<svg width="92" height="92" viewBox="0 0 92 92" fill="none" xmlns="http://www.w3.org/2000/svg">
<path d="M29.3427 48.0182C29.3427 41.1658 34.8977 35.6108 41.7501 35.6108H44.2316C51.084 35.6108 56.639 41.1658 56.639 48.0182V81.5182C56.639 82.8887 55.528 83.9997 54.1575 83.9997H31.8242C30.4537 83.9997 29.3427 82.8887 29.3427 81.5182V56.7034V48.0182Z" fill="#01CBEA"/>
<path d="M56.639 56.7034H29.3427M29.3427 56.7034V81.5182C29.3427 82.8887 30.4537 83.9997 31.8242 83.9997H54.1575C55.528 83.9997 56.639 82.8887 56.639 81.5183V48.0182C56.639 41.1658 51.084 35.6108 44.2316 35.6108H41.7501C34.8977 35.6108 29.3427 41.1658 29.3427 48.0182V56.7034ZM29.9631 64.1479H56.639" stroke="#111111" stroke-width="1.2"/>
<path d="M38.0279 24.4444L25.0001 30.0278V31.8889L38.0279 30.0278V24.4444Z" fill="#1FC16B"/>
<path d="M38.0279 19.4815H40.5094L30.5835 17V18.8611L38.0279 23.8241V19.4815Z" fill="#1FC16B"/>
<path d="M46.7131 23.8241V25.6852V27.5463C53.5841 27.2912 57.2594 33.75 58.5001 38.0926C59.7409 42.4352 60.9816 51.7407 60.9816 51.7407H64.6929C64.2795 51.6529 62.704 41.8638 60.9816 35.6111C59.2436 29.3021 54.6158 25.0075 46.7131 23.8241Z" fill="#F6B51E"/>
<path d="M60.9816 51.7407H58.5001L57.8797 69.7315H67.8057L67.1853 51.7407H64.7038C64.7003 51.7415 64.6967 51.7415 64.6929 51.7407H60.9816Z" fill="#F6B51E"/>
<path d="M38.0279 36.8519H46.7131V30.6481V27.5463V25.6852V23.8241V19.4815H40.5094H38.0279V23.8241V24.4444V30.0278V36.8519Z" fill="#1FC16B"/>
<path d="M40.5094 19.4815H38.0279V23.8241M40.5094 19.4815H46.7131V23.8241M40.5094 19.4815L30.5835 17V18.8611L38.0279 23.8241M38.0279 23.8241V24.4444M38.0279 24.4444L25.0001 30.0278V31.8889L38.0279 30.0278M38.0279 24.4444V30.0278M38.0279 30.0278V36.8519H46.7131V30.6481V27.5463M46.7131 23.8241V25.6852V27.5463M46.7131 23.8241C54.6158 25.0075 59.2436 29.3021 60.9816 35.6111C62.704 41.8638 64.2795 51.6529 64.6929 51.7407M64.7038 51.7407H67.1853L67.8057 69.7315H57.8797L58.5001 51.7407H60.9816M64.7038 51.7407H64.6929M64.7038 51.7407C64.7003 51.7415 64.6967 51.7415 64.6929 51.7407M60.9816 51.7407C60.9816 51.7407 59.7409 42.4352 58.5001 38.0926C57.2594 33.75 53.5841 27.2912 46.7131 27.5463M60.9816 51.7407H64.6929" stroke="#111111" stroke-width="1.2"/>
</svg>
