<svg width="124" height="124" viewBox="0 0 124 124" fill="none" xmlns="http://www.w3.org/2000/svg">
<path d="M29.6694 52.4141C29.6694 42.3343 37.8406 34.1631 47.9204 34.1631H74.3844C84.4642 34.1631 92.6355 42.3344 92.6355 52.4141V68.0188H29.6694V52.4141Z" fill="#01CBEA" stroke="#111111" stroke-width="1.5"/>
<path d="M30.3065 49.3968C30.3065 41.2826 36.8844 34.7047 44.9986 34.7047C53.1128 34.7047 59.6907 41.2826 59.6907 49.3968V68.0129H30.3065V49.3968Z" fill="#111111"/>
<rect x="56.8809" y="68.0127" width="11.0419" height="37.0496" fill="#1FC16B" stroke="#111111" stroke-width="1.5"/>
<path d="M25.3314 75.8583C28.4796 69.2423 29.7117 67.9191 29.7117 67.9191L57.9553 68.2841C57.9553 68.2841 54.0768 73.3031 46.2747 78.8241C38.4725 84.345 22.1832 82.4743 25.3314 75.8583Z" fill="#F6B51E" stroke="#111111" stroke-width="1.5"/>
<rect x="21.0004" y="102.876" width="82.8597" height="3.4677" fill="#111111"/>
<rect x="71.4632" y="17.0004" width="1.73385" height="25.0039" fill="#111111"/>
<path d="M85.7887 23.5251L73.1955 30.0499V17.0004L85.7887 23.5251Z" fill="#111111"/>
<path d="M67.7163 77.414L57.952 68.5623H67.7163V77.414Z" fill="#111111"/>
</svg>
