<svg width="124" height="124" viewBox="0 0 124 124" fill="none" xmlns="http://www.w3.org/2000/svg">
<path d="M49.9587 20.0023L46.0421 23.6685L57.7502 75.8704H71.0832L75.4581 71.9959L69.9165 20.5023L49.9587 20.0023Z" fill="#01CBEA" stroke="#111111" stroke-width="1.5"/>
<path d="M49.3339 20.5055L41.0008 27.088L57.5421 75.0821L61.2086 70.7076L49.3339 20.5055Z" fill="#1FC16B" stroke="#111111" stroke-width="1.5"/>
<path d="M74.499 72.4103L60.9993 70.6605L58.3327 75.5766L71.1241 75.8682L74.499 72.4103Z" fill="#111111" stroke="#111111" stroke-width="1.5"/>
<path d="M78.2361 90.5277C79.1431 96.7785 76.3075 102.214 70.3342 103.08C64.3609 103.947 57.5118 99.9168 56.6047 93.6661C55.6977 87.4153 60.9443 80.7414 66.9176 79.8748C72.8909 79.0081 77.329 84.277 78.2361 90.5277Z" fill="#1FC16B" stroke="#111111" stroke-width="1.5"/>
<ellipse cx="10.9289" cy="11.4365" rx="10.9289" ry="11.4365" transform="matrix(0.989639 -0.14358 0.143608 0.989635 57.5403 81.0109)" fill="#F6B51E" stroke="#111111" stroke-width="1.5"/>
</svg>
