<svg width="124" height="124" viewBox="0 0 124 124" fill="none" xmlns="http://www.w3.org/2000/svg">
<path d="M39.6501 9.71428L26.7929 20.8571L52.5072 50.8571L26.3401 81.0202L40.5072 92L60.8449 68.8571L65.3643 63.7143L92.7929 92L104.793 79.1428L78.2215 50.8571L104.793 20L91.0786 8L65.3643 37.1428L39.6501 9.71428Z" fill="#01CBEA"/>
<path d="M92.7929 92L65.3643 63.7143L60.8449 68.8571L86.7929 95.4285L92.7929 92Z" fill="#1FC16B"/>
<path d="M40.5072 92L26.3401 81.0202L52.5072 50.8571L26.7929 20.8571L23.3644 26.8571L45.6501 52.5714L20.0005 82.6051L36.2215 96.2857L40.5072 92Z" fill="#111111"/>
<path d="M26.7929 20.8571L39.6501 9.71428L65.3643 37.1428L91.0786 8L104.793 20L78.2215 50.8571L104.793 79.1428L92.7929 92M26.7929 20.8571L52.5072 50.8571L26.3401 81.0202L40.5072 92M26.7929 20.8571L23.3644 26.8571L45.6501 52.5714L20.0005 82.6051L36.2215 96.2857L40.5072 92M92.7929 92L65.3643 63.7143L60.8449 68.8571M92.7929 92L86.7929 95.4285L60.8449 68.8571M40.5072 92L60.8449 68.8571" stroke="black" stroke-width="1.5" stroke-linejoin="round"/>
<ellipse cx="63.2624" cy="112.571" rx="37.7143" ry="3.42857" fill="#111111"/>
</svg>
