<svg width="92" height="92" viewBox="0 0 92 92" fill="none" xmlns="http://www.w3.org/2000/svg">
<path fill-rule="evenodd" clip-rule="evenodd" d="M34.4009 41.4812C34.275 41.4882 34.1485 41.4927 34.0214 41.4947L34.4009 41.4812Z" fill="#111111"/>
<path d="M23.9733 30.973C24.0629 36.8669 28.5616 41.5777 34.0214 41.4947L34.4009 41.4812C39.6815 41.1855 43.8325 36.4292 43.745 30.6725C43.6554 24.7785 39.1568 20.0678 33.697 20.1508C28.2371 20.2338 23.8837 25.079 23.9733 30.973Z" fill="#F6B51E"/>
<path d="M34.0214 41.4947C28.5616 41.5777 24.0629 36.8669 23.9733 30.973C23.8837 25.079 28.2371 20.2338 33.697 20.1508C39.1568 20.0678 43.6554 24.7785 43.745 30.6725C43.8325 36.4292 39.6815 41.1855 34.4009 41.4812M34.0214 41.4947L34.4009 41.4812M34.0214 41.4947C34.1485 41.4927 34.275 41.4882 34.4009 41.4812" stroke="#111111" stroke-width="1.2"/>
<path fill-rule="evenodd" clip-rule="evenodd" d="M33.2707 46.46C22.4702 46.6242 14.1488 56.5259 14.326 68.1853C14.3374 68.9363 14.385 69.6776 14.467 70.4073L53.3088 70.4073C53.4084 69.4851 53.4528 68.5449 53.4383 67.5908C53.261 55.9315 44.0713 46.2959 33.2707 46.46Z" fill="#01CBEA"/>
<path fill-rule="evenodd" clip-rule="evenodd" d="M33.2707 46.46C22.4702 46.6242 14.1488 56.5259 14.326 68.1853C14.3374 68.9363 14.385 69.6776 14.467 70.4073L53.3088 70.4073C53.4084 69.4851 53.4528 68.5449 53.4383 67.5908C53.261 55.9315 44.0713 46.2959 33.2707 46.46Z" stroke="#111111" stroke-width="1.2"/>
<path d="M50.7878 32.9377C51.263 35.6323 52.1847 36.6901 55.6093 37.3609C52.0812 37.7092 51.3035 38.9328 51.1861 42.1824C50.3555 38.5082 49.1274 37.8612 46.3647 37.7592C49.6934 36.9644 50.3717 35.7281 50.7878 32.9377Z" fill="#F6B51E" stroke="#111111" stroke-width="1.2"/>
<path fill-rule="evenodd" clip-rule="evenodd" d="M53.9302 46.69C53.8265 46.6958 53.7223 46.6995 53.6176 46.7011L53.9302 46.69Z" fill="#111111"/>
<path d="M45.3427 38.0362C45.4165 42.89 49.1213 46.7694 53.6176 46.7011L53.9302 46.69C58.2789 46.4464 61.6973 42.5295 61.6253 37.7887C61.5515 32.9349 57.8467 29.0555 53.3504 29.1238C48.8541 29.1922 45.269 33.1824 45.3427 38.0362Z" fill="#F6B51E"/>
<path d="M53.6176 46.7011C49.1213 46.7694 45.4165 42.89 45.3427 38.0362C45.269 33.1824 48.8541 29.1922 53.3504 29.1238C57.8467 29.0555 61.5515 32.9349 61.6253 37.7887C61.6973 42.5295 58.2789 46.4464 53.9302 46.69M53.6176 46.7011L53.9302 46.69M53.6176 46.7011C53.7223 46.6995 53.8265 46.6958 53.9302 46.69" stroke="#111111" stroke-width="1.2"/>
<path fill-rule="evenodd" clip-rule="evenodd" d="M52.9991 50.7922C44.1045 50.9274 37.2517 59.0818 37.3976 68.6836C37.407 69.302 37.4462 69.9125 37.5137 70.5135L69.501 70.5135C69.583 69.7539 69.6195 68.9797 69.6076 68.194C69.4616 58.5922 61.8936 50.6571 52.9991 50.7922Z" fill="#1FC16B" stroke="#111111" stroke-width="1.2"/>
<path fill-rule="evenodd" clip-rule="evenodd" d="M67.4012 57.1093C67.3419 57.1126 67.2824 57.1147 67.2225 57.1157L67.4012 57.1093Z" fill="#111111"/>
<path d="M62.4942 52.1645C62.5364 54.938 64.6533 57.1547 67.2225 57.1157L67.4012 57.1093C69.886 56.9702 71.8394 54.732 71.7982 52.0231C71.756 49.2495 69.6391 47.0328 67.0699 47.0719C64.5007 47.1109 62.4521 49.391 62.4942 52.1645Z" fill="#1FC16B"/>
<path d="M67.2225 57.1157C64.6533 57.1547 62.5364 54.938 62.4942 52.1645C62.4521 49.391 64.5007 47.1109 67.0699 47.0719C69.6391 47.0328 71.756 49.2495 71.7982 52.0231C71.8394 54.732 69.886 56.9702 67.4012 57.1093M67.2225 57.1157L67.4012 57.1093M67.2225 57.1157C67.2824 57.1147 67.3419 57.1126 67.4012 57.1093" stroke="#111111" stroke-width="1.2"/>
<path fill-rule="evenodd" clip-rule="evenodd" d="M66.8689 59.4532C61.7865 59.5305 57.8707 64.1899 57.9541 69.6765C57.9595 70.0299 57.9819 70.3787 58.0205 70.7221L76.2982 70.7221C76.3451 70.2881 76.366 69.8457 76.3592 69.3967C76.2758 63.9102 71.9513 59.376 66.8689 59.4532Z" fill="#01CBEA"/>
<path fill-rule="evenodd" clip-rule="evenodd" d="M66.8689 59.4532C61.7865 59.5305 57.8707 64.1899 57.9541 69.6765C57.9595 70.0299 57.9819 70.3787 58.0205 70.7221L76.2982 70.7221C76.3451 70.2881 76.366 69.8457 76.3592 69.3967C76.2758 63.9102 71.9513 59.376 66.8689 59.4532Z" stroke="#111111" stroke-width="1.2"/>
<path d="M77.267 40.5295C75.1447 40.8722 74.3033 41.5842 73.7374 44.2669C73.5039 41.4914 72.5515 40.8665 70 40.7373C72.8958 40.1266 73.4181 39.1692 73.5296 37C74.1161 39.624 75.0797 40.1709 77.267 40.5295Z" fill="#F6B51E"/>
</svg>
