<svg fill="none" height="52" viewBox="0 0 64 52" width="64" xmlns="http://www.w3.org/2000/svg"><path clip-rule="evenodd" d="m20.6777 21.9314c-.1259.007-.2524.0115-.3796.0135z" fill="#111" fill-rule="evenodd"/><path d="m10.2501 11.4232c.0895 5.8939 4.5882 10.6047 10.048 10.5217l.3796-.0135c5.2806-.2957 9.4316-5.052 9.3441-10.8087-.0896-5.89399-4.5883-10.604718-10.0481-10.521734-5.4598.082983-9.8132 4.928254-9.7236 10.822234z" fill="#f6b51e"/><path d="m20.2981 21.9449c-5.4598.083-9.9585-4.6278-10.048-10.5217-.0896-5.89398 4.2638-10.739251 9.7236-10.822234 5.4598-.082984 9.9585 4.627744 10.0481 10.521734.0875 5.7567-4.0635 10.513-9.3441 10.8087m-.3796.0135.3796-.0135m-.3796.0135c.1272-.002.2537-.0065.3796-.0135" stroke="#111" stroke-width="1.2"/><path clip-rule="evenodd" d="m19.5475 26.9102c-10.80055.1642-19.121953 10.0659-18.944742 21.7253.011415.751.059019 1.4923.140988 2.222h38.841854c.0996-.9222.1439-1.8624.1294-2.8165-.1772-11.6594-9.3669-21.2949-20.1675-21.1308z" fill="#01cbea" fill-rule="evenodd"/><path clip-rule="evenodd" d="m19.5475 26.9102c-10.80055.1642-19.121953 10.0659-18.944742 21.7253.011415.751.059019 1.4923.140988 2.222h38.841854c.0996-.9222.1439-1.8624.1294-2.8165-.1772-11.6594-9.3669-21.2949-20.1675-21.1308z" fill-rule="evenodd" stroke="#111" stroke-width="1.2"/><path d="m37.0646 13.3879c.4751 2.6946 1.3969 3.7524 4.8214 4.4232-3.528.3483-4.3057 1.5719-4.4231 4.8215-.8306-3.6742-2.0587-4.3212-4.8215-4.4232 3.3288-.7948 4.0071-2.0311 4.4232-4.8215z" fill="#f6b51e" stroke="#111" stroke-width="1.2"/><path clip-rule="evenodd" d="m40.2069 27.1402c-.1037.0058-.2079.0095-.3126.0111z" fill="#111" fill-rule="evenodd"/><path d="m31.6195 18.4864c.0738 4.8538 3.7786 8.7332 8.2748 8.6649l.3126-.0111c4.3487-.2436 7.7672-4.1605 7.6951-8.9013-.0737-4.8538-3.7785-8.73322-8.2748-8.66488-4.4963.06833-8.0815 4.05858-8.0077 8.91238z" fill="#f6b51e"/><path d="m39.8943 27.1513c-4.4962.0683-8.201-3.8111-8.2748-8.6649s3.5114-8.84405 8.0077-8.91238c4.4963-.06834 8.2011 3.81108 8.2748 8.66488.0721 4.7408-3.3464 8.6577-7.6951 8.9013m-.3126.0111.3126-.0111m-.3126.0111c.1047-.0016.2089-.0053.3126-.0111" stroke="#111" stroke-width="1.2"/><path clip-rule="evenodd" d="m39.2758 31.2424c-8.8945.1352-15.7474 8.2895-15.6014 17.8914.0094.6184.0486 1.2289.1161 1.8298h31.9872c.082-.7595.1186-1.5337.1066-2.3194-.1459-9.6018-7.7139-17.5369-16.6085-17.4018z" fill="#1fc16b" fill-rule="evenodd" stroke="#111" stroke-width="1.2"/><path clip-rule="evenodd" d="m53.6779 37.5595c-.0592.0033-.1188.0054-.1786.0064z" fill="#111" fill-rule="evenodd"/><path d="m48.771 32.6147c.0422 2.7735 2.1591 4.9902 4.7283 4.9512l.1786-.0064c2.4849-.1391 4.4382-2.3773 4.3971-5.0862-.0422-2.7736-2.1591-4.9903-4.7283-4.9512-2.5693.039-4.6179 2.3191-4.5757 5.0926z" fill="#1fc16b"/><path d="m53.4993 37.5659c-2.5692.039-4.6861-2.1777-4.7283-4.9512s2.0064-5.0536 4.5757-5.0926c2.5692-.0391 4.6861 2.1776 4.7283 4.9512.0411 2.7089-1.9122 4.9471-4.3971 5.0862m-.1786.0064.1786-.0064m-.1786.0064c.0598-.001.1194-.0031.1786-.0064" stroke="#111" stroke-width="1.2"/><path clip-rule="evenodd" d="m53.1457 39.9034c-5.0824.0773-8.9982 4.7367-8.9148 10.2233.0054.3534.0278.7022.0663 1.0456h18.2778c.0469-.434.0677-.8764.0609-1.3254-.0834-5.4865-4.4078-10.0207-9.4902-9.9435z" fill="#01cbea" fill-rule="evenodd"/><path clip-rule="evenodd" d="m53.1457 39.9034c-5.0824.0773-8.9982 4.7367-8.9148 10.2233.0054.3534.0278.7022.0663 1.0456h18.2778c.0469-.434.0677-.8764.0609-1.3254-.0834-5.4865-4.4078-10.0207-9.4902-9.9435z" fill-rule="evenodd" stroke="#111" stroke-width="1.2"/><path d="m63.5437 20.9797c-2.1222.3426-2.9636 1.0547-3.5295 3.7374-.2335-2.7755-1.1859-3.4004-3.7374-3.5296 2.8958-.6107 3.418-1.5681 3.5296-3.7373.5865 2.624 1.55 3.1709 3.7373 3.5295z" fill="#f6b51e"/></svg>