<svg width="124" height="124" viewBox="0 0 124 124" fill="none" xmlns="http://www.w3.org/2000/svg">
<path fill-rule="evenodd" clip-rule="evenodd" d="M97.5585 14.3332L68.6239 14L44.8364 64.9485H61.8772L44.8364 110.924L97.5585 46.3079H86.6215H77.353L97.5585 14.3332Z" fill="#01CBEA"/>
<path d="M97.5585 14.3332L77.353 46.3079H86.6215L104.359 18.2594L97.5585 14.3332Z" fill="#F6B51E"/>
<path d="M97.5585 14.3332L68.6239 14L44.8364 64.9485H61.8772L44.8364 110.924L97.5585 46.3079H86.6215M97.5585 14.3332L77.353 46.3079H86.6215M97.5585 14.3332L104.359 18.2594L86.6215 46.3079" stroke="#111111" stroke-width="1.5" stroke-miterlimit="16"/>
<path fill-rule="evenodd" clip-rule="evenodd" d="M41.4367 43.1029L29.3712 43.1103L19.0008 65.3219H26.4299L19.0008 85.3653L41.9856 57.1953H37.5812H33.1768L41.4367 43.1029Z" fill="#F6B51E"/>
<path d="M41.4367 43.1029L33.1768 57.1953H37.5812L46.0175 45.1709L41.4367 43.1029Z" fill="#1FC16B"/>
<path d="M41.4367 43.1029L29.3712 43.1103L19.0008 65.3219H26.4299L19.0008 85.3653L41.9856 57.1953H37.5812M41.4367 43.1029L33.1768 57.1953H37.5812M41.4367 43.1029L46.0175 45.1709L37.5812 57.1953" stroke="#111111" stroke-width="1.5"/>
</svg>
