<svg width="124" height="124" viewBox="0 0 124 124" fill="none" xmlns="http://www.w3.org/2000/svg">
<path d="M109.468 46.5311L52.8602 31.9606V34.6756L71.7295 69.9254L109.468 46.5311Z" fill="#111111" stroke="#111111" stroke-width="1.78612"/>
<path d="M12.8145 54.9476L52.8608 31.9606V67.4366L12.8597 92.5052L12.8145 54.9476Z" fill="#1FC16B" stroke="#111111" stroke-width="1.78612"/>
<path d="M119.841 83.7048L69.3934 107.728L109.243 81.5532L119.841 83.7048Z" fill="#111111"/>
<path d="M41.1366 36.4431V41.3754L93.3552 67.1227V47.0769L64.2141 40.1989L63.4449 36.4431L46.4761 33.2303L45.7974 36.4431H41.1366Z" fill="#F6B51E" stroke="#111111" stroke-width="1.78612"/>
<path d="M31.5454 26.9404V54.2262L83.764 75.72V37.5742L54.623 30.6962L53.8537 26.9404L36.8849 23.7277L36.2062 26.9404H31.5454Z" fill="#01CBEA" stroke="#111111" stroke-width="1.78612"/>
<path d="M25.1196 42.7759V47.7082L77.3382 70.831V53.4097L48.1972 46.5317L47.4279 42.7759L30.4591 39.5632L29.7804 42.7759H25.1196Z" fill="#F6B51E" stroke="#111111" stroke-width="1.78612"/>
<path d="M20.6846 46.397V51.3293L72.9032 70.3796V57.0308L43.7621 50.1528L42.9929 46.397L26.0241 43.1843L25.3453 46.397H20.6846Z" fill="#F6B51E" stroke="#111111" stroke-width="1.78612"/>
<path d="M15.889 50.7414V55.6736L68.1076 67.4839V61.3752L38.9666 54.4971L38.1973 50.7414L21.2285 47.5286L20.5498 50.7414H15.889Z" fill="#F6B51E" stroke="#111111" stroke-width="1.78612"/>
<path d="M69.8231 67.3626L110.458 47.4332L109.462 81.5801L69.2814 107.26L69.8231 67.3626Z" fill="#1FC16B"/>
<path d="M69.2814 107.26L69.8231 67.3626L12.2703 54.5V93.2915L69.2814 107.26Z" fill="#01CBEA"/>
<path d="M69.8231 67.3626L110.458 47.4332L109.462 81.5801L69.2814 107.26M69.8231 67.3626L69.2814 107.26M69.8231 67.3626L12.2703 54.5V93.2915L69.2814 107.26" stroke="#111111" stroke-width="1.78612"/>
<rect x="31.5803" y="67.9806" width="16.652" height="5.79201" rx="2.0815" transform="rotate(11.1599 31.5803 67.9806)" fill="#111111"/>
</svg>
