<svg fill="none" height="35" viewBox="0 0 80 35" width="80" xmlns="http://www.w3.org/2000/svg"><ellipse cx="40.5126" cy="30.1181" fill="#111" rx="20.8926" ry="1.12933"/><g fill="#01cbea"><path d="m15.2813.748074-.5647 4.517316c-1.2906 9.29291-1.2714 14.61521-.5647 24.28061l1.1294 3.9526c4.7286.8444 7.3249.8441 11.8579 0-2.8233-6.2049-1.694-29.35612 1.1294-32.18586-5.5139-.815054-8.2768-.817848-12.9873-.564666z"/><path d="m7.37597 5.26539-1.12933 7.90531v9.0346l1.12933 6.776c2.64713.78 4.14173.8241 6.77593.5647-.7067-9.6654-.7259-14.9877.5647-24.28061-2.8676-.45892-4.4721-.42297-7.34063 0z"/><path d="m2.85866 13.1707-2.25866 2.2586v3.9527l2.25866 2.2587 3.38798.5646v-9.0346z"/></g><path d="m28.2686 1.31274c2.2586 10.17036 1.1293 25.98096-1.1294 32.18586-2.8233-6.2049-1.694-29.35612 1.1294-32.18586z" fill="#1fc16b"/><path d="m6.24664 13.1707h-3.38798l-2.25866 2.2586v3.9527l2.25866 2.2587 3.38798.5646m0-9.0346 1.12933-7.90531c2.86853-.42297 4.47303-.45892 7.34063 0m-8.46996 7.90531v9.0346m8.46996-16.93991.5647-4.517316c4.7105-.253182 7.4734-.250388 12.9873.564666m-13.552 3.95265c-1.2906 9.29291-1.2714 14.61521-.5647 24.28061m14.1167-28.23326c2.2586 10.17036 1.1293 25.98096-1.1294 32.18586m1.1294-32.18586c-2.8234 2.82974-3.9527 25.98096-1.1294 32.18586m0 0c-4.533.8441-7.1293.8444-11.8579 0l-1.1294-3.9526m0 0c-2.6342.2594-4.1288.2153-6.77593-.5647l-1.12933-6.776" stroke="#000" stroke-linejoin="round" stroke-width="1.2"/><path d="m64.5088.902371.5647 4.517319c1.2906 9.29291 1.2714 14.61521.5646 24.28061l-1.1293 3.9526c-4.7286.8444-7.3249.8441-11.8579 0 2.8233-6.2049 1.694-29.35612-1.1294-32.18586 5.5139-.815057 8.2768-.817851 12.9873-.564669z" fill="#01cbea"/><path d="m72.4141 5.41969 1.1293 7.90531v9.0346l-1.1293 6.776c-2.6471.78-4.1417.8241-6.776.5647.7068-9.6654.726-14.9877-.5646-24.28061 2.8676-.45892 4.4721-.42297 7.3406 0z" fill="#01cbea"/><path d="m76.9314 13.325 2.2587 2.2586v3.9527l-2.2587 2.2587-3.388.5646v-9.0346z" fill="#01cbea"/><path d="m51.5215 1.46704c-2.2586 10.17036-1.1293 25.98096 1.1294 32.18586 2.8233-6.2049 1.694-29.35612-1.1294-32.18586z" fill="#1fc16b"/><path d="m73.5434 13.325h3.388l2.2587 2.2586v3.9527l-2.2587 2.2587-3.388.5646m0-9.0346-1.1293-7.90531c-2.8685-.42297-4.473-.45892-7.3406 0m8.4699 7.90531v9.0346m-8.4699-16.93991-.5647-4.517319c-4.7105-.253182-7.4734-.250388-12.9873.564669m13.552 3.95265c1.2906 9.29291 1.2714 14.61521.5646 24.28061m-14.1166-28.23326c-2.2586 10.17036-1.1293 25.98096 1.1294 32.18586m-1.1294-32.18586c2.8234 2.82974 3.9527 25.98096 1.1294 32.18586m0 0c4.533.8441 7.1293.8444 11.8579 0l1.1293-3.9526m0 0c2.6343.2594 4.1289.2153 6.776-.5647l1.1293-6.776" stroke="#000" stroke-linejoin="round" stroke-width="1.2"/><path d="m27.7041 14.3071h23.7159c.0412.1708.0795.3368.1151.4988.5233 2.3855.4364 3.8792-.1151 6.2772h-23.7159c-.4139-2.7219-.3987-4.1796 0-6.776z" fill="#f6b51e"/><path d="m51.5351 14.8059c.5233 2.3855.4364 3.8792-.1151 6.2772l-.565 2.2587 1.694-2.2587z" fill="#111"/><path d="m51.42 14.3071h-23.7159c-.3987 2.5964-.4139 4.0541 0 6.776h23.7159m0-6.776.1151.4988m-.1151-.4988c.0412.1708.0795.3368.1151.4988m-.1151 6.2772-.565 2.2587 1.694-2.2587-1.0139-6.2772m-.1151 6.2772c.5515-2.398.6384-3.8917.1151-6.2772" stroke="#000" stroke-linejoin="round" stroke-width="1.2"/><path d="m27.6 19.5278-1 2.5 2 1.5z" fill="#111" stroke="#000"/></svg>