<svg width="92" height="92" viewBox="0 0 92 92" fill="none" xmlns="http://www.w3.org/2000/svg">
<ellipse cx="46.9126" cy="58.5903" rx="20.8926" ry="1.12933" fill="#111111"/>
<path d="M21.6813 29.2202L21.1166 33.7376C19.826 43.0305 19.8452 48.3528 20.5519 58.0181L21.6813 61.9708C26.4099 62.8152 29.0062 62.8148 33.5392 61.9708C30.7159 55.7659 31.8452 32.6147 34.6686 29.7849C29.1547 28.9699 26.3918 28.9671 21.6813 29.2202Z" fill="#01CBEA"/>
<path d="M13.776 33.7376L12.6466 41.6429V50.6775L13.776 57.4535C16.4231 58.2334 17.9177 58.2776 20.5519 58.0181C19.8452 48.3528 19.826 43.0305 21.1166 33.7376C18.249 33.2786 16.6445 33.3146 13.776 33.7376Z" fill="#01CBEA"/>
<path d="M9.25866 41.6429L7 43.9015V47.8542L9.25866 50.1128L12.6466 50.6775V41.6429H9.25866Z" fill="#01CBEA"/>
<path d="M34.6686 29.7849C36.9272 39.9553 35.7979 55.7659 33.5392 61.9708C30.7159 55.7659 31.8452 32.6147 34.6686 29.7849Z" fill="#1FC16B"/>
<path d="M12.6466 41.6429H9.25866L7 43.9015V47.8542L9.25866 50.1128L12.6466 50.6775M12.6466 41.6429L13.776 33.7376C16.6445 33.3146 18.249 33.2786 21.1166 33.7376M12.6466 41.6429V50.6775M21.1166 33.7376L21.6813 29.2202C26.3918 28.9671 29.1547 28.9699 34.6686 29.7849M21.1166 33.7376C19.826 43.0305 19.8452 48.3527 20.5519 58.0181M34.6686 29.7849C36.9272 39.9553 35.7979 55.7659 33.5392 61.9708M34.6686 29.7849C31.8452 32.6147 30.7159 55.7659 33.5392 61.9708M33.5392 61.9708C29.0062 62.8148 26.4099 62.8152 21.6813 61.9708L20.5519 58.0181M20.5519 58.0181C17.9177 58.2776 16.4231 58.2334 13.776 57.4535L12.6466 50.6775" stroke="black" stroke-width="1.2" stroke-linejoin="round"/>
<path d="M70.9088 29.3745L71.4735 33.8919C72.7641 43.1848 72.7449 48.507 72.0381 58.1724L70.9088 62.1251C66.1802 62.9695 63.5839 62.9691 59.0509 62.1251C61.8742 55.9202 60.7449 32.7689 57.9215 29.9392C63.4354 29.1242 66.1983 29.1214 70.9088 29.3745Z" fill="#01CBEA"/>
<path d="M78.8141 33.8919L79.9434 41.7972V50.8318L78.8141 57.6078C76.167 58.3877 74.6724 58.4319 72.0381 58.1724C72.7449 48.507 72.7641 43.1848 71.4735 33.8919C74.3411 33.4329 75.9456 33.4689 78.8141 33.8919Z" fill="#01CBEA"/>
<path d="M83.3314 41.7972L85.5901 44.0558V48.0085L83.3314 50.2671L79.9434 50.8318V41.7972H83.3314Z" fill="#01CBEA"/>
<path d="M57.9215 29.9392C55.6629 40.1096 56.7922 55.9202 59.0509 62.1251C61.8742 55.9202 60.7449 32.7689 57.9215 29.9392Z" fill="#1FC16B"/>
<path d="M79.9434 41.7972H83.3314L85.5901 44.0558V48.0085L83.3314 50.2671L79.9434 50.8318M79.9434 41.7972L78.8141 33.8919C75.9456 33.4689 74.3411 33.4329 71.4735 33.8919M79.9434 41.7972V50.8318M71.4735 33.8919L70.9088 29.3745C66.1983 29.1214 63.4354 29.1242 57.9215 29.9392M71.4735 33.8919C72.7641 43.1848 72.7449 48.507 72.0381 58.1724M57.9215 29.9392C55.6629 40.1096 56.7922 55.9202 59.0509 62.1251M57.9215 29.9392C60.7449 32.7689 61.8742 55.9202 59.0509 62.1251M59.0509 62.1251C63.5839 62.9691 66.1802 62.9695 70.9088 62.1251L72.0381 58.1724M72.0381 58.1724C74.6724 58.4319 76.167 58.3877 78.8141 57.6078L79.9434 50.8318" stroke="black" stroke-width="1.2" stroke-linejoin="round"/>
<path d="M34.1041 42.7793H57.82C57.8612 42.95 57.8995 43.1161 57.9351 43.278C58.4584 45.6635 58.3715 47.1573 57.82 49.5553H34.1041C33.6902 46.8334 33.7054 45.3757 34.1041 42.7793Z" fill="#F6B51E"/>
<path d="M57.9351 43.278C58.4584 45.6635 58.3715 47.1573 57.82 49.5553L57.255 51.8139L58.949 49.5553L57.9351 43.278Z" fill="#111111"/>
<path d="M57.82 42.7793H34.1041C33.7054 45.3757 33.6902 46.8334 34.1041 49.5553H57.82M57.82 42.7793L57.9351 43.278M57.82 42.7793C57.8612 42.95 57.8995 43.1161 57.9351 43.278M57.82 49.5553L57.255 51.8139L58.949 49.5553L57.9351 43.278M57.82 49.5553C58.3715 47.1573 58.4584 45.6635 57.9351 43.278" stroke="black" stroke-width="1.2" stroke-linejoin="round"/>
<path d="M34 48L33 50.5L35 52L34 48Z" fill="#111111" stroke="black"/>
</svg>
