<svg width="124" height="124" viewBox="0 0 124 124" fill="none" xmlns="http://www.w3.org/2000/svg">
<path d="M86.694 30.5196C87.331 27.903 85.3493 25.3809 82.6563 25.3809H54.9747C53.0812 25.3809 51.4271 26.6608 50.952 28.4938L34.3814 92.4176C33.708 95.0154 35.6367 97.5607 38.3198 97.6152L66.8683 98.1947C68.816 98.2343 70.5297 96.9156 70.9904 95.0229L86.694 30.5196Z" fill="#01CBEA" stroke="#111111" stroke-width="1.5" stroke-linejoin="round"/>
<path d="M84.469 31.0787C85.0403 28.6819 83.223 26.3805 80.759 26.3805H54.6404C52.8954 26.3805 51.3729 27.5648 50.9437 29.2562L35.3302 90.7777C34.7264 93.1565 36.4941 95.4781 38.9478 95.529L65.8832 96.0875C67.6782 96.1247 69.2561 94.9051 69.6723 93.1586L84.469 31.0787Z" fill="#01CBEA"/>
<path d="M81.7048 36.4295C82.2647 34.225 80.5988 32.083 78.3244 32.083H54.58C53.0045 32.083 51.6246 33.1393 51.2132 34.6602L37.111 86.7999C36.5187 88.9899 38.1418 91.1535 40.41 91.1976L64.8913 91.6739C66.5118 91.7055 67.9405 90.6165 68.3396 89.0455L81.7048 36.4295Z" fill="#111111"/>
<rect width="6.10138" height="0.476671" rx="0.238335" transform="matrix(-1 0 0 1 69.6282 28.6558)" fill="#111111" stroke="#111111" stroke-width="1.5" stroke-linejoin="round"/>
<path d="M87.3037 28.5336C87.1552 27.6467 84.1291 25 84.1291 25L86.1442 29.1752L71.6949 92.3293L70.2635 95.989L66.0032 98.8293C65.4619 99.811 70.4994 99.4517 72.2721 96.9405C74.0448 94.4292 87.4522 29.4206 87.3037 28.5336Z" fill="#111111"/>
<path d="M98.9124 39.8445C96.7396 40.0134 95.8299 40.6626 95.0342 43.3257C95.0301 40.502 94.12 39.7911 91.5529 39.4475C94.5297 39.0723 95.1373 38.1486 95.4311 35.9663C95.8046 38.6664 96.7324 39.2995 98.9124 39.8445Z" fill="#F6B51E"/>
<path d="M37.407 59.1062C34.6844 59.3179 33.5446 60.1313 32.5475 63.4682C32.5424 59.9301 31.402 59.0393 28.1854 58.6088C31.9154 58.1386 32.6767 56.9812 33.0449 54.2467C33.5128 57.6301 34.6754 58.4233 37.407 59.1062Z" fill="#F6B51E"/>
<path d="M86.7603 64.6372L88.4936 95.4048C94.769 98.5609 98.2522 98.7243 104.528 95.4048L106.261 64.2039C99.0943 66.4244 94.7768 66.6696 86.7603 64.6372Z" fill="#01CBEA"/>
<path d="M85.4602 61.0193V63.3372L86.7603 64.6372C94.7768 66.6696 99.0943 66.4244 106.261 64.2039L107.128 63.3372V61.0193C100.4 65.1067 89.8927 63.5385 85.4602 61.0193Z" fill="#01CBEA"/>
<path d="M85.4602 61.0193C89.8927 63.5385 100.4 65.1067 107.128 61.0193C106.903 60.9341 106.68 60.8514 106.46 60.771C99.1702 58.1104 94.5397 58.0987 86.7603 60.59C86.3366 60.7256 85.9035 60.8688 85.4602 61.0193Z" fill="#01CBEA"/>
<path d="M86.7603 60.59C94.5397 58.0987 99.1702 58.1104 106.46 60.771C101.475 47.486 90.7626 49.2468 86.7603 60.59Z" fill="#01CBEA"/>
<path d="M85.4602 61.0193V63.3372L86.7603 64.6372M85.4602 61.0193C89.8927 63.5385 100.4 65.1067 107.128 61.0193M85.4602 61.0193C85.9035 60.8688 86.3366 60.7256 86.7603 60.59M86.7603 64.6372L88.4936 95.4048C94.769 98.5609 98.2522 98.7243 104.528 95.4048L106.261 64.2039M86.7603 64.6372C94.7768 66.6696 99.0943 66.4244 106.261 64.2039M106.261 64.2039L107.128 63.3372V61.0193M107.128 61.0193C106.903 60.9341 106.68 60.8514 106.46 60.771M86.7603 60.59C94.5397 58.0987 99.1702 58.1104 106.46 60.771M86.7603 60.59C90.7626 49.2468 101.475 47.486 106.46 60.771M106.466 60.7872C106.464 60.7818 106.462 60.7764 106.46 60.771" stroke="black" stroke-width="1.5" stroke-linejoin="round"/>
<path d="M103.57 73.0054C97.9974 75.5228 94.8968 75.6615 89.592 73.0054L91.0257 93.0769C95.3094 95.2566 97.8174 95.1851 102.495 93.0769L103.57 73.0054Z" fill="#1FC16B"/>
<path d="M89.592 73.0054C94.8968 75.6615 97.9974 75.5228 103.57 73.0054C97.8024 70.7003 94.7525 70.7802 89.592 73.0054Z" fill="#1FC16B"/>
<path d="M89.592 73.0054C94.8968 75.6615 97.9974 75.5228 103.57 73.0054M89.592 73.0054L91.0257 93.0769C95.3094 95.2566 97.8174 95.1851 102.495 93.0769L103.57 73.0054M89.592 73.0054C94.7525 70.7802 97.8024 70.7003 103.57 73.0054" stroke="black" stroke-width="1.5" stroke-linejoin="round"/>
<path d="M48.3786 77.4004H17.983C16.8886 77.4004 16.0015 78.2876 16.0015 79.3819V97.0036C16.0015 98.098 16.8886 98.9851 17.983 98.9851H48.3786C49.473 98.9851 50.3601 98.098 50.3601 97.0036V79.3819C50.3601 78.2876 49.473 77.4004 48.3786 77.4004Z" fill="#F6B51E"/>
<path d="M48.3786 77.4004H17.983C16.8886 77.4004 16.0015 78.2876 16.0015 79.3819V97.0036C16.0015 98.098 16.8886 98.9851 17.983 98.9851H48.3786C49.473 98.9851 50.3601 98.098 50.3601 97.0036V79.3819C50.3601 78.2876 49.473 77.4004 48.3786 77.4004Z" stroke="#111111" stroke-width="1.5" stroke-linejoin="round"/>
<path d="M48.3786 77.4004H17.983C16.8886 77.4004 16.0015 78.2876 16.0015 79.3819V97.0036C16.0015 98.098 16.8886 98.9851 17.983 98.9851H48.3786C49.473 98.9851 50.3601 98.098 50.3601 97.0036V79.3819C50.3601 78.2876 49.473 77.4004 48.3786 77.4004Z" stroke="#111111" stroke-width="1.5" stroke-linejoin="round"/>
<path d="M48.3786 77.4004H17.983C16.8886 77.4004 16.0015 78.2876 16.0015 79.3819V97.0036C16.0015 98.098 16.8886 98.9851 17.983 98.9851H48.3786C49.473 98.9851 50.3601 98.098 50.3601 97.0036V79.3819C50.3601 78.2876 49.473 77.4004 48.3786 77.4004Z" stroke="#111111" stroke-width="1.5" stroke-linejoin="round"/>
<rect x="18.3005" y="83.2743" width="6.54619" height="4.91849" rx="2.45925" fill="#111111"/>
<rect x="18.3005" y="89.96" width="25.6186" height="1.20308" rx="0.601542" fill="#111111"/>
<rect x="18.3005" y="80.3016" width="6.12158" height="1.20308" rx="0.601542" fill="#111111"/>
<rect x="18.3005" y="96.1909" width="5.62619" height="1.23847" rx="0.619235" fill="#111111"/>
<rect x="42.4319" y="94.4558" width="5.62619" height="2.97233" rx="0.849236" fill="#111111"/>
<path d="M93.6999 50.4173L87.3094 47.0737L88.4497 45.2312L95.7807 49.3608L99.3168 74.2789L97.1587 74.4722L93.6999 50.4173Z" stroke="black" stroke-width="1.5" stroke-linejoin="round"/>
</svg>
