<svg fill="none" height="61" viewBox="0 0 52 61" width="52" xmlns="http://www.w3.org/2000/svg"><path d="m.599976 29.5779c-.00016 20.5102 13.500024 25.5 13.500024 25.5l20.5.0105c1.5634.2081 13.3612-5.2487 16-25.5-1.9323 2.1688-6.6655 3.7026-12.5003 4.6047-.6536.1011-1.3211.1941-2 .279-.9786.1225-1.981.2281-3 .3168-12.7156 1.1075-28.01694-.4117-31.99981-4.701l6.49984-4.4995 5.99997 1 9-5 12.5 4 2.6364.4793 1.5275-7.8449c-14.7628-4.9732-38.663515-2.6174-38.663624 11.3551z" fill="#01cbea"/><path d="m46.0997 27.5884 4.5003 2c.3682-3.9254-2.4579-7.1701-6.932-9.5124l-2.8145 6.5585z" fill="#01cbea"/><path d="m50.6 29.5884-4.5003-2-5.2462-.9539-2.3405 5.4539-.4133 2.1047c5.8348-.9021 10.568-2.4359 12.5003-4.6047z" fill="#f6b51e"/><path d="m22.5997 21.5884-9 5 8.5 5 14-1.5005-1-4.4995z" fill="#f6b51e"/><path d="m7.59973 25.5884-6.49984 4.4995c3.98287 4.2893 19.28421 5.8085 31.99981 4.701 1.019-.0887 2.0214-.1943 3-.3168l1.6364-8.4044-2.6364-.4793 1 4.4995-14 1.5005-8.5-5z" fill="#f6b51e"/><g fill="#111"><path d="m40.3783 22.5884.7242-3.6887c-.5946-.2388-1.2084-.4645-1.8389-.6769l-1.5275 7.8449 1.8915.3439z"/><path d="m44.5997 1.08838-1.9011-.380257-3.435 17.514677c.6305.2124 1.2443.4381 1.8389.6769z"/><path d="m36.0997 34.4721c.6789-.0849 1.3464-.1779 2-.279l.4133-2.1047 1.1146-5.6768-1.8915-.3439z"/><path d="m50.0997 5.08838-2-.5-6.2691 14.61442c.6383.2755 1.252.5667 1.8374.8732z"/><path d="m40.8535 26.6345 2.8145-6.5585c-.5854-.3065-1.1991-.5977-1.8374-.8732l-1.4523 3.3856-.7507 3.8232z"/></g><path clip-rule="evenodd" d="m14.1 59.5884v-4.5105l20.5 3.5105v1z" fill="#1fc16b" fill-rule="evenodd"/><path d="m34.6 55.0884-20.5-.0105 20.5 3.5105z" fill="#111"/><path d="m14.1 55.0779s-13.500184-4.9898-13.500024-25.5c.000109-13.9725 23.900824-16.3283 38.663624-11.3551m-25.1636 36.8551 20.5.0105m-20.5-.0105v4.5105h20.5v-1m-20.5-3.5105 20.5 3.5105m0-3.5c1.5634.2081 13.3612-5.2487 16-25.5m-16 25.5v3.5m16-29-4.5003-2-5.2462-.9539m9.7465 2.9539c-1.9323 2.1688-6.6655 3.7026-12.5003 4.6047m12.5003-4.6047c.3682-3.9254-2.4579-7.1701-6.932-9.5124m-30.0683 6.5124-5.99997-1-6.49984 4.4995c3.98287 4.2893 19.28421 5.8085 31.99981 4.701m-19.5-8.2005-1.5 7.5m1.5-7.5 9-5 12.5 4m-21.5 1 8.5 5 14-1.5005-1-4.4995m0 0 2.6364.4793m-15.1364 5.5207 10.5 3.2005m0 0c1.019-.0887 2.0214-.1943 3-.3168m0 0c.6789-.0849 1.3464-.1779 2-.279m-2 .279 1.6364-8.4044m4.3639-25.479321 2.4997.500001m0 0-3.4972 17.81132m3.4972-17.81132-1.9011-.380257-3.435 17.514677m-1.1639 15.9703.4133-2.1047m1.8653-9.5 1.4523-3.3856m-1.4523 3.3856-.7507 3.8232m.7507-3.8232.7242-3.6887m-2.5895 13.1887 2.3405-5.4539m-2.3405 5.4539 1.1146-5.6768m-1.8915-.3439 1.5275-7.8449m-1.5275 7.8449 1.8915.3439m-.364-8.1888c.6305.2124 1.2443.4381 1.8389.6769m2.5655 1.1763-2.8145 6.5585m2.8145-6.5585 6.4317-14.98762-2-.5-6.2691 14.61442m1.8374.8732c-.5854-.3065-1.1991-.5977-1.8374-.8732m-.9771 7.4317-1.2259-.2229m2.203-7.2088c-.2393-.1032-.482-.2043-.7281-.3031" stroke="#111" stroke-linejoin="round" stroke-width="1.2"/></svg>