<svg width="92" height="92" viewBox="0 0 92 92" fill="none" xmlns="http://www.w3.org/2000/svg">
<path d="M21 45.9895C20.9998 66.4998 34.5 71.4895 34.5 71.4895L55 71.5C56.5635 71.7081 68.3612 66.2514 71 46C69.0677 48.1689 64.3345 49.7026 58.4998 50.6048C57.8461 50.7058 57.1787 50.7988 56.4998 50.8838C55.5211 51.0062 54.5187 51.1118 53.4998 51.2005C40.7842 52.308 25.4828 50.7888 21.4999 46.4995L27.9998 42L33.9998 43L42.9998 38L55.4998 42L58.1361 42.4793L59.6636 34.6344C44.9008 29.6612 21.0001 32.017 21 45.9895Z" fill="#01CBEA"/>
<path d="M66.4998 44L71 46C71.3682 42.0746 68.5421 38.8299 64.068 36.4876L61.2535 43.0461L66.4998 44Z" fill="#01CBEA"/>
<path d="M71 46L66.4998 44L61.2535 43.0461L58.913 48.5L58.4998 50.6048C64.3345 49.7026 69.0677 48.1689 71 46Z" fill="#F6B51E"/>
<path d="M42.9998 38L33.9998 43L42.4998 48L56.4998 46.4995L55.4998 42L42.9998 38Z" fill="#F6B51E"/>
<path d="M27.9998 42L21.4999 46.4995C25.4828 50.7888 40.7842 52.308 53.4998 51.2005C54.5187 51.1118 55.5211 51.0062 56.4998 50.8838L58.1361 42.4793L55.4998 42L56.4998 46.4995L42.4998 48L33.9998 43L27.9998 42Z" fill="#F6B51E"/>
<path d="M60.7783 39L61.5026 35.3114C60.908 35.0726 60.2941 34.8468 59.6636 34.6344L58.1361 42.4793L60.0276 42.8232L60.7783 39Z" fill="#111111"/>
<path d="M64.9998 17.5L63.0987 17.1197L59.6636 34.6344C60.2941 34.8468 60.908 35.0726 61.5026 35.3114L64.9998 17.5Z" fill="#111111"/>
<path d="M56.4998 50.8838C57.1787 50.7988 57.8461 50.7058 58.4998 50.6048L58.913 48.5L60.0276 42.8232L58.1361 42.4793L56.4998 50.8838Z" fill="#111111"/>
<path d="M70.4998 21.5L68.4998 21L62.2306 35.6145C62.869 35.8899 63.4826 36.1812 64.068 36.4876L70.4998 21.5Z" fill="#111111"/>
<path d="M61.2535 43.0461L64.068 36.4876C63.4826 36.1812 62.869 35.8899 62.2306 35.6145L60.7783 39L60.0276 42.8232L61.2535 43.0461Z" fill="#111111"/>
<path fill-rule="evenodd" clip-rule="evenodd" d="M34.5 76V71.4895L55 75V76H34.5Z" fill="#1FC16B"/>
<path d="M55 71.5L34.5 71.4895L55 75L55 71.5Z" fill="#111111"/>
<path d="M34.5 71.4895C34.5 71.4895 20.9998 66.4998 21 45.9895C21.0001 32.017 44.9008 29.6612 59.6636 34.6344M34.5 71.4895L55 71.5M34.5 71.4895V76H55V75M34.5 71.4895L55 75M55 71.5C56.5635 71.7081 68.3612 66.2514 71 46M55 71.5L55 75M71 46L66.4998 44L61.2535 43.0461M71 46C69.0677 48.1689 64.3345 49.7026 58.4998 50.6048M71 46C71.3682 42.0746 68.5421 38.8299 64.068 36.4876M33.9998 43L27.9998 42L21.4999 46.4995C25.4828 50.7888 40.7842 52.308 53.4998 51.2005M33.9998 43L32.4998 50.5M33.9998 43L42.9998 38L55.4998 42M33.9998 43L42.4998 48L56.4998 46.4995L55.4998 42M55.4998 42L58.1361 42.4793M42.9998 48L53.4998 51.2005M53.4998 51.2005C54.5187 51.1118 55.5211 51.0062 56.4998 50.8838M56.4998 50.8838C57.1787 50.7988 57.8461 50.7058 58.4998 50.6048M56.4998 50.8838L58.1361 42.4793M62.5 17L64.9998 17.5M64.9998 17.5L61.5026 35.3114M64.9998 17.5L63.0987 17.1197L59.6636 34.6344M58.4998 50.6048L58.913 48.5M60.7783 39L62.2306 35.6145M60.7783 39L60.0276 42.8232M60.7783 39L61.5026 35.3114M58.913 48.5L61.2535 43.0461M58.913 48.5L60.0276 42.8232M58.1361 42.4793L59.6636 34.6344M58.1361 42.4793L60.0276 42.8232M59.6636 34.6344C60.2941 34.8468 60.908 35.0726 61.5026 35.3114M64.068 36.4876L61.2535 43.0461M64.068 36.4876L70.4998 21.5L68.4998 21L62.2306 35.6145M64.068 36.4876C63.4826 36.1812 62.869 35.8899 62.2306 35.6145M61.2535 43.0461L60.0276 42.8232M62.2306 35.6145C61.9913 35.5112 61.7486 35.4102 61.5026 35.3114" stroke="#111111" stroke-width="1.2" stroke-linejoin="round"/>
</svg>
