<svg width="124" height="124" viewBox="0 0 124 124" fill="none" xmlns="http://www.w3.org/2000/svg">
<path d="M48.1052 36.2453L59.992 40.2075L61.971 39.4879L89.0486 29.6415H114.803V27H89.0486L60.6502 36.9057L50.7446 33.6038L48.1052 36.2453Z" fill="#1FC16B"/>
<path fill-rule="evenodd" clip-rule="evenodd" d="M9.80335 74.5472C3.83969 82.555 2.41279 87.3329 3.19958 97H9.80335C9.70721 93.3103 9.86197 90.5182 10.6332 88.0526C11.4659 85.3909 13.017 83.1097 15.7467 80.4906L18.3861 83.1299L19.709 84.4528L25.6524 79.8302C25.6524 79.8302 36.8745 95.0189 40.8389 95.0189C44.8033 95.0189 68.5769 73.8868 68.5769 73.8868V52.0943L59.992 40.2075L48.1052 36.2453L6.50146 69.9245L9.80335 74.5472ZM54.0464 64.6415L34.2351 79.8302L42.1597 89.7359L45.4615 87.2044L48.1892 85.1132L59.992 76.0644L61.971 74.5472L54.0464 64.6415Z" fill="#01CBEA"/>
<path d="M54.0464 64.6415L35.9579 78.5094L53.3861 67.9434L56.0276 71.1907L58.0098 73.6275L59.992 76.0644L61.971 74.5472L54.0464 64.6415Z" fill="#111111"/>
<path d="M56.0276 71.1907L47.4427 79.1698L45.4615 87.2044L48.1892 85.1132L49.4238 79.8302L58.0098 73.6275L56.0276 71.1907Z" fill="#111111"/>
<path fill-rule="evenodd" clip-rule="evenodd" d="M10.6332 88.0526C11.4659 85.3909 13.017 83.1097 15.7467 80.4906L18.3861 83.1299C14.3744 87.8291 13.6048 90.9095 13.7634 97H13.1031L10.6332 88.0526Z" fill="#1FC16B"/>
<path d="M10.6332 88.0526C9.86197 90.5182 9.70721 93.3103 9.80335 97H13.1031L10.6332 88.0526Z" fill="#111111"/>
<path d="M114.803 29.6415H89.0486L61.971 39.4879L59.992 40.2075L68.5769 52.0943L70.5559 51.1349L90.3694 41.5283L114.803 37.566V29.6415Z" fill="#01CBEA"/>
<path d="M48.1052 36.2453L6.50146 69.9245L9.80335 74.5472C3.83969 82.555 2.41279 87.3329 3.19958 97H9.80335M48.1052 36.2453L59.992 40.2075M48.1052 36.2453L50.7446 33.6038L60.6502 36.9057L89.0486 27H114.803V29.6415M59.992 40.2075L68.5769 52.0943M59.992 40.2075L61.971 39.4879L89.0486 29.6415H114.803M114.803 29.6415V37.566L90.3694 41.5283L70.5559 51.1349L68.5769 52.0943M68.5769 52.0943V73.8868C68.5769 73.8868 44.8033 95.0189 40.8389 95.0189C36.8745 95.0189 25.6524 79.8302 25.6524 79.8302L19.709 84.4528L18.3861 83.1299M9.80335 97C9.70721 93.3103 9.86197 90.5182 10.6332 88.0526M9.80335 97H13.1031M18.3861 83.1299L15.7467 80.4906C13.017 83.1097 11.4659 85.3909 10.6332 88.0526M18.3861 83.1299C14.3744 87.8291 13.6048 90.9095 13.7634 97H13.1031M54.0464 64.6415L34.2351 79.8302L42.1597 89.7359L45.4615 87.2044M54.0464 64.6415L61.971 74.5472L59.992 76.0644M54.0464 64.6415L35.9579 78.5094L53.3861 67.9434L56.0276 71.1907M59.992 76.0644L48.1892 85.1132M59.992 76.0644L58.0098 73.6275M56.0276 71.1907L47.4427 79.1698L45.4615 87.2044M56.0276 71.1907L58.0098 73.6275M45.4615 87.2044L48.1892 85.1132M48.1892 85.1132L49.4238 79.8302L58.0098 73.6275M10.6332 88.0526L13.1031 97" stroke="#111111" stroke-width="1.5" stroke-linejoin="round"/>
<path fill-rule="evenodd" clip-rule="evenodd" d="M108.196 62.3156C110.359 56.8621 114.417 50.7728 114.417 50.7728C114.417 50.7728 123.661 63.32 121.681 69.2634C120.872 71.6932 118.627 72.9088 116.121 73.1812C110.355 70.1768 108.982 67.6255 108.196 62.3156Z" fill="#F6B51E"/>
<path d="M108.196 62.3156C107.095 65.0921 106.485 67.7039 107.153 69.2634C108.323 71.9962 112.496 73.575 116.121 73.1812C110.355 70.1768 108.982 67.6255 108.196 62.3156Z" fill="#111111"/>
<path d="M108.196 62.3156C110.359 56.8621 114.417 50.7728 114.417 50.7728C114.417 50.7728 123.661 63.32 121.681 69.2634C120.872 71.6932 118.627 72.9089 116.121 73.1812M108.196 62.3156C107.095 65.0921 106.485 67.7039 107.153 69.2634C108.323 71.9962 112.496 73.575 116.121 73.1812M108.196 62.3156C108.982 67.6255 110.355 70.1768 116.121 73.1812" stroke="#111111" stroke-width="1.5" stroke-linejoin="round"/>
</svg>
