<svg width="92" height="92" viewBox="0 0 92 92" fill="none" xmlns="http://www.w3.org/2000/svg">
<path d="M60.949 36.2343C64.3731 33.6459 65.6291 31.8882 66.8688 28.2783C64.4423 25.116 62.5931 24.547 58.2998 26.0306C58.0761 30.3968 56.5186 32.4835 52.6089 35.9132L60.949 36.2343Z" fill="#111111" stroke="#111111" stroke-width="1.2"/>
<path d="M30.0757 36.2375C26.6516 33.6491 25.3956 31.8913 24.1559 28.2815C26.5825 25.1192 28.4316 24.5502 32.725 26.0338C32.9486 30.3999 34.5061 32.4867 38.4159 35.9164L30.0757 36.2375Z" fill="#111111" stroke="#111111" stroke-width="1.2"/>
<rect x="26.1441" y="35.7183" width="40.5317" height="41.0456" rx="1.54162" fill="#01CBEA" stroke="#111111" stroke-width="1.2"/>
<rect x="23.5118" y="35.7183" width="45.8632" height="13.168" rx="1.54162" fill="#F6B51E" stroke="#111111" stroke-width="1.2"/>
<rect x="26.1441" y="48.8906" width="40.5317" height="1.73432" fill="#111111" stroke="#111111" stroke-width="1.2"/>
<path d="M66.3885 28.9128C58.9013 24.105 55.2979 26.1153 48.4672 35.8831L46.3475 31.7079C50.8932 20.7574 51.8681 11.5186 65.5856 18.6363C67.5769 20.6266 68.9579 25.7333 66.3885 28.9128Z" fill="#1FC16B" stroke="#111111" stroke-width="1.2"/>
<path d="M24.4017 28.7778C31.8889 23.97 35.4923 25.9803 42.323 35.7481L44.4427 31.5729C39.897 20.6224 38.9221 11.3836 25.2046 18.5012C23.2134 20.4916 21.8323 25.5982 24.4017 28.7778Z" fill="#1FC16B" stroke="#111111" stroke-width="1.2"/>
<ellipse cx="45.4815" cy="34.9502" rx="4.04675" ry="3.66135" fill="#01CBEA" stroke="#111111" stroke-width="1.2"/>
<rect x="40.2142" y="35.7839" width="10.5344" height="40.7244" fill="#1FC16B" stroke="#111111" stroke-width="1.2"/>
</svg>
