<svg width="124" height="124" viewBox="0 0 124 124" fill="none" xmlns="http://www.w3.org/2000/svg">
<path d="M82.1496 61.3734C86.7647 57.8847 88.4576 55.5156 90.1285 50.6501C86.8579 46.388 84.3656 45.6211 78.5789 47.6207C78.2775 53.5055 76.1783 56.318 70.9086 60.9406L82.1496 61.3734Z" fill="#111111" stroke="#111111" stroke-width="1.5"/>
<path d="M40.5379 61.3777C35.9228 57.889 34.2299 55.5199 32.559 50.6544C35.8296 46.3922 38.3219 45.6253 44.1086 47.625C44.41 53.5097 46.5092 56.3223 51.7789 60.9449L40.5379 61.3777Z" fill="#111111" stroke="#111111" stroke-width="1.5"/>
<rect x="35.2386" y="60.6776" width="54.6297" height="55.3223" rx="2.07783" fill="#01CBEA" stroke="#111111" stroke-width="1.5"/>
<rect x="31.6909" y="60.6776" width="61.8156" height="17.7482" rx="2.07783" fill="#F6B51E" stroke="#111111" stroke-width="1.5"/>
<rect x="35.2386" y="78.4316" width="54.6297" height="2.33756" fill="#111111" stroke="#111111" stroke-width="1.5"/>
<path d="M89.4812 51.5052C79.3897 45.0251 74.533 47.7347 65.3264 60.8999L62.4694 55.2725C68.5962 40.5131 69.9103 28.0608 88.399 37.6542C91.0829 40.3369 92.9443 47.2197 89.4812 51.5052Z" fill="#1FC16B" stroke="#111111" stroke-width="1.5"/>
<path d="M32.8903 51.3233C42.9817 44.8432 47.8384 47.5528 57.0451 60.7181L59.9021 55.0906C53.7752 40.3312 52.4612 27.8789 33.9725 37.4723C31.2886 40.155 29.4272 47.0378 32.8903 51.3233Z" fill="#1FC16B" stroke="#111111" stroke-width="1.5"/>
<ellipse cx="61.3021" cy="59.6425" rx="5.45432" ry="4.93486" fill="#01CBEA" stroke="#111111" stroke-width="1.5"/>
<rect x="54.2028" y="60.7664" width="14.1985" height="54.8895" fill="#1FC16B" stroke="#111111" stroke-width="1.5"/>
<rect x="74.0435" y="16.929" width="2.63343" height="5.84814" transform="rotate(122.633 74.0435 16.929)" fill="#111111"/>
<rect x="85.386" y="16.4982" width="6.22373" height="7.05427" transform="rotate(16.9963 85.386 16.4982)" fill="#F6B51E"/>
<rect x="34.8772" y="19.0784" width="3.17927" height="3.60353" transform="rotate(16.9963 34.8772 19.0784)" fill="#F6B51E"/>
<rect x="55.8629" y="8" width="4.74315" height="6.53105" transform="rotate(49.7528 55.8629 8)" fill="#01CBEA"/>
<rect x="64.1707" y="33.0162" width="3.7303" height="5.13642" transform="rotate(49.7528 64.1707 33.0162)" fill="#01CBEA"/>
</svg>
