<svg fill="none" height="62" viewBox="0 0 48 62" width="48" xmlns="http://www.w3.org/2000/svg"><g stroke="#111" stroke-width="1.2"><path d="m38.5488 20.8346c3.4241-2.5883 4.6801-4.3461 5.9199-7.956-2.4266-3.16222-4.2757-3.73122-8.5691-2.2476-.2236 4.3661-1.7811 6.4528-5.6909 9.8825z" fill="#111"/><path d="m7.67559 20.8378c-3.42411-2.5884-4.68009-4.3461-5.91985-7.956 2.42658-3.16224 4.27569-3.73124 8.56906-2.2476.2237 4.3661 1.7811 6.4528 5.6909 9.8825z" fill="#111"/><rect fill="#01cbea" height="41.0456" rx="1.54162" width="40.5317" x="3.74396" y="20.3186"/><rect fill="#f6b51e" height="13.168" rx="1.54162" width="45.8632" x="1.11169" y="20.3186"/><path d="m3.74396 33.491h40.5317v1.73432h-40.5317z" fill="#111"/><path d="m43.9884 13.5132c-7.4873-4.80787-11.0906-2.7975-17.9213 6.9703l-2.1198-4.1752c4.5458-10.95058 5.5207-20.18939 19.2381-13.0717 1.9913 1.99038 3.3723 7.097.803 10.2766z" fill="#1fc16b"/><path d="m2.00155 13.3782c7.48723-4.80788 11.09055-2.7975 17.92135 6.9703l2.1197-4.1753c-4.5457-10.95049-5.5207-20.1893-19.23812-13.07161-1.991257 1.99038-3.372292 7.09701-.80293 10.27661z" fill="#1fc16b"/><ellipse cx="23.0814" cy="19.5505" fill="#01cbea" rx="4.04675" ry="3.66135"/><path d="m17.814 20.3843h10.5344v40.7244h-10.5344z" fill="#1fc16b"/></g></svg>