<svg width="124" height="124" viewBox="0 0 124 124" fill="none" xmlns="http://www.w3.org/2000/svg">
<path d="M94.0863 55.2355C99.1495 59.4319 97.3471 69.9607 90.0606 78.7522C82.7741 87.5437 75.309 91.4129 67.6995 87.0723C53.6254 79.0442 60.4131 67.9102 67.6996 59.1187C74.9861 50.3272 84.4354 44.8205 94.0863 55.2355Z" fill="#1FC16B" stroke="#111111" stroke-width="1.5"/>
<ellipse cx="75.3668" cy="66.5875" rx="20.6756" ry="11.9072" transform="rotate(-50.3477 75.3668 66.5875)" fill="#01CBEA" stroke="#111111" stroke-width="1.5"/>
<ellipse cx="75.3668" cy="66.5875" rx="20.6756" ry="11.9072" transform="rotate(-50.3477 75.3668 66.5875)" fill="#F6B51E" stroke="#111111" stroke-width="1.5"/>
<ellipse cx="75.4174" cy="66.5265" rx="15.7959" ry="9.09696" transform="rotate(-50.3477 75.4174 66.5265)" fill="#01CBEA" stroke="#111111" stroke-width="1.5"/>
<path d="M54.4676 77.6714C52.5706 81.8343 45.1729 82.5387 37.9446 79.2447C30.7162 75.9507 26.5441 70.8321 28.2915 65.7427C32.1111 54.6178 39.8334 57.3654 47.0618 60.6595C54.2901 63.9535 59.7061 69.2971 54.4676 77.6714Z" fill="#1FC16B" stroke="#111111" stroke-width="1.5"/>
<ellipse cx="43.4459" cy="67.1629" rx="14.3834" ry="8.28346" transform="rotate(24.4991 43.4459 67.1629)" fill="#01CBEA" stroke="#111111" stroke-width="1.5"/>
<ellipse cx="43.4459" cy="67.1629" rx="14.3834" ry="8.28346" transform="rotate(24.4991 43.4459 67.1629)" fill="#F6B51E" stroke="#111111" stroke-width="1.5"/>
<ellipse cx="43.4955" cy="67.1851" rx="10.9887" ry="6.32846" transform="rotate(24.4991 43.4955 67.1851)" fill="#01CBEA" stroke="#111111" stroke-width="1.5"/>
<path d="M45.2917 80.8488L46.7101 76.329C50.2888 77.4375 52.3432 76.9969 56.0915 74.7739L53.5245 79.1871C50.2665 80.987 48.4708 81.1682 45.2917 80.8488Z" fill="#111111"/>
<path d="M38.1701 48.9526C38.2321 50.4843 38.6646 51.1407 40.5157 51.7697C38.5308 51.6987 38.0073 52.3198 37.6987 54.1152C37.5128 52.0131 36.8794 51.5618 35.3531 51.2982C37.2608 51.1063 37.7301 50.4707 38.1701 48.9526Z" fill="#F6B51E"/>
<path d="M50.3579 92.717C50.0554 97.2818 43.3848 100.557 35.4586 100.031C27.5325 99.5061 21.8199 96.1935 21.6548 90.815C21.2938 79.0582 29.4888 78.8977 37.4149 79.4229C45.3411 79.9481 52.2967 83.0314 50.3579 92.717Z" fill="#1FC16B" stroke="#111111" stroke-width="1.5"/>
<ellipse cx="36.3315" cy="86.7845" rx="14.3834" ry="8.28346" transform="rotate(3.7911 36.3315 86.7845)" fill="#01CBEA" stroke="#111111" stroke-width="1.5"/>
<ellipse cx="36.3315" cy="86.7845" rx="14.3834" ry="8.28346" transform="rotate(3.7911 36.3315 86.7845)" fill="#F6B51E" stroke="#111111" stroke-width="1.5"/>
<ellipse cx="36.3868" cy="86.7867" rx="10.9887" ry="6.32846" transform="rotate(3.7911 36.3868 86.7867)" fill="#01CBEA" stroke="#111111" stroke-width="1.5"/>
<path d="M27.1138 23.6498C43.229 47.5026 48.8784 46.2323 58.89 43.6571C58.6969 41.8358 58.3001 40.0997 57.6727 38.4655C54.5103 30.2293 45.4862 24.5801 27.1138 23.6498Z" fill="#01CBEA"/>
<path d="M57.1247 82.4948H60.0669L61.239 43.815C60.4808 43.7863 59.6984 43.7327 58.89 43.6571C59.453 56.6268 59.0059 65.2365 57.1247 82.4948Z" fill="#01CBEA"/>
<path d="M85.9587 16C64.4375 21.5961 61.5658 27.4696 57.6727 38.4655C58.3001 40.0997 58.6969 41.8358 58.89 43.6571L61.239 43.815C73.1073 44.2649 79.0422 38.6279 85.9587 16Z" fill="#1FC16B"/>
<path d="M57.6727 38.4655C61.5658 27.4696 64.4375 21.5961 85.9587 16C79.0422 38.6279 73.1073 44.2649 61.239 43.815M57.6727 38.4655C58.3001 40.0997 58.6969 41.8358 58.89 43.6571M57.6727 38.4655C54.5103 30.2293 45.4862 24.5801 27.1138 23.6498M61.239 43.815L58.89 43.6571M61.239 43.815C60.4808 43.7863 59.6984 43.7327 58.89 43.6571M61.239 43.815L60.0669 82.4948H57.1247C59.0059 65.2365 59.453 56.6268 58.89 43.6571M58.89 43.6571C48.8784 46.2323 43.229 47.5026 27.1138 23.6498M58.89 43.6571C57.7233 32.657 49.1317 24.7647 27.1138 23.6498" stroke="black" stroke-width="1.5"/>
<ellipse cx="70.1474" cy="101.894" rx="20.9731" ry="5.10561" fill="#111111"/>
<path d="M85.3922 89.6614C85.5011 96.7975 75.5447 102.736 63.1539 102.925C50.7631 103.114 41.4604 98.6879 40.5212 90.3461C38.4682 72.1115 51.19 70.8221 63.5808 70.633C75.9716 70.444 87.1778 74.3555 85.3922 89.6614Z" fill="#1FC16B" stroke="#111111" stroke-width="1.5"/>
<ellipse cx="62.828" cy="82.2221" rx="22.4387" ry="12.9225" transform="rotate(-0.874219 62.828 82.2221)" fill="#01CBEA" stroke="#111111" stroke-width="1.5"/>
<ellipse cx="62.828" cy="82.2221" rx="22.4387" ry="12.9225" transform="rotate(-0.874219 62.828 82.2221)" fill="#F6B51E" stroke="#111111" stroke-width="1.5"/>
<ellipse cx="62.915" cy="82.2188" rx="17.1429" ry="9.87267" transform="rotate(-0.874219 62.915 82.2188)" fill="#01CBEA" stroke="#111111" stroke-width="1.5"/>
<path d="M73.5101 101.392L72.8093 93.8836C78.1758 91.5275 80.3127 89.4985 84.9995 85.6552L84.5723 93.8836C80.898 98.5317 78.3735 99.9033 73.5101 101.392Z" fill="#111111"/>
<path d="M97.0144 77.1973C97.0763 78.7289 97.5088 79.3853 99.36 80.0143C97.375 79.9433 96.8516 80.5645 96.5429 82.3599C96.357 80.2577 95.7236 79.8064 94.1974 79.5428C96.1051 79.3509 96.5743 78.7153 97.0144 77.1973Z" fill="#F6B51E"/>
</svg>
