<svg fill="none" height="54" viewBox="0 0 64 54" width="64" xmlns="http://www.w3.org/2000/svg"><path d="m1.49957 42.1293c-6.07757-6.3603 7.84509-10.2404 14.52933-10.5937l17.7746 16.698c1.7495 1.6435.3886 4.4813-1.9758 4.0668-10.2686-1.8005-25.6788-5.3054-30.32813-10.1711z" fill="#111"/><path d="m37.4175 5.1196c5.8832-5.883045 15.4216-5.883152 21.3048 0 5.8831 5.8831 5.883 15.4216 0 21.3048l-4.97 4.9692c-.0002.0002-.0002.0006 0 .0008s.0006.0001.0004.0003c-.0075.0072-11.5679 11.2476-19.8732 19.5095-.9692.9642-2.5327.9653-3.4981-.0026-10.2004-10.2272-24.20867-24.4772-24.20867-24.4772-5.883046-5.8832-5.88315-15.4217 0-21.3048 5.88317-5.883152 15.42157-5.883045 21.30477 0l4.3862 4.38621c.3222.32221.8446.32222 1.1669.00004z" fill="#1fc16b" stroke="#111" stroke-width="1.41445"/><g fill="#111"><path d="m29.6849 14.5693h6.2842v21.9947h-6.2842z"/><path d="m21.8297 28.7087v-6.2841h21.9946v6.2841z"/></g></svg>