<svg fill="none" height="82" viewBox="0 0 79 82" width="79" xmlns="http://www.w3.org/2000/svg"><g fill="#f6b51e"><circle cx="11.8731" cy="10.4322" r="3.95787"/><path d="m11.5138 3.59814h.719613v2.15884h-.719613z"/><path d="m5.03678 10.792h.719613v2.15884h-.719613z" transform="matrix(0 -1 1 0 -5.75522 15.82878)"/><path d="m5.03678 10.792h.719613v2.15884h-.719613z" transform="matrix(0 -1 1 0 -5.75522 15.82878)"/><path d="m16.7616 5.75903h.719613v2.15884h-.719613z" transform="matrix(.64505634 .76413501 -.76413501 .64505634 10.3501 -10.763994)"/><path d="m0 0h.719613v2.15884h-.719613z" transform="matrix(.645057 -.764135 -.764135 -.645057 8.12637 7.70068)"/><path d="m0 0h.719613v2.15884h-.719613z" transform="matrix(1 0 0 -1 11.5138 17.7751)"/><path d="m0 0h.719613v2.15884h-.719613z" transform="matrix(.645057 -.764135 -.764135 -.645057 16.7616 15.6162)"/><path d="m8.12637 13.6726h.719613v2.15884h-.719613z" transform="matrix(.64505634 .76413501 -.76413501 .64505634 13.332116 -1.356641)"/><path d="m16.551 10.792h.719613v2.15884h-.719613z" transform="matrix(0 -1 1 0 5.759 27.343)"/></g><path d="m19.1645 18.9692 1.9443 10.4581c14.4254-13.4968 20.6102-14.3768 31.2286-14.4888-1.7189-2.147-3.3778-2.9341-5.41-4.4835-8.0277-1.37041-17.6035.845-27.7629 8.5142z" fill="#01cbea"/><path d="m21.1088 29.4273 12.0231 13.738c6.9899-14.0381 11.2522-19.8477 19.2055-28.2268-10.6184.112-16.8032.992-31.2286 14.4888z" fill="#1fc16b"/><path d="m39.0855 45.6768 10.4188 4.395c6.8472-15.9105 6.1252-23.0911 2.8331-35.1333-7.9533 8.3791-12.2156 14.1887-19.2055 28.2268l3.5011 1.4769z" fill="#01cbea"/><path d="m49.5043 50.0718 15.5041-2.1062c.9429-19.8073-2.4678-26.7613-12.671-33.0271 3.2921 12.0422 4.0141 19.2228-2.8331 35.1333z" fill="#f6b51e"/><path d="m65.0084 47.9656 4.5243-5.3894c1.0584-9.9786-2.7444-19.714-9.6949-25.8874l-7.5004-1.7503c10.2032 6.2658 13.6139 13.2198 12.671 33.0271z" fill="#01cbea"/><path d="m53.5516 12.5319-1.2142 2.4066 7.5004 1.7503c-1.8771-1.6672-3.9837-3.0747-6.2862-4.1569z" fill="#1fc16b"/><path d="m46.9274 10.455c2.0322 1.5494 3.6911 2.3365 5.41 4.4835l1.2142-2.4066c-2.0595-.968-4.2756-1.6759-6.6242-2.0769z" fill="#f6b51e"/><path d="m39.0855 45.6768-2.4525-1.0346-7.7016 14.8991 2.2483 1.1343z" fill="#01cbea"/><path d="m28.9314 59.5413-4.8915 9.5416 2.5187.3598 4.6211-8.7671z" fill="#111"/><path d="m65.0084 47.9656 4.5243-5.3894c1.0584-9.9786-2.7444-19.714-9.6949-25.8874m5.1706 31.2768-15.5041 2.1062m15.5041-2.1062c.9429-19.8073-2.4678-26.7613-12.671-33.0271m-2.8331 35.1333-10.4188-4.395m10.4188 4.395c6.8472-15.9105 6.1252-23.0911 2.8331-35.1333m-19.2055 28.2268-12.0231-13.738m12.0231 13.738c6.9899-14.0381 11.2522-19.8477 19.2055-28.2268m-19.2055 28.2268 3.5011 1.4769m-15.5242-15.2149-1.9443-10.4581c10.1594-7.6692 19.7352-9.88461 27.7629-8.5142m-25.8186 18.9723c14.4254-13.4968 20.6102-14.3768 31.2286-14.4888m-15.6432 29.5855-.0612.1182m2.4525 1.0346-7.9058 14.9988m7.9058-14.9988-2.4525-1.0346m15.7044-29.7037c-1.7189-2.147-3.3778-2.9341-5.41-4.4835m5.41 4.4835 1.2142-2.4066m-1.2142 2.4066s4.5713 1.0667 7.5004 1.7503m-7.5004-1.7503 7.5004 1.7503m-12.9104-6.2338c2.3486.401 4.5647 1.1089 6.6242 2.0769m0 0c2.3025 1.0822 4.4091 2.4897 6.2862 4.1569m-30.9064 42.8525-4.8915 9.5416 2.5187.3598 4.6211-8.7671m-2.2483-1.1343 2.2483 1.1343m-2.2483-1.1343 7.7016-14.8991" stroke="#111" stroke-linejoin="round" stroke-width="1.2"/><ellipse cx="42.9429" cy="70.3793" fill="#111" rx="21.3546" ry="2.01459"/></svg>