<svg width="92" height="92" viewBox="0 0 92 92" fill="none" xmlns="http://www.w3.org/2000/svg">
<circle cx="18.8732" cy="15.4322" r="3.95787" fill="#F6B51E"/>
<rect x="18.5139" y="8.59814" width="0.719613" height="2.15884" fill="#F6B51E"/>
<rect x="12.0369" y="15.792" width="0.719613" height="2.15884" transform="rotate(-90 12.0369 15.792)" fill="#F6B51E"/>
<rect x="12.0369" y="15.792" width="0.719613" height="2.15884" transform="rotate(-90 12.0369 15.792)" fill="#F6B51E"/>
<rect x="23.7617" y="10.759" width="0.719613" height="2.15884" transform="rotate(49.8301 23.7617 10.759)" fill="#F6B51E"/>
<rect width="0.719613" height="2.15884" transform="matrix(0.645057 -0.764135 -0.764135 -0.645057 15.1264 12.7007)" fill="#F6B51E"/>
<rect width="0.719613" height="2.15884" transform="matrix(1 0 0 -1 18.5139 22.7751)" fill="#F6B51E"/>
<rect width="0.719613" height="2.15884" transform="matrix(0.645057 -0.764135 -0.764135 -0.645057 23.7617 20.6162)" fill="#F6B51E"/>
<rect x="15.1264" y="18.6726" width="0.719613" height="2.15884" transform="rotate(49.8301 15.1264 18.6726)" fill="#F6B51E"/>
<rect x="23.5511" y="15.792" width="0.719613" height="2.15884" transform="rotate(-90 23.5511 15.792)" fill="#F6B51E"/>
<path d="M26.1646 23.9692L28.1088 34.4273C42.5343 20.9305 48.7191 20.0505 59.3375 19.9385C57.6186 17.7915 55.9596 17.0044 53.9275 15.455C45.8998 14.0846 36.324 16.3 26.1646 23.9692Z" fill="#01CBEA"/>
<path d="M28.1088 34.4273L40.132 48.1653C47.1219 34.1272 51.3842 28.3176 59.3375 19.9385C48.7191 20.0505 42.5343 20.9305 28.1088 34.4273Z" fill="#1FC16B"/>
<path d="M46.0856 50.6768L56.5044 55.0718C63.3516 39.1613 62.6296 31.9807 59.3375 19.9385C51.3842 28.3176 47.1219 34.1272 40.132 48.1653L43.6331 49.6422L46.0856 50.6768Z" fill="#01CBEA"/>
<path d="M56.5044 55.0718L72.0085 52.9656C72.9514 33.1583 69.5407 26.2043 59.3375 19.9385C62.6296 31.9807 63.3516 39.1613 56.5044 55.0718Z" fill="#F6B51E"/>
<path d="M72.0085 52.9656L76.5328 47.5762C77.5912 37.5976 73.7883 27.8622 66.8379 21.6888L59.3375 19.9385C69.5407 26.2043 72.9514 33.1583 72.0085 52.9656Z" fill="#01CBEA"/>
<path d="M60.5517 17.5319L59.3375 19.9385L66.8379 21.6888C64.9608 20.0216 62.8541 18.6141 60.5517 17.5319Z" fill="#1FC16B"/>
<path d="M53.9275 15.455C55.9596 17.0044 57.6186 17.7915 59.3375 19.9385L60.5517 17.5319C58.4922 16.5639 56.2761 15.856 53.9275 15.455Z" fill="#F6B51E"/>
<path d="M46.0856 50.6768L43.6331 49.6422L35.9315 64.5413L38.1798 65.6756L46.0856 50.6768Z" fill="#01CBEA"/>
<path d="M35.9315 64.5413L31.04 74.0829L33.5586 74.4427L38.1798 65.6756L35.9315 64.5413Z" fill="#111111"/>
<path d="M72.0085 52.9656L76.5328 47.5762C77.5912 37.5976 73.7883 27.8622 66.8379 21.6888M72.0085 52.9656L56.5044 55.0718M72.0085 52.9656C72.9514 33.1583 69.5407 26.2043 59.3375 19.9385M56.5044 55.0718L46.0856 50.6768M56.5044 55.0718C63.3516 39.1613 62.6296 31.9807 59.3375 19.9385M40.132 48.1653L28.1088 34.4273M40.132 48.1653C47.1219 34.1272 51.3842 28.3176 59.3375 19.9385M40.132 48.1653L43.6331 49.6422M28.1088 34.4273L26.1646 23.9692C36.324 16.3 45.8998 14.0846 53.9275 15.455M28.1088 34.4273C42.5343 20.9305 48.7191 20.0505 59.3375 19.9385M43.6942 49.524L43.6331 49.6422M46.0856 50.6768L38.1798 65.6756M46.0856 50.6768L43.6331 49.6422M59.3375 19.9385C57.6186 17.7915 55.9596 17.0044 53.9275 15.455M59.3375 19.9385L60.5517 17.5319M59.3375 19.9385C59.3375 19.9385 63.9088 21.0052 66.8379 21.6888M59.3375 19.9385L66.8379 21.6888M53.9275 15.455C56.2761 15.856 58.4922 16.5639 60.5517 17.5319M60.5517 17.5319C62.8541 18.6141 64.9608 20.0216 66.8379 21.6888M35.9315 64.5413L31.04 74.0829L33.5586 74.4427L38.1798 65.6756M35.9315 64.5413L38.1798 65.6756M35.9315 64.5413L43.6331 49.6422" stroke="#111111" stroke-width="1.2" stroke-linejoin="round"/>
<ellipse cx="49.943" cy="75.3793" rx="21.3546" ry="2.01459" fill="#111111"/>
</svg>
