<svg width="124" height="124" viewBox="0 0 124 124" fill="none" xmlns="http://www.w3.org/2000/svg">
<path fill-rule="evenodd" clip-rule="evenodd" d="M30.7845 29.2609V40.7391H33.1758H45.6106H61.3932H75.2628V57H61.3932H45.6106H33.1758H30.7845V82.8261V95.2609H51.3497V68H68.5671V95.2609H88.1758V29.2609H30.7845ZM37.4802 87.1304V68H44.6541V87.1304H37.4802ZM82.4367 68H75.2628V87.1304H82.4367V68Z" fill="#01CBEA"/>
<path d="M26.0019 95.2609H30.7845V82.8261C27.3904 82.1714 26.2816 83.4974 25.0454 87.6087C21.2676 87.7996 20.2241 88.9258 19.7845 92.3913C15.7207 94.3068 14.9527 96.111 15.0019 100.043H26.0019V95.2609Z" fill="#1A7544"/>
<path d="M93.915 82.8261V101H108.741C108.825 96.8324 107.988 95.1417 104.437 93.8261C104.041 90.012 102.966 88.8906 99.6541 88.5652C98.5972 84.5893 97.2884 83.4065 93.915 82.8261Z" fill="#1A7544"/>
<path d="M26.0019 24V29.2609H30.7845H88.1758V95.2609H68.5671H51.3497H30.7845H26.0019V100.043L93.915 101V82.8261V24H26.0019Z" fill="#1FC16B"/>
<path d="M51.3497 68V95.2609H68.5671V68H51.3497Z" fill="#F6B51E"/>
<path d="M30.7845 29.2609H26.0019V24H93.915V82.8261M30.7845 29.2609V40.7391H33.1758M30.7845 29.2609H88.1758V95.2609H68.5671M33.1758 40.7391V57M33.1758 40.7391H45.6106M33.1758 57H30.7845V82.8261M33.1758 57H45.6106M30.7845 95.2609H26.0019V100.043M30.7845 95.2609H51.3497M30.7845 95.2609V82.8261M26.0019 100.043L93.915 101M26.0019 100.043H15.0019C14.9527 96.111 15.7207 94.3068 19.7845 92.3913C20.2241 88.9258 21.2676 87.7996 25.0454 87.6087C26.2816 83.4974 27.3904 82.1714 30.7845 82.8261M93.915 101V82.8261M93.915 101H108.741C108.825 96.8324 107.988 95.1417 104.437 93.8261C104.041 90.012 102.966 88.8906 99.6541 88.5652C98.5972 84.5893 97.2884 83.4065 93.915 82.8261M45.6106 40.7391V57M45.6106 40.7391H61.3932M45.6106 57H61.3932M61.3932 40.7391H75.2628V57H61.3932M61.3932 40.7391V57M51.3497 95.2609V68H68.5671V95.2609M51.3497 95.2609H68.5671M37.4802 68V87.1304H44.6541V68H37.4802ZM75.2628 68H82.4367V87.1304H75.2628V68Z" stroke="black" stroke-width="1.5"/>
</svg>
