<svg fill="none" height="59" viewBox="0 0 71 59" width="71" xmlns="http://www.w3.org/2000/svg"><path clip-rule="evenodd" d="m12.3113 4.50332v8.51618h1.7742 9.2258 11.7097 10.2903v12.0645h-10.2903-11.7097-9.2258-1.7742v19.1613 9.2258h15.2581v-20.2258h12.7742v20.2258h14.5484v-48.96778zm4.9678 42.93548v-14.1935h5.3225v14.1935zm33.3548-14.1935h-5.3226v14.1935h5.3226z" fill="#01cbea" fill-rule="evenodd"/><path d="m8.76293 53.4711h3.54837v-9.2258c-2.51821-.4858-3.34086.498-4.25805 3.5483-2.8029.1417-3.57709.9773-3.90323 3.5484-3.01509 1.4212-3.584884 2.7598-3.548382 5.6775h8.161292z" fill="#1a7544"/><path d="m59.15 44.2453v13.4838h11c.0624-3.0921-.5584-4.3465-3.1935-5.3226-.2933-2.8298-1.0912-3.6617-3.5484-3.9032-.7842-2.9499-1.7552-3.8274-4.2581-4.258z" fill="#1a7544"/><path d="m8.76293.600098v3.903222h3.54837 42.5807v48.96778h-14.5484-12.7742-15.2581-3.54837v3.5484l50.38707.7096v-13.4838-43.645202z" fill="#1fc16b"/><path d="m27.5694 33.2453v20.2258h12.7742v-20.2258z" fill="#f6b51e"/><path d="m12.3113 4.50332h-3.54837v-3.903222h50.38707v43.645202m-46.8387-39.74198v8.51618h1.7742m-1.7742-8.51618h42.5807v48.96778h-14.5484m-26.2581-40.4516v12.0645m0-12.0645h9.2258m-9.2258 12.0645h-1.7742v19.1613m1.7742-19.1613h9.2258m-11 28.3871h-3.54837v3.5484m3.54837-3.5484h15.2581m-15.2581 0v-9.2258m-3.54837 12.7742 50.38707.7096m-50.38707-.7096h-8.161292c-.036502-2.9177.533292-4.2563 3.548382-5.6775.32614-2.5711 1.10033-3.4067 3.90323-3.5484.91719-3.0503 1.73984-4.0341 4.25805-3.5483m46.8387 13.4838v-13.4838m0 13.4838h11c.0624-3.0921-.5584-4.3465-3.1935-5.3226-.2933-2.8298-1.0912-3.6617-3.5484-3.9032-.7842-2.9499-1.7552-3.8274-4.2581-4.258m-35.8387-31.2258v12.0645m0-12.0645h11.7097m-11.7097 12.0645h11.7097m0-12.0645h10.2903v12.0645h-10.2903m0-12.0645v12.0645m-7.4516 28.3871v-20.2258h12.7742v20.2258m-12.7742 0h12.7742m-23.0645-20.2258v14.1935h5.3225v-14.1935zm28.0322 0h5.3226v14.1935h-5.3226z" stroke="#111" stroke-width="1.2"/></svg>