<svg width="124" height="124" viewBox="0 0 124 124" fill="none" xmlns="http://www.w3.org/2000/svg">
<rect x="22.5162" y="23.9995" width="91.6526" height="62.75" rx="3.41033" transform="rotate(3.00888 22.5162 23.9995)" fill="#1FC16B" stroke="#111111" stroke-width="1.5"/>
<path d="M101.757 77.9666L108.333 89.5316H95.1809L101.757 77.9666Z" fill="#111111" stroke="#111111" stroke-width="1.5"/>
<ellipse cx="28.3171" cy="56.2248" rx="5.62704" ry="5.54178" transform="rotate(-0.11 28.3171 56.2248)" fill="#F6B51E" stroke="#111111" stroke-width="1.5"/>
<rect x="10.0012" y="37.5321" width="91.6526" height="62.75" rx="3.41033" transform="rotate(-0.111759 10.0012 37.5321)" fill="#01CBEA" stroke="#111111" stroke-width="1.5"/>
<rect x="21.5131" y="81.3804" width="68.8034" height="5.54178" fill="#F6B51E" stroke="#111111" stroke-width="1.5"/>
<rect x="47.3441" y="71.7451" width="32.3129" height="5.54178" fill="#F6B51E" stroke="#111111" stroke-width="1.5"/>
<rect x="47.3441" y="62.1147" width="42.9701" height="5.54178" fill="#F6B51E" stroke="#111111" stroke-width="1.5"/>
<rect x="47.3441" y="52.4746" width="16.7106" height="5.54178" fill="#F6B51E" stroke="#111111" stroke-width="1.5"/>
<ellipse cx="30.8926" cy="56.2423" rx="5.62704" ry="5.54178" transform="rotate(-0.11 30.8926 56.2423)" fill="#F6B51E" stroke="#111111" stroke-width="1.5"/>
<path d="M21.4577 69.6081C21.4528 67.0655 23.5101 65.0003 26.0528 64.9954L35.6869 64.9769C38.2296 64.972 40.2948 67.0293 40.2997 69.572L40.3144 77.2118L21.4724 77.248L21.4577 69.6081Z" fill="#F6B51E" stroke="#111111" stroke-width="1.5"/>
</svg>
