<svg width="124" height="124" viewBox="0 0 124 124" fill="none" xmlns="http://www.w3.org/2000/svg">
<path d="M41.8494 83.9092C41.8494 78.2589 46.4298 73.6784 52.0802 73.6784H77.0177C82.668 73.6784 87.2485 78.2589 87.2485 83.9092V95.4188C87.2485 101.069 82.668 105.65 77.0177 105.65H52.0802C46.4298 105.65 41.8494 101.069 41.8494 95.4188V83.9092Z" fill="#F6B51E"/>
<path fill-rule="evenodd" clip-rule="evenodd" d="M95.561 40.4283C95.561 34.778 90.9806 30.1975 85.3302 30.1975H44.4071C38.7568 30.1975 34.1763 34.778 34.1763 40.4283V52.2065L92.9335 56.3195C93.6931 56.3727 94.2822 57.0044 94.2822 57.7659C94.2822 58.4647 93.7813 59.0639 93.0949 59.195C83.6723 60.9941 78.7507 62.5978 72.5457 65.9397C71.6911 66.4 70.7801 66.7577 69.8326 66.9689C59.6724 69.2332 53.1487 69.8217 43.4692 68.9346C41.1761 68.7245 39.0453 67.6772 37.417 66.0489L36.8722 65.5041C35.9364 64.5683 35.191 63.4597 34.6774 62.24L34.1763 61.0497V99.2554C34.1763 104.906 38.7567 109.486 44.4071 109.486H85.3302C90.9806 109.486 95.561 104.906 95.561 99.2554V40.4283ZM41.8494 83.9092C41.8494 78.2589 46.4298 73.6784 52.0802 73.6784H77.0177C82.668 73.6784 87.2485 78.2589 87.2485 83.9092V95.4188C87.2485 101.069 82.668 105.65 77.0177 105.65H52.0802C46.4298 105.65 41.8494 101.069 41.8494 95.4188V83.9092Z" fill="#01CBEA"/>
<path d="M93.0949 59.195C93.7813 59.0639 94.2822 58.4647 94.2822 57.7659C94.2822 57.0044 93.6931 56.3727 92.9335 56.3195L34.1763 52.2065V61.0497L34.6774 62.24C35.191 63.4597 35.9364 64.5683 36.8722 65.5041L37.417 66.0489C39.0453 67.6772 41.1761 68.7245 43.4692 68.9346C53.1487 69.8217 59.6724 69.2332 69.8326 66.9689C70.7801 66.7577 71.6911 66.4 72.5457 65.9397C78.7507 62.5978 83.6723 60.9941 93.0949 59.195Z" fill="#1FC16B"/>
<path d="M34.1763 52.2065V40.4283C34.1763 34.778 38.7568 30.1975 44.4071 30.1975H85.3302C90.9806 30.1975 95.561 34.778 95.561 40.4283V99.2554C95.561 104.906 90.9806 109.486 85.3302 109.486H44.4071C38.7567 109.486 34.1763 104.906 34.1763 99.2554V61.0497M34.1763 52.2065L92.9335 56.3195C93.6931 56.3727 94.2822 57.0044 94.2822 57.7659C94.2822 58.4647 93.7813 59.0639 93.0949 59.195C83.6723 60.9941 78.7507 62.5978 72.5457 65.9397C71.6911 66.4 70.7801 66.7577 69.8326 66.9689C59.6724 69.2332 53.1487 69.8217 43.4692 68.9346C41.1761 68.7245 39.0453 67.6772 37.417 66.0489L36.8722 65.5041C35.9364 64.5683 35.191 63.4597 34.6774 62.24L34.1763 61.0497M34.1763 52.2065V61.0497M52.0802 105.65H77.0177C82.668 105.65 87.2485 101.069 87.2485 95.4188V83.9092C87.2485 78.2589 82.668 73.6784 77.0177 73.6784H52.0802C46.4298 73.6784 41.8494 78.2589 41.8494 83.9092V95.4188C41.8494 101.069 46.4298 105.65 52.0802 105.65Z" stroke="black" stroke-width="1.5" stroke-linejoin="bevel"/>
<path d="M95.5609 73.6784C96.6046 74.0548 97.1812 74.3563 98.1186 76.2361V95.4188C97.3683 98.7767 96.7457 99.4902 95.5609 100.534V73.6784Z" fill="#F6B51E"/>
<path d="M34.1761 72.3995C32.619 72.7427 31.8751 73.4769 30.3396 76.2361V95.4188C31.4639 98.912 32.3757 99.9644 34.1761 101.174V72.3995Z" fill="#F6B51E"/>
<path d="M95.5609 73.6784C96.6046 74.0548 97.1812 74.3563 98.1186 76.2361V95.4188C97.3683 98.7767 96.7457 99.4902 95.5609 100.534V73.6784Z" stroke="black" stroke-width="1.5" stroke-linejoin="bevel"/>
<path d="M34.1761 72.3995C32.619 72.7427 31.8751 73.4769 30.3396 76.2361V95.4188C31.4639 98.912 32.3757 99.9644 34.1761 101.174V72.3995Z" stroke="black" stroke-width="1.5" stroke-linejoin="bevel"/>
<path d="M64.229 53.8562L76.3781 28.9186L78.2963 27.6398L94.282 34.034C94.0263 34.7826 94.0687 35.2026 94.282 35.9523L85.33 55.7745L64.229 53.8562Z" fill="#1FC16B"/>
<path d="M76.3781 28.9186L64.229 53.8562L85.33 55.7745L94.282 35.9523M76.3781 28.9186L94.282 35.9523M76.3781 28.9186L78.2963 27.6398L94.282 34.034C94.0263 34.7826 94.0687 35.2026 94.282 35.9523" stroke="black" stroke-width="1.5" stroke-linejoin="bevel"/>
<path d="M40.5704 52.5773L35.3096 29.1981L59.0928 23.1843L66.7659 46.843L40.5704 52.5773Z" fill="#1FC16B" stroke="black" stroke-width="1.5" stroke-linejoin="bevel"/>
<path fill-rule="evenodd" clip-rule="evenodd" d="M54.6378 27.6398L51.4407 34.2023L42.4888 52.5774L68.7052 54.4956L72.222 47.462L77.0177 37.8706L54.6378 27.6398Z" fill="#F6B51E"/>
<path d="M54.6378 27.6398L77.0177 37.8706C76.8677 36.7387 76.9939 36.1391 77.6571 35.3129L57.1955 26.361L54.6378 27.6398Z" fill="#F6B51E"/>
<path d="M54.6378 27.6398L77.0177 37.8706M54.6378 27.6398L51.4407 34.2023L42.4888 52.5774L68.7052 54.4956L72.222 47.462L77.0177 37.8706M54.6378 27.6398L57.1955 26.361L77.6571 35.3129C76.9939 36.1391 76.8677 36.7387 77.0177 37.8706" stroke="black" stroke-width="1.5" stroke-linejoin="bevel"/>
<path d="M82.5051 71.6698C82.5051 71.6698 83.0899 70.1163 82.9377 69.8723C82.7856 69.6283 81.3627 70.9296 81.3627 70.9296L82.5051 71.6698Z" fill="#111111"/>
<path d="M75.3968 86.1832C76.7376 84.6414 82.001 73.7641 82.001 73.7641C81.3987 73.6781 80.9302 73.592 80.5556 73.4137C80.0942 73.1942 79.7753 72.8349 79.5242 72.1637C79.5242 72.1637 73.1892 83.5654 72.637 84.7156C72.33 85.3551 72.8029 86.2136 73.5138 86.5851C74.0817 86.8819 74.8014 86.8679 75.3968 86.1832Z" fill="#1FC16B"/>
<path d="M79.5242 72.1637C79.7753 72.8349 80.0942 73.1942 80.5556 73.4137C80.9302 73.592 81.3987 73.6781 82.001 73.7641L82.5051 71.6698L81.3627 70.9296L79.5242 72.1637Z" fill="#F6B51E"/>
<path d="M82.001 73.7641C82.001 73.7641 76.7376 84.6414 75.3968 86.1832C74.8014 86.8679 74.0817 86.8819 73.5138 86.5851M82.001 73.7641L82.5051 71.6698M82.001 73.7641C81.3987 73.6781 80.9302 73.592 80.5556 73.4137M79.5242 72.1637C79.5242 72.1637 73.1892 83.5654 72.637 84.7156C72.33 85.3551 72.8029 86.2136 73.5138 86.5851M79.5242 72.1637L81.3627 70.9296M79.5242 72.1637C79.7753 72.8349 80.0942 73.1942 80.5556 73.4137M82.5051 71.6698C82.5051 71.6698 83.0899 70.1163 82.9377 69.8723C82.7856 69.6283 81.3627 70.9296 81.3627 70.9296M82.5051 71.6698L81.3627 70.9296M73.5138 86.5851L80.5556 73.4137" stroke="#111111" stroke-width="1.5" stroke-linejoin="bevel"/>
<rect x="46.9646" y="81.3514" width="33.2501" height="16.625" rx="7.6731" fill="#F6B51E" stroke="black" stroke-width="1.5" stroke-linejoin="bevel"/>
</svg>
