<svg width="124" height="124" viewBox="0 0 124 124" fill="none" xmlns="http://www.w3.org/2000/svg">
<path d="M33.7249 32.3602L36.4268 46.8932C56.4729 28.1376 65.0674 26.9147 79.8232 26.759C77.4346 23.7755 75.1292 22.6817 72.3053 20.5287C61.1497 18.6243 47.8428 21.7028 33.7249 32.3602Z" fill="#01CBEA"/>
<path d="M36.4268 46.8932L53.1346 65.9841C62.8479 46.4762 68.771 38.4029 79.8232 26.759C65.0674 26.9147 56.4729 28.1376 36.4268 46.8932Z" fill="#1FC16B"/>
<path d="M61.4079 69.474L75.8863 75.5815C85.4013 53.4718 84.398 43.4933 79.8232 26.759C68.771 38.4029 62.8479 46.4762 53.1346 65.9841L57.9998 68.0364L61.4079 69.474Z" fill="#01CBEA"/>
<path d="M75.8863 75.5815L97.4313 72.6546C98.7415 45.1298 94.0019 35.4662 79.8232 26.759C84.398 43.4933 85.4013 53.4718 75.8863 75.5815Z" fill="#F6B51E"/>
<path d="M97.4313 72.6546L103.718 65.1654C105.189 51.2987 99.9046 37.7701 90.246 29.1913L79.8232 26.759C94.0019 35.4662 98.7415 45.1298 97.4313 72.6546Z" fill="#01CBEA"/>
<path d="M81.5105 23.4147L79.8232 26.759L90.246 29.1913C87.6375 26.8745 84.71 24.9187 81.5105 23.4147Z" fill="#1FC16B"/>
<path d="M72.3053 20.5287C75.1292 22.6817 77.4346 23.7755 79.8232 26.759L81.5105 23.4147C78.6486 22.0695 75.569 21.0859 72.3053 20.5287Z" fill="#F6B51E"/>
<path d="M43.7621 95.7478L40.7628 94.2345L42.7805 90.2354C41.9157 88.595 41.0693 88.2853 39.2812 88.47L37.2636 92.4691C37.2636 92.4691 35.9935 97.4725 39.9926 99.4901C43.9917 101.508 46.4569 97.59 46.7615 97.261L50.4217 90.3169L47.2974 88.7406L43.7621 95.7478Z" fill="#111111"/>
<path d="M61.4079 69.474L57.9998 68.0364L47.2974 88.7406L50.4217 90.3169L61.4079 69.474Z" fill="#01CBEA"/>
<path d="M97.4313 72.6546L103.718 65.1654C105.189 51.2987 99.9046 37.7701 90.246 29.1913M97.4313 72.6546L75.8863 75.5815M97.4313 72.6546C98.7415 45.1298 94.0019 35.4662 79.8232 26.759M75.8863 75.5815L61.4079 69.474M75.8863 75.5815C85.4013 53.4718 84.398 43.4933 79.8232 26.759M53.1346 65.9841L36.4268 46.8932M53.1346 65.9841C62.8479 46.4762 68.771 38.4029 79.8232 26.759M53.1346 65.9841L57.9998 68.0364M36.4268 46.8932L33.7249 32.3602C47.8428 21.7028 61.1497 18.6243 72.3053 20.5287M36.4268 46.8932C56.4729 28.1376 65.0674 26.9147 79.8232 26.759M58.0848 67.872L57.9998 68.0364M61.4079 69.474L50.4217 90.3169M61.4079 69.474L57.9998 68.0364M79.8232 26.759C77.4346 23.7755 75.1292 22.6817 72.3053 20.5287M79.8232 26.759L81.5104 23.4147M79.8232 26.759C79.8232 26.759 86.1756 28.2414 90.246 29.1913M79.8232 26.759L90.246 29.1913M72.3053 20.5287C75.569 21.0859 78.6486 22.0695 81.5104 23.4147M81.5104 23.4147C84.71 24.9187 87.6375 26.8745 90.246 29.1913M47.2974 88.7406L43.7621 95.7478L40.7628 94.2345L42.7805 90.2354C41.9157 88.595 41.0693 88.2853 39.2812 88.47L37.2636 92.4691C37.2636 92.4691 35.9935 97.4725 39.9926 99.4901C43.9917 101.508 46.4569 97.59 46.7615 97.261L50.4217 90.3169M47.2974 88.7406L50.4217 90.3169M47.2974 88.7406L57.9998 68.0364" stroke="black" stroke-width="1.11982"/>
<ellipse cx="69.283" cy="102.026" rx="29.6751" ry="2.79954" fill="#111111"/>
</svg>
