<svg width="124" height="124" viewBox="0 0 124 124" fill="none" xmlns="http://www.w3.org/2000/svg">
<path d="M96.4869 98.0822L47.5057 97.6555L94.787 93.8718L96.4869 98.0822Z" fill="#111111"/>
<path d="M35.7124 34.726H41.615L37.4572 97.0933H32.1857L35.7124 34.726Z" fill="#1FC16B" stroke="#111111" stroke-width="1.5"/>
<path d="M84.7552 33.9089H90.6579L86.5 96.2763H81.2285L84.7552 33.9089Z" fill="#1FC16B" stroke="#111111" stroke-width="1.5"/>
<rect x="33.2625" y="85.5078" width="58.655" height="3.19262" rx="1.59631" fill="#01CBEA" stroke="#111111" stroke-width="1.5"/>
<rect x="19" y="38.6567" width="79.7412" height="11.2855" rx="1.78193" fill="#1FC16B" stroke="#111111" stroke-width="1.5"/>
<path d="M39.3882 97.6882H45.2908L41.133 34.7269H35.8615L39.3882 97.6882Z" fill="#F6B51E" stroke="#111111" stroke-width="1.5"/>
<path d="M89.4291 97.0902H95.3317L91.1739 34.1288H85.9023L89.4291 97.0902Z" fill="#F6B51E" stroke="#111111" stroke-width="1.5"/>
<rect x="19" y="54.6962" width="79.7412" height="21.2346" rx="1.78193" fill="#1FC16B" stroke="#111111" stroke-width="1.5"/>
<rect x="25.1581" y="54.4603" width="79.7412" height="21.2346" rx="1.78193" fill="#01CBEA" stroke="#111111" stroke-width="1.5"/>
<rect x="24.7245" y="38.6567" width="79.7412" height="11.2855" rx="1.78193" fill="#01CBEA" stroke="#111111" stroke-width="1.5"/>
<ellipse cx="38.4226" cy="31.1227" rx="5.16016" ry="5.30865" fill="#01CBEA" stroke="#111111" stroke-width="1.5"/>
<ellipse cx="88.4635" cy="30.308" rx="5.16016" ry="5.30865" fill="#01CBEA" stroke="#111111" stroke-width="1.5"/>
<path d="M22.7139 75.7245L25.0046 60.2063L26.1292 75.7245H22.7139Z" fill="#111111"/>
<path d="M38.165 88.704L37.3112 92.8618L34.7497 88.704H38.165Z" fill="#111111"/>
<path d="M87.0911 88.704L86.2372 92.8618L83.6757 88.704H87.0911Z" fill="#111111"/>
<path d="M91.3243 35.0206V38.2875L87.909 35.0206H91.3243Z" fill="#111111"/>
<path d="M38.6105 76.4511L37.7566 85.0266L35.1951 76.4511H38.6105Z" fill="#111111"/>
<path d="M87.6105 76.4511L86.7566 85.0266L84.1951 76.4511H87.6105Z" fill="#111111"/>
<path d="M22.278 49.9426L24.9137 41.7012L25.6933 49.9426H22.278Z" fill="#111111"/>
<path d="M40.5398 35.9125L41.2452 38.2946L37.1245 35.9125H40.5398Z" fill="#111111"/>
<path d="M91.891 50.4941L92.5964 52.8762L88.4756 50.4941H91.891Z" fill="#111111"/>
<path d="M41.5736 50.4941L42.2791 52.8762L38.1583 50.4941H41.5736Z" fill="#111111"/>
</svg>
