<svg width="124" height="124" viewBox="0 0 124 124" fill="none" xmlns="http://www.w3.org/2000/svg">
<path d="M26.8361 31.0775C26.3263 28.9832 27.9124 26.9646 30.0679 26.9646H52.2233C53.7388 26.9646 55.0627 27.9891 55.443 29.4561L68.7057 80.6188C69.2446 82.698 67.701 84.7353 65.5535 84.7789L42.704 85.2427C41.1452 85.2744 39.7736 84.219 39.4048 82.7041L26.8361 31.0775Z" fill="#1FC16B" stroke="#111111" stroke-width="1.5"/>
<path d="M28.6182 31.5214C28.161 29.6031 29.6155 27.7611 31.5876 27.7611H52.4922C53.8888 27.7611 55.1074 28.709 55.4509 30.0628L67.9475 79.3027C68.4307 81.2067 67.0159 83.0648 65.052 83.1056L43.4937 83.5526C42.0571 83.5824 40.7942 82.6062 40.4611 81.2084L28.6182 31.5214Z" fill="#1A7544"/>
<path d="M31.1505 36.5001C30.7137 34.7395 32.0459 33.0364 33.8599 33.0364H52.8716C54.1388 33.0364 55.2469 33.8898 55.5706 35.1149L66.8925 77.9721C67.3544 79.7206 66.0573 81.44 64.2492 81.4761L44.6455 81.8666C43.3422 81.8925 42.1945 81.013 41.8806 79.7478L31.1505 36.5001Z" fill="#01CBEA"/>
<rect x="39.3834" y="29.6257" width="5.69095" height="0.444606" rx="0.222303" fill="#111111" stroke="#111111" stroke-width="1.5"/>
<ellipse cx="62.5287" cy="104.857" rx="35.1683" ry="2.75656" fill="#111111"/>
<path d="M25.0492 29.1739C25.9932 27.7559 28.5108 26.6582 28.5108 26.6582L26.8979 29.9999L38.4627 80.5466L41.9636 85.8177C41.9636 85.8177 38.5807 85.5017 37.7547 84.3229C36.9286 83.144 24.1051 30.5918 25.0492 29.1739Z" fill="#111111"/>
<path d="M98.1886 20.4167C98.6985 18.3225 97.1123 16.3038 94.9569 16.3038H72.8014C71.2859 16.3038 69.962 17.3283 69.5818 18.7953L56.3191 69.9581C55.7801 72.0373 57.3238 74.0745 59.4713 74.1181L82.3207 74.582C83.8796 74.6136 85.2511 73.5582 85.62 72.0433L98.1886 20.4167Z" fill="#1FC16B" stroke="#111111" stroke-width="1.5"/>
<path d="M96.4066 20.8647C96.8638 18.9463 95.4093 17.1044 93.4372 17.1044H72.5326C71.136 17.1044 69.9174 18.0523 69.5739 19.406L57.0773 68.646C56.594 70.55 58.0088 72.4081 59.9727 72.4488L81.531 72.8958C82.9677 72.9256 84.2305 71.9494 84.5637 70.5517L96.4066 20.8647Z" fill="#1A7544"/>
<path d="M94.1931 25.1477C94.6413 23.3833 93.308 21.6689 91.4875 21.6689H72.4833C71.2222 21.6689 70.1178 22.5143 69.7886 23.7316L58.5016 65.4628C58.0275 67.2155 59.3266 68.9473 61.142 68.9826L80.7361 69.3638C82.0331 69.389 83.1766 68.5174 83.496 67.2601L94.1931 25.1477Z" fill="#F6B51E"/>
<rect width="5.69095" height="0.444606" rx="0.222303" transform="matrix(-1 0 0 1 84.8572 19.3959)" fill="#111111" stroke="#111111" stroke-width="1.5"/>
<path d="M99.0542 18.8277C98.9354 18.1178 96.5133 15.9995 96.5133 15.9995L98.1261 19.3412L86.5614 69.8879L85.4157 72.8171L82.0059 75.0903C81.5726 75.8761 85.6045 75.5885 87.0233 73.5786C88.4421 71.5686 99.173 19.5376 99.0542 18.8277Z" fill="#111111"/>
<rect x="28.1508" y="47.3712" width="2.04547" height="5.04652" rx="1.02273" transform="rotate(-12.8404 28.1508 47.3712)" fill="#111111"/>
<rect x="26.811" y="41.7855" width="2.04547" height="5.04652" rx="1.02273" transform="rotate(-12.8404 26.811 41.7855)" fill="#111111"/>
</svg>
