<svg fill="none" height="66" viewBox="0 0 52 66" width="52" xmlns="http://www.w3.org/2000/svg"><path d="m1.02164 60.7081c1.49278-5.1537 1.42702-8.2175.0483-13.9195 20.17226-3.1317 29.33206-7.7682 42.83826-19.8367 2.0288 5.2594 2.7855 8.2082 2.0176 13.4674-14.3987 12.8007-24.0033 17.5921-44.90416 20.2888z" fill="#f6b51e" stroke="#111" stroke-width="1.2"/><path d="m6.23518 49.6051c.9512-5.4315.84994-8.4741-1.02467-13.8819 19.87089-4.6771 28.64609-10.0058 41.18189-23.0794 2.1884 4.5413 2.9285 7.3997 3.0496 13.2719-13.3693 13.8723-22.576 19.3898-43.20682 23.6894z" fill="#1fc16b" stroke="#111" stroke-width="1.2"/><path d="m8.66709 41.5181c.27538-5.6443-.05475-8.692-2.30288-13.7278 19.35379-6.4931 27.59909-12.6097 38.87339-26.78568 2.6689 3.83797 3.7377 6.50712 4.2628 12.93338-12.0304 15.0482-20.688 21.3927-40.83331 27.5801z" fill="#01cbea" stroke="#111" stroke-width="1.2"/><g fill="#111"><path d="m10.503 43.2385-.53669-1.9029c16.60279-4.7906 24.73469-10.3187 37.47359-24.4213l1.1467 3.7083c-13.2532 12.3866-21.5659 17.4141-38.0836 22.6159z"/><path d="m5.89803 50.6005-.20326-1.7809c15.55333-1.8697 23.63433-5.6325 37.08583-16.3969l.4862 3.4851c-13.6619 9.1541-21.8318 12.4426-37.36877 14.6927z"/><ellipse cx="29.2774" cy="25.0589" rx="5.73326" ry="2.73853" transform="matrix(.86138014 -.50796088 .50796088 .86138014 -8.670512 18.345435)"/><ellipse cx="24.7392" cy="47.6994" rx="5.73326" ry="2.73853" transform="matrix(.89600491 -.44404415 .44404415 .89600491 -18.607884 15.945801)"/><ellipse cx="30.1294" cy="36.0816" rx="5.73326" ry="2.02525" transform="matrix(.89600491 -.44404415 .44404415 .89600491 -12.888514 17.131093)"/><ellipse cx="25.8509" cy="64.828" rx="22.5427" ry=".805097"/></g><path d="m6.22313 23.0225c.04358 1.0779.34795 1.5398 1.65066 1.9824-1.39686-.0499-1.76526.3872-1.98246 1.6507-.13081-1.4794-.57656-1.797-1.65065-1.9825 1.34253-.135 1.67275-.5823 1.98245-1.6506z" fill="#f6b51e"/><path d="m48.99 39.6501c.0436 1.0779.348 1.5398 1.6507 1.9825-1.3969-.0499-1.7653.3872-1.9825 1.6507-.1308-1.4794-.5765-1.797-1.6506-1.9825 1.3425-.135 1.6727-.5823 1.9824-1.6507z" fill="#f6b51e"/></svg>