<svg width="124" height="124" viewBox="0 0 124 124" fill="none" xmlns="http://www.w3.org/2000/svg">
<rect x="46.4938" y="16" width="47.7568" height="93" rx="7.54054" fill="#01CBEA" stroke="#111111" stroke-width="1.5" stroke-linejoin="bevel"/>
<rect x="61.5735" y="16" width="17.5946" height="3.77027" rx="1.25676" fill="#111111"/>
<path d="M44.7817 41.1617C44.7817 40.6006 45.2366 40.1456 45.7978 40.1456V45.2261C45.2366 45.2261 44.7817 44.7712 44.7817 44.21V41.1617Z" fill="#111111"/>
<path d="M96.2831 51.5634C96.2831 50.8693 95.7204 50.3066 95.0263 50.3066H94.2509V58.4355H95.0263C95.7204 58.4355 96.2831 57.8728 96.2831 57.1787V51.5634Z" fill="#111111"/>
<path d="M44.7817 49.2923C44.7817 48.7312 45.2366 48.2762 45.7978 48.2762V53.3568C45.2366 53.3568 44.7817 52.9018 44.7817 52.3406V49.2923Z" fill="#111111"/>
<path d="M61.8618 89.7918C55.6139 87.5944 52.7398 85.4229 48.9449 79.5245L59.9036 75.946C58.3673 82.1005 59.0065 85.0652 61.8618 89.7918Z" fill="#F6B51E" stroke="#111111" stroke-width="1.5"/>
<rect width="59.9823" height="37.6074" rx="4.65546" transform="matrix(-1 0 0 1 78.9845 42.7028)" fill="#F6B51E" stroke="#111111" stroke-width="1.5"/>
<circle cx="2.54595" cy="2.54595" r="2.54595" transform="matrix(-1 0 0 1 63.5221 58.9202)" fill="#1FC16B" stroke="#111111" stroke-width="1.5"/>
<circle cx="2.54595" cy="2.54595" r="2.54595" transform="matrix(-1 0 0 1 51.5212 58.9202)" fill="#1FC16B" stroke="#111111" stroke-width="1.5"/>
<circle cx="2.54595" cy="2.54595" r="2.54595" transform="matrix(-1 0 0 1 39.5186 58.9202)" fill="#1FC16B" stroke="#111111" stroke-width="1.5"/>
<circle cx="92.3753" cy="92.1373" r="11.6819" fill="#1FC16B" stroke="#111111" stroke-width="1.5"/>
<path d="M87.139 92.7347L90.6598 95.9946C90.9068 96.2233 91.2951 96.1978 91.51 95.9387L98.2461 87.8218" stroke="#111111" stroke-width="1.5"/>
</svg>
