<svg width="124" height="124" viewBox="0 0 124 124" fill="none" xmlns="http://www.w3.org/2000/svg">
<path d="M38.2309 39.5015C47.0149 30.8595 61.1414 30.9747 69.7836 39.7587C78.4257 48.5427 78.311 62.6691 69.5272 71.3113L65.2044 75.5638L59.8523 69.4982L62.7365 66.662C68.2532 61.2344 68.3255 52.3626 62.8979 46.8459C57.4703 41.3293 48.5985 41.257 43.0818 46.6845L27.7406 61.7778C22.2239 67.2054 22.1516 76.078 27.5792 81.5947C33.0067 87.111 41.8787 87.1834 47.3953 81.7561L49.237 79.7924L55.1675 84.9321L51.9613 88.5939C43.1772 97.236 29.05 97.1208 20.4078 88.3367C11.7659 79.5527 11.8811 65.4262 20.665 56.784L38.2309 39.5015Z" fill="#01CBEA"/>
<path d="M25.5152 78.6063C26.1128 79.6739 26.6797 80.6804 27.5792 81.5947C33.0067 87.111 41.8787 87.1834 47.3953 81.7561L49.237 79.7924L44.0973 77.8155C38.8279 83.3205 34.1924 82.7269 25.5152 78.6063Z" fill="#111111"/>
<path d="M27.5792 81.5947C22.1516 76.078 22.2239 67.2054 27.7406 61.7778L43.0818 46.6845C48.5985 41.257 57.4703 41.3293 62.8979 46.8459C68.3255 52.3626 68.2532 61.2344 62.7365 66.662L59.8523 69.4982L65.2044 75.5638L69.5272 71.3113C78.311 62.6691 78.4257 48.5427 69.7836 39.7587C61.1414 30.9747 47.0149 30.8595 38.2309 39.5015L20.665 56.784C11.8811 65.4262 11.7659 79.5527 20.4078 88.3367C29.05 97.1208 43.1772 97.236 51.9613 88.5939L55.1675 84.9321L49.237 79.7924M27.5792 81.5947C33.0067 87.111 41.8787 87.1834 47.3953 81.7561L49.237 79.7924M27.5792 81.5947C26.6797 80.6804 26.1128 79.6739 25.5152 78.6063C34.1924 82.7269 38.8279 83.3205 44.0973 77.8155L49.237 79.7924" stroke="#111111" stroke-width="1.5"/>
<path d="M86.4068 83.5002C77.6228 92.1422 63.4963 92.027 54.8541 83.243C46.212 74.459 46.3267 60.3326 55.1105 51.6904L60.7035 46.9777L65.4478 52.9081L61.9012 56.3398C56.3845 61.7673 56.3122 70.6392 61.7398 76.1558C63.2779 77.7192 65.0927 78.8453 67.0293 79.533C71.9263 81.2717 77.6026 80.2066 81.5559 76.3172L96.8971 61.2239C100.477 57.7018 101.764 52.7289 100.744 48.1638C100.192 45.6941 98.9639 43.3438 97.0585 41.407C91.6309 35.8907 82.759 35.8183 77.2424 41.2456L74.5412 43.8148L69.4702 38.0696L72.6764 34.4079C81.4605 25.7657 95.5877 25.8809 104.23 34.665C112.872 43.449 112.757 57.5755 103.973 66.2177L86.4068 83.5002Z" fill="#1FC16B"/>
<path d="M81.5559 76.3172L96.8971 61.2239C100.477 57.7018 101.764 52.7289 100.744 48.1638C95.4955 61.2239 80.4717 75.0485 67.0293 79.533C71.9263 81.2717 77.6026 80.2066 81.5559 76.3172Z" fill="#111111"/>
<path d="M67.0293 79.533C65.0927 78.8453 63.2779 77.7192 61.7398 76.1558C56.3122 70.6392 56.3845 61.7673 61.9012 56.3398L65.4478 52.9081L60.7035 46.9777L55.1105 51.6904C46.3267 60.3326 46.212 74.459 54.8541 83.243C63.4963 92.027 77.6228 92.1422 86.4068 83.5002L103.973 66.2177C112.757 57.5755 112.872 43.449 104.23 34.665C95.5877 25.8809 81.4605 25.7657 72.6764 34.4079L69.4702 38.0696L74.5412 43.8148L77.2424 41.2456C82.759 35.8183 91.6309 35.8907 97.0585 41.407C98.9639 43.3438 100.192 45.6941 100.744 48.1638M67.0293 79.533C71.9263 81.2717 77.6026 80.2066 81.5559 76.3172L96.8971 61.2239C100.477 57.7018 101.764 52.7289 100.744 48.1638M67.0293 79.533C80.4717 75.0485 95.4955 61.2239 100.744 48.1638" stroke="#111111" stroke-width="1.5"/>
</svg>
