<svg width="92" height="92" viewBox="0 0 92 92" fill="none" xmlns="http://www.w3.org/2000/svg">
<path d="M26.4242 16C26.4242 16 25.7661 48.4469 26.4242 53.9506C26.7075 56.3203 29.2058 57.2458 31.2736 57.2652H31.4064C32.4505 57.2554 33.3679 57.013 33.8081 56.6094C35.2193 55.5073 36.122 53.9506 36.122 50.5483C36.122 47.1461 35.6598 30.5467 36.2664 28.7283C36.6077 27.7055 37.9076 27.258 39.0876 27.3859C39.1094 27.3883 39.1313 27.3908 39.153 27.3936L53.0931 27.5161L53.0936 16H26.4242Z" fill="#01CBEA"/>
<path d="M39.153 27.3936C40.0452 27.5069 40.8567 27.9518 41.1153 28.7283C41.7209 30.5467 40.9714 56.6094 40.9714 56.6094L40.9714 57.2652L40.9708 76.005C51.2919 76.183 57.1234 76.1652 67.6397 76.005V27.5161H53.0931L39.153 27.3936Z" fill="#01CBEA"/>
<path d="M36.2664 28.7283C35.6598 30.5467 36.122 47.1461 36.122 50.5483C36.122 53.9506 35.2193 55.5073 33.8081 56.6094C33.3679 57.013 32.4505 57.2554 31.4064 57.2652H40.9714L40.9714 56.6094C40.9714 56.6094 41.7209 30.5467 41.1153 28.7283C40.8567 27.9518 40.0452 27.5069 39.153 27.3936C39.1313 27.3908 39.1094 27.3883 39.0876 27.3859C37.9076 27.258 36.6077 27.7055 36.2664 28.7283Z" fill="#1FC16B"/>
<path d="M41.1153 28.7283C41.7209 30.5467 40.9714 56.6094 40.9714 56.6094L40.9714 57.2652M41.1153 28.7283C40.8567 27.9518 40.0452 27.5069 39.153 27.3936M41.1153 28.7283C40.8504 27.9328 40.0053 27.4853 39.0876 27.3859M39.153 27.3936L53.0931 27.5161M39.153 27.3936C39.1313 27.3908 39.1094 27.3883 39.0876 27.3859M53.0931 27.5161H67.6397V76.005C57.1234 76.1652 51.2919 76.183 40.9708 76.005L40.9714 57.2652M53.0931 27.5161L53.0936 16H26.4242C26.4242 16 25.7661 48.4469 26.4242 53.9506C26.7075 56.3203 29.2058 57.2458 31.2736 57.2652M31.2736 57.2652H31.4064M31.2736 57.2652C31.3181 57.2656 31.3624 57.2656 31.4064 57.2652M40.9714 57.2652H31.4064M31.4064 57.2652C32.4505 57.2554 33.3679 57.013 33.8081 56.6094C35.2193 55.5073 36.122 53.9506 36.122 50.5483C36.122 47.1461 35.6598 30.5467 36.2664 28.7283C36.6077 27.7055 37.9076 27.258 39.0876 27.3859" stroke="#111111" stroke-width="1.2" stroke-linecap="round" stroke-linejoin="round"/>
<rect x="28.8491" y="21.4551" width="21.82" height="1.21222" rx="0.606111" fill="#111111"/>
<rect x="28.8491" y="26.304" width="21.82" height="1.21222" rx="0.606111" fill="#111111"/>
<rect x="43.3958" y="32.365" width="21.82" height="1.21222" rx="0.606111" fill="#111111"/>
<rect x="43.3958" y="37.2139" width="21.82" height="1.21222" rx="0.606111" fill="#111111"/>
<rect x="43.3958" y="42.0627" width="21.82" height="1.21222" rx="0.606111" fill="#111111"/>
<rect x="43.3958" y="46.9116" width="21.82" height="1.21222" rx="0.606111" fill="#111111"/>
<rect x="43.3958" y="51.7605" width="21.82" height="1.21222" rx="0.606111" fill="#111111"/>
<rect x="43.3958" y="56.6094" width="21.82" height="1.21222" rx="0.606111" fill="#111111"/>
<rect x="43.3958" y="61.4583" width="21.82" height="1.21222" rx="0.606111" fill="#111111"/>
<rect x="43.3958" y="66.3071" width="21.82" height="1.21222" rx="0.606111" fill="#111111"/>
<rect x="28.8491" y="31.1528" width="7.27333" height="1.21222" rx="0.606111" fill="#111111"/>
<rect x="28.8491" y="36.0017" width="7.27333" height="1.21222" rx="0.606111" fill="#111111"/>
<rect x="28.8491" y="40.8506" width="7.27333" height="1.21222" rx="0.606111" fill="#111111"/>
<rect x="28.8491" y="45.6995" width="7.27333" height="1.21222" rx="0.606111" fill="#111111"/>
<rect x="28.8491" y="50.5483" width="7.27333" height="1.21222" rx="0.606111" fill="#111111"/>
<path d="M19.9363 59.9381C23.1442 59.0997 24.7922 58.379 27.2158 56.2349C32.9913 66.4502 37.9985 69.9456 49.0459 73.285C46.2155 74.981 44.7523 76.0007 42.5557 77.9457C32.0165 73.8576 26.9425 70.127 19.9363 59.9381Z" fill="#F6B51E" stroke="#111111" stroke-width="1.2"/>
<ellipse cx="32.7749" cy="68.5826" rx="3.364" ry="1.60683" transform="rotate(42.0317 32.7749 68.5826)" fill="#111111"/>
</svg>
