<svg fill="none" height="68" viewBox="0 0 50 68" width="50" xmlns="http://www.w3.org/2000/svg"><path d="m7.46662.600098s-.6581 32.446902 0 37.950602c.28336 2.3697 2.78168 3.2952 4.84948 3.3146h.1328c1.0441-.0098 1.9615-.2522 2.4017-.6558 1.4111-1.1021 2.3138-2.6588 2.3138-6.0611 0-3.4022-.4622-20.0016.1445-21.82.3412-1.0228 1.6412-1.4703 2.8211-1.3424.0219.0024.0437.0049.0655.0077l13.94.1225.0006-11.516102z" fill="#01cbea"/><path d="m20.1955 11.9937c.8922.1133 1.7037.5582 1.9623 1.3347.6055 1.8184-.144 27.8811-.144 27.8811v.6558l-.0005 18.7398c10.3211.178 16.1525.1602 26.6689 0v-48.4889h-14.5467z" fill="#01cbea"/><path d="m17.3089 13.3284c-.6067 1.8184-.1445 18.4178-.1445 21.82 0 3.4023-.9027 4.959-2.3138 6.0611-.4402.4036-1.3576.646-2.4017.6558h9.5649v-.6558s.7495-26.0627.144-27.8811c-.2586-.7765-1.0701-1.2214-1.9623-1.3347-.0218-.0028-.0436-.0053-.0655-.0077-1.1799-.1279-2.4799.3196-2.8211 1.3424z" fill="#1fc16b"/><path d="m22.1578 13.3284c.6055 1.8184-.144 27.8811-.144 27.8811v.6558m.144-28.5369c-.2586-.7765-1.0701-1.2214-1.9623-1.3347m1.9623 1.3347c-.265-.7955-1.1101-1.243-2.0278-1.3424m.0655.0077 13.94.1225m-13.94-.1225c-.0218-.0028-.0436-.0053-.0655-.0077m14.0055.1302h14.5467v48.4889c-10.5164.1602-16.3478.178-26.6689 0l.0005-18.7398m12.1217-29.7491.0006-11.516102h-26.66948s-.6581 32.446902 0 37.950602c.28336 2.3697 2.78168 3.2952 4.84948 3.3146m0 0h.1328m-.1328 0c.0444.0004.0887.0004.1328 0m9.5649 0h-9.5649m0 0c1.0441-.0098 1.9615-.2522 2.4017-.6558 1.4111-1.1021 2.3138-2.6588 2.3138-6.0611 0-3.4022-.4622-20.0016.1445-21.82.3412-1.0228 1.6412-1.4703 2.8211-1.3424" stroke="#111" stroke-linecap="round" stroke-linejoin="round" stroke-width="1.2"/><g fill="#111"><rect height="1.21222" rx=".606111" width="21.82" x="9.89157" y="6.05518"/><rect height="1.21222" rx=".606111" width="21.82" x="9.89157" y="10.9041"/><rect height="1.21222" rx=".606111" width="21.82" x="24.4382" y="16.9651"/><rect height="1.21222" rx=".606111" width="21.82" x="24.4382" y="21.814"/><rect height="1.21222" rx=".606111" width="21.82" x="24.4382" y="26.6628"/><rect height="1.21222" rx=".606111" width="21.82" x="24.4382" y="31.5117"/><rect height="1.21222" rx=".606111" width="21.82" x="24.4382" y="36.3606"/><rect height="1.21222" rx=".606111" width="21.82" x="24.4382" y="41.2095"/><rect height="1.21222" rx=".606111" width="21.82" x="24.4382" y="46.0583"/><rect height="1.21222" rx=".606111" width="21.82" x="24.4382" y="50.9072"/><rect height="1.21222" rx=".606111" width="7.27333" x="9.89157" y="15.7529"/><rect height="1.21222" rx=".606111" width="7.27333" x="9.89157" y="20.6018"/><rect height="1.21222" rx=".606111" width="7.27333" x="9.89157" y="25.4507"/><rect height="1.21222" rx=".606111" width="7.27333" x="9.89157" y="30.2996"/><rect height="1.21222" rx=".606111" width="7.27333" x="9.89157" y="35.1484"/></g><path d="m.978713 44.5382c3.207957-.8384 4.855927-1.5591 7.279537-3.7032 5.77545 10.2153 10.78265 13.7107 21.83015 17.0501-2.8304 1.696-4.2936 2.7157-6.4902 4.6607-10.5393-4.0881-15.61329-7.8187-22.619487-18.0076z" fill="#f6b51e" stroke="#111" stroke-width="1.2"/><ellipse cx="13.8173" cy="53.1827" fill="#111" rx="3.364" ry="1.60683" transform="matrix(.7427745 .66954166 -.66954166 .7427745 39.162195 4.428688)"/></svg>