<svg width="124" height="124" viewBox="0 0 124 124" fill="none" xmlns="http://www.w3.org/2000/svg">
<path d="M88.8715 90.0145C89.1269 81.7989 87.8924 77.8724 82.757 72.3417L88.8715 73.1126L92.3721 82.0677L88.8715 90.0145Z" fill="#111111" stroke="#111111" stroke-width="1.5"/>
<path d="M41.2883 51.0639C41.5932 41.4768 40.1198 36.8948 33.9907 30.4409L41.2883 31.3405L45.4664 41.7905L41.2883 51.0639Z" fill="#111111" stroke="#111111" stroke-width="1.5"/>
<path d="M31.7204 102.076L69.4996 23.415L76.2543 22.3939L36.5508 102.783L31.7204 102.076Z" fill="#1FC16B" stroke="#111111" stroke-width="1.5"/>
<path fill-rule="evenodd" clip-rule="evenodd" d="M83.1643 62.8708C92.1068 61.3937 100.553 67.446 102.031 76.3884L102.636 80.0515C104.113 88.9939 98.0608 97.4406 89.1184 98.9177C80.1761 100.395 71.7293 94.3425 70.2522 85.4001L69.6468 81.7371C68.1698 72.7947 74.222 64.348 83.1643 62.8708ZM90.6663 76.5564C90.2016 73.7433 87.5438 71.8388 84.7307 72.3035C81.9178 72.7683 80.0141 75.426 80.4788 78.239L81.6272 85.1882C82.0919 88.0013 84.7487 89.9048 87.5618 89.4402C90.3748 88.9755 92.2784 86.3187 91.8138 83.5056L90.6663 76.5564Z" fill="#F6B51E"/>
<path d="M83.1643 62.8708L83.0421 62.1309L83.0421 62.1309L83.1643 62.8708ZM102.031 76.3884L101.291 76.5107L101.291 76.5107L102.031 76.3884ZM102.636 80.0515L103.376 79.9293L103.376 79.9292L102.636 80.0515ZM89.1184 98.9177L89.2407 99.6577H89.2407L89.1184 98.9177ZM70.2522 85.4001L70.9922 85.2779L70.9922 85.2778L70.2522 85.4001ZM69.6468 81.7371L68.9068 81.8593L68.9068 81.8594L69.6468 81.7371ZM90.6663 76.5564L91.4063 76.4342L91.4063 76.4342L90.6663 76.5564ZM84.7307 72.3035L84.6085 71.5635L84.6085 71.5635L84.7307 72.3035ZM80.4788 78.239L79.7388 78.3612L79.7388 78.3613L80.4788 78.239ZM81.6272 85.1882L82.3672 85.066L82.3672 85.0659L81.6272 85.1882ZM87.5618 89.4402L87.684 90.1802L87.684 90.1802L87.5618 89.4402ZM91.8138 83.5056L91.0738 83.6278L91.0738 83.6278L91.8138 83.5056ZM83.1643 62.8708L83.2866 63.6108C91.8203 62.2012 99.881 67.9769 101.291 76.5107L102.031 76.3884L102.771 76.2662C101.226 66.9151 92.3932 60.5863 83.0421 62.1309L83.1643 62.8708ZM102.031 76.3884L101.291 76.5107L101.896 80.1738L102.636 80.0515L103.376 79.9292L102.771 76.2661L102.031 76.3884ZM102.636 80.0515L101.896 80.1737C103.306 88.7074 97.53 96.7682 88.9962 98.1777L89.1184 98.9177L89.2407 99.6577C98.5917 98.1131 104.921 89.2804 103.376 79.9293L102.636 80.0515ZM89.1184 98.9177L88.9962 98.1777C80.4625 99.5873 72.4018 93.8116 70.9922 85.2779L70.2522 85.4001L69.5123 85.5224C71.0569 94.8734 79.8896 101.202 89.2407 99.6577L89.1184 98.9177ZM70.2522 85.4001L70.9922 85.2778L70.3867 81.6148L69.6468 81.7371L68.9068 81.8594L69.5123 85.5225L70.2522 85.4001ZM69.6468 81.7371L70.3867 81.6148C68.9772 73.0812 74.7529 65.0204 83.2866 63.6108L83.1643 62.8708L83.0421 62.1309C73.6911 63.6755 67.3623 72.5082 68.9068 81.8593L69.6468 81.7371ZM90.6663 76.5564L91.4063 76.4342C90.8741 73.2124 87.8303 71.0313 84.6085 71.5635L84.7307 72.3035L84.853 73.0434C87.2573 72.6463 89.5291 74.2741 89.9263 76.6786L90.6663 76.5564ZM84.7307 72.3035L84.6085 71.5635C81.3868 72.0958 79.2067 75.1397 79.7388 78.3612L80.4788 78.239L81.2188 78.1168C80.8216 75.7123 82.4488 73.4407 84.853 73.0434L84.7307 72.3035ZM80.4788 78.239L79.7388 78.3613L80.8873 85.3105L81.6272 85.1882L82.3672 85.0659L81.2188 78.1167L80.4788 78.239ZM81.6272 85.1882L80.8873 85.3105C81.4194 88.5322 84.4623 90.7123 87.684 90.1802L87.5618 89.4402L87.4396 88.7002C85.0351 89.0974 82.7644 87.4704 82.3672 85.066L81.6272 85.1882ZM87.5618 89.4402L87.684 90.1802C90.9057 89.6479 93.0859 86.6051 92.5537 83.3834L91.8138 83.5056L91.0738 83.6278C91.4709 86.0322 89.8439 88.303 87.4396 88.7002L87.5618 89.4402ZM91.8138 83.5056L92.5537 83.3834L91.4063 76.4342L90.6663 76.5564L89.9263 76.6786L91.0738 83.6278L91.8138 83.5056Z" fill="#111111"/>
<path fill-rule="evenodd" clip-rule="evenodd" d="M34.7403 22.2219C43.6826 20.7449 52.1292 26.7963 53.6065 35.7385L54.212 39.4026C55.6889 48.3449 49.6367 56.7917 40.6944 58.2688C31.752 59.7458 23.3053 53.6936 21.8282 44.7512L21.2227 41.0881C19.7456 32.1458 25.7979 23.6991 34.7403 22.2219ZM42.2442 35.9046C41.7794 33.0916 39.1216 31.188 36.3087 31.6526C33.4958 32.1174 31.5923 34.7743 32.0567 37.5872L33.2051 44.5374C33.6699 47.3504 36.3266 49.254 39.1397 48.7893C41.9527 48.3246 43.8562 45.6678 43.3917 42.8547L42.2442 35.9046Z" fill="#F6B51E"/>
<path d="M34.7403 22.2219L34.6181 21.482L34.6181 21.482L34.7403 22.2219ZM53.6065 35.7385L52.8665 35.8608L52.8665 35.8608L53.6065 35.7385ZM54.212 39.4026L54.9519 39.2804L54.9519 39.2803L54.212 39.4026ZM40.6944 58.2688L40.8166 59.0088L40.8166 59.0088L40.6944 58.2688ZM21.8282 44.7512L22.5682 44.629L22.5681 44.6289L21.8282 44.7512ZM21.2227 41.0881L20.4827 41.2104L20.4828 41.2105L21.2227 41.0881ZM42.2442 35.9046L42.9842 35.7824L42.9842 35.7823L42.2442 35.9046ZM36.3087 31.6526L36.1864 30.9126L36.1864 30.9126L36.3087 31.6526ZM32.0567 37.5872L31.3167 37.7093L31.3167 37.7094L32.0567 37.5872ZM33.2051 44.5374L33.9451 44.4151L33.9451 44.4151L33.2051 44.5374ZM39.1397 48.7893L39.2619 49.5293L39.262 49.5293L39.1397 48.7893ZM43.3917 42.8547L42.6517 42.9769L42.6517 42.977L43.3917 42.8547ZM34.7403 22.2219L34.8625 22.9619C43.3961 21.5523 51.4568 27.3273 52.8665 35.8608L53.6065 35.7385L54.3465 35.6163C52.8017 26.2654 43.969 19.9374 34.6181 21.482L34.7403 22.2219ZM53.6065 35.7385L52.8665 35.8608L53.472 39.5249L54.212 39.4026L54.9519 39.2803L54.3465 35.6163L53.6065 35.7385ZM54.212 39.4026L53.472 39.5248C54.8814 48.0584 49.1058 56.1193 40.5722 57.5288L40.6944 58.2688L40.8166 59.0088C50.1676 57.4642 56.4964 48.6314 54.9519 39.2804L54.212 39.4026ZM40.6944 58.2688L40.5722 57.5288C32.0385 58.9383 23.9777 53.1627 22.5682 44.629L21.8282 44.7512L21.0882 44.8735C22.6328 54.2245 31.4656 60.5533 40.8166 59.0088L40.6944 58.2688ZM21.8282 44.7512L22.5681 44.6289L21.9627 40.9658L21.2227 41.0881L20.4828 41.2105L21.0882 44.8735L21.8282 44.7512ZM21.2227 41.0881L21.9627 40.9659C20.5531 32.4322 26.3288 24.3715 34.8625 22.9619L34.7403 22.2219L34.6181 21.482C25.267 23.0266 18.9381 31.8593 20.4827 41.2104L21.2227 41.0881ZM42.2442 35.9046L42.9842 35.7823C42.4518 32.5606 39.408 30.3805 36.1864 30.9126L36.3087 31.6526L36.4309 32.3926C38.8353 31.9954 41.107 33.6227 41.5042 36.0268L42.2442 35.9046ZM36.3087 31.6526L36.1864 30.9126C32.9649 31.4449 30.7849 34.4879 31.3167 37.7093L32.0567 37.5872L32.7967 37.465C32.3998 35.0608 34.0268 32.7898 36.4309 32.3926L36.3087 31.6526ZM32.0567 37.5872L31.3167 37.7094L32.4652 44.6596L33.2051 44.5374L33.9451 44.4151L32.7967 37.4649L32.0567 37.5872ZM33.2051 44.5374L32.4652 44.6596C32.9974 47.8813 36.0402 50.0615 39.2619 49.5293L39.1397 48.7893L39.0175 48.0493C36.6131 48.4465 34.3423 46.8195 33.9451 44.4151L33.2051 44.5374ZM39.1397 48.7893L39.262 49.5293C42.4836 48.997 44.6637 45.9542 44.1316 42.7325L43.3917 42.8547L42.6517 42.977C43.0488 45.3813 41.4218 47.6521 39.0175 48.0494L39.1397 48.7893ZM43.3917 42.8547L44.1316 42.7326L42.9842 35.7824L42.2442 35.9046L41.5042 36.0267L42.6517 42.9769L43.3917 42.8547Z" fill="#111111"/>
<path d="M37.8499 102.855L77.6674 22.2184H87.3175L47.4464 102.855H37.8499Z" fill="#01CBEA" stroke="#111111" stroke-width="1.5"/>
</svg>
