<svg width="124" height="124" viewBox="0 0 124 124" fill="none" xmlns="http://www.w3.org/2000/svg">
<path d="M50.6699 30.4328L35.2371 45.8657L52.0729 62.7015L56.2819 58.4925L63.2968 51.4776L68.9087 45.8657L50.6699 29.0298V30.4328Z" fill="#01CBEA"/>
<path d="M106.789 96.3731L63.2968 51.4776L56.2819 58.4925L99.7744 103.388C104.379 101.961 105.822 100.373 106.789 96.3731Z" fill="#01CBEA"/>
<path d="M61.8938 15C59.3989 16.5487 58.1227 17.5448 56.2819 20.6119L77.3267 41.6567C80.6869 40.0116 82.0448 38.8482 82.9386 36.0448C76.5786 26.1181 71.8882 21.6544 61.8938 15Z" fill="#F6B51E"/>
<path d="M26.8192 50.0746C23.8346 51.9697 22.367 53.3104 21.2073 57.0895C26.418 65.885 30.6221 70.2622 40.8491 76.7313C44.0339 75.3887 45.6601 74.1665 47.864 71.1194L26.8192 50.0746Z" fill="#F6B51E"/>
<path d="M56.2819 20.6119C53.6117 21.541 52.1968 22.1829 50.6699 24.8209V29.0298L68.9087 45.8657L70.3117 47.2686C73.9227 45.9835 75.1762 44.483 77.3267 41.6567L56.2819 20.6119Z" fill="#01CBEA"/>
<path d="M33.8341 44.4627C30.2751 45.8962 28.6681 47.0248 26.8192 50.0746L47.864 71.1194C50.5003 69.4291 51.5181 68.5464 52.0729 66.9104V62.7015L35.2371 45.8657L33.8341 44.4627Z" fill="#01CBEA"/>
<path d="M26.8192 50.0746C23.8346 51.9697 22.367 53.3104 21.2073 57.0895C26.418 65.885 30.6221 70.2622 40.8491 76.7313C44.0339 75.3887 45.6601 74.1665 47.864 71.1194M26.8192 50.0746C28.6681 47.0248 30.2751 45.8962 33.8341 44.4627L35.2371 45.8657M26.8192 50.0746L47.864 71.1194M35.2371 45.8657L50.6699 30.4328V29.0298M35.2371 45.8657L52.0729 62.7015M56.2819 20.6119C53.6117 21.541 52.1968 22.1829 50.6699 24.8209V29.0298M56.2819 20.6119C58.1227 17.5448 59.3989 16.5487 61.8938 15C71.8882 21.6544 76.5786 26.1181 82.9386 36.0448C82.0448 38.8482 80.6869 40.0116 77.3267 41.6567M56.2819 20.6119L77.3267 41.6567M77.3267 41.6567C75.1762 44.483 73.9227 45.9835 70.3117 47.2686L68.9087 45.8657M68.9087 45.8657L63.2968 51.4776M68.9087 45.8657L50.6699 29.0298M63.2968 51.4776L106.789 96.3731C105.822 100.373 104.379 101.961 99.7744 103.388L56.2819 58.4925M63.2968 51.4776L56.2819 58.4925M56.2819 58.4925L52.0729 62.7015M52.0729 62.7015V66.9104C51.5181 68.5464 50.5003 69.4291 47.864 71.1194" stroke="black" stroke-width="1.5" stroke-linejoin="round"/>
<path d="M64.7007 108.999V100.581H16.9993V108.999H64.7007Z" fill="#1FC16B"/>
<path d="M64.7007 100.581L60.4918 94.9692H22.6112L16.9993 100.581H64.7007Z" fill="#01CBEA"/>
<path d="M60.4918 89.3573H22.6112V94.9692H60.4918V89.3573Z" fill="#1FC16B"/>
<path d="M22.6112 89.3573C37.4045 89.3573 45.6985 89.3573 60.4918 89.3573M22.6112 89.3573V94.9692M22.6112 89.3573H60.4918M60.4918 89.3573V94.9692M60.4918 94.9692L64.7007 100.581M60.4918 94.9692H22.6112M64.7007 100.581V108.999H16.9993V100.581M64.7007 100.581H16.9993M16.9993 100.581L22.6112 94.9692" stroke="black" stroke-width="1.5" stroke-linejoin="round"/>
</svg>
