<svg width="124" height="124" viewBox="0 0 124 124" fill="none" xmlns="http://www.w3.org/2000/svg">
<path fill-rule="evenodd" clip-rule="evenodd" d="M59.4009 54.4343C59.164 54.4476 58.9258 54.4561 58.6865 54.4597L59.4009 54.4343Z" fill="#111111"/>
<path d="M39.7728 34.6545C39.9415 45.7488 48.4094 54.6159 58.6865 54.4597L59.4009 54.4343C69.3407 53.8777 77.1542 44.9248 76.9895 34.0889C76.8209 22.9946 68.3529 14.1275 58.0758 14.2837C47.7988 14.4399 39.6042 23.5602 39.7728 34.6545Z" fill="#F6B51E"/>
<path d="M58.6865 54.4597C48.4094 54.6159 39.9415 45.7488 39.7728 34.6545C39.6042 23.5602 47.7988 14.4399 58.0758 14.2837C68.3529 14.1275 76.8209 22.9946 76.9895 34.0889C77.1542 44.9248 69.3407 53.8777 59.4009 54.4343M58.6865 54.4597L59.4009 54.4343M58.6865 54.4597C58.9258 54.4561 59.164 54.4476 59.4009 54.4343" stroke="#111111" stroke-width="1.5"/>
<path d="M57.2706 63.8104C63.4466 63.7166 69.3427 65.325 74.5685 68.2254C86.5449 74.8726 95 88.3057 95.2323 103.585C95.2596 105.381 95.1761 107.151 94.9886 108.887L103.424 106.658C96.264 67.6309 79.0822 63.4789 57.2706 63.8104Z" fill="#1FC16B"/>
<path fill-rule="evenodd" clip-rule="evenodd" d="M74.5685 68.2254L43.25 67.1585C30.1874 73.5142 21.3593 88.1704 21.6106 104.704C21.6321 106.118 21.7217 107.513 21.876 108.887L94.9886 108.887C95.1761 107.151 95.2596 105.381 95.2323 103.585C95 88.3057 86.5449 74.8726 74.5685 68.2254Z" fill="#01CBEA"/>
<path d="M57.2706 63.8104C52.2566 63.8866 47.5264 65.0778 43.25 67.1585L74.5685 68.2254C69.3427 65.325 63.4466 63.7166 57.2706 63.8104Z" fill="#111111"/>
<path d="M57.2706 63.8104C79.0822 63.4789 96.2641 67.6309 103.424 106.658L94.9886 108.887M57.2706 63.8104C52.2566 63.8866 47.5264 65.0778 43.25 67.1585M57.2706 63.8104C63.4466 63.7166 69.3427 65.325 74.5685 68.2254M94.9886 108.887C95.1761 107.151 95.2596 105.381 95.2323 103.585C95 88.3057 86.5449 74.8726 74.5685 68.2254M94.9886 108.887L21.876 108.887C21.7217 107.513 21.6321 106.118 21.6106 104.704C21.3593 88.1704 30.1874 73.5142 43.25 67.1585M43.25 67.1585L74.5685 68.2254" stroke="#111111" stroke-width="1.5"/>
</svg>
