<svg width="124" height="124" viewBox="0 0 124 124" fill="none" xmlns="http://www.w3.org/2000/svg">
<path fill-rule="evenodd" clip-rule="evenodd" d="M61.6028 54.5921C61.3708 54.6051 61.1376 54.6134 60.9033 54.617L61.6028 54.5921Z" fill="#111111"/>
<path d="M42.3834 35.2242C42.5485 46.0875 50.8402 54.77 60.9033 54.617L61.6028 54.5921C71.3356 54.0471 78.9865 45.2807 78.8252 34.6703C78.6601 23.807 70.3685 15.1246 60.3053 15.2775C50.2422 15.4305 42.2183 24.3609 42.3834 35.2242Z" fill="#F6B51E"/>
<path d="M60.9033 54.617C50.8402 54.77 42.5485 46.0875 42.3834 35.2242C42.2183 24.3609 50.2422 15.4305 60.3053 15.2775C70.3685 15.1246 78.6601 23.807 78.8252 34.6703C78.9865 45.2807 71.3356 54.0471 61.6028 54.5921M60.9033 54.617L61.6028 54.5921M60.9033 54.617C61.1376 54.6134 61.3708 54.6051 61.6028 54.5921" stroke="#111111" stroke-width="1.5"/>
<path fill-rule="evenodd" clip-rule="evenodd" d="M59.5194 63.7723C39.6126 64.0749 24.2752 82.325 24.6019 103.815C24.6229 105.199 24.7106 106.565 24.8617 107.91L96.4521 107.91C96.6357 106.21 96.7174 104.477 96.6907 102.719C96.3641 81.2293 79.4262 63.4697 59.5194 63.7723Z" fill="#01CBEA"/>
<path fill-rule="evenodd" clip-rule="evenodd" d="M59.5194 63.7723C39.6126 64.0749 24.2752 82.325 24.6019 103.815C24.6229 105.199 24.7106 106.565 24.8617 107.91L96.4521 107.91C96.6357 106.21 96.7174 104.477 96.6907 102.719C96.3641 81.2293 79.4262 63.4697 59.5194 63.7723Z" stroke="#111111" stroke-width="1.5"/>
<path d="M91.8058 38.845C92.6816 43.8115 94.3804 45.7612 100.692 46.9975C94.1897 47.6394 92.7563 49.8947 92.5399 55.8841C91.009 49.1121 88.7454 47.9196 83.6534 47.7316C89.7887 46.2667 91.0389 43.988 91.8058 38.845Z" fill="#F6B51E" stroke="#111111" stroke-width="1.5"/>
</svg>
