<svg width="92" height="92" viewBox="0 0 92 92" fill="none" xmlns="http://www.w3.org/2000/svg">
<ellipse cx="45.9801" cy="76.785" rx="21.9801" ry="0.785002" fill="#111111"/>
<path d="M32.5475 25.7847V28.3435V30.9023H34.2534V32.0395H58.1357V30.9023H59.8416V28.3435V25.7847H32.5475Z" fill="#F6B51E"/>
<path d="M34.2534 32.0395L34.2548 32.6082L34.2534 33.1768L33.1161 35.4513C33.1161 35.4513 29.7035 37.7258 29.1357 41.1376C28.5679 44.5493 28.5685 72.412 29.1357 73.5492C29.7027 74.6861 29.7035 74.6865 30.8405 75.2545L30.8416 75.2551C31.5482 75.6081 38.3452 76.379 46.556 76.3813C51.5704 76.3826 57.1122 76.0973 62.1161 75.2551C62.1161 75.2551 63.822 74.6865 63.822 73.5492C63.822 72.412 63.4821 44.9253 63.2547 41.1376C63.0274 37.3498 58.7057 35.4513 59.2729 35.4513L58.1357 33.1768H58.1371L58.1357 32.0395H34.2534Z" fill="#01CBEA"/>
<path d="M34.2534 32.0395V30.9023H32.5475V28.3435M34.2534 32.0395L34.2548 32.6082L34.2534 33.1768L33.1161 35.4513C33.1161 35.4513 29.7035 37.7258 29.1357 41.1376C28.5679 44.5493 28.5685 72.412 29.1357 73.5492C29.7027 74.6861 29.7035 74.6865 30.8405 75.2545L30.8416 75.2551C31.5482 75.6081 38.3452 76.379 46.556 76.3813C51.5704 76.3826 57.1122 76.0973 62.1161 75.2551C62.1161 75.2551 63.822 74.6865 63.822 73.5492C63.822 72.412 63.4821 44.9253 63.2547 41.1376C63.0274 37.3498 58.7057 35.4513 59.2729 35.4513L58.1357 33.1768H58.1371L58.1357 32.0395M34.2534 32.0395H58.1357M58.1357 32.0395V30.9023H59.8416V28.3435M32.5475 28.3435V25.7847H59.8416V28.3435M32.5475 28.3435H59.8416" stroke="#111111" stroke-width="1.2" stroke-linejoin="round"/>
<path d="M42.8702 70.7196C42.6672 72.6915 39.727 74.0042 36.3032 73.6517C32.8793 73.2992 30.4579 71.7746 30.4713 69.4431C30.5005 64.3464 34.0516 64.4063 37.4755 64.7588C40.8994 65.1113 43.8626 66.5562 42.8702 70.7196Z" fill="#1FC16B" stroke="#111111" stroke-width="0.646741" stroke-linejoin="round"/>
<ellipse cx="36.8904" cy="67.9296" rx="6.23241" ry="3.58928" transform="rotate(5.87829 36.8904 67.9296)" fill="#01CBEA" stroke="#111111" stroke-width="0.646741" stroke-linejoin="round"/>
<ellipse cx="36.8904" cy="67.9296" rx="6.23241" ry="3.58928" transform="rotate(5.87829 36.8904 67.9296)" fill="#F6B51E" stroke="#111111" stroke-width="0.646741" stroke-linejoin="round"/>
<ellipse cx="36.9142" cy="67.9324" rx="4.76148" ry="2.74216" transform="rotate(5.87829 36.9142 67.9324)" fill="#01CBEA" stroke="#111111" stroke-width="0.646741" stroke-linejoin="round"/>
<path d="M39.5418 73.2939L39.4989 71.2417C41.1218 71.2017 41.9044 70.7366 43.136 69.3051L42.6925 71.4725C41.6037 72.6623 40.8914 72.9851 39.5418 73.2939Z" fill="#111111"/>
<path d="M37.1972 66.6215L37.4217 66.6793L36.8317 68.9695L36.6072 68.9116L37.1972 66.6215ZM37.6821 66.7464L37.9066 66.8043L37.3167 69.0944L37.0922 69.0366L37.6821 66.7464ZM36.3103 66.5882L38.6094 67.1804L38.5013 67.6003L36.7968 68.2266L36.7922 68.2446L38.2393 68.6174L38.1143 69.1023L35.8152 68.5101L35.9248 68.0846L37.6267 67.4636L37.6316 67.4445L36.1857 67.072L36.3103 66.5882Z" fill="#111111"/>
<path d="M62.4203 71.3471C62.2173 73.3189 59.2771 74.6317 55.8532 74.2792C52.4293 73.9267 50.0079 72.4021 50.0213 70.0705C50.0506 64.9739 53.6017 65.0337 57.0255 65.3862C60.4494 65.7387 63.4127 67.1836 62.4203 71.3471Z" fill="#1FC16B" stroke="#111111" stroke-width="0.646741" stroke-linejoin="round"/>
<ellipse cx="56.4402" cy="68.5571" rx="6.23241" ry="3.58928" transform="rotate(5.87829 56.4402 68.5571)" fill="#01CBEA" stroke="#111111" stroke-width="0.646741" stroke-linejoin="round"/>
<ellipse cx="56.4402" cy="68.5571" rx="6.23241" ry="3.58928" transform="rotate(5.87829 56.4402 68.5571)" fill="#F6B51E" stroke="#111111" stroke-width="0.646741" stroke-linejoin="round"/>
<ellipse cx="56.464" cy="68.5621" rx="4.76148" ry="2.74216" transform="rotate(5.87829 56.464 68.5621)" fill="#01CBEA" stroke="#111111" stroke-width="0.646741" stroke-linejoin="round"/>
<path d="M59.0916 73.9213L59.0487 71.8691C60.6716 71.8292 61.4542 71.364 62.6858 69.9326L62.2423 72.0999C61.1535 73.2897 60.4412 73.6126 59.0916 73.9213Z" fill="#111111"/>
<path d="M56.7469 67.2511L56.9715 67.309L56.3815 69.5991L56.157 69.5413L56.7469 67.2511ZM57.2319 67.3761L57.4564 67.4339L56.8665 69.724L56.642 69.6662L57.2319 67.3761ZM55.8601 67.2178L58.1592 67.8101L58.051 68.2299L56.3466 68.8563L56.342 68.8742L57.789 69.247L57.6641 69.732L55.365 69.1397L55.4746 68.7142L57.1764 68.0932L57.1814 68.0741L55.7354 67.7016L55.8601 67.2178Z" fill="#111111"/>
<path d="M50.8743 72.2301C49.8885 73.9499 46.6686 73.9564 43.6824 72.2447C40.6962 70.533 39.102 68.1569 40.0604 66.0314C42.1556 61.3853 45.3768 62.8811 48.363 64.5928C51.3492 66.3045 53.471 68.8277 50.8743 72.2301Z" fill="#1FC16B" stroke="#111111" stroke-width="0.646741" stroke-linejoin="round"/>
<ellipse cx="46.5412" cy="67.2524" rx="6.23241" ry="3.58928" transform="rotate(29.822 46.5412 67.2524)" fill="#01CBEA" stroke="#111111" stroke-width="0.646741" stroke-linejoin="round"/>
<ellipse cx="46.5412" cy="67.2524" rx="6.23241" ry="3.58928" transform="rotate(29.822 46.5412 67.2524)" fill="#F6B51E" stroke="#111111" stroke-width="0.646741" stroke-linejoin="round"/>
<ellipse cx="46.5613" cy="67.2645" rx="4.76149" ry="2.74216" transform="rotate(29.822 46.5613 67.2645)" fill="#01CBEA" stroke="#111111" stroke-width="0.646741" stroke-linejoin="round"/>
<path d="M46.7874 73.2301L47.581 71.3371C49.0805 71.9592 49.9845 71.8517 51.6911 71.0433L50.4061 72.8441C48.9282 73.4897 48.1462 73.4957 46.7874 73.2301Z" fill="#111111"/>
<path d="M47.3522 66.1812L47.5339 66.3252L46.0653 68.1788L45.8836 68.0348L47.3522 66.1812ZM47.7447 66.4922L47.9264 66.6362L46.4578 68.4898L46.2761 68.3458L47.7447 66.4922ZM46.5552 65.7908L48.4161 67.2652L48.1468 67.605L46.3349 67.4857L46.3233 67.5003L47.4946 68.4282L47.1836 68.8208L45.3227 67.3464L45.5955 67.002L47.403 67.1251L47.4152 67.1097L46.2449 66.1824L46.5552 65.7908Z" fill="#111111"/>
<path d="M62.4203 64.5233C62.2173 66.4952 59.2771 67.808 55.8532 67.4554C52.4293 67.1029 50.0079 65.5783 50.0213 63.2468C50.0506 58.1502 53.6017 58.21 57.0255 58.5625C60.4494 58.915 63.4127 60.3599 62.4203 64.5233Z" fill="#1FC16B" stroke="#111111" stroke-width="0.646741" stroke-linejoin="round"/>
<ellipse cx="56.4402" cy="61.7334" rx="6.23241" ry="3.58928" transform="rotate(5.87829 56.4402 61.7334)" fill="#01CBEA" stroke="#111111" stroke-width="0.646741" stroke-linejoin="round"/>
<ellipse cx="56.4402" cy="61.7334" rx="6.23241" ry="3.58928" transform="rotate(5.87829 56.4402 61.7334)" fill="#F6B51E" stroke="#111111" stroke-width="0.646741" stroke-linejoin="round"/>
<ellipse cx="56.464" cy="61.7381" rx="4.76148" ry="2.74216" transform="rotate(5.87829 56.464 61.7381)" fill="#01CBEA" stroke="#111111" stroke-width="0.646741" stroke-linejoin="round"/>
<path d="M59.0916 67.0976L59.0487 65.0454C60.6716 65.0054 61.4542 64.5403 62.6858 63.1089L62.2423 65.2762C61.1535 66.466 60.4412 66.7889 59.0916 67.0976Z" fill="#111111"/>
<path d="M56.7469 60.4274L56.9715 60.4852L56.3815 62.7754L56.157 62.7175L56.7469 60.4274ZM57.2319 60.5523L57.4564 60.6102L56.8665 62.9003L56.642 62.8425L57.2319 60.5523ZM55.8601 60.3941L58.1592 60.9863L58.051 61.4062L56.3466 62.0326L56.342 62.0505L57.789 62.4233L57.6641 62.9083L55.365 62.316L55.4746 61.8905L57.1764 61.2695L57.1814 61.2504L55.7354 60.8779L55.8601 60.3941Z" fill="#111111"/>
<path d="M50.4967 61.9335C51.4122 63.6917 49.6795 66.4057 46.6266 67.9953C43.5736 69.5849 40.7129 69.6443 39.4411 67.69C36.6612 63.4182 39.6592 61.5142 42.7122 59.9246C45.7651 58.335 49.0344 57.9109 50.4967 61.9335Z" fill="#1FC16B" stroke="#111111" stroke-width="0.646741" stroke-linejoin="round"/>
<ellipse cx="43.9681" cy="62.8953" rx="6.23241" ry="3.58928" transform="rotate(-27.5055 43.9681 62.8953)" fill="#01CBEA" stroke="#111111" stroke-width="0.646741" stroke-linejoin="round"/>
<ellipse cx="43.9681" cy="62.8953" rx="6.23241" ry="3.58928" transform="rotate(-27.5055 43.9681 62.8953)" fill="#F6B51E" stroke="#111111" stroke-width="0.646741" stroke-linejoin="round"/>
<ellipse cx="43.9904" cy="62.8855" rx="4.76149" ry="2.74216" transform="rotate(-27.5055 43.9904 62.8855)" fill="#01CBEA" stroke="#111111" stroke-width="0.646741" stroke-linejoin="round"/>
<path d="M49.1344 65.9167L47.9693 64.2267C49.3025 63.3004 49.7 62.4813 49.9407 60.6084L50.763 62.6622C50.5086 64.2548 50.0914 64.9163 49.1344 65.9167Z" fill="#111111"/>
<path d="M43.5055 61.6355L43.7248 61.5602L44.4924 63.7971L44.2731 63.8724L43.5055 61.6355ZM43.9792 61.473L44.1985 61.3977L44.9661 63.6346L44.7468 63.7098L43.9792 61.473ZM42.7467 62.0956L44.9923 61.3251L45.1331 61.7352L44.0545 63.1961L44.0605 63.2136L45.4739 62.7287L45.6365 63.2023L43.3908 63.9729L43.2482 63.5573L44.3275 62.1023L44.3212 62.0837L42.9088 62.5682L42.7467 62.0956Z" fill="#111111"/>
<path d="M40.5757 63.2858C39.5565 64.986 36.337 64.9296 33.3849 63.1599C30.4327 61.3902 28.8852 58.9834 29.885 56.877C32.0705 52.2727 35.2619 53.8312 38.214 55.6009C41.1662 57.3707 43.2383 59.9348 40.5757 63.2858Z" fill="#1FC16B" stroke="#111111" stroke-width="0.646741" stroke-linejoin="round"/>
<ellipse cx="36.3409" cy="58.2241" rx="6.23241" ry="3.58928" transform="rotate(30.9415 36.3409 58.2241)" fill="#01CBEA" stroke="#111111" stroke-width="0.646741" stroke-linejoin="round"/>
<ellipse cx="36.3409" cy="58.2241" rx="6.23241" ry="3.58928" transform="rotate(30.9415 36.3409 58.2241)" fill="#F6B51E" stroke="#111111" stroke-width="0.646741" stroke-linejoin="round"/>
<ellipse cx="36.3609" cy="58.2386" rx="4.76149" ry="2.74216" transform="rotate(30.9415 36.3609 58.2386)" fill="#01CBEA" stroke="#111111" stroke-width="0.646741" stroke-linejoin="round"/>
<path d="M36.4701 64.2076L37.3006 62.3305C38.7876 62.9818 39.6936 62.892 41.4156 62.117L40.0957 63.8924C38.6054 64.509 37.8234 64.4997 36.4701 64.2076Z" fill="#111111"/>
<path d="M37.1724 57.1712L37.3513 57.3187L35.8468 59.1433L35.6679 58.9958L37.1724 57.1712ZM37.5588 57.4898L37.7377 57.6373L36.2332 59.4619L36.0543 59.3144L37.5588 57.4898ZM36.3832 56.7653L38.215 58.2757L37.9391 58.6102L36.1298 58.4556L36.118 58.4699L37.2709 59.4206L36.9523 59.807L35.1206 58.2965L35.4001 57.9575L37.2048 58.1159L37.2173 58.1007L36.0653 57.1508L36.3832 56.7653Z" fill="#111111"/>
<path d="M54.1214 17.6037C54.7094 19.4968 52.5213 21.8591 49.2342 22.88C45.9472 23.9009 43.1215 23.4502 42.2178 21.3008C40.2425 16.6024 43.5316 15.2624 46.8187 14.2415C50.1058 13.2206 53.3984 13.3852 54.1214 17.6037Z" fill="#1FC16B" stroke="#111111" stroke-width="0.646741" stroke-linejoin="round"/>
<ellipse cx="47.5263" cy="17.388" rx="6.23241" ry="3.58928" transform="rotate(-17.2538 47.5263 17.388)" fill="#01CBEA" stroke="#111111" stroke-width="0.646741" stroke-linejoin="round"/>
<ellipse cx="47.5263" cy="17.388" rx="6.23241" ry="3.58928" transform="rotate(-17.2538 47.5263 17.388)" fill="#F6B51E" stroke="#111111" stroke-width="0.646741" stroke-linejoin="round"/>
<ellipse cx="47.5496" cy="17.384" rx="4.76149" ry="2.74216" transform="rotate(-17.2538 47.5496 17.384)" fill="#01CBEA" stroke="#111111" stroke-width="0.646741" stroke-linejoin="round"/>
<path d="M52.0722 21.2797L51.2265 19.4094C52.7032 18.7351 53.2401 17.9999 53.8104 16.1997L54.254 18.367C53.7202 19.8889 53.192 20.4656 52.0722 21.2797Z" fill="#111111"/>
<path d="M47.2949 16.0654L47.5241 16.0304L47.8813 18.3682L47.6521 18.4032L47.2949 16.0654ZM47.79 15.9898L48.0192 15.9548L48.3764 18.2926L48.1472 18.3276L47.79 15.9898ZM46.4663 16.3832L48.8132 16.0246L48.8787 16.4532L47.5574 17.6988L47.5602 17.7171L49.0373 17.4915L49.113 17.9865L46.766 18.3451L46.6997 17.9108L48.0207 16.6711L48.0178 16.6516L46.5418 16.8771L46.4663 16.3832Z" fill="#111111"/>
<path d="M49.1315 11C49.5935 11.4773 49.9227 11.5646 50.7026 11.2338C50.0405 11.7836 50.0505 12.1355 50.4688 12.8049C49.8021 12.179 49.4671 12.2159 48.8977 12.5711C49.459 11.9586 49.4273 11.6177 49.1315 11Z" fill="#F6B51E"/>
<path d="M34.5958 50.2327C35.0578 50.7099 35.387 50.7973 36.1669 50.4665C35.5048 51.0163 35.5148 51.3681 35.9331 52.0376C35.2664 51.4117 34.9314 51.4486 34.362 51.8037C34.9233 51.1912 34.8916 50.8504 34.5958 50.2327Z" fill="#F6B51E"/>
<path d="M51.5613 55.5344C52.0233 56.0117 52.3525 56.0991 53.1324 55.7683C52.4702 56.3181 52.4802 56.6699 52.8985 57.3393C52.2319 56.7134 51.8969 56.7503 51.3275 57.1055C51.8888 56.493 51.8571 56.1521 51.5613 55.5344Z" fill="#F6B51E"/>
</svg>
