<svg fill="none" height="92" viewBox="0 0 92 92" width="92" xmlns="http://www.w3.org/2000/svg"><ellipse cx="45.9801" cy="76.785" fill="#111" rx="21.9801" ry=".785002"/><path d="m32.5475 25.7847v2.5588 2.5588h1.7059v1.1372h23.8823v-1.1372h1.7059v-2.5588-2.5588z" fill="#f6b51e"/><path d="m34.2534 32.0395.0014.5687-.0014.5686-1.1373 2.2745s-3.4126 2.2745-3.9804 5.6863c-.5678 3.4117-.5672 31.2744 0 32.4116.567 1.1369.5678 1.1373 1.7048 1.7053l.0011.0006c.7066.353 7.5036 1.1239 15.7144 1.1262 5.0144.0013 10.5562-.284 15.5601-1.1262 0 0 1.7059-.5686 1.7059-1.7059 0-1.1372-.3399-28.6239-.5673-32.4116-.2273-3.7878-4.549-5.6863-3.9818-5.6863l-1.1372-2.2745h.0014l-.0014-1.1373z" fill="#01cbea"/><g stroke="#111" stroke-linejoin="round"><path d="m34.2534 32.0395v-1.1372h-1.7059v-2.5588m1.7059 3.696.0014.5687-.0014.5686-1.1373 2.2745s-3.4126 2.2745-3.9804 5.6863c-.5678 3.4117-.5672 31.2744 0 32.4116.567 1.1369.5678 1.1373 1.7048 1.7053l.0011.0006c.7066.353 7.5036 1.1239 15.7144 1.1262 5.0144.0013 10.5562-.284 15.5601-1.1262 0 0 1.7059-.5686 1.7059-1.7059 0-1.1372-.3399-28.6239-.5673-32.4116-.2273-3.7878-4.549-5.6863-3.9818-5.6863l-1.1372-2.2745h.0014l-.0014-1.1373m-23.8823 0h23.8823m0 0v-1.1372h1.7059v-2.5588m-27.2941 0v-2.5588h27.2941v2.5588m-27.2941 0h27.2941" stroke-width="1.2"/><path d="m42.8702 70.7196c-.203 1.9719-3.1432 3.2846-6.567 2.9321-3.4239-.3525-5.8453-1.8771-5.8319-4.2086.0292-5.0967 3.5803-5.0368 7.0042-4.6843s6.3871 1.7974 5.3947 5.9608z" fill="#1fc16b" stroke-width=".646741"/><ellipse cx="36.8904" cy="67.9296" fill="#01cbea" rx="6.23241" ry="3.58928" stroke-width=".646741" transform="matrix(.99474169 .10241563 -.10241563 .99474169 7.151033 -3.420959)"/><ellipse cx="36.8904" cy="67.9296" fill="#f6b51e" rx="6.23241" ry="3.58928" stroke-width=".646741" transform="matrix(.99474169 .10241563 -.10241563 .99474169 7.151033 -3.420959)"/><ellipse cx="36.9142" cy="67.9324" fill="#01cbea" rx="4.76148" ry="2.74216" stroke-width=".646741" transform="matrix(.99474169 .10241563 -.10241563 .99474169 7.151445 -3.423382)"/></g><path d="m39.5418 73.2939-.0429-2.0522c1.6229-.04 2.4055-.5051 3.6371-1.9366l-.4435 2.1674c-1.0888 1.1898-1.8011 1.5126-3.1507 1.8214z" fill="#111"/><path d="m37.1972 66.6215.2245.0578-.59 2.2902-.2245-.0579zm.4849.1249.2245.0579-.5899 2.2901-.2245-.0578zm-1.3718-.1582 2.2991.5922-.1081.4199-1.7045.6263-.0046.018 1.4471.3728-.125.4849-2.2991-.5922.1096-.4255 1.7019-.621.0049-.0191-1.4459-.3725z" fill="#111"/><path d="m62.4203 71.3471c-.203 1.9718-3.1432 3.2846-6.5671 2.9321s-5.8453-1.8771-5.8319-4.2087c.0293-5.0966 3.5804-5.0368 7.0042-4.6843 3.4239.3525 6.3872 1.7974 5.3948 5.9609z" fill="#1fc16b" stroke="#111" stroke-linejoin="round" stroke-width=".646741"/><ellipse cx="56.4402" cy="68.5571" fill="#01cbea" rx="6.23241" ry="3.58928" stroke="#111" stroke-linejoin="round" stroke-width=".646741" transform="matrix(.99474169 .10241563 -.10241563 .99474169 7.318098 -5.419864)"/><ellipse cx="56.4402" cy="68.5571" fill="#f6b51e" rx="6.23241" ry="3.58928" stroke="#111" stroke-linejoin="round" stroke-width=".646741" transform="matrix(.99474169 .10241563 -.10241563 .99474169 7.318098 -5.419864)"/><ellipse cx="56.464" cy="68.5621" fill="#01cbea" rx="4.76148" ry="2.74216" stroke="#111" stroke-linejoin="round" stroke-width=".646741" transform="matrix(.99474169 .10241563 -.10241563 .99474169 7.318735 -5.422275)"/><path d="m59.0916 73.9213-.0429-2.0522c1.6229-.0399 2.4055-.5051 3.6371-1.9365l-.4435 2.1673c-1.0888 1.1898-1.8011 1.5127-3.1507 1.8214z" fill="#111"/><path d="m56.7469 67.2511.2246.0579-.59 2.2901-.2245-.0578zm.485.125.2245.0578-.5899 2.2901-.2245-.0578zm-1.3718-.1583 2.2991.5923-.1082.4198-1.7044.6264-.0046.0179 1.447.3728-.1249.485-2.2991-.5923.1096-.4255 1.7018-.621.005-.0191-1.446-.3725z" fill="#111"/><path d="m50.8743 72.2301c-.9858 1.7198-4.2057 1.7263-7.1919.0146s-4.5804-4.0878-3.622-6.2133c2.0952-4.6461 5.3164-3.1503 8.3026-1.4386s5.108 4.2349 2.5113 7.6373z" fill="#1fc16b" stroke="#111" stroke-linejoin="round" stroke-width=".646741"/><ellipse cx="46.5412" cy="67.2524" fill="#01cbea" rx="6.23241" ry="3.58928" stroke="#111" stroke-linejoin="round" stroke-width=".646741" transform="matrix(.86757457 .49730712 -.49730712 .86757457 39.608336 -14.239342)"/><ellipse cx="46.5412" cy="67.2524" fill="#f6b51e" rx="6.23241" ry="3.58928" stroke="#111" stroke-linejoin="round" stroke-width=".646741" transform="matrix(.86757457 .49730712 -.49730712 .86757457 39.608336 -14.239342)"/><ellipse cx="46.5613" cy="67.2645" fill="#01cbea" rx="4.76149" ry="2.74216" stroke="#111" stroke-linejoin="round" stroke-width=".646741" transform="matrix(.86757457 .49730712 -.49730712 .86757457 39.617015 -14.247735)"/><path d="m46.7874 73.2301.7936-1.893c1.4995.6221 2.4035.5146 4.1101-.2938l-1.285 1.8008c-1.4779.6456-2.2599.6516-3.6187.386z" fill="#111"/><path d="m47.3522 66.1812.1817.144-1.4686 1.8536-.1817-.144zm.3925.311.1817.144-1.4686 1.8536-.1817-.144zm-1.1895-.7014 1.8609 1.4744-.2693.3398-1.8119-.1193-.0116.0146 1.1713.9279-.311.3926-1.8609-1.4744.2728-.3444 1.8075.1231.0122-.0154-1.1703-.9273z" fill="#111"/><path d="m62.4203 64.5233c-.203 1.9719-3.1432 3.2847-6.5671 2.9321-3.4239-.3525-5.8453-1.8771-5.8319-4.2086.0293-5.0966 3.5804-5.0368 7.0042-4.6843 3.4239.3525 6.3872 1.7974 5.3948 5.9608z" fill="#1fc16b" stroke="#111" stroke-linejoin="round" stroke-width=".646741"/><ellipse cx="56.4402" cy="61.7334" fill="#01cbea" rx="6.23241" ry="3.58928" stroke="#111" stroke-linejoin="round" stroke-width=".646741" transform="matrix(.99474169 .10241563 -.10241563 .99474169 6.619245 -5.455745)"/><ellipse cx="56.4402" cy="61.7334" fill="#f6b51e" rx="6.23241" ry="3.58928" stroke="#111" stroke-linejoin="round" stroke-width=".646741" transform="matrix(.99474169 .10241563 -.10241563 .99474169 6.619245 -5.455745)"/><ellipse cx="56.464" cy="61.7381" fill="#01cbea" rx="4.76148" ry="2.74216" stroke="#111" stroke-linejoin="round" stroke-width=".646741" transform="matrix(.99474169 .10241563 -.10241563 .99474169 6.619851 -5.458158)"/><path d="m59.0916 67.0976-.0429-2.0522c1.6229-.04 2.4055-.5051 3.6371-1.9365l-.4435 2.1673c-1.0888 1.1898-1.8011 1.5127-3.1507 1.8214z" fill="#111"/><path d="m56.7469 60.4274.2246.0578-.59 2.2902-.2245-.0579zm.485.1249.2245.0579-.5899 2.2901-.2245-.0578zm-1.3718-.1582 2.2991.5922-.1082.4199-1.7044.6264-.0046.0179 1.447.3728-.1249.485-2.2991-.5923.1096-.4255 1.7018-.621.005-.0191-1.446-.3725z" fill="#111"/><path d="m50.4967 61.9335c.9155 1.7582-.8172 4.4722-3.8701 6.0618-3.053 1.5896-5.9137 1.649-7.1855-.3053-2.7799-4.2718.2181-6.1758 3.2711-7.7654 3.0529-1.5896 6.3222-2.0137 7.7845 2.0089z" fill="#1fc16b" stroke="#111" stroke-linejoin="round" stroke-width=".646741"/><ellipse cx="43.9681" cy="62.8953" fill="#01cbea" rx="6.23241" ry="3.58928" stroke="#111" stroke-linejoin="round" stroke-width=".646741" transform="matrix(.8869665 -.46183376 .46183376 .8869665 -24.077305 27.415228)"/><ellipse cx="43.9681" cy="62.8953" fill="#f6b51e" rx="6.23241" ry="3.58928" stroke="#111" stroke-linejoin="round" stroke-width=".646741" transform="matrix(.8869665 -.46183376 .46183376 .8869665 -24.077305 27.415228)"/><ellipse cx="43.9904" cy="62.8855" fill="#01cbea" rx="4.76149" ry="2.74216" stroke="#111" stroke-linejoin="round" stroke-width=".646741" transform="matrix(.8869665 -.46183376 .46183376 .8869665 -24.070258 27.42442)"/><path d="m49.1344 65.9167-1.1651-1.69c1.3332-.9263 1.7307-1.7454 1.9714-3.6183l.8223 2.0538c-.2544 1.5926-.6716 2.2541-1.6286 3.2545z" fill="#111"/><path d="m43.5055 61.6355.2193-.0753.7676 2.2369-.2193.0753zm.4737-.1625.2193-.0753.7676 2.2369-.2193.0752zm-1.2325.6226 2.2456-.7705.1408.4101-1.0786 1.4609.006.0175 1.4134-.4849.1626.4736-2.2457.7706-.1426-.4156 1.0793-1.455-.0063-.0186-1.4124.4845z" fill="#111"/><path d="m40.5757 63.2858c-1.0192 1.7002-4.2387 1.6438-7.1908-.1259-2.9522-1.7697-4.4997-4.1765-3.4999-6.2829 2.1855-4.6043 5.3769-3.0458 8.329-1.2761 2.9522 1.7698 5.0243 4.3339 2.3617 7.6849z" fill="#1fc16b" stroke="#111" stroke-linejoin="round" stroke-width=".646741"/><ellipse cx="36.3409" cy="58.2241" fill="#01cbea" rx="6.23241" ry="3.58928" stroke="#111" stroke-linejoin="round" stroke-width=".646741" transform="matrix(.85769272 .51416262 -.51416262 .85769272 35.108231 -10.399419)"/><ellipse cx="36.3409" cy="58.2241" fill="#f6b51e" rx="6.23241" ry="3.58928" stroke="#111" stroke-linejoin="round" stroke-width=".646741" transform="matrix(.85769272 .51416262 -.51416262 .85769272 35.108231 -10.399419)"/><ellipse cx="36.3609" cy="58.2386" fill="#01cbea" rx="4.76149" ry="2.74216" stroke="#111" stroke-linejoin="round" stroke-width=".646741" transform="matrix(.85769272 .51416262 -.51416262 .85769272 35.118532 -10.407639)"/><path d="m36.4701 64.2076.8305-1.8771c1.487.6513 2.393.5615 4.115-.2135l-1.3199 1.7754c-1.4903.6166-2.2723.6073-3.6256.3152z" fill="#111"/><path d="m37.1724 57.1712.1789.1475-1.5045 1.8246-.1789-.1475zm.3864.3186.1789.1475-1.5045 1.8246-.1789-.1475zm-1.1756-.7245 1.8318 1.5104-.2759.3345-1.8093-.1546-.0118.0143 1.1529.9507-.3186.3864-1.8317-1.5105.2795-.339 1.8047.1584.0125-.0152-1.152-.9499z" fill="#111"/><path d="m54.1214 17.6037c.588 1.8931-1.6001 4.2554-4.8872 5.2763-3.287 1.0209-6.1127.5702-7.0164-1.5792-1.9753-4.6984 1.3138-6.0384 4.6009-7.0593s6.5797-.8563 7.3027 3.3622z" fill="#1fc16b" stroke="#111" stroke-linejoin="round" stroke-width=".646741"/><ellipse cx="47.5263" cy="17.388" fill="#01cbea" rx="6.23241" ry="3.58928" stroke="#111" stroke-linejoin="round" stroke-width=".646741" transform="matrix(.95500027 -.29660491 .29660491 .95500027 -3.018696 14.878989)"/><ellipse cx="47.5263" cy="17.388" fill="#f6b51e" rx="6.23241" ry="3.58928" stroke="#111" stroke-linejoin="round" stroke-width=".646741" transform="matrix(.95500027 -.29660491 .29660491 .95500027 -3.018696 14.878989)"/><ellipse cx="47.5496" cy="17.384" fill="#01cbea" rx="4.76149" ry="2.74216" stroke="#111" stroke-linejoin="round" stroke-width=".646741" transform="matrix(.95500027 -.29660491 .29660491 .95500027 -3.016461 14.88572)"/><path d="m52.0722 21.2797-.8457-1.8703c1.4767-.6743 2.0136-1.4095 2.5839-3.2097l.4436 2.1673c-.5338 1.5219-1.062 2.0986-2.1818 2.9127z" fill="#111"/><path d="m47.2949 16.0654.2292-.035.3572 2.3378-.2292.035zm.4951-.0756.2292-.035.3572 2.3378-.2292.035zm-1.3237.3934 2.3469-.3586.0655.4286-1.3213 1.2456.0028.0183 1.4771-.2256.0757.495-2.347.3586-.0663-.4343 1.321-1.2397-.0029-.0195-1.476.2255z" fill="#111"/><path d="m49.1315 11c.462.4773.7912.5646 1.5711.2338-.6621.5498-.6521.9017-.2338 1.5711-.6667-.6259-1.0017-.589-1.5711-.2338.5613-.6125.5296-.9534.2338-1.5711z" fill="#f6b51e"/><path d="m34.5958 50.2327c.462.4772.7912.5646 1.5711.2338-.6621.5498-.6521.9016-.2338 1.5711-.6667-.6259-1.0017-.589-1.5711-.2339.5613-.6125.5296-.9533.2338-1.571z" fill="#f6b51e"/><path d="m51.5613 55.5344c.462.4773.7912.5647 1.5711.2339-.6622.5498-.6522.9016-.2339 1.571-.6666-.6259-1.0016-.589-1.571-.2338.5613-.6125.5296-.9534.2338-1.5711z" fill="#f6b51e"/></svg>