<svg width="124" height="124" viewBox="0 0 124 124" fill="none" xmlns="http://www.w3.org/2000/svg">
<path d="M79.3515 21H45.5153L45.6454 93.6612H99.4797V41.5186L79.3515 21Z" fill="#01CBEA" stroke="#111111" stroke-width="1.5"/>
<path d="M79.0935 42.3435L79.672 21.9185L98.5483 41.8323L79.0935 42.3435Z" fill="#1FC16B" stroke="#111111" stroke-width="1.5"/>
<path d="M99.0039 41.4811L85.2981 42.3163L99.0039 50.721V41.4811Z" fill="#111111" stroke="#111111" stroke-width="1.5"/>
<rect x="24.0004" y="99.6434" width="28.4611" height="6.93527" rx="3.46763" transform="rotate(-53.4103 24.0004 99.6434)" fill="#1A7544" stroke="#111111" stroke-width="1.5"/>
<path d="M76.3179 102.814C73.6042 102.814 30.8551 101.874 30.8551 101.874C30.8551 101.874 72.367 100.02 76.3179 100.299C80.2687 100.579 79.0316 102.814 76.3179 102.814Z" fill="#111111" stroke="#111111" stroke-width="1.5"/>
<path d="M53.7561 44.2574C65.5913 44.2574 75.1857 53.5599 75.1858 65.0357C75.1858 76.5116 65.5914 85.815 53.7561 85.815C41.9209 85.8149 32.3264 76.5115 32.3264 65.0357C32.3265 53.56 41.921 44.2575 53.7561 44.2574ZM53.717 49.6373C44.921 49.6374 37.7903 56.5517 37.7903 65.0806C37.7903 73.6096 44.921 80.5239 53.717 80.524C62.5132 80.524 69.6438 73.6097 69.6438 65.0806C69.6437 56.5516 62.5131 49.6373 53.717 49.6373Z" fill="#F6B51E"/>
<path d="M53.7561 44.2574V43.5074H53.7561L53.7561 44.2574ZM75.1858 65.0357H75.9358V65.0357L75.1858 65.0357ZM53.7561 85.815L53.7561 86.565H53.7561V85.815ZM32.3264 65.0357L31.5764 65.0357V65.0357H32.3264ZM53.717 49.6373V48.8873H53.717L53.717 49.6373ZM37.7903 65.0806L37.0403 65.0806V65.0806H37.7903ZM53.717 80.524L53.717 81.274H53.717V80.524ZM69.6438 65.0806H70.3938V65.0806L69.6438 65.0806ZM53.7561 44.2574V45.0074C65.1991 45.0074 74.4357 53.9958 74.4358 65.0357L75.1858 65.0357L75.9358 65.0357C75.9357 53.124 65.9835 43.5074 53.7561 43.5074V44.2574ZM75.1858 65.0357H74.4358C74.4358 76.0758 65.1991 85.065 53.7561 85.065V85.815V86.565C65.9836 86.565 75.9358 76.9474 75.9358 65.0357H75.1858ZM53.7561 85.815L53.7561 85.065C42.3132 85.0649 33.0764 76.0757 33.0764 65.0357H32.3264H31.5764C31.5764 76.9474 41.5287 86.5649 53.7561 86.565L53.7561 85.815ZM32.3264 65.0357L33.0764 65.0357C33.0765 53.9958 42.3132 45.0075 53.7561 45.0074L53.7561 44.2574L53.7561 43.5074C41.5288 43.5075 31.5765 53.1241 31.5764 65.0357L32.3264 65.0357ZM53.717 49.6373L53.717 48.8873C44.5288 48.8874 37.0404 56.1159 37.0403 65.0806L37.7903 65.0806L38.5403 65.0806C38.5403 56.9875 45.3133 50.3874 53.7171 50.3873L53.717 49.6373ZM37.7903 65.0806H37.0403C37.0403 74.0455 44.5287 81.2739 53.717 81.274L53.717 80.524L53.7171 79.774C45.3132 79.7739 38.5403 73.1738 38.5403 65.0806H37.7903ZM53.717 80.524V81.274C62.9054 81.274 70.3938 74.0455 70.3938 65.0806H69.6438H68.8938C68.8938 73.1738 62.1209 79.774 53.717 79.774V80.524ZM69.6438 65.0806L70.3938 65.0806C70.3937 56.1158 62.9054 48.8873 53.717 48.8873V49.6373V50.3873C62.1209 50.3873 68.8937 56.9875 68.8938 65.0806L69.6438 65.0806Z" fill="#111111"/>
<line x1="48.8652" y1="49.8822" x2="58.4088" y2="67.4076" stroke="#111111" stroke-width="1.5"/>
<line x1="46.1848" y1="50.6002" x2="50.6963" y2="59.5365" stroke="#111111" stroke-width="1.5"/>
<line x1="48.8761" y1="72.0263" x2="53.3876" y2="80.9625" stroke="#111111" stroke-width="1.5"/>
</svg>
