<svg width="124" height="124" viewBox="0 0 124 124" fill="none" xmlns="http://www.w3.org/2000/svg">
<rect x="9.9989" y="18.0005" width="94.6274" height="52.0024" rx="6.81999" fill="#01CBEA" stroke="#111111" stroke-width="1.5"/>
<path d="M28.7564 31.2127C28.7564 32.9266 27.9783 34.4587 26.7561 35.4752C25.7959 36.2737 24.5616 36.7539 23.2152 36.7539C20.1548 36.7539 17.6739 34.273 17.6739 31.2127C17.6739 29.7238 18.2611 28.3721 19.2166 27.3764C20.225 26.3256 21.6437 25.6714 23.2152 25.6714C26.2755 25.6714 28.7564 28.1523 28.7564 31.2127Z" fill="#F6B51E"/>
<path d="M19.2166 27.3764C18.2611 28.3721 17.6739 29.7238 17.6739 31.2127C17.6739 34.273 20.1548 36.7539 23.2152 36.7539C24.5616 36.7539 25.7959 36.2737 26.7561 35.4752M19.2166 27.3764C20.225 26.3256 21.6437 25.6714 23.2152 25.6714C26.2755 25.6714 28.7564 28.1523 28.7564 31.2127C28.7564 32.9266 27.9783 34.4587 26.7561 35.4752M19.2166 27.3764L26.7561 35.4752" stroke="#111111" stroke-width="1.5"/>
<path d="M23.2152 52.1027C24.9291 52.1027 26.4612 52.8808 27.4777 54.103C28.2762 55.0632 28.7564 56.2975 28.7564 57.6439C28.7564 60.7043 26.2755 63.1852 23.2152 63.1852C21.7263 63.1852 20.3745 62.598 19.3789 61.6425C18.3281 60.6341 17.6739 59.2154 17.6739 57.6439C17.6739 54.5836 20.1548 52.1027 23.2152 52.1027Z" fill="#F6B51E"/>
<path d="M19.3789 61.6425C20.3745 62.598 21.7263 63.1852 23.2152 63.1852C26.2755 63.1852 28.7564 60.7043 28.7564 57.6439C28.7564 56.2975 28.2762 55.0632 27.4777 54.103M19.3789 61.6425C18.3281 60.6341 17.6739 59.2154 17.6739 57.6439C17.6739 54.5836 20.1548 52.1027 23.2152 52.1027C24.9291 52.1027 26.4612 52.8808 27.4777 54.103M19.3789 61.6425L27.4777 54.103" stroke="#111111" stroke-width="1.5"/>
<path d="M96.1851 57.6471C95.406 51.9671 90.1699 47.9941 84.4899 48.7732C78.8098 49.5523 74.8368 54.7884 75.6159 60.4684L76.9181 69.9619L70.5891 70.83L69.2869 61.3365C68.0284 52.1611 74.4463 43.7027 83.6218 42.4442C92.7972 41.1857 101.256 47.6036 102.514 56.779L103.816 66.2725L97.4872 67.1406L96.1851 57.6471Z" fill="#F6B51E" stroke="#111111" stroke-width="1.5"/>
<rect x="80.7603" y="30.7888" width="10.23" height="27.28" rx="5.11499" fill="#1FC16B" stroke="#111111" stroke-width="1.5"/>
<path d="M65.3185 73.5642C64.899 70.5057 67.0383 67.6863 70.0968 67.2668L104.115 62.6008C107.174 62.1813 109.993 64.3206 110.413 67.379L114.102 94.2772C114.521 97.3357 112.382 100.155 109.324 100.575L75.3054 105.241C72.2469 105.66 69.4275 103.521 69.008 100.462L65.3185 73.5642Z" fill="#1FC16B" stroke="#111111" stroke-width="1.5"/>
<circle cx="89.3062" cy="79.3994" r="7.58603" transform="rotate(-7.81008 89.3062 79.3994)" fill="#111111"/>
<path d="M85.4317 95.2468L87.9766 84.4196L91.9322 83.877L97.2985 93.6191L85.4317 95.2468Z" fill="#111111"/>
</svg>
