<svg width="124" height="124" viewBox="0 0 124 124" fill="none" xmlns="http://www.w3.org/2000/svg">
<rect x="25.8584" y="12" width="51.8649" height="101" rx="8.18919" fill="#01CBEA" stroke="#111111" stroke-width="1.5" stroke-linejoin="bevel"/>
<rect x="42.2358" y="12" width="19.1081" height="4.09459" rx="1.36486" fill="#111111"/>
<path d="M24 39.3264C24 38.717 24.4941 38.2229 25.1035 38.2229V43.7404C24.4941 43.7404 24 43.2464 24 42.6369V39.3264Z" fill="#111111"/>
<path d="M79.9314 50.6234C79.9314 49.8696 79.3203 49.2585 78.5665 49.2585H77.7244V58.0866H78.5665C79.3203 58.0866 79.9314 57.4755 79.9314 56.7217V50.6234Z" fill="#111111"/>
<path d="M24 48.1562C24 47.5468 24.4941 47.0527 25.1035 47.0527V52.5703C24.4941 52.5703 24 52.0762 24 51.4668V48.1562Z" fill="#111111"/>
<path fill-rule="evenodd" clip-rule="evenodd" d="M79.6291 74.5659C79.5026 74.573 79.3755 74.5775 79.2478 74.5795L79.6291 74.5659Z" fill="#111111"/>
<path d="M69.1539 64.0098C69.2439 69.9306 73.7631 74.6628 79.2478 74.5795L79.6291 74.5659C84.9337 74.2689 89.1037 69.4909 89.0158 63.7079C88.9258 57.7871 84.4066 53.0549 78.9219 53.1382C73.4372 53.2216 69.0639 58.089 69.1539 64.0098Z" fill="#F6B51E"/>
<path d="M79.2478 74.5795C73.7631 74.6628 69.2439 69.9306 69.1539 64.0098C69.0639 58.089 73.4372 53.2216 78.9219 53.1382C84.4066 53.0549 88.9258 57.7871 89.0158 63.7079C89.1037 69.4909 84.9337 74.2689 79.6291 74.5659M79.2478 74.5795L79.6291 74.5659M79.2478 74.5795C79.3755 74.5775 79.5026 74.573 79.6291 74.5659" stroke="#111111" stroke-width="1.5" stroke-linejoin="bevel"/>
<path fill-rule="evenodd" clip-rule="evenodd" d="M78.4914 79.5744C67.6416 79.7393 59.2823 89.6862 59.4603 101.399C59.4718 102.153 59.5196 102.898 59.6019 103.631L98.6209 103.631C98.7209 102.704 98.7655 101.76 98.7509 100.802C98.5729 89.089 89.3412 79.4095 78.4914 79.5744Z" fill="#1FC16B" stroke="#111111" stroke-width="1.5" stroke-linejoin="bevel"/>
<path d="M62.0605 90.3126L50.3503 104.218H60.5967C58.5035 99.5131 59.099 96.409 62.0605 90.3126Z" fill="#111111" stroke="black" stroke-width="1.5"/>
<path d="M96.0881 65.9858C96.5654 68.6927 97.4913 69.7553 100.932 70.4292C97.3874 70.7791 96.6061 72.0083 96.4882 75.2726C95.6538 71.5817 94.4201 70.9317 91.6447 70.8293C94.9887 70.0309 95.6701 68.7889 96.0881 65.9858Z" fill="#F6B51E" stroke="#111111" stroke-width="1.5" stroke-linejoin="bevel"/>
</svg>
