<svg width="124" height="124" viewBox="0 0 124 124" fill="none" xmlns="http://www.w3.org/2000/svg">
<path d="M33.4547 73.88C33.6037 73.508 33.9641 73.264 34.3649 73.264H86.9925C87.3947 73.264 87.7561 73.5096 87.9041 73.8836L95.6963 93.5643C95.9511 94.2079 95.4768 94.9058 94.7846 94.9058H26.4837C25.7899 94.9058 25.3155 94.2049 25.5735 93.5608L33.4547 73.88Z" fill="#1FC16B" stroke="#111111" stroke-width="1.5"/>
<path d="M26.1594 100.046L25.6989 94.0401L95.5892 93.8767V100.046H26.1594Z" fill="#1A7544" stroke="#111111" stroke-width="1.5"/>
<path d="M58.6634 15.9509C59.2651 14.0863 61.9031 14.0863 62.5049 15.9509L83.3172 80.4412C83.4626 80.8916 83.4668 81.3954 83.1304 81.7284C78.6327 86.1811 45.2969 86.0239 38.4747 81.8334C37.8823 81.4695 37.7557 80.7366 37.9692 80.075L58.6634 15.9509Z" fill="#01CBEA" stroke="#111111" stroke-width="1.5"/>
<path d="M87.9053 84.6235C85.2123 85.3827 69.0229 86.2213 65.1556 84.6235C70.9386 83.819 81.1516 83.5956 83.4496 81.1471C83.4496 81.1471 90.5982 83.8643 87.9053 84.6235Z" fill="#111111" stroke="#111111" stroke-width="1.5"/>
<path d="M98.9245 99.8477C96.2315 100.607 74.1276 101.446 70.2603 99.8477C76.0433 99.0433 92.1708 98.8198 94.4688 96.3713C94.4688 96.3713 101.617 99.0885 98.9245 99.8477Z" fill="#111111" stroke="#111111" stroke-width="1.5"/>
<path d="M68.7368 35.2323C62.5668 36.5809 58.865 36.626 52.4223 35.2323L51.1188 39.4371C58.6313 41.8542 62.8966 41.8446 70.0403 39.395L68.7368 35.2323Z" fill="#F6B51E" stroke="#111111" stroke-width="1.5"/>
<path d="M74.9993 54.7018C63.7827 57.9782 57.4129 58.0553 46.1966 54.6598L43.5055 62.9853C56.2084 66.7858 63.6843 66.7322 77.6483 62.9432L74.9993 54.7018Z" fill="#F6B51E" stroke="#111111" stroke-width="1.5"/>
</svg>
