<svg width="124" height="124" viewBox="0 0 124 124" fill="none" xmlns="http://www.w3.org/2000/svg">
<path d="M39.6826 44.1753L44.7804 29.793L57.507 42.2067C48.4425 36.9304 44.531 37.5101 39.6826 44.1753Z" fill="#111111" stroke="#111111" stroke-width="1.5"/>
<path d="M22.206 35.0487L25.2523 29.4735L30.3102 34.2201V37.4627L23.9303 38.8996L27.6088 43.1528L28.4134 45.222L37.3222 47.1761L37.897 55.5102L43.3572 59.476L49.1623 57.4069L63.3471 66.5113L62.4968 59.8784L65.0832 59.476L72.1528 62.8671L68.5318 68.5573L63.6779 66.7236L63.3589 66.6031L59.7379 72.0058L51.9212 70.9712L46.6908 66.6031L38.7017 65.7409L33.5288 62.1774L31.838 53.7958L24.735 50.7397L20.999 46.1416L23.9303 38.8996L22.206 35.0487Z" fill="#F6B51E"/>
<path d="M23.9303 38.8996L30.3102 37.4627V34.2201L25.2523 29.4735L22.206 35.0487L23.9303 38.8996ZM23.9303 38.8996L27.6088 43.1528L28.4134 45.222M23.9303 38.8996L20.999 46.1416L24.735 50.7397M28.4134 45.222L24.735 50.7397M28.4134 45.222L37.3222 47.1761L37.897 55.5102L43.3572 59.476L49.1623 57.4069L63.7038 66.7402M24.735 50.7397L31.838 53.7958L33.5288 62.1774L38.7017 65.7409L46.6908 66.6031L51.9212 70.9712L59.7379 72.0058L63.3589 66.6031M63.3589 66.6031L68.5318 68.5573L72.1528 62.8671L65.0832 59.476L62.4968 59.8784L63.3589 66.6031Z" stroke="#111111" stroke-width="1.5"/>
<path d="M28.7038 44.5913L37.8499 48.5872L36.3481 37.8091L37.2103 29.0727L27.8991 24.9919L25.715 28.6129L33.5318 36.5446L25.1978 39.361L28.7038 44.5913Z" fill="#01CBEA" stroke="#111111" stroke-width="1.5"/>
<path d="M74.5087 59.3035L69.9106 53.2685L63.8756 58.2115L72.612 62.1773L74.5087 59.3035Z" fill="#01CBEA"/>
<path d="M62.4387 58.9012V65.6259L56.5761 65.1661L49.8263 59.8808L43.2417 60.1082L37.6665 55.855L37.0477 47.5586L49.8263 59.8808L62.4387 58.9012Z" fill="#01CBEA"/>
<path d="M49.8263 59.8808L56.5761 65.1661L62.4387 65.6259V58.9012L49.8263 59.8808ZM49.8263 59.8808L43.2417 60.1082L37.6665 55.855L37.0477 47.5586L49.8263 59.8808ZM69.9106 53.2685L74.5087 59.3035L72.612 62.1773L63.8756 58.2115L69.9106 53.2685Z" stroke="#111111" stroke-width="1.5"/>
<path d="M37.3804 30.2163L37.8949 22H42.8475L48.1859 31.1962L37.3804 30.2163Z" fill="#01CBEA" stroke="#111111" stroke-width="1.5"/>
<path d="M58.2986 27.9755L51.2865 30.8493L62.092 38.4361L62.4369 31.2516L58.2986 27.9755Z" fill="#01CBEA"/>
<path d="M74.9667 47.8622L73.5298 43.8389L62.4369 39.1833L65.6263 56.6235L74.9667 47.8622Z" fill="#01CBEA"/>
<path d="M65.9429 40.6777L62.4369 39.1833M62.4369 39.1833L73.5298 43.8389L74.9667 47.8622L65.6263 56.6235L62.4369 39.1833ZM51.2865 30.8493L58.2986 27.9755L62.4369 31.2516L62.092 38.4361L51.2865 30.8493Z" stroke="#111111" stroke-width="1.5"/>
<path d="M29.217 45.7385L25.5386 50.624L30.0792 53.038L32.4084 53.3133L33.8726 60.28L38.3557 56.1417L37.5511 52.0034L36.1353 48.2062L33.4128 47.5203L29.217 45.7385Z" fill="#1FC16B" stroke="#111111" stroke-width="1.5"/>
<path d="M39.9083 64.646L43.2419 60.2778L49.755 60.9029L56.3465 65.9105L52.6105 70.5086L47.0928 65.3932L39.9083 64.646Z" fill="#1FC16B" stroke="#111111" stroke-width="1.5"/>
<ellipse cx="62.3781" cy="99.7201" rx="33.2015" ry="2.35795" fill="#111111"/>
<path fill-rule="evenodd" clip-rule="evenodd" d="M35.0732 31.7244C39.5392 26.3591 49.9544 27.665 58.3359 34.6414C66.7171 41.6177 69.8912 51.6226 65.4257 56.9881C60.9598 62.3535 50.5446 61.0475 42.163 54.0711C33.7816 47.0947 30.6072 37.0899 35.0732 31.7244ZM54.6748 39.0623C50.0771 35.2354 44.364 34.5187 41.914 37.4617C39.4642 40.4049 41.2052 45.8936 45.8027 49.7205C50.4002 53.5473 56.1134 54.2639 58.5634 51.3211C61.0133 48.3779 59.2725 42.8893 54.6748 39.0623Z" fill="#01CBEA"/>
<path d="M35.0732 31.7244L34.4968 31.2446L34.4968 31.2446L35.0732 31.7244ZM58.3359 34.6414L58.8157 34.065L58.8157 34.065L58.3359 34.6414ZM65.4257 56.9881L66.0022 57.4679L66.0022 57.4679L65.4257 56.9881ZM42.163 54.0711L41.6832 54.6475L41.6832 54.6475L42.163 54.0711ZM54.6748 39.0623L55.1546 38.4859L55.1546 38.4859L54.6748 39.0623ZM41.914 37.4617L41.3376 36.9819L41.3376 36.9819L41.914 37.4617ZM45.8027 49.7205L45.3229 50.2969L45.3229 50.297L45.8027 49.7205ZM58.5634 51.3211L59.1398 51.801L59.1399 51.8009L58.5634 51.3211ZM35.0732 31.7244L35.6496 32.2042C37.6631 29.7854 41.0858 28.7902 45.1429 29.2989C49.1902 29.8064 53.7587 31.8074 57.8561 35.2179L58.3359 34.6414L58.8157 34.065C54.5316 30.4991 49.7018 28.3588 45.3296 27.8106C40.9673 27.2636 36.9494 28.2981 34.4968 31.2446L35.0732 31.7244ZM58.3359 34.6414L57.8561 35.2179C61.9534 38.6283 64.75 42.7577 65.9835 46.6456C67.2199 50.543 66.8625 54.0894 64.8493 56.5083L65.4257 56.9881L66.0022 57.4679C68.4545 54.5213 68.7427 50.3825 67.4132 46.192C66.0807 41.992 63.0997 37.6308 58.8157 34.065L58.3359 34.6414ZM65.4257 56.9881L64.8493 56.5083C62.8359 58.9272 59.4132 59.9224 55.356 59.4136C51.3088 58.9061 46.7403 56.9052 42.6429 53.4947L42.163 54.0711L41.6832 54.6475C45.9674 58.2135 50.7972 60.3537 55.1694 60.902C59.5317 61.449 63.5496 60.4144 66.0022 57.4679L65.4257 56.9881ZM42.163 54.0711L42.6429 53.4947C38.5455 50.0841 35.7487 45.9547 34.5152 42.0668C33.2787 38.1695 33.6362 34.6231 35.6496 32.2042L35.0732 31.7244L34.4968 31.2446C32.0442 34.1911 31.7559 38.3299 33.0855 42.5205C34.418 46.7205 37.3992 51.0816 41.6832 54.6475L42.163 54.0711ZM54.6748 39.0623L55.1546 38.4859C52.7624 36.4947 50.054 35.2892 47.5824 34.9792C45.1206 34.6704 42.7822 35.2466 41.3376 36.9819L41.914 37.4617L42.4904 37.9416C43.4958 36.7339 45.239 36.197 47.3957 36.4675C49.5425 36.7368 51.9895 37.803 54.195 39.6388L54.6748 39.0623ZM41.914 37.4617L41.3376 36.9819C39.8931 38.7173 39.7505 41.1215 40.5007 43.4865C41.2539 45.861 42.9308 48.3058 45.3229 50.2969L45.8027 49.7205L46.2825 49.1441C44.0771 47.3083 42.5847 45.0953 41.9305 43.0329C41.2733 40.9611 41.4851 39.1493 42.4905 37.9415L41.914 37.4617ZM45.8027 49.7205L45.3229 50.297C47.715 52.2881 50.4234 53.4935 52.895 53.8036C55.3568 54.1123 57.6952 53.5361 59.1398 51.801L58.5634 51.3211L57.9871 50.8412C56.9816 52.0489 55.2384 52.5857 53.0817 52.3152C50.9349 52.046 48.4879 50.9798 46.2825 49.1441L45.8027 49.7205ZM58.5634 51.3211L59.1399 51.8009C60.5844 50.0655 60.727 47.6613 59.9768 45.2963C59.2236 42.9218 57.5468 40.4771 55.1546 38.4859L54.6748 39.0623L54.195 39.6388C56.4004 41.4745 57.8929 43.6875 58.547 45.7499C59.2042 47.8217 58.9924 49.6335 57.987 50.8413L58.5634 51.3211Z" fill="#111111"/>
<path d="M32.6385 35.3252L25.783 29.3899L23.1604 35.3252L24.0346 38.5919L32.6385 36.3834V35.3252Z" fill="#1FC16B" stroke="#111111" stroke-width="1.5"/>
<path d="M82.4983 79.2977L78.8382 72.5615L87.7512 71.9778C82.7348 73.5914 81.6373 75.2473 82.4983 79.2977Z" fill="#111111" stroke="#111111" stroke-width="1.5"/>
<path d="M73.2179 82.7555L72.1586 79.7445L75.6311 79.4497L76.8424 80.5391L75.2358 83.4051L78.0605 83.4599L79.1037 83.8545L82.8268 81.183L86.1331 83.7682L89.4491 83.0608L90.6264 80.197L98.793 77.9568L96.0295 76.0461L96.7481 74.9447L100.39 73.443L101.299 76.7074L98.9834 77.9046L98.8312 77.9832L99.633 81.151L96.6204 83.7235L93.2314 84.2098L90.2253 86.9047L87.1563 87.6399L84.4146 85.6791L79.9291 87.0823L76.9563 86.9332L75.2358 83.4051L73.2179 82.7555Z" fill="#F6B51E"/>
<path d="M75.2358 83.4051L76.8424 80.5391L75.6311 79.4497L72.1586 79.7445L73.2179 82.7555L75.2358 83.4051ZM75.2358 83.4051L78.0605 83.4599L79.1037 83.8545M75.2358 83.4051L76.9563 86.9332L79.9291 87.0823M79.1037 83.8545L79.9291 87.0823M79.1037 83.8545L82.8268 81.183L86.1331 83.7682L89.4491 83.0608L90.6264 80.1971L98.9983 77.9005M79.9291 87.0823L84.4146 85.6791L87.1563 87.6399L90.2253 86.9047L93.2314 84.2098L96.6204 83.7235L99.633 81.151L98.8312 77.9832M98.8312 77.9832L101.299 76.7074L100.39 73.4431L96.7481 74.9447L96.0295 76.0461L98.8312 77.9832Z" stroke="#111111" stroke-width="1.5"/>
<path d="M78.9586 83.5273L83.1474 80.7698L78.9932 78.3931L76.0193 75.136L71.3667 77.2433L71.9856 79.2757L77.5747 79.0204L75.8269 83.0798L78.9586 83.5273Z" fill="#01CBEA" stroke="#111111" stroke-width="1.5"/>
<path d="M99.8456 71.3585L96.0464 71.0487L95.8654 74.9638L100.282 73.0325L99.8456 71.3585Z" fill="#01CBEA"/>
<path d="M95.6403 75.7322L98.1524 77.9915L96.0111 80.027L91.8453 80.8588L89.6418 83.3091L86.1799 83.9629L83.7513 81.3516L91.8453 80.8588L95.6403 75.7322Z" fill="#01CBEA"/>
<path d="M91.8453 80.8588L96.0111 80.027L98.1524 77.9915L95.6403 75.7322L91.8453 80.8588ZM91.8453 80.8588L89.6418 83.3091L86.1799 83.9629L83.7513 81.3516L91.8453 80.8588ZM96.0464 71.0487L99.8456 71.3585L100.282 73.0325L95.8654 74.9638L96.0464 71.0487Z" stroke="#111111" stroke-width="1.5"/>
<path d="M76.5055 75.4602L73.609 72.5076L75.2729 70.6575L80.5017 71.7528L76.5055 75.4602Z" fill="#01CBEA" stroke="#111111" stroke-width="1.5"/>
<path d="M82.6988 66.8887L81.4166 70.4737L87.881 68.986L85.3129 66.4434L82.6988 66.8887Z" fill="#01CBEA"/>
<path d="M95.7276 67.3432L93.7419 66.5283L88.2759 69.1082L95.8625 73.7759L95.7276 67.3432Z" fill="#01CBEA"/>
<path d="M90.0121 68.3005L88.2759 69.1082M88.2759 69.1082L93.7419 66.5283L95.7276 67.3432L95.8625 73.7759L88.2759 69.1082ZM81.4166 70.4737L82.6988 66.8887L85.3129 66.4434L87.881 68.986L81.4166 70.4737Z" stroke="#111111" stroke-width="1.5"/>
<path d="M79.5657 83.7303L80.1549 86.7458L82.5821 85.8606L83.4675 85.083L86.5619 86.8765L86.5221 83.8115L84.7059 82.7218L82.8117 81.975L81.6409 82.7616L79.5657 83.7303Z" fill="#1FC16B" stroke="#111111" stroke-width="1.5"/>
<path d="M90.2254 86.0912L89.7136 83.3783L92.1352 81.1553L96.2203 80.3753L96.6829 83.3157L92.9183 83.6583L90.2254 86.0912Z" fill="#1FC16B" stroke="#111111" stroke-width="1.5"/>
<path fill-rule="evenodd" clip-rule="evenodd" d="M76.3026 76.8255C75.7987 73.3546 79.7859 69.9028 85.2078 69.1156C90.6295 68.3286 95.4327 70.5039 95.9368 73.9745C96.4408 77.4454 92.4543 80.8979 87.0323 81.6851C81.6103 82.4724 76.8066 80.2964 76.3026 76.8255ZM85.628 71.9679C82.654 72.3997 80.4666 74.2929 80.7426 76.1967C81.0191 78.1006 83.6541 79.2948 86.6283 78.8631C89.6025 78.4312 91.7892 76.5375 91.5129 74.6336C91.2365 72.7297 88.6021 71.5363 85.628 71.9679Z" fill="#01CBEA"/>
<path d="M76.3026 76.8255L75.5604 76.9333L75.5604 76.9333L76.3026 76.8255ZM85.2078 69.1156L85.1001 68.3733L85.1001 68.3733L85.2078 69.1156ZM95.9368 73.9745L96.679 73.8668L96.679 73.8667L95.9368 73.9745ZM87.0323 81.6851L87.1401 82.4273L87.1401 82.4273L87.0323 81.6851ZM85.628 71.9679L85.5203 71.2256L85.5203 71.2257L85.628 71.9679ZM80.7426 76.1967L80.0004 76.3043L80.0004 76.3045L80.7426 76.1967ZM86.6283 78.8631L86.736 79.6053L86.736 79.6053L86.6283 78.8631ZM91.5129 74.6336L92.2551 74.5259L92.2551 74.5258L91.5129 74.6336ZM76.3026 76.8255L77.0448 76.7177C76.8422 75.322 77.5286 73.8258 79.0239 72.5312C80.5117 71.2431 82.7248 70.2339 85.3156 69.8578L85.2078 69.1156L85.1001 68.3733C82.2689 68.7844 79.7774 69.8948 78.0421 71.3971C76.3143 72.893 75.2591 74.8581 75.5604 76.9333L76.3026 76.8255ZM85.2078 69.1156L85.3156 69.8578C87.9062 69.4817 90.3146 69.8199 92.107 70.6316C93.9084 71.4475 94.9919 72.6866 95.1946 74.0823L95.9368 73.9745L96.679 73.8667C96.3776 71.7918 94.8074 70.208 92.7258 69.2652C90.6351 68.3184 87.9311 67.9624 85.1001 68.3733L85.2078 69.1156ZM95.9368 73.9745L95.1946 74.0823C95.3973 75.4781 94.7109 76.9745 93.2158 78.2692C91.7282 79.5574 89.5153 80.5667 86.9245 80.9429L87.0323 81.6851L87.1401 82.4273C89.9713 82.0163 92.4626 80.9057 94.1978 79.4032C95.9254 77.9071 96.9803 75.9418 96.679 73.8668L95.9368 73.9745ZM87.0323 81.6851L86.9245 80.9429C84.3338 81.3191 81.9252 80.9808 80.1326 80.1689C78.3311 79.3529 77.2475 78.1136 77.0448 76.7177L76.3026 76.8255L75.5604 76.9333C75.8617 79.0084 77.432 80.5924 79.5138 81.5353C81.6046 82.4823 84.3089 82.8384 87.1401 82.4273L87.0323 81.6851ZM85.628 71.9679L85.5203 71.2257C83.9131 71.459 82.4836 72.0908 81.4757 72.9632C80.4754 73.8291 79.8131 75.0127 80.0004 76.3043L80.7426 76.1967L81.4849 76.0891C81.3961 75.4769 81.6895 74.762 82.4574 74.0974C83.2177 73.4392 84.3689 72.9085 85.7358 72.7101L85.628 71.9679ZM80.7426 76.1967L80.0004 76.3045C80.1879 77.596 81.1591 78.5429 82.3643 79.0889C83.5785 79.6391 85.1287 79.8386 86.736 79.6053L86.6283 78.8631L86.5205 78.1209C85.1537 78.3193 83.8993 78.1376 82.9833 77.7226C82.0583 77.3035 81.5738 76.7013 81.4848 76.089L80.7426 76.1967ZM86.6283 78.8631L86.736 79.6053C88.3433 79.3719 89.7728 78.7399 90.7805 77.8673C91.7807 77.0013 92.4426 75.8174 92.2551 74.5259L91.5129 74.6336L90.7707 74.7413C90.8596 75.3537 90.5663 76.0687 89.7986 76.7334C89.0384 77.3916 87.8874 77.9224 86.5205 78.1209L86.6283 78.8631ZM91.5129 74.6336L92.2551 74.5258C92.0676 73.2343 91.0966 72.2876 89.8915 71.7417C88.6775 71.1918 87.1275 70.9924 85.5203 71.2256L85.628 71.9679L85.7357 72.7101C87.1026 72.5117 88.3568 72.6933 89.2726 73.1081C90.1974 73.527 90.6818 74.129 90.7707 74.7413L91.5129 74.6336Z" fill="#111111"/>
<path d="M76.8283 78.9514L72.308 79.5183L73.6441 82.492L75.1581 83.2629L77.2237 79.3069L76.8283 78.9514Z" fill="#1FC16B"/>
<path d="M70.8554 73.1134L71.0445 73.2834M72.308 79.5183L76.8283 78.9514L77.2237 79.3069L75.1581 83.2629L73.6441 82.492L72.308 79.5183Z" stroke="#111111" stroke-width="1.5"/>
</svg>
