<svg fill="none" height="62" viewBox="0 0 53 62" width="53" xmlns="http://www.w3.org/2000/svg"><path clip-rule="evenodd" d="m36.5316 15.4912h-31.81166l-4.061065 43.318h39.933825z" fill="#01cbea" fill-rule="evenodd"/><path d="m36.5316 15.4912 4.0611 43.318 3.5304-5.3734z" fill="#1fc16b"/><path d="m36.5316 15.4912h-31.81166l-4.061065 43.318h39.933825m-4.0611-43.318 4.0611 43.318m-4.0611-43.318 7.5915 37.9446-3.5304 5.3734" stroke="#111" stroke-width="1.2"/><path d="m11.4885 24.8056s-.0004-9.4774 0-17.59797c.0005-8.120619 18.2748-9.47403 18.2748 0v17.59797" stroke="#111" stroke-width="1.2"/><path clip-rule="evenodd" d="m46.7055 35.2751h-18.5976l-2.3742 25.3245h23.346z" fill="#f6b51e" fill-rule="evenodd"/><path d="m46.7055 35.2751 2.3742 25.3245 3.1032-2.2383z" fill="#1fc16b"/><g stroke="#111" stroke-width="1.2"><path d="m46.7055 35.2751h-18.5976l-2.3742 25.3245h23.346m-2.3742-25.3245 2.3742 25.3245m-2.3742-25.3245 5.4774 23.0862-3.1032 2.2383"/><path d="m32.0648 40.7213s-.0002-5.5406 0-10.2881c.0003-4.7474 10.6838-5.5387 10.6838 0v10.2881"/></g></svg>