<svg width="92" height="92" viewBox="0 0 92 92" fill="none" xmlns="http://www.w3.org/2000/svg">
<path fill-rule="evenodd" clip-rule="evenodd" d="M55.8726 30.8916H24.061L19.9999 74.2096H59.9337L55.8726 30.8916Z" fill="#01CBEA"/>
<path d="M55.8726 30.8916L59.9337 74.2096L63.4642 68.8362L55.8726 30.8916Z" fill="#1FC16B"/>
<path d="M55.8726 30.8916H24.061L19.9999 74.2096H59.9337M55.8726 30.8916L59.9337 74.2096M55.8726 30.8916L63.4642 68.8362L59.9337 74.2096" stroke="#111111" stroke-width="1.2"/>
<path d="M30.8295 40.206C30.8295 40.206 30.8291 30.7286 30.8295 22.608C30.83 14.4874 49.1043 13.134 49.1043 22.608C49.1043 32.082 49.1043 40.206 49.1043 40.206" stroke="#111111" stroke-width="1.2"/>
<path fill-rule="evenodd" clip-rule="evenodd" d="M66.0466 50.6755H47.4489L45.0748 76H68.4207L66.0466 50.6755Z" fill="#F6B51E"/>
<path d="M66.0466 50.6755L68.4207 76L71.5239 73.7617L66.0466 50.6755Z" fill="#1FC16B"/>
<path d="M66.0466 50.6755H47.4489L45.0748 76H68.4207M66.0466 50.6755L68.4207 76M66.0466 50.6755L71.5239 73.7617L68.4207 76" stroke="#111111" stroke-width="1.2"/>
<path d="M51.4059 56.1217C51.4059 56.1217 51.4056 50.5811 51.4059 45.8336C51.4061 41.0862 62.0896 40.2949 62.0896 45.8336C62.0896 51.3723 62.0896 56.1217 62.0896 56.1217" stroke="#111111" stroke-width="1.2"/>
</svg>
