<svg width="124" height="124" viewBox="0 0 124 124" fill="none" xmlns="http://www.w3.org/2000/svg">
<path d="M87.4999 38.5007L108.308 43.774L41.2714 42.7863L87.4999 38.5007Z" fill="#1FC16B" stroke="#111111" stroke-width="1.5"/>
<path d="M36.1078 33.5806L15.0002 33.173V30.0476L38.282 30.5459L50.6929 84.1301L47.1599 84.7643L36.1078 33.5806Z" fill="#111111" stroke="#111111" stroke-width="1.5"/>
<path d="M39.1599 44.9834C38.9903 44.298 39.509 43.6353 40.2151 43.6353H98.2784C98.967 43.6353 99.4822 44.2674 99.3431 44.9419L92.5441 77.9168C92.44 78.4219 91.9952 78.7844 91.4795 78.7844H48.3739C47.8741 78.7844 47.4387 78.4436 47.3186 77.9584L39.1599 44.9834Z" fill="#111111"/>
<path d="M48.5824 44.9834C48.4128 44.298 48.9315 43.6353 49.6376 43.6353H107.701C108.39 43.6353 108.905 44.2674 108.766 44.9419L101.967 77.9168C101.862 78.4219 101.418 78.7844 100.902 78.7844H57.7964C57.2965 78.7844 56.8611 78.4436 56.7411 77.9584L48.5824 44.9834Z" fill="#01CBEA" stroke="#111111" stroke-width="1.5"/>
<ellipse cx="49.7866" cy="89.5257" rx="5.25425" ry="4.93718" fill="#111111" stroke="#111111" stroke-width="1.5"/>
<ellipse cx="50.8744" cy="89.5257" rx="5.25425" ry="4.93718" fill="#01CBEA" stroke="#111111" stroke-width="1.5"/>
<ellipse cx="49.7866" cy="89.5257" rx="5.25425" ry="4.93718" fill="#111111" stroke="#111111" stroke-width="1.5"/>
<ellipse cx="50.8744" cy="89.5257" rx="5.25425" ry="4.93718" fill="#01CBEA" stroke="#111111" stroke-width="1.5"/>
<ellipse cx="80.4087" cy="89.5257" rx="5.25425" ry="4.93718" fill="#111111" stroke="#111111" stroke-width="1.5"/>
<ellipse cx="81.4941" cy="89.5257" rx="5.25425" ry="4.93718" fill="#01CBEA" stroke="#111111" stroke-width="1.5"/>
<rect x="50.5126" y="87.845" width="44.9329" height="3.44244" rx="1.72122" fill="#1FC16B" stroke="#111111" stroke-width="1.5"/>
<path d="M46.7972 33.533L25.6896 33.1254V30L48.9713 30.4982L61.4728 86.1661H58.4833L46.7972 33.533Z" fill="#1FC16B" stroke="#111111" stroke-width="1.5"/>
<ellipse cx="61.3801" cy="89.5257" rx="5.25425" ry="4.93718" fill="#111111" stroke="#111111" stroke-width="1.5"/>
<ellipse cx="62.4677" cy="89.5257" rx="5.25425" ry="4.93718" fill="#F6B51E" stroke="#111111" stroke-width="1.5"/>
<ellipse cx="92.0021" cy="89.5257" rx="5.25425" ry="4.93718" fill="#111111" stroke="#111111" stroke-width="1.5"/>
<ellipse cx="93.0898" cy="89.5257" rx="5.25425" ry="4.93718" fill="#F6B51E" stroke="#111111" stroke-width="1.5"/>
</svg>
