<svg width="124" height="124" viewBox="0 0 124 124" fill="none" xmlns="http://www.w3.org/2000/svg">
<path d="M62.8502 16.0256C58.4301 15.8999 55.2077 16.0245 55.2077 20.5999L54.5327 62.4517L80.5046 78.2701C80.8771 78.4225 81.2064 78.6203 81.4784 78.8632C81.823 79.1708 82.0759 79.5508 82.2089 80.0025C83.357 83.9018 81.534 83.3875 82.2089 84.7277C82.8838 86.0679 87.3326 85.8053 88.2842 81.3525C88.2842 81.3525 88.6012 56.6622 88.6017 40.8409C88.6017 40.8409 88.6017 40.7502 88.6017 40.692C90.2274 34.4744 91.7851 33.6956 97.7346 36.1256C84.1114 28.2761 62.8502 16.0256 62.8502 16.0256Z" fill="#01CBEA"/>
<path d="M54.5327 62.4517C46.9592 61.1439 41.033 63.6859 37.657 67.1769C34.2809 70.6679 37.657 88.7779 37.657 88.7779L70.0584 107.679C70.0584 107.679 69.1398 91.9078 70.0584 84.7277C70.3689 82.3002 71.7271 80.5283 73.4334 79.3968C75.728 77.8753 78.6521 77.512 80.5046 78.2701L54.5327 62.4517Z" fill="#01CBEA"/>
<path d="M94.9886 44.5915C98.1484 41.2013 98.7448 36.7076 97.7346 36.1256C91.7851 33.6956 90.2274 34.4744 88.6017 40.692C88.9591 40.8409 94.9886 44.5915 94.9886 44.5915Z" fill="#111111"/>
<path d="M82.2089 84.7277C81.534 83.3875 83.357 83.9018 82.2089 80.0025C82.0759 79.5508 81.823 79.1708 81.4784 78.8632L80.5046 78.2701C78.6521 77.512 75.728 77.8753 73.4334 79.3968L82.2089 84.7277Z" fill="#111111"/>
<path d="M54.5327 62.4517L55.2077 20.5999C55.2077 16.0245 58.4301 15.8999 62.8502 16.0256C62.8502 16.0256 84.1114 28.2761 97.7346 36.1256M54.5327 62.4517C46.9592 61.1439 41.033 63.6859 37.657 67.1769C34.2809 70.6679 37.657 88.7779 37.657 88.7779L70.0584 107.679C70.0584 107.679 69.1398 91.9078 70.0584 84.7277C70.3689 82.3002 71.7271 80.5283 73.4334 79.3968M54.5327 62.4517L80.5046 78.2701M82.2089 84.7277C81.534 83.3875 83.357 83.9018 82.2089 80.0025C82.0759 79.5508 81.823 79.1708 81.4784 78.8632M82.2089 84.7277C82.8838 86.0679 87.3326 85.8053 88.2842 81.3525C88.2842 81.3525 88.6012 56.6622 88.6017 40.8409C88.6017 40.8409 88.6017 40.7502 88.6017 40.692M82.2089 84.7277L73.4334 79.3968M97.7346 36.1256C98.7448 36.7076 98.1484 41.2013 94.9886 44.5915C94.9886 44.5915 88.9591 40.8409 88.6017 40.692M97.7346 36.1256C91.7851 33.6956 90.2274 34.4744 88.6017 40.692M81.4784 78.8632C81.2064 78.6203 80.8771 78.4225 80.5046 78.2701M81.4784 78.8632L80.5046 78.2701M73.4334 79.3968C75.728 77.8753 78.6521 77.512 80.5046 78.2701M47.632 67.1671L67.2078 79.3968" stroke="#111111" stroke-width="1.5"/>
<path d="M47.2132 60.6209C47.2132 60.6209 49.7143 63.1888 50.3309 63.1151C50.9475 63.0413 49.708 59.066 49.708 59.066L47.2132 60.6209Z" fill="#111111"/>
<path d="M25.3548 33.4138C27.1399 37.4491 43.5806 57.7148 43.5806 57.7148C44.3011 56.616 44.899 55.779 45.591 55.21C46.4434 54.5092 47.4384 54.2151 48.9808 54.3397C48.9808 54.3397 32.4976 31.498 30.755 29.3636C29.7863 28.177 27.674 28.3143 26.2957 29.3636C25.1947 30.2017 24.5621 31.6218 25.3548 33.4138Z" fill="#1FC16B"/>
<path d="M48.9808 54.3397C47.4384 54.2151 46.4434 54.5092 45.591 55.21C44.899 55.779 44.3011 56.616 43.5806 57.7148L47.2132 60.6209L49.708 59.066L48.9808 54.3397Z" fill="#F6B51E"/>
<path d="M43.5806 57.7148C43.5806 57.7148 27.1399 37.4491 25.3548 33.4138C24.5621 31.6218 25.1947 30.2017 26.2957 29.3636M43.5806 57.7148L47.2132 60.6209M43.5806 57.7148C44.3011 56.616 44.899 55.779 45.591 55.21M48.9808 54.3397C48.9808 54.3397 32.4976 31.498 30.755 29.3636C29.7863 28.177 27.674 28.3143 26.2957 29.3636M48.9808 54.3397L49.708 59.066M48.9808 54.3397C47.4384 54.2151 46.4434 54.5092 45.591 55.21M47.2132 60.6209C47.2132 60.6209 49.7143 63.1888 50.3309 63.1151C50.9475 63.0413 49.708 59.066 49.708 59.066M47.2132 60.6209L49.708 59.066M26.2957 29.3636L45.591 55.21" stroke="#111111" stroke-width="1.5"/>
<path d="M52.1382 89.7313C52.1382 89.6136 52.1578 89.366 52.2409 89.3025C52.7459 88.9166 54.1135 88.7648 54.3288 88.7684C54.4263 88.7701 54.4986 88.7815 54.561 88.8068C54.6977 88.8624 54.7659 89.3374 54.8236 89.9957C54.8623 90.4375 54.5362 90.9419 54.4238 91.164C54.3917 91.2272 54.269 91.2758 54.139 91.3197C54.0047 91.365 53.8597 91.3787 53.7399 91.3722C53.5831 91.3637 53.4932 91.2748 53.4247 91.2097C53.3469 91.1355 53.3706 90.9753 53.3757 90.7945C53.3787 90.6898 53.6498 90.3551 54.0549 89.8833C54.2956 89.6029 54.8673 89.408 55.2631 89.2832C55.4327 89.2298 55.647 89.2197 55.8431 89.224C56.2556 89.233 56.5414 89.4336 56.7726 89.588C56.9458 89.7035 57.0956 90.0473 57.2887 90.7619C57.4123 91.2194 57.4259 91.8778 57.4478 92.2373C57.4723 92.6396 57.4024 92.7187 57.3062 92.7782C57.2612 92.8061 57.1933 92.8164 57.1187 92.8183C56.9562 92.8223 56.8279 92.7798 56.7549 92.7373C56.5923 92.6425 56.5867 92.2667 56.6036 91.9875C56.6149 91.8002 56.9696 91.6226 57.1516 91.5224C57.3298 91.4242 57.6201 91.3969 57.9069 91.3726C58.0719 91.3585 58.2565 91.3712 58.4456 91.3869C58.9988 91.4327 59.473 91.7703 59.8137 92.076C60.258 92.4747 60.4093 92.7866 60.5381 92.7977C61.057 92.8422 61.8853 92.2155 62.3312 91.9364C62.4246 91.8499 62.4993 91.7486 62.6058 91.3606C62.6835 91.0278 62.8091 90.419 62.9387 89.7918" stroke="#111111" stroke-width="1.5" stroke-linecap="round"/>
</svg>
