<svg width="124" height="124" viewBox="0 0 124 124" fill="none" xmlns="http://www.w3.org/2000/svg">
<path d="M49.4725 58.8795L80.3006 19L90.0713 19.8893L58.6504 67.6172L49.4725 58.8795Z" fill="#1FC16B" stroke="#111111" stroke-width="1.5" stroke-linejoin="bevel"/>
<path d="M34.4136 45.8867C34.4136 45.8867 41.6309 46.4184 45.1608 47.0158L32.7663 59.7773L20.9999 58.8812C25.3927 54.6244 34.4136 45.8867 34.4136 45.8867Z" fill="#F6B51E" stroke="#111111" stroke-width="1.5" stroke-linejoin="bevel"/>
<path d="M51.0872 88.3712L20.9999 58.7266L36.2786 59.1757L60.7246 88.1466L51.0872 88.3712Z" fill="#111111" stroke="#111111" stroke-width="1.5" stroke-linejoin="bevel"/>
<path d="M60.7401 88.077C51.6606 78.9114 33.3138 60.4462 32.5624 59.9097L45.0075 46.9438L58.6268 62.1452L89.7779 19.7461L103.711 30.8482L60.7401 88.077Z" fill="#01CBEA" stroke="#111111" stroke-width="1.5" stroke-linejoin="bevel"/>
<ellipse cx="58.206" cy="99.1921" rx="21.1964" ry="4.89136" fill="#111111"/>
</svg>
