<svg width="124" height="124" viewBox="0 0 124 124" fill="none" xmlns="http://www.w3.org/2000/svg">
<path d="M47.8447 23.1119L40.3745 102.567L96.0611 108L103.531 28.5448L98.7775 34.6567L50.5611 29.903L47.8447 23.1119Z" fill="#F6B51E"/>
<path d="M98.7775 34.6567L103.531 28.5448L47.8447 23.1119L50.5611 29.903L98.7775 34.6567Z" fill="#111111"/>
<path d="M103.531 28.5448L99.4566 21.7537L52.5984 17L47.8447 23.1119L103.531 28.5448Z" fill="#F6B51E"/>
<path d="M47.8447 23.1119L40.3745 102.567L96.0611 108L103.531 28.5448M47.8447 23.1119L52.5984 17L99.4566 21.7537L103.531 28.5448M47.8447 23.1119L50.5611 29.903L98.7775 34.6567L103.531 28.5448M47.8447 23.1119L103.531 28.5448" stroke="#111111" stroke-width="1.5"/>
<path d="M38.7024 33.9721L89.7457 33.4611L89.7834 36.0149L90.7299 100.176L90.6283 100.177L40.3646 100.725L38.7024 33.9721Z" fill="#1FC16B"/>
<path d="M89.7834 36.0149L90.7299 100.176L90.6283 100.177L92.1957 100.176L89.7834 36.0149Z" fill="#111111"/>
<path d="M89.7834 36.0149L89.7457 33.4611L38.7024 33.9721L40.3646 100.725L90.6283 100.177M89.7834 36.0149L90.7299 100.176L90.6283 100.177M89.7834 36.0149L92.1957 100.176L90.6283 100.177" stroke="#111111" stroke-width="1.5"/>
<path d="M20.0015 29.2239L70.9343 25.8284L75.688 92.3806L25.4343 95.7761L20.0015 29.2239Z" fill="#01CBEA" stroke="#111111" stroke-width="1.5"/>
<path d="M57.3523 82.8731L60.0687 85.5895L66.1807 78.7985L65.5015 78.1194L60.0687 84.2313L58.0314 82.194L57.3523 82.8731Z" fill="#111111" stroke="#111111" stroke-width="1.5"/>
<rect x="25.4819" y="35.5135" width="39.9991" height="1.06246" transform="rotate(-3.46509 25.4819 35.5135)" fill="#111111"/>
<rect x="25.7739" y="39.9967" width="40.2746" height="1.06246" transform="rotate(-3.46509 25.7739 39.9967)" fill="#111111"/>
<rect x="26.0205" y="44.0581" width="31.542" height="1.06246" transform="rotate(-3.46509 26.0205 44.0581)" fill="#111111"/>
<rect x="26.3679" y="48.1937" width="40.4391" height="1.06246" transform="rotate(-3.46509 26.3679 48.1937)" fill="#111111"/>
<rect x="28.1985" y="62.6777" width="39.9991" height="1.06246" transform="rotate(-3.46509 28.1985 62.6777)" fill="#111111"/>
<rect x="28.4902" y="67.1609" width="40.2746" height="1.06246" transform="rotate(-3.46509 28.4902 67.1609)" fill="#111111"/>
<rect x="28.7371" y="71.2223" width="31.542" height="1.06246" transform="rotate(-3.46509 28.7371 71.2223)" fill="#111111"/>
<rect x="29.0845" y="75.3579" width="40.4391" height="1.06246" transform="rotate(-3.46509 29.0845 75.3579)" fill="#111111"/>
</svg>
