<svg width="124" height="124" viewBox="0 0 124 124" fill="none" xmlns="http://www.w3.org/2000/svg">
<ellipse cx="62.0834" cy="109.025" rx="26.7478" ry="6.17261" fill="#111111" stroke="#111111" stroke-width="1.5"/>
<rect x="59.5996" y="19.9711" width="8.22838" height="9.91379" fill="#111111" stroke="#111111" stroke-width="1.5"/>
<rect x="58.2307" y="9.00189" width="10.9051" height="10.2112" rx="0.994129" fill="#F6B51E" stroke="#111111" stroke-width="1.5"/>
<rect width="9.78146" height="9.15902" rx="0.891695" transform="matrix(0.804788 -0.593562 0.593556 0.804792 28.7236 25.4512)" fill="#F6B51E" stroke="#111111" stroke-width="1.5"/>
<rect width="9.78146" height="9.15902" rx="0.891695" transform="matrix(0.804788 0.593562 -0.593556 0.804792 90.9834 21.4311)" fill="#F6B51E" stroke="#111111" stroke-width="1.5"/>
<rect width="8.22841" height="9.91377" transform="matrix(0.804742 -0.593625 0.593619 0.804746 35.0168 32.4937)" fill="#111111" stroke="#111111" stroke-width="1.5"/>
<rect width="8.22841" height="9.91377" transform="matrix(0.804788 0.593562 -0.593556 0.804792 85.9339 29.0977)" fill="#111111" stroke="#111111" stroke-width="1.5"/>
<ellipse cx="61.8291" cy="62.3062" rx="36.8295" ry="36.3836" fill="#1FC16B" stroke="#111111" stroke-width="1.5"/>
<ellipse cx="61.7833" cy="62.5011" rx="30.4358" ry="30.8319" fill="#01CBEA" stroke="#111111" stroke-width="1.5"/>
<ellipse cx="61.7804" cy="64.486" rx="3.4698" ry="3.46983" fill="#111111"/>
<path d="M72.5356 41.1159L64.111 63.0786L61.7068 61.9983L72.5356 41.1159Z" fill="#111111"/>
<rect x="61.8825" y="33.5536" width="1.88361" height="7.13793" fill="#111111"/>
<rect x="60.9919" y="83.9172" width="1.88361" height="7.13793" fill="#111111"/>
<rect x="32.339" y="62.8989" width="1.88362" height="7.13788" transform="rotate(-90 32.339 62.8989)" fill="#111111"/>
<rect x="84.1876" y="62.8989" width="1.88362" height="7.13788" transform="rotate(-90 84.1876 62.8989)" fill="#111111"/>
</svg>
