<svg width="124" height="124" viewBox="0 0 124 124" fill="none" xmlns="http://www.w3.org/2000/svg">
<ellipse cx="70.9376" cy="103.653" rx="23.4796" ry="2.23153" fill="#111111" stroke="#111111" stroke-width="1.5"/>
<path d="M35.7737 43.0848C32.96 36.0021 33.6781 31.7759 33.4936 24.0682H80.0162C80.4739 32.6793 80.9865 35.808 78.0273 43.0848C75.0681 50.3615 67.4867 53.1386 59.6899 58.56C58.6714 59.2682 59.097 63.1239 59.6899 65.7882C68.5372 71.437 75.3104 77.8191 78.0273 83.3009C80.7441 88.7827 80.2751 92.9111 80.0162 99.0671H33.4936C33.0342 92.9918 32.4559 89.1019 34.5609 83.3009C37.9387 73.9924 44.1357 71.8982 52.8983 65.7882C53.7309 62.9664 54.2083 60.0153 52.8983 58.56C45.637 53.6345 38.5874 50.1675 35.7737 43.0848Z" fill="#01CBEA" stroke="#111111" stroke-width="1.5"/>
<path d="M55.4248 76.0147C55.8783 75.5633 56.611 75.5625 57.0655 76.0127L74.8513 93.6311C75.5901 94.3629 75.0718 95.6225 74.0319 95.6225H38.5441C37.5055 95.6225 36.9866 94.3657 37.7228 93.633L55.4248 76.0147Z" fill="#111111"/>
<rect x="28.9996" y="97.9431" width="54.5925" height="7.2898" rx="3.6449" fill="#F6B51E" stroke="#111111" stroke-width="1.5"/>
<rect x="55.7318" y="55.1294" width="1.24551" height="24.988" fill="#111111"/>
<path d="M76.9597 35.0298C70.7243 34.4445 67.6345 32.3278 61.436 35.0298C57.0462 34.9651 54.1062 33.2999 49.4536 30.2757C43.9583 29.9185 40.9175 29.1311 35.6278 26.2007C36.213 32.2587 37.0299 39.5597 39.4602 44.9747C45.3561 51.099 49.034 53.6579 56.5848 55.8413C62.4347 53.3561 65.5341 51.6452 70.6047 47.7883C74.5347 42.9024 76.0608 40.1182 76.9597 35.0298Z" fill="#1A7544"/>
<rect x="28.9996" y="18" width="54.5925" height="6.88482" rx="3.44241" fill="#F6B51E" stroke="#111111" stroke-width="1.5"/>
</svg>
