<svg fill="none" height="56" viewBox="0 0 67 56" width="67" xmlns="http://www.w3.org/2000/svg"><path clip-rule="evenodd" d="m51.5602 3.62206c-19.6873-5.75691-27.1908-1.85257-36.6838 0-3.8428 5.78482-5.32536 10.71914-8.2539 18.80044h-4.12693c-2.4363916 5.9256-2.274708 9.2324-.9171 15.1321h62.82103c1.9437-5.567 1.9423-8.6747 0-15.1321h-4.5855c-2.9074-8.1652-4.2874-13.39405-8.2538-18.80044zm-29.3471 1.83419c-7.5627.97183-7.3486 8.59375-10.5466 16.50775h43.5621c-2.4498-8.6182-2.7942-15.43241-9.171-16.50775-9.5469-1.55349-14.7626-1.42192-23.8445 0z" fill="#01cbea" fill-rule="evenodd"/><path d="m64.3995 37.5546h-62.82103v2.2927h62.82103z" fill="#1fc16b"/><path d="m61.1897 45.3499s2.9828.1206 3.2098 0 0-5.5026 0-5.5026h-62.82103s-.21438 4.8281 0 5.0441c.21438.2159 4.12693 0 4.12693 0h6.8782c15.6842.595 24.6401.6438 40.8108.4585z" fill="#01cbea"/><path d="m61.6482 52.6867c.3388-2.8469.2672-4.4952-.4585-7.3368h-7.7953c-.3222 2.8549-.3126 4.4819 0 7.3368l1.3756 1.3756c2.0465.7575 3.139.6755 5.044 0z" fill="#111"/><path d="m13.5007 52.6867c.0322-3.2295-.1282-4.9382-.9171-7.7953h-6.8782c-.5931 2.1259-.75259 3.6705-.45855 7.7953l1.37565 1.3756c1.79074.4617 2.79473.396 4.5855 0z" fill="#111"/><path d="m11.6665 21.964c3.198-7.914 2.9839-15.53592 10.5466-16.50775 9.0819-1.42192 14.2976-1.55349 23.8445 0 6.3768 1.07534 6.7212 7.88955 9.171 16.50775z" fill="#f6b51e"/><path d="m64.3995 37.5546c1.9437-5.567 1.9423-8.6747 0-15.1321h-4.5855c-2.9074-8.1652-4.2874-13.39405-8.2538-18.80044-19.6873-5.75691-27.1908-1.85257-36.6838 0-3.8428 5.78482-5.32536 10.71914-8.25391 18.80044h-4.12692c-2.4363916 5.9256-2.274708 9.2324-.9171 15.1321m62.82103 0h-62.82103m62.82103 0v2.2927m-3.2098 5.5026s2.9828.1206 3.2098 0 0-5.5026 0-5.5026m-3.2098 5.5026c.7257 2.8416.7973 4.4899.4585 7.3368l-1.8342 1.3756c-1.905.6755-2.9975.7575-5.044 0l-1.3756-1.3756c-.3126-2.8549-.3222-4.4819 0-7.3368m7.7953 0h-7.7953m0 0c-16.1707.1853-25.1266.1365-40.8108-.4585m0 0c.7889 2.8571.9493 4.5658.9171 7.7953l-2.2927 1.3756c-1.79077.396-2.79476.4617-4.58551 0l-1.37564-1.3756c-.29404-4.1248-.13455-5.6694.45855-7.7953m6.8782 0h-6.8782m0 0s-3.91255.2159-4.12693 0c-.21438-.216 0-5.0441 0-5.0441m0-2.2927v2.2927m0 0h62.82103m-52.733-17.8833c3.198-7.914 2.9839-15.53592 10.5466-16.50775 9.0819-1.42192 14.2976-1.55349 23.8445 0 6.3768 1.07534 6.7212 7.88955 9.171 16.50775z" stroke="#111" stroke-width="1.2"/><ellipse cx="8.91486" cy="29.7556" fill="#111" rx="2.29274" ry="4.12693"/><ellipse cx="57.5209" cy="29.7556" fill="#111" rx="2.29274" ry="4.12693"/><path d="m51.5598 21.9601c.4586.9171-2.6689.4586-5.9611.4586-3.2923 0-5.9611 0-5.9611-.4586 0-3.0389 2.6688-5.9611 5.9611-5.9611 3.2922 0 5.9611 2.9222 5.9611 5.9611z" stroke="#111" stroke-width="1.2"/><path d="m19.0155 21.5588 8.2538-9.1709" stroke="#111" stroke-width="1.2"/><ellipse cx="31.3837" cy="52.6829" fill="#111" rx="18.3419" ry=".458548"/></svg>