<svg width="92" height="92" viewBox="0 0 92 92" fill="none" xmlns="http://www.w3.org/2000/svg">
<ellipse cx="36.9802" cy="75.7542" rx="21.9801" ry="0.785002" fill="#111111"/>
<path d="M55.8914 19.4977C56.3355 17.6735 54.9539 15.915 53.0763 15.915H33.777C32.4568 15.915 31.3036 16.8074 30.9723 18.0853L19.4195 62.6525C18.95 64.4637 20.2946 66.2383 22.1653 66.2763L42.0691 66.6803C43.427 66.7079 44.6217 65.7885 44.943 64.4689L55.8914 19.4977Z" fill="#01CBEA" stroke="#111111" stroke-width="1.2"/>
<path d="M54.3403 19.8869C54.7386 18.2158 53.4716 16.6113 51.7537 16.6113H33.544C32.3274 16.6113 31.266 17.437 30.9667 18.6163L20.0811 61.5085C19.6602 63.1671 20.8926 64.7856 22.6033 64.8211L41.3824 65.2105C42.6339 65.2365 43.7339 64.3861 44.0242 63.1685L54.3403 19.8869Z" fill="#01CBEA"/>
<path d="M52.4131 23.618C52.8035 22.081 51.642 20.5876 50.0563 20.5876H33.5431C32.4255 20.5876 31.4517 21.3495 31.1829 22.4343L22.2239 58.58C21.8514 60.0827 22.9594 61.5462 24.5068 61.5954L40.6669 62.1094C41.8076 62.1457 42.82 61.3838 43.101 60.2776L52.4131 23.618Z" fill="#1FC16B" stroke="#111111" stroke-width="1.2"/>
<rect width="4" height="1" rx="0.5" transform="matrix(-1 0 0 1 45.0001 18.0002)" fill="#111111" stroke="#111111" stroke-width="1.2"/>
<path d="M56.3166 18.1126C56.2131 17.4942 54.1033 15.6489 54.1033 15.6489L55.5082 18.5598L45.4343 62.5904L44.4363 65.1419L41.4661 67.1221C41.0887 67.8066 44.6007 67.5561 45.8367 65.8053C47.0726 64.0544 56.4201 18.7309 56.3166 18.1126Z" fill="#111111"/>
<path d="M27.0132 19.9788C25.9826 20.0589 25.5512 20.3668 25.1737 21.6299C25.1718 20.2906 24.7402 19.9534 23.5226 19.7905C24.9345 19.6125 25.2227 19.1744 25.362 18.1393C25.5392 19.42 25.9792 19.7203 27.0132 19.9788Z" fill="#F6B51E"/>
<path d="M67.0838 64.477C64.1682 69.002 55.4353 68.566 47.5784 63.5034C39.7215 58.4407 35.8475 52.7519 38.6315 46.1435C43.7807 33.921 53.4926 38.3494 61.3495 43.412C69.2064 48.4747 74.605 55.616 67.0838 64.477Z" fill="#1FC16B" stroke="#111111" stroke-width="1.2"/>
<ellipse cx="56.0311" cy="50.3708" rx="16.9242" ry="9.74671" transform="rotate(32.796 56.0311 50.3708)" fill="#01CBEA" stroke="#111111" stroke-width="1.2"/>
<ellipse cx="56.0311" cy="50.3708" rx="16.9242" ry="9.74671" transform="rotate(32.796 56.0311 50.3708)" fill="#F6B51E" stroke="#111111" stroke-width="1.2"/>
<ellipse cx="56.0841" cy="50.4074" rx="12.9299" ry="7.44637" transform="rotate(32.796 56.0841 50.4074)" fill="#01CBEA" stroke="#111111" stroke-width="1.2"/>
<path d="M37.9166 49.7615L41.7214 41.0565C39.7784 46.1891 40.2485 48.3862 44.8391 54.4402L41.3446 58.0819L37.9166 49.7615Z" fill="#111111" stroke="#111111" stroke-width="1.2"/>
<path d="M55.8363 53.8079L55.2611 53.4345L59.0696 47.5668L59.6449 47.9402L55.8363 53.8079ZM54.5937 53.0013L54.0185 52.6279L57.8271 46.7603L58.4023 47.1337L54.5937 53.0013ZM58.2921 54.7355L52.4014 50.912L53.0997 49.8362L58.4688 49.6828L58.4987 49.6368L54.7911 47.2303L55.5976 45.9877L61.4883 49.8113L60.7808 50.9014L55.4238 51.0423L55.3921 51.0912L59.0968 53.4958L58.2921 54.7355Z" fill="#111111"/>
<path d="M76.3329 62.4407C75.0942 62.6407 74.603 63.0563 74.2727 64.6222C74.1364 63.0021 73.5805 62.6373 72.0912 62.562C73.7815 62.2055 74.0863 61.6466 74.1514 60.3805C74.4937 61.9121 75.0562 62.2313 76.3329 62.4407Z" fill="#F6B51E"/>
<path d="M17.0939 21.3813C19.3841 20.7827 20.5606 20.2682 22.2908 18.7375C26.414 26.0303 29.9887 28.5257 37.8756 30.9098C35.8549 32.1205 34.8103 32.8485 33.2422 34.237C25.7181 31.3185 22.0957 28.6552 17.0939 21.3813Z" fill="#F6B51E" stroke="#111111" stroke-width="1.2"/>
<ellipse cx="26.2594" cy="27.5518" rx="2.4016" ry="1.14714" transform="rotate(42.0317 26.2594 27.5518)" fill="#111111"/>
</svg>
