<svg fill="none" height="62" viewBox="0 0 62 62" width="62" xmlns="http://www.w3.org/2000/svg"><ellipse cx="21.9801" cy="60.754" fill="#111" rx="21.9801" ry=".785002"/><path d="m40.8913 4.49747c.4441-1.82426-.9375-3.582675-2.8151-3.582675h-19.2993c-1.3202 0-2.4734.892395-2.8047 2.170305l-11.55285 44.5672c-.4695 1.8111.87519 3.5857 2.74583 3.6237l19.90382.4041c1.3579.0275 2.5526-.8918 2.8739-2.2114z" fill="#01cbea" stroke="#111" stroke-width="1.2"/><path d="m39.3402 4.88664c.3983-1.67104-.8687-3.27556-2.5866-3.27556h-18.2097c-1.2166 0-2.278.82571-2.5773 2.00495l-10.88562 42.89227c-.42091 1.6585.81149 3.2771 2.52222 3.3126l18.7791.3894c1.2515.0259 2.3515-.8244 2.6418-2.042z" fill="#01cbea"/><path d="m37.413 8.61771c.3904-1.53694-.7711-3.03031-2.3568-3.03031h-16.5132c-1.1176 0-2.0914.76184-2.3602 1.84665l-8.95901 36.14565c-.37246 1.5027.73554 2.9662 2.28292 3.0154l16.16009.514c1.1407.0363 2.1531-.7256 2.4341-1.8317z" fill="#1fc16b" stroke="#111" stroke-width="1.2"/><rect fill="#111" height="1" rx=".5" stroke="#111" stroke-width="1.2" transform="matrix(-1 0 0 1 30 3)" width="4"/><path d="m41.3165 3.11231c-.1035-.61838-2.2133-2.463628-2.2133-2.463628l1.4049 2.910918-10.0739 44.0306-.998 2.5515-2.9702 1.9802c-.3774.6845 3.1346.434 4.3706-1.3169 1.2359-1.7508 10.5834-47.07431 10.4799-47.69269z" fill="#111"/><path d="m12.0131 4.97852c-1.0306.08012-1.462.38801-1.8395 1.65114-.0019-1.3393-.43354-1.67648-1.6511-1.83944 1.41187-.17795 1.7001-.61607 1.8394-1.65115.1772 1.28069.6172 1.58095 1.6512 1.83945z" fill="#f6b51e"/><g stroke="#111" stroke-width="1.2"><path d="m52.0837 49.4768c-2.9156 4.5249-11.6485 4.089-19.5054-.9737-7.8569-5.0626-11.7309-10.7515-8.9469-17.3598 5.1492-12.2226 14.8611-7.7942 22.718-2.7315 7.8569 5.0626 13.2555 12.2039 5.7343 21.065z" fill="#1fc16b"/><ellipse cx="41.031" cy="35.3706" fill="#01cbea" rx="16.9242" ry="9.74671" transform="matrix(.84060442 .54164953 -.54164953 .84060442 25.698629 -16.586504)"/><ellipse cx="41.031" cy="35.3706" fill="#f6b51e" rx="16.9242" ry="9.74671" transform="matrix(.84060442 .54164953 -.54164953 .84060442 25.698629 -16.586504)"/><ellipse cx="41.084" cy="35.4072" fill="#01cbea" rx="12.9299" ry="7.44637" transform="matrix(.84060442 .54164953 -.54164953 .84060442 25.726901 -16.609378)"/><path d="m22.9165 34.7612 3.8048-8.705c-1.943 5.1327-1.4729 7.3298 3.1177 13.3837l-3.4945 3.6418z" fill="#111"/></g><path d="m40.8362 38.8076-.5752-.3734 3.8085-5.8676.5753.3733zm-1.2426-.8065-.5752-.3734 3.8086-5.8677.5752.3734zm3.6984 1.7342-5.8907-3.8236.6983-1.0757 5.3691-.1534.0299-.046-3.7076-2.4065.8065-1.2426 5.8907 3.8235-.7075 1.0901-5.357.1409-.0317.0489 3.7047 2.4047z" fill="#111"/><path d="m61.3328 47.4404c-1.2387.2-1.7299.6156-2.0602 2.1815-.1363-1.6201-.6922-1.9848-2.1815-2.0602 1.6903-.3565 1.9951-.9153 2.0602-2.1815.3423 1.5317.9048 1.8509 2.1815 2.0602z" fill="#f6b51e"/><path d="m2.09378 6.38104c2.29019-.59856 3.4667-1.11311 5.19694-2.64376 4.12318 7.29272 7.69788 9.78822 15.58478 12.17222-2.0207 1.2108-3.0653 1.9387-4.6334 3.3273-7.5241-2.9185-11.14652-5.5818-16.14832-12.85576z" fill="#f6b51e" stroke="#111" stroke-width="1.2"/><ellipse cx="11.2593" cy="12.5516" fill="#111" rx="2.4016" ry="1.14714" transform="matrix(.7427745 .66954166 -.66954166 .7427745 11.299998 -4.309979)"/></svg>