<svg width="92" height="92" viewBox="0 0 92 92" fill="none" xmlns="http://www.w3.org/2000/svg">
<path fill-rule="evenodd" clip-rule="evenodd" d="M63.9603 22.022C44.273 16.2651 36.7695 20.1694 27.2765 22.022C23.4337 27.8068 21.9512 32.7411 19.0226 40.8224H14.8957C12.4593 46.748 12.621 50.0548 13.9786 55.9545H76.7996C78.7433 50.3875 78.7419 47.2798 76.7996 40.8224H72.2142C69.3067 32.6572 67.9267 27.4284 63.9603 22.022ZM34.6132 23.8562C27.0505 24.828 27.2647 32.4499 24.0666 40.3639H67.6287C65.179 31.7457 64.8345 24.9315 58.4577 23.8562C48.9109 22.3027 43.6951 22.4342 34.6132 23.8562Z" fill="#01CBEA"/>
<path d="M76.7996 55.9545H13.9786V58.2472H76.7996V55.9545Z" fill="#1FC16B"/>
<path d="M73.5898 63.7498C73.5898 63.7498 76.5727 63.8704 76.7996 63.7498C77.0266 63.6292 76.7996 58.2472 76.7996 58.2472H13.9786C13.9786 58.2472 13.7642 63.0753 13.9786 63.2913C14.193 63.5072 18.1055 63.2913 18.1055 63.2913H24.9837C40.6679 63.8863 49.6238 63.9351 65.7945 63.7498H73.5898Z" fill="#01CBEA"/>
<path d="M74.0483 71.0866C74.3872 68.2397 74.3155 66.5914 73.5898 63.7498H65.7945C65.4723 66.6047 65.4819 68.2317 65.7945 71.0866L67.1701 72.4622C69.2166 73.2197 70.3091 73.1377 72.2142 72.4622L74.0483 71.0866Z" fill="#111111"/>
<path d="M25.9008 71.0866C25.933 67.8571 25.7726 66.1484 24.9837 63.2913H18.1055C17.5124 65.4172 17.3529 66.9618 17.647 71.0866L19.0226 72.4622C20.8134 72.9239 21.8173 72.8582 23.6081 72.4622L25.9008 71.0866Z" fill="#111111"/>
<path d="M24.0666 40.3639C27.2647 32.4499 27.0505 24.828 34.6132 23.8562C43.6951 22.4342 48.9109 22.3027 58.4577 23.8562C64.8345 24.9315 65.179 31.7457 67.6287 40.3639H24.0666Z" fill="#F6B51E"/>
<path d="M76.7996 55.9545C78.7433 50.3875 78.7419 47.2798 76.7996 40.8224H72.2142C69.3067 32.6572 67.9267 27.4284 63.9603 22.022C44.273 16.2651 36.7695 20.1694 27.2765 22.022C23.4337 27.8068 21.9512 32.7411 19.0226 40.8224H14.8957C12.4593 46.748 12.621 50.0548 13.9786 55.9545M76.7996 55.9545H13.9786M76.7996 55.9545V58.2472M73.5898 63.7498C73.5898 63.7498 76.5727 63.8704 76.7996 63.7498C77.0266 63.6292 76.7996 58.2472 76.7996 58.2472M73.5898 63.7498C74.3155 66.5914 74.3872 68.2397 74.0483 71.0866L72.2142 72.4622C70.3091 73.1377 69.2166 73.2197 67.1701 72.4622L65.7945 71.0866C65.4819 68.2317 65.4723 66.6047 65.7945 63.7498M73.5898 63.7498H65.7945M65.7945 63.7498C49.6238 63.9351 40.6679 63.8863 24.9837 63.2913M24.9837 63.2913C25.7726 66.1484 25.933 67.8571 25.9008 71.0866L23.6081 72.4622C21.8173 72.8582 20.8134 72.9239 19.0226 72.4622L17.647 71.0866C17.3529 66.9618 17.5124 65.4172 18.1055 63.2913M24.9837 63.2913H18.1055M18.1055 63.2913C18.1055 63.2913 14.193 63.5072 13.9786 63.2913C13.7642 63.0753 13.9786 58.2472 13.9786 58.2472M13.9786 55.9545V58.2472M13.9786 58.2472H76.7996M24.0666 40.3639C27.2647 32.4499 27.0505 24.828 34.6132 23.8562C43.6951 22.4342 48.9109 22.3027 58.4577 23.8562C64.8345 24.9315 65.179 31.7457 67.6287 40.3639H24.0666Z" stroke="#111111" stroke-width="1.2"/>
<ellipse cx="21.315" cy="48.1555" rx="2.29274" ry="4.12693" fill="#111111"/>
<ellipse cx="69.921" cy="48.1555" rx="2.29274" ry="4.12693" fill="#111111"/>
<path d="M63.9599 40.36C64.4185 41.2771 61.291 40.8186 57.9988 40.8186C54.7066 40.8186 52.0377 40.8186 52.0377 40.36C52.0377 37.3211 54.7066 34.3989 57.9988 34.3989C61.291 34.3989 63.9599 37.3211 63.9599 40.36Z" stroke="#111111" stroke-width="1.2"/>
<line x1="31.4156" y1="39.9587" x2="39.6695" y2="30.7878" stroke="#111111" stroke-width="1.2"/>
<ellipse cx="43.7838" cy="71.0828" rx="18.3419" ry="0.458548" fill="#111111"/>
</svg>
