<svg width="124" height="124" viewBox="0 0 124 124" fill="none" xmlns="http://www.w3.org/2000/svg">
<rect x="28.8584" y="12" width="51.8649" height="101" rx="8.18919" fill="#01CBEA" stroke="#111111" stroke-width="1.5" stroke-linejoin="bevel"/>
<rect x="45.2358" y="12" width="19.1081" height="4.09459" rx="1.36486" fill="#111111"/>
<path d="M27 39.3264C27 38.717 27.4941 38.2229 28.1035 38.2229V43.7404C27.4941 43.7404 27 43.2464 27 42.6369V39.3264Z" fill="#111111"/>
<path d="M82.9314 50.6234C82.9314 49.8696 82.3203 49.2585 81.5665 49.2585H80.7244V58.0866H81.5665C82.3203 58.0866 82.9314 57.4755 82.9314 56.7217V50.6234Z" fill="#111111"/>
<path d="M27 48.1562C27 47.5468 27.4941 47.0527 28.1035 47.0527V52.5703C27.4941 52.5703 27 52.0762 27 51.4668V48.1562Z" fill="#111111"/>
<path d="M59.9091 58.9517L52.7712 65.1379L67.047 81.793L52.5198 98.5387L60.385 104.634L71.6759 91.7861L74.185 88.931L89.4125 104.634L96.0746 97.4965L81.3229 81.793L96.0746 64.6621L88.4608 58L74.185 74.1793L59.9091 58.9517Z" fill="#F6B51E"/>
<path d="M89.4125 104.634L74.185 88.931L71.6759 91.7861L86.0815 106.538L89.4125 104.634Z" fill="#1FC16B"/>
<path d="M60.385 104.634L52.5198 98.5387L67.047 81.793L52.7712 65.1379L50.8678 68.4689L63.2402 82.7448L49.0002 99.4186L58.0057 107.014L60.385 104.634Z" fill="#111111"/>
<path d="M52.7712 65.1379L59.9091 58.9517L74.185 74.1793L88.4608 58L96.0746 64.6621L81.3229 81.793L96.0746 97.4965L89.4125 104.634M52.7712 65.1379L67.047 81.793L52.5198 98.5387L60.385 104.634M52.7712 65.1379L50.8678 68.4689L63.2402 82.7448L49.0002 99.4186L58.0057 107.014L60.385 104.634M89.4125 104.634L74.185 88.931L71.6759 91.7861M89.4125 104.634L86.0815 106.538L71.6759 91.7861M60.385 104.634L71.6759 91.7861" stroke="black" stroke-width="1.5" stroke-linejoin="round"/>
</svg>
