<svg width="124" height="124" viewBox="0 0 124 124" fill="none" xmlns="http://www.w3.org/2000/svg">
<path fill-rule="evenodd" clip-rule="evenodd" d="M20 22H104.034V96.6218H98.6555H93.2773H35.4622H28.7395H20V22ZM28.7395 30.0672L52.9412 24.0168L60.3361 26.7059L60.3081 29.395H87.8992H97.3109V89.2269H82.521H59.6849L59.6639 91.2437L52.9412 94.605L28.7395 87.8823V30.0672Z" fill="#01CBEA"/>
<path d="M97.3109 89.2269V29.395H87.8992V73.7647L97.3109 89.2269Z" fill="#1FC16B"/>
<path d="M60.3081 29.395L59.8459 73.7647H87.8992V29.395H60.3081Z" fill="#1A7544"/>
<path d="M52.9412 24.0168L28.7395 30.0672V87.8823L52.9412 94.605V24.0168Z" fill="#F6B51E"/>
<path d="M52.9412 24.0168V94.605L59.6639 91.2437L59.6849 89.2269L59.7654 81.4958L59.8459 73.7647L60.3081 29.395L60.3361 26.7059L52.9412 24.0168Z" fill="#111111"/>
<path d="M98.6555 102V96.6218H93.2773V99.3109V102H98.6555Z" fill="#01CBEA"/>
<path d="M28.7395 96.6218V102H35.4622V96.6218H28.7395Z" fill="#01CBEA"/>
<path fill-rule="evenodd" clip-rule="evenodd" d="M97.3109 89.2269H82.521L59.7654 81.4958L59.8459 73.7647H87.8992L97.3109 89.2269Z" fill="#01CBEA"/>
<path d="M59.7654 81.4958L59.6849 89.2269H82.521L59.7654 81.4958Z" fill="#111111"/>
<path d="M93.2773 102V99.3109L35.4622 102H93.2773Z" fill="#111111"/>
<path d="M52.9412 24.0168L28.7395 30.0672V87.8824L52.9412 94.605M52.9412 24.0168V94.605M52.9412 24.0168L60.3361 26.7059M52.9412 94.605L59.6639 91.2437L59.6849 89.2269M60.3361 26.7059L59.8459 73.7647M60.3361 26.7059L60.3081 29.395M60.3081 29.395H87.8992M60.3081 29.395L59.8459 73.7647M97.3109 89.2269V29.395H87.8992M97.3109 89.2269L87.8992 73.7647M97.3109 89.2269H82.521M59.6849 89.2269L59.7654 81.4958M59.6849 89.2269H82.521M87.8992 73.7647H59.8459M87.8992 73.7647V29.395M59.8459 73.7647L59.7654 81.4958M28.7395 96.6218H20V22H104.034V96.6218H98.6555M28.7395 96.6218V102H35.4622M28.7395 96.6218H35.4622M35.4622 102V96.6218M35.4622 102L93.2773 99.3109M35.4622 102H93.2773M35.4622 96.6218H93.2773M98.6555 96.6218V102H93.2773M98.6555 96.6218H93.2773M93.2773 102V99.3109M93.2773 96.6218V99.3109M59.7654 81.4958L82.521 89.2269M26.0504 40.1513V44.1849H27.395V40.1513H26.0504ZM26.0504 79.1429H27.395V83.1765H26.0504V79.1429Z" stroke="#111111" stroke-width="1.5"/>
<ellipse cx="42.4682" cy="60.9938" rx="4.32173" ry="6.05042" fill="#111111" stroke="#111111" stroke-width="1.5"/>
<ellipse cx="40.168" cy="60.993" rx="3.36134" ry="4.70588" fill="#01CBEA" stroke="#111111" stroke-width="1.5"/>
</svg>
