<svg width="124" height="124" viewBox="0 0 124 124" fill="none" xmlns="http://www.w3.org/2000/svg">
<path d="M24.8194 84.4407C17.4536 76.7322 34.3273 72.0297 42.4283 71.6016L63.9703 91.8387C66.0906 93.8306 64.4413 97.2699 61.5758 96.7675C49.1307 94.5855 30.4542 90.3377 24.8194 84.4407Z" fill="#111111"/>
<path d="M68.3516 39.5878C75.4818 32.4578 87.042 32.4577 94.1721 39.5878C101.302 46.7179 101.302 58.2781 94.1721 65.4083L88.1487 71.4308C88.1485 71.4311 88.1485 71.4314 88.1487 71.4317C88.1489 71.4319 88.1494 71.4319 88.1491 71.4321C88.1402 71.4409 74.1294 85.0637 64.0637 95.0768C62.8891 96.2454 60.9942 96.2467 59.8242 95.0736C47.4617 82.6787 30.4843 65.4083 30.4843 65.4083C23.3543 58.2781 23.3541 46.7179 30.4843 39.5878C37.6144 32.4577 49.1746 32.4578 56.3048 39.5878L61.6207 44.9037C62.0112 45.2942 62.6443 45.2942 63.0349 44.9037L68.3516 39.5878Z" fill="#01CBEA" stroke="#111111" stroke-width="1.5"/>
<circle cx="89.763" cy="38.5657" r="12.6868" fill="#F6B51E" stroke="#111111" stroke-width="1.5"/>
<path d="M84.0391 39.566L87.8627 43.1063C88.1309 43.3547 88.5527 43.327 88.7861 43.0457L96.1017 34.2305" stroke="#111111" stroke-width="1.5"/>
</svg>
