<svg width="124" height="124" viewBox="0 0 124 124" fill="none" xmlns="http://www.w3.org/2000/svg">
<path d="M34.8682 65.6949C37.206 44.7736 41.9489 33.4259 58.1312 13.9993L82.8453 19.8037C65.172 36.5261 60.07 47.4802 60.1718 68.9145L34.8682 65.6949Z" fill="#1FC16B" stroke="#111111" stroke-width="1.5"/>
<path d="M41.6705 65.9395C51.7868 47.4781 60.4878 38.7858 82.8408 26.9702L103.492 41.7349C80.7884 50.4823 71.9048 58.6742 63.8499 78.5376L41.6705 65.9395Z" fill="#1FC16B" stroke="#111111" stroke-width="1.5"/>
<ellipse cx="72.9667" cy="47.5589" rx="9.07039" ry="4.33253" transform="rotate(-39.5625 72.9667 47.5589)" fill="#111111"/>
<path d="M33.6501 51.1698C33.8402 50.1371 34.7405 49.3873 35.7906 49.3873L86.5332 49.3831C87.8644 49.383 88.8839 50.5672 88.6859 51.8836L81.5864 99.0812C81.4262 100.146 80.511 100.934 79.4339 100.934L27.1019 100.934C25.7419 100.934 24.7149 99.7008 24.9612 98.3633L33.6501 51.1698Z" fill="#01CBEA" stroke="#111111" stroke-width="1.5"/>
<path d="M27.1623 48.1219C27.3525 47.0892 28.2528 46.3395 29.3028 46.3394L80.0455 46.3353C81.3767 46.3352 82.3961 47.5193 82.1981 48.8357L75.0987 96.0333C74.9384 97.0984 74.0233 97.8862 72.9462 97.8862L20.6141 97.8863C19.2541 97.8863 18.2272 96.653 18.4735 95.3155L27.1623 48.1219Z" fill="#01CBEA" stroke="#111111" stroke-width="1.5"/>
<path d="M75.5443 97.438L82.2103 49.9597H86.4729L75.5443 97.438Z" fill="#111111"/>
<path d="M75.1416 96.8901L21.4507 97.5703L73.7812 98.1145L75.1416 96.8901Z" fill="#111111"/>
<path d="M79.3727 67.7501L67.4888 67.1142C66.7461 67.0745 66.0225 67.4111 65.6285 68.0419C64.3867 70.0299 64.2912 71.2796 64.8824 73.2079C65.1328 74.0246 65.8916 74.5681 66.7441 74.6231L78.2927 75.3695C78.5464 75.3859 78.7952 75.4466 79.0279 75.5488L82.1187 76.9069C83.4123 77.4753 84.8962 76.6797 85.1387 75.2877L85.616 72.5475C85.7773 71.6214 85.3259 70.6964 84.4967 70.2538L80.2814 68.0035C80.0007 67.8536 79.6905 67.7672 79.3727 67.7501Z" fill="#F6B51E" stroke="#111111" stroke-width="1.5"/>
<circle cx="69.0169" cy="71.0921" r="2.17666" fill="#111111"/>
<ellipse cx="55.0802" cy="36.6283" rx="9.07039" ry="4.33253" transform="rotate(-54.1113 55.0802 36.6283)" fill="#111111"/>
<path d="M46.7175 13.9993C46.7786 15.5093 47.2049 16.1563 49.0299 16.7764C47.073 16.7065 46.557 17.3188 46.2527 19.0888C46.0695 17.0163 45.445 16.5715 43.9404 16.3116C45.8211 16.1225 46.2837 15.4958 46.7175 13.9993Z" fill="#F6B51E"/>
</svg>
