<svg width="92" height="92" viewBox="0 0 92 92" fill="none" xmlns="http://www.w3.org/2000/svg">
<path d="M25.8699 48.7413C27.6045 33.219 31.1234 24.7998 43.1296 10.3865L61.4659 14.693C48.3534 27.0999 44.568 35.2272 44.6436 51.13L25.8699 48.7413Z" fill="#1FC16B" stroke="#111111" stroke-width="1.2"/>
<path d="M30.9168 48.9227C38.4225 35.2255 44.878 28.7763 61.4625 20.01L76.7846 30.9644C59.9398 37.4544 53.3487 43.5322 47.3725 58.2696L30.9168 48.9227Z" fill="#1FC16B" stroke="#111111" stroke-width="1.2"/>
<ellipse cx="54.1366" cy="35.2856" rx="6.72965" ry="3.21445" transform="rotate(-39.5625 54.1366 35.2856)" fill="#111111"/>
<path d="M24.9662 37.9645C25.1073 37.1983 25.7752 36.6421 26.5543 36.642L64.2021 36.6389C65.1897 36.6388 65.9461 37.5174 65.7992 38.4941L60.5318 73.5117C60.413 74.3019 59.734 74.8864 58.9349 74.8864L20.1078 74.8864C19.0988 74.8864 18.3369 73.9714 18.5196 72.9791L24.9662 37.9645Z" fill="#01CBEA" stroke="#111111" stroke-width="1.2"/>
<path d="M20.1527 35.7033C20.2937 34.9371 20.9617 34.3808 21.7408 34.3808L59.3886 34.3777C60.3762 34.3776 61.1326 35.2562 60.9857 36.2329L55.7183 71.2504C55.5995 72.0407 54.9205 72.6252 54.1214 72.6252L15.2943 72.6252C14.2853 72.6252 13.5234 71.7102 13.7061 70.7178L20.1527 35.7033Z" fill="#01CBEA" stroke="#111111" stroke-width="1.2"/>
<path d="M56.049 72.2927L60.9947 37.0669H64.1573L56.049 72.2927Z" fill="#111111"/>
<path d="M55.7502 71.8862L15.915 72.3909L54.7409 72.7946L55.7502 71.8862Z" fill="#111111"/>
<path d="M58.8894 50.2662L50.0723 49.7944C49.5213 49.7649 48.9845 50.0147 48.6921 50.4827C47.7708 51.9577 47.6999 52.8848 48.1386 54.3155C48.3243 54.9215 48.8874 55.3247 49.5198 55.3656L58.0881 55.9193C58.2763 55.9314 58.461 55.9765 58.6336 56.0524L60.9268 57.0599C61.8866 57.4817 62.9875 56.8914 63.1674 55.8586L63.5215 53.8255C63.6412 53.1385 63.3063 52.4522 62.6911 52.1238L59.5636 50.4542C59.3553 50.343 59.1252 50.2788 58.8894 50.2662Z" fill="#F6B51E" stroke="#111111" stroke-width="1.2"/>
<circle cx="51.2061" cy="52.7456" r="1.61494" fill="#111111"/>
<ellipse cx="40.8659" cy="27.1757" rx="6.72965" ry="3.21445" transform="rotate(-54.1113 40.8659 27.1757)" fill="#111111"/>
<path d="M34.6614 10.3865C34.7067 11.5068 35.023 11.9869 36.377 12.4469C34.9251 12.395 34.5423 12.8493 34.3165 14.1625C34.1805 12.625 33.7173 12.2949 32.6009 12.1021C33.9963 11.9617 34.3395 11.4968 34.6614 10.3865Z" fill="#F6B51E"/>
</svg>
