<svg fill="none" height="72" viewBox="0 0 66 72" width="66" xmlns="http://www.w3.org/2000/svg"><path d="m12.7912 39.0238c1.7345-15.5223 5.2534-23.9415 17.2597-38.354855l18.3362 4.306505c-13.1124 12.40695-16.8978 20.53425-16.8222 36.43705z" fill="#1fc16b" stroke="#111" stroke-width="1.2"/><path d="m17.8381 39.2051c7.5056-13.6972 13.9612-20.1463 30.5457-28.9127l15.3221 10.9544c-16.8448 6.4901-23.4359 12.5679-29.4121 27.3053z" fill="#1fc16b" stroke="#111" stroke-width="1.2"/><ellipse cx="41.0578" cy="25.5681" fill="#111" rx="6.72965" ry="3.21445" transform="matrix(.77093027 -.63691955 .63691955 .77093027 -6.879724 32.007393)"/><path d="m11.8875 28.247c.141-.7662.809-1.3225 1.5881-1.3225l37.6478-.0031c.9876-.0001 1.744.8785 1.5971 1.8552l-5.2674 35.0175c-.1189.7903-.7978 1.3748-1.597 1.3748h-38.82699c-1.00902 0-1.77095-.915-1.58825-1.9074z" fill="#01cbea" stroke="#111" stroke-width="1.2"/><path d="m7.07394 25.9858c.14107-.7662.80904-1.3225 1.58812-1.3226l37.64774-.003c.9877-.0001 1.7441.8785 1.5971 1.8551l-5.2673 35.0176c-.1189.7903-.7978 1.3747-1.597 1.3747l-38.827.0001c-1.00903 0-1.770955-.915-1.588253-1.9074z" fill="#01cbea" stroke="#111" stroke-width="1.2"/><path d="m42.9703 62.5752 4.9457-35.2258h3.1626z" fill="#111"/><path d="m42.6715 62.1687-39.83518.5047 38.82578.4037z" fill="#111"/><path d="m45.8107 40.5487-8.8171-.4718c-.5511-.0295-1.0878.2202-1.3802.6883-.9213 1.4749-.9922 2.4021-.5536 3.8328.1858.6059.7488 1.0091 1.3813 1.05l8.5683.5538c.1882.0121.3728.0572.5455.133l2.2931 1.0076c.9598.4217 2.0608-.1686 2.2407-1.2014l.3541-2.033c.1197-.6871-.2152-1.3733-.8304-1.7018l-3.1275-1.6695c-.2083-.1112-.4384-.1754-.6742-.188z" fill="#f6b51e" stroke="#111" stroke-width="1.2"/><circle cx="38.1274" cy="43.028" fill="#111" r="1.61494"/><ellipse cx="27.7872" cy="17.4582" fill="#111" rx="6.72965" ry="3.21445" transform="matrix(.58621259 -.81015727 .81015727 .58621259 -2.645894 29.735986)"/><path d="m21.5826.668945c.0453 1.120315.3617 1.600395 1.7156 2.060465-1.4518-.0519-1.8347.40239-2.0604 1.71561-.136-1.5376-.5993-1.86765-1.7156-2.06046 1.3953-.14035 1.7385-.60526 2.0604-1.715615z" fill="#f6b51e"/></svg>