<svg fill="none" height="32" viewBox="0 0 32 32" width="32" xmlns="http://www.w3.org/2000/svg"><path d="m29.0294 24.7683-10.7917-19.93497c-.2185-.4024-.5415-.73837-.935-.97248-.3935-.2341-.8429-.35768-1.3008-.35768s-.9073.12358-1.3008.35768c-.3935.23411-.7165.57008-.935.97248l-10.7917 19.93497c-.21026.3839-.31607.8162-.30685 1.2537.00921.4376.13312.865.35935 1.2397.22398.3792.54343.693.92651.9103s.81642.3304 1.25682.328h21.58337c.4385.0011.8699-.1117 1.2517-.3274.3819-.2157.7012-.5269.9266-.9031s.3492-.8045.3593-1.243c.0101-.4384-.0939-.872-.3018-1.2582z" fill="#ffd9c0"/><g fill="#fa7319"><path d="m17.3684 17.8254 1.1275-7.1228h-4.7683l.9072 7.1228z"/><path d="m18.9987 22.1384c0 1.5934-1.2917 2.8851-2.8851 2.8851s-2.8851-1.2917-2.8851-2.8851 1.2917-2.8851 2.8851-2.8851 2.8851 1.2917 2.8851 2.8851z"/></g></svg>