<svg fill="none" height="14" viewBox="0 0 14 14" width="14" xmlns="http://www.w3.org/2000/svg" xmlns:xlink="http://www.w3.org/1999/xlink"><clipPath id="a"><path d="m0 0h14v14h-14z"/></clipPath><g clip-path="url(#a)"><path d="m7.00002.777832c-3.43077 0-6.222218 2.791448-6.222218 6.222218 0 3.43075 2.791448 6.22225 6.222218 6.22225 3.43078 0 6.22218-2.7915 6.22218-6.22225 0-3.43077-2.7914-6.222218-6.22218-6.222218zm3.00768 8.304338c-.11357.16333-.29479.25122-.4799.25122-.11433 0-.23022-.03345-.33133-.10345l-2.52778-1.75c-.15789-.10889-.25122-.28855-.25122-.47989v-3.30555c0-.322.26133-.58333.58333-.58333s.58334.26133.58334.58333v2.99989l2.27655 1.57578c.26521.18355.33131.54677.14781.81122z" fill="#351a75"/></g></svg>