<svg fill="none" height="16" viewBox="0 0 16 16" width="16" xmlns="http://www.w3.org/2000/svg"><g stroke="#111" stroke-width=".460126"><path d="m12.6642 3.75095c1.5609 1.29366 1.0052 4.53944-1.241 7.24965-2.24627 2.7102-4.54759 3.903-6.89341 2.5649-4.338726-2.4749-2.24623-5.90723.00003-8.61745 2.24625-2.71021 5.15924-4.407793 8.13438-1.1971z" fill="#f6b51e"/><ellipse cx="6.8935" cy="7.24968" fill="#f6b51e" rx="6.37382" ry="3.67072" transform="matrix(.63812705 -.76993108 .76993108 .63812705 -3.087183 7.930983)"/><ellipse cx="6.8935" cy="7.24968" fill="#f6b51e" rx="6.37382" ry="3.67072" transform="matrix(.63812705 -.76993108 .76993108 .63812705 -3.087183 7.930983)"/><ellipse cx="6.90911" cy="7.23152" fill="#f6b51e" rx="4.86952" ry="2.80438" transform="matrix(.63812705 -.76993108 .76993108 .63812705 -3.067552 7.93643)"/><path d="m5.85104 13.9955-3.08389-1.814c1.83182.9573 2.67449.8802 5.14457-.5641l1.20461 1.4704z" fill="#111"/></g><path d="m8.16973 7.47671-.16548.19832-2.02279-1.68791.16548-.19831zm-.35743.42836-.16548.19831-2.0228-1.6879.16548-.19831zm.81471-1.30492-1.69452 2.03073-.37085-.30945.18403-2.01451-.01587-.01324-1.06652 1.27813-.42835-.35744 1.69452-2.03073.3758.31359-.18816 2.00938.01686.01407 1.06569-1.27714z" fill="#111"/></svg>