<svg fill="none" height="35" viewBox="0 0 112 35" width="112" xmlns="http://www.w3.org/2000/svg"><path d="m18.1605 19.3647c0-2.7028-1.7939-4.6124-5.4662-5.3762-3.75679-.7932-4.69877-1.5278-4.69877-2.7323 0-1.55705 1.14761-2.58713 4.25987-2.58713 2.2034 0 3.9955.64821 5.2294 1.96843h.1175v-1.84907c0-1.67642-1.3515-3.67411-6.052-3.67411-4.72996 0-7.5503 3.17651-7.5503 6.52378 0 2.7323 1.939 4.4363 5.34508 5.1707 4.26352.9108 4.79052 1.5277 4.79052 2.9085 0 1.6158-.9694 2.6441-3.9936 2.6441-2.44025 0-4.25989-.9696-5.61314-2.1741h-.08809v1.7903c0 2.3815 2.08587 3.9679 6.14013 3.9679 4.8768 0 7.5796-2.6147 7.5796-6.5808zm2.6496-8.9898v9.5187c0 3.7017 1.939 5.8756 5.9344 5.8756 2.2916 0 3.4649-1.0282 3.4649-2.6422v-1.4119h-.1469c-.6151.3819-1.5847.5581-2.8479.5581-1.5865 0-2.499-.7933-2.499-2.8498v-6.1988h3.1435c1.6176 0 2.3503-1.0594 2.3503-1.8802v-1.61582h-5.4938v-3.58423h-.9108c-.6151 0-1.3238.47014-1.8489 1.08709-.8538 1.0007-1.1458 1.58639-1.1458 3.14346zm24.3878 5.1412c0-3.788-3.0535-6.14009-6.3457-6.14009-4.5243 0-7.756 3.31979-7.756 8.60789 0 4.8475 3.8487 7.9616 7.7872 7.9616 4.348 0 5.7288-1.557 5.7288-3.5841v-1.2339h-.1487c-1.2614 1.1751-3.2023 1.4982-4.8475 1.4982-2.3227 0-4.1424-1.2632-4.4362-3.261h2.5854c5.2294 0 7.4327-.9419 7.4327-3.8486zm-3.7017-.47c0 1.1164-.8519 1.5276-4.5812 1.5276h-1.7645l.0293-.5287c.0882-1.8215 1.412-3.3786 3.3198-3.3786 1.8196 0 2.9966.7914 2.9966 2.3797zm15.1354-1.4689v-1.4121c0-1.2027-.8519-2.58344-3.2903-2.58344-4.1718 0-5.8482 3.02604-5.8482 6.19894v7.2877c0 1.6452 1.1183 2.5247 2.881 2.5247h1.087v-9.1056c0-2.4108 2.7303-3.3803 2.7303-3.3803s1.7059.2369 2.2934.4701zm9.2874 9.783v-.8519h-1.0576c-1.8508 0-2.6735-.5014-2.6735-2.086v-13.33958c0-1.49831-.8501-2.64228-2.8203-2.64228h-1.1164v16.36386c0 3.2022 1.7646 4.9355 5.0274 4.9355 1.7297 0 2.6404-.6774 2.6404-2.3796zm5.7949-17.06892c0-1.26328-1.0595-2.2915-2.3209-2.2915-1.2633 0-2.2933 1.02822-2.2933 2.2915s1.03 2.32086 2.2933 2.32086c1.2614 0 2.3209-1.05758 2.3209-2.32086zm2.8185 17.06892v-.8519h-.7345c-1.7352 0-2.4072-.5014-2.4072-2.086v-7.4033c0-1.9978-1.0595-2.9378-2.824-2.9378h-1.1164v10.7231c0 3.2022 1.6764 4.9355 4.73 4.9355 1.6764 0 2.3521-.6774 2.3521-2.3796zm15.4238 2.2328v-9.2249c0-4.4968-3.0848-6.99209-6.8122-6.99209-4.9338 0-7.1372 3.43729-7.1372 6.78639v6.8453c0 1.4689 1.0852 2.5853 2.7634 2.5853h1.1734v-9.1661c0-2.2621 1.1806-3.5549 2.8699-3.5549 2.0381 0 3.2133 1.1752 3.2133 3.8486v6.2871c0 1.4689 1.12 2.5853 2.8827 2.5853zm16.9658-6.5809v-2.7028c0-4.0542-2.534-6.93329-6.463-6.93329-5.1229 0-8.0608 3.61359-8.0608 8.07919 0 3.7329 2.7359 6.4044 6.5918 6.4044 2.259 0 3.764-1.2045 4.076-2.3484v.38c0 .1469.037.5582.037.7933.018.2644.018.5876.018.8208 0 2.2933-1.285 3.6447-4.131 3.6447-2.2584 0-4.0946-.705-5.031-1.7039h-.1653v1.7921c0 1.8802 2.2217 3.4667 5.4901 3.4667 5.1042 0 7.7482-3.5548 7.7482-7.5209 0-.5289-.018-1.3808-.055-2.0272-.036-.7069-.055-1.6158-.055-2.1447zm-6.904-6.1401c1.726 0 2.956 1.2046 2.956 3.6724 0 2.5265-1.395 3.9955-3.378 3.9955-1.8729 0-3.1399-1.5277-3.1399-3.586 0-2.3779 1.524-4.0819 3.5619-4.0819z" fill="#fff"/></svg>