<svg fill="none" height="280" viewBox="0 0 343 280" width="343" xmlns="http://www.w3.org/2000/svg" xmlns:xlink="http://www.w3.org/1999/xlink"><filter id="a" color-interpolation-filters="sRGB" filterUnits="userSpaceOnUse" height="37.5713" width="46.8744" x="27.7375" y="90.4302"><feFlood flood-opacity="0" result="BackgroundImageFix"/><feBlend in="SourceGraphic" in2="BackgroundImageFix" mode="normal" result="shape"/><feColorMatrix in="SourceAlpha" result="hardAlpha" type="matrix" values="0 0 0 0 0 0 0 0 0 0 0 0 0 0 0 0 0 0 127 0"/><feOffset dy=".453147"/><feGaussianBlur stdDeviation=".679721"/><feComposite in2="hardAlpha" k2="-1" k3="1" operator="arithmetic"/><feColorMatrix type="matrix" values="0 0 0 0 0 0 0 0 0 0 0 0 0 0 0 0 0 0 1 0"/><feBlend in2="shape" mode="overlay" result="effect1_innerShadow_15003_5824"/><feColorMatrix in="SourceAlpha" result="hardAlpha" type="matrix" values="0 0 0 0 0 0 0 0 0 0 0 0 0 0 0 0 0 0 127 0"/><feOffset dy="-.453147"/><feGaussianBlur stdDeviation=".226574"/><feComposite in2="hardAlpha" k2="-1" k3="1" operator="arithmetic"/><feColorMatrix type="matrix" values="0 0 0 0 0 0 0 0 0 0 0 0 0 0 0 0 0 0 0.48 0"/><feBlend in2="effect1_innerShadow_15003_5824" mode="overlay" result="effect2_innerShadow_15003_5824"/></filter><linearGradient id="b" gradientUnits="userSpaceOnUse" x1="12.5104" x2="84.7161" y1="128.689" y2="103.31"><stop offset=".235577" stop-color="#ebebeb"/><stop offset=".36469" stop-color="#858585"/><stop offset=".640621" stop-color="#ebebeb"/><stop offset=".808318" stop-color="#858585"/></linearGradient><clipPath id="c"><path d="m0 0h21.5124v81.9125h-21.5124z" transform="matrix(-.07741682 .99699881 -.99699881 -.07741682 351.976 48.6117)"/></clipPath><path d="m78.1027 27.783c88.5773 12.4147 226.7763 31.6845 278.3023 38.5326 11.555 1.5357 21.214 11.24 22.584 22.8156l19.105 161.3628c1.763 14.887-10.958 27.454-25.823 25.51l-335.7588-43.907c-13.4-1.752-22.4087-14.624-19.4657-27.814l35.4168-158.7291c2.6109-11.7013 13.7665-19.4349 25.6394-17.7709z" fill="#1a7569"/><rect fill="#178c7d" height="217.58" rx="20.4781" transform="matrix(.99699879 .07741717 -.07741717 .99699879 .050554 -1.304054)" width="358.367" x="16.8445"/><g clip-path="url(#c)"><path clip-rule="evenodd" d="m280.6 55.4317c.168-2.1651-1.133-3.8051-3.995-4.6425-2.93-.8672-3.629-1.5133-3.554-2.478.097-1.2473 1.069-2.0008 3.536-1.8092 1.745.1355 3.125.7641 4.02 1.8984l.094.0073.115-1.4824c.104-1.341-.843-3.0247-4.567-3.3138-3.747-.291-6.179 2.0769-6.387 4.7596-.17 2.1888 1.26 3.6729 3.914 4.4709 3.318.9923 3.699 1.5187 3.613 2.6247-.1 1.2941-.932 2.0585-3.329 1.8724-1.933-.1501-3.315-1.0392-4.311-2.087l-.07-.0055-.111 1.4355c-.148 1.9062 1.406 3.3056 4.617 3.5549 3.864.3001 6.168-1.6281 6.415-4.8053zm2.658-7.0381-.592 7.6249c-.231 2.9647 1.17 4.8258 4.336 5.0716 1.815.1409 2.811-.6101 2.911-1.9049l.088-1.1297-.117-.0091c-.512.2684-1.291.3501-2.292.2724-1.257-.0976-1.93-.7889-1.802-2.4363l.386-4.9659 2.49.1934c1.28.0994 1.929-.7025 1.98-1.3615l.1-1.2942-4.353-.338.223-2.8715-.721-.056c-.489-.0379-1.076.2951-1.535.757-.736.7479-1.005 1.2006-1.102 2.4478zm19.002 5.6186c.236-3.0353-2.038-5.1064-4.646-5.3088-3.584-.2784-6.35 2.1824-6.679 6.4181-.302 3.8831 2.553 6.6144 5.672 6.8566 3.445.2675 4.636-.8948 4.762-2.5184l.077-.9885-.117-.009c-1.074.8638-2.63 1.0033-3.933.9021-1.839-.1428-3.204-1.267-3.312-2.8856l2.048.159c4.143.3218 5.947-.2954 6.128-2.6255zm-2.903-.6041c-.07.894-.771 1.1711-3.726.9416l-1.397-.1085.056-.4214c.183-1.4538 1.328-2.6197 2.84-2.5023 1.443.1121 2.325.8196 2.227 2.0906zm12.081-.2456.088-1.1297c.075-.9647-.514-2.1237-2.446-2.2737-3.305-.2566-4.82 2.0649-5.017 4.6063l-.453 5.8362c-.103 1.3179.727 2.0931 2.123 2.2015l.862.0669.566-7.2961c.15-1.9293.978-2.6468 2.374-2.5384.815.0633 1.336.2937 1.787.518zm6.751 8.4077.053-.6821-.838-.0651c-1.466-.1138-2.087-.5646-1.988-1.8356l.829-10.684c.094-1.2003-.51-2.1706-2.07-2.2917l-.885-.0687-1.017 13.1085c-.2 2.5652 1.089 4.0622 3.673 4.2628 1.373.1067 2.137-.3787 2.243-1.7441zm5.651-13.3167c.078-1.0116-.695-1.9006-1.697-1.9784-1-.0777-1.879.683-1.958 1.6946-.078 1.0122.671 1.9226 1.671 2.0003 1.002.0778 1.905-.7043 1.984-1.7165zm1.173 13.8465.052-.6821-.581-.0451c-1.374-.1067-1.878-.5484-1.779-1.8194l.46-5.93c.124-1.6005-.655-2.4189-2.052-2.5274l-.884-.0686-.667 8.5902c-.199 2.5651 1.02 4.0567 3.44 4.2446 1.327.1031 1.905-.3967 2.011-1.7622zm12.084 2.7385.573-7.3899c.28-3.6011-2.008-5.7908-4.964-6.0204-3.911-.3036-5.871 2.3142-6.079 4.9969l-.426 5.4836c-.091 1.1766.701 2.1382 2.028 2.2412l.931.0723.57-7.343c.141-1.8118 1.152-2.7748 2.502-2.67 1.606.1247 2.464 1.1379 2.298 3.2798l-.391 5.036c-.092 1.1766.723 2.1399 2.12 2.2484zm13.843-4.2286.168-2.1656c.252-3.2473-1.57-5.7091-4.689-5.9513-4.05-.3144-6.602 2.3995-6.88 5.9769-.232 2.9884 1.766 5.2978 4.815 5.5345 1.792.1392 3.054-.7333 3.381-1.6313l-.024.3058c-.009.1181-.011.4494-.026.6376.007.2131-.013.4726-.027.6608-.143 1.8356-1.251 2.8383-3.509 2.6629-1.792-.1391-3.191-.8157-3.874-1.6738l-.139-.0108-.112 1.4354c-.117 1.5067 1.553 2.9144 4.137 3.1151 4.05.3145 6.366-2.3706 6.613-5.5472.033-.4239.062-1.1078.079-1.6273.02-.567.054-1.2984.087-1.7217zm-5.088-5.3431c1.373.1066 2.276 1.1472 2.122 3.1241-.157 2.0237-1.365 3.1136-2.925 2.9925-1.489-.1156-2.395-1.4169-2.268-3.0643.149-1.9062 1.465-3.177 3.071-3.0523z" fill="#fff" fill-rule="evenodd"/></g><g fill="url(#b)" filter="url(#a)"><path d="m30.004 95.0445c.178-2.2924 2.1807-4.0065 4.4731-3.8285l35.9736 2.7933c2.2924.178 4.0065 2.1807 3.8285 4.4731l-1.9339 24.9046c-.178 2.293-2.1807 4.007-4.4731 3.829l-35.9736-2.794c-2.2924-.178-4.0065-2.18-3.8284-4.473z"/><path d="m47.3462 104.743 8.3016.644-.6447 8.302-8.3015-.645z"/></g><path d="m47.3462 104.743 8.3016.644m-8.3016-.644-.6446 8.301m.6446-8.301-2.4771-3.585c-.7129-1.031-1.8526-1.6865-3.1027-1.7836l-12.0261-.9338m25.9075 6.9464-.6447 8.302m.6447-8.302 3.3487-3.258c.8576-.834 2.0326-1.259 3.2254-1.166l11.7936.916m-19.0124 11.81-8.3015-.645m8.3015.645 2.8057 3.736c.7185.956 1.8138 1.558 3.0067 1.65l11.7935.916m-25.9074-6.947-3.0008 3.159c-.8635.91-2.0908 1.381-3.3409 1.284l-12.026-.934m24.4759-23.9135-.6446 8.3015m-1.2893 16.603-.6446 8.302m23.0516-14.534-13.836-1.074m-16.6031-1.289-13.836-1.075m2.8908 16.548 35.9736 2.794c2.2924.178 4.2951-1.536 4.4731-3.829l1.9339-24.9046c.178-2.2924-1.5361-4.2951-3.8285-4.4731l-35.9736-2.7933c-2.2924-.178-4.2951 1.5361-4.4731 3.8285l-1.9338 24.9045c-.1781 2.293 1.536 4.295 3.8284 4.473z" stroke="#171717" stroke-width=".639942"/><path d="m25.2347 193.332-1.9779-.154.6936-8.932 3.2412.252c1.7864.138 2.7199 1.507 2.604 3s-1.4027 2.69-3.0871 2.559l-1.2122-.094zm.5539-7.133-.1536 1.978 1.0208.079c.638.049 1.0683-.366 1.1119-.928.0436-.561-.3075-.999-.9583-1.05zm6.6487 7.692-1.9778-.153.6936-8.933 1.9778.154-.2625 3.381 2.6159.203.2625-3.381 1.9907.155-.6936 8.932-1.9907-.155.2913-3.751-2.6158-.203zm9.7228-4.47 1.6557-3.632 2.1055.163-4.1772 8.662-2.08-.162 1.3242-2.67-2.1873-6.383 2.2075.172zm6.3587 5.873c-1.8757-.146-2.9665-1.309-2.9484-3.194l2.0034.155c.0111.848.4516 1.293 1.0896 1.343.6252.048 1.0133-.32 1.0519-.817.0515-.664-.337-.951-1.6118-1.396-1.2993-.461-2.299-1.308-2.1781-2.865.1248-1.608 1.4095-2.612 3.196-2.474 1.7992.14 2.8153 1.272 2.8022 3.094l-1.9906-.155c.033-.755-.3947-1.199-.9434-1.241-.5615-.044-.9975.282-1.0372.792-.0485.625.3577.849 1.555 1.302 1.3346.501 2.3597 1.518 2.2507 2.922-.1378 1.773-1.44 2.674-3.2393 2.534zm6.3365.338-1.9778-.154.6935-8.932 1.9779.154zm5.973.618c-2.5904-.201-4.5471-2.446-4.3499-4.985.1971-2.539 2.4896-4.454 5.0672-4.254 1.8886.147 3.264 1.281 3.9127 2.846l-1.843.755c-.3273-.911-1.1327-1.615-2.2045-1.699-1.4802-.114-2.6698.987-2.7867 2.493-.1179 1.518.8853 2.816 2.3656 2.931 1.0718.083 1.9655-.515 2.4422-1.364l1.7289 1.046c-.8845 1.471-2.4185 2.379-4.3325 2.231zm11.9506.774-2.1182-.165-.2629-1.574-2.7818-.216-.5155 1.514-2.0161-.157 2.5395-6.915c.4554-1.235.9428-1.89 2.0657-1.803 1.0464.081 1.4915.796 1.7262 2.072zm-3.3057-7.356-1.2788 3.739 1.9141.149zm8.9349 7.793-2.8329-.22c-1.4036-.109-1.8361-.656-1.7261-2.073l.544-7.005 1.9906.154-.5539 7.134 2.718.211zm7.9535.771c-2.5904-.201-4.5471-2.445-4.3499-4.984.1971-2.54 2.4896-4.454 5.0672-4.254 1.8886.147 3.264 1.28 3.9127 2.845l-1.843.756c-.3273-.911-1.1327-1.616-2.2045-1.699-1.4802-.115-2.6698.987-2.7867 2.492-.1179 1.519.8853 2.816 2.3656 2.931 1.0718.084 1.9655-.515 2.4422-1.363l1.7289 1.045c-.8845 1.472-2.4185 2.38-4.3325 2.231zm11.9506.774-2.1182-.164-.2629-1.574-2.7818-.216-.5155 1.513-2.0161-.156 2.5395-6.915c.4554-1.235.9428-1.891 2.0657-1.804 1.0464.082 1.4915.797 1.7262 2.073zm-3.3057-7.355-1.2788 3.739 1.9141.148zm9.5195 3.871 1.212 4.061-2.182-.169-.925-3.628-1.02-.079-.275 3.534-1.9777-.153.6937-8.933 3.177.247c1.902.148 2.867 1.442 2.752 2.922-.074.945-.562 1.78-1.455 2.198zm-1.512-3.339-1.123-.088-.153 1.965 1.123.088c.702.054 1.131-.349 1.173-.885.045-.574-.318-1.026-1.02-1.08zm5.925 7.648-2.029-.157.693-8.932 2.029.157c3.497.272 4.966 2.35 4.77 4.864-.193 2.488-1.967 4.34-5.463 4.068zm.503-7.137-.415 5.334.23.018c1.672.13 2.926-.646 3.066-2.445.138-1.786-.967-2.758-2.626-2.887z" fill="#fff"/><circle cx="303.92" cy="204.582" fill="#e80b26" r="15.3586" transform="matrix(.99699879 .07741717 -.07741717 .99699879 16.750288 -22.914633)"/><circle cx="324.337" cy="206.167" fill="#f59d31" r="15.3586" transform="matrix(.99699879 .07741717 -.07741717 .99699879 16.93427 -24.490502)"/><path d="m313.242 216.789c3.351-2.56 5.639-6.482 5.991-11.017s-1.303-8.762-4.218-11.809c-3.351 2.56-5.638 6.482-5.991 11.017-.352 4.535 1.303 8.762 4.218 11.809z" fill="#fc6020"/></svg>