<svg fill="none" height="24" viewBox="0 0 24 24" width="24" xmlns="http://www.w3.org/2000/svg" xmlns:xlink="http://www.w3.org/1999/xlink"><clipPath id="a"><path d="m0 0h24v24h-24z"/></clipPath><g clip-path="url(#a)" fill="#fff"><path d="m6.99675 15.9799c-.2852 0-.56774-.121-.7656-.3561-1.00907-1.1979-1.5644-2.7213-1.5644-4.2904 0-3.67572 2.99093-6.66665 6.66665-6.66665 3.0416 0 5.696 2.05466 6.4551 4.99613.138.53522-.1836 1.08012-.7182 1.21812-.537.138-1.0806-.1829-1.2181-.7181-.5312-2.05855-2.3893-3.49615-4.5189-3.49615-2.57295 0-4.66669 2.09373-4.66669 4.66665 0 1.0983.38867 2.164 1.0944 3.0027.35547.4225.30147 1.0533-.12106 1.4088-.18747.1582-.416.235-.6432.235z" opacity=".4"/><path d="m4.18888 18.8451c-.2708 0-.5416-.11-.73893-.3261-1.79494-1.9681-2.783202-4.5195-2.783202-7.1856 0-5.88145 4.785202-10.666652 10.666652-10.666652 5.3749 0 9.9257 4.016932 10.5853 9.343752.0684.5481-.3209 1.0474-.8692 1.1152-.5422.0702-1.0474-.321-1.1152-.8692-.5364-4.32682-4.2337-7.58989-8.6009-7.58989-4.77865 0-8.66665 3.888-8.66665 8.66669 0 2.166.8028 4.2396 2.26106 5.8378.3724.4083.34307 1.0404-.06506 1.4128-.19147.1746-.43294.2612-.67387.2612z" opacity=".4"/><path d="m14.6741 13.5536c2.3926-.6231 6.1298-.7524 7.4485.2556.8655.66 1.3773 1.9706 1.5253 4.1546.3756 5.5386-1.5412 5.7067-5.0546 5.7067h-3.9192c-2.6178 0-4.3336-1.1888-6.33202-2.212-.92867-.4756-1.43387-1.5604-1.08267-2.5429.35654-.9978 1.45827-1.5134 2.4528-1.1479l2.64609.9721-3.22009-7.0145c-.4772-1.0395-.05346-2.27041.96249-2.79587 1.0887-.56307 2.4268-.09947 2.9339 1.01626z"/></g></svg>