<svg fill="none" height="24" viewBox="0 0 24 24" width="24" xmlns="http://www.w3.org/2000/svg" xmlns:xlink="http://www.w3.org/1999/xlink"><clipPath id="a"><path d="m0 0h24v24h-24z" transform="matrix(-1 0 0 1 24 0)"/></clipPath><g clip-path="url(#a)" fill="#fff"><path d="m17.0033 15.9799c.2852 0 .5677-.121.7656-.3561 1.009-1.1979 1.5644-2.7213 1.5644-4.2904 0-3.67572-2.991-6.66665-6.6667-6.66665-3.04161 0-5.69601 2.05466-6.45508 4.99613-.138.53522.1836 1.08012.71813 1.21812.53707.138 1.08067-.1829 1.21814-.7181.5312-2.05855 2.38931-3.49615 4.51891-3.49615 2.573 0 4.6667 2.09373 4.6667 4.66665 0 1.0983-.3887 2.164-1.0944 3.0027-.3555.4225-.3015 1.0533.1211 1.4088.1874.1582.416.235.6432.235z" opacity=".4"/><path d="m19.8111 18.8451c.2708 0 .5416-.11.739-.3261 1.7949-1.9681 2.7832-4.5195 2.7832-7.1856 0-5.88145-4.7852-10.666652-10.6667-10.666652-5.37495 0-9.92575 4.016932-10.58535 9.343752-.0684.5481.32094 1.0474.8692 1.1152.54227.0702 1.04747-.321 1.1152-.8692.5364-4.32682 4.23374-7.58989 8.60095-7.58989 4.7787 0 8.6667 3.888 8.6667 8.66669 0 2.166-.8028 4.2396-2.2611 5.8378-.3724.4083-.3431 1.0404.0651 1.4128.1914.1746.4329.2612.6738.2612z" opacity=".4"/><path d="m9.32592 13.5536c-2.39267-.6231-6.12987-.7524-7.44853.2556-.86547.66-1.377339 1.9706-1.525339 4.1546-.3755991 5.5386 1.541199 5.7067 5.054669 5.7067h3.9192c2.61778 0 4.33358-1.1888 6.33198-2.212.9287-.4756 1.4339-1.5604 1.0827-2.5429-.3565-.9978-1.4583-1.5134-2.4528-1.1479l-2.6461.9721 3.2201-7.0145c.4772-1.0395.0535-2.27041-.9625-2.79587-1.0887-.56307-2.4268-.09947-2.9339 1.01626z"/></g></svg>