<svg width="144" height="36" viewBox="0 0 144 36" fill="none" xmlns="http://www.w3.org/2000/svg">
<path d="M18 0C27.9411 0 36 8.05887 36 18C36 27.9411 27.9411 36 18 36C8.05887 36 0 27.9411 0 18C0 8.05887 8.05887 0 18 0ZM6.74121 14.0361V18.5967L12.9814 16.376V30.2969L25.5225 25.8564V7.25488L6.74121 14.0361Z" fill="white"/>
<path d="M51.328 17.596C52.72 18.46 53.584 19.948 53.584 21.46C53.584 24.196 51.64 26.5 47.848 26.5H41.632V9.7H47.272C50.944 9.7 52.864 11.86 52.864 14.356C52.864 15.748 52.216 16.78 51.328 17.596ZM47.32 12.916H45.28V16.492H47.344C48.496 16.492 49.264 15.7 49.264 14.668C49.264 13.684 48.544 12.916 47.32 12.916ZM45.28 23.284H47.824C49.12 23.284 49.96 22.444 49.96 21.292C49.96 20.308 49.192 19.372 47.872 19.372H45.28V23.284ZM66.2483 13.732V12.388H69.7763V26.5H66.2483V25.156C65.2883 26.164 63.9443 26.788 62.1443 26.788C58.1123 26.788 54.9923 23.692 54.9923 19.444C54.9923 15.22 58.1123 12.1 62.1443 12.1C63.7763 12.1 65.1923 12.652 66.2483 13.732ZM62.5283 23.284C64.7123 23.284 66.3443 21.652 66.3443 19.372C66.3443 17.116 64.7123 15.484 62.5283 15.484C60.3923 15.484 58.7363 17.116 58.7363 19.372C58.7363 21.652 60.3923 23.284 62.5283 23.284ZM79.477 12.1C82.573 12.1 84.781 14.188 84.781 17.476V26.5H81.037V18.124C81.037 16.516 80.149 15.58 78.685 15.58C77.197 15.58 76.213 16.54 76.213 18.124V26.5H72.493V12.388H76.045V13.516C76.837 12.58 78.085 12.1 79.477 12.1ZM94.7678 19.036L100.264 26.5H95.5838L91.0478 19.948V26.5H87.3758V9.7H91.0478V18.316L95.4158 12.388H99.9278L94.7678 19.036ZM110.438 26.5H106.718V9.7H112.814C116.174 9.7 118.118 12.124 118.118 14.932C118.118 17.74 115.886 20.164 112.718 20.164H110.438V26.5ZM110.438 13.084V16.804H112.358C113.558 16.804 114.302 15.964 114.302 14.908C114.302 13.852 113.582 13.084 112.358 13.084H110.438ZM127.681 12.22H127.801V15.82H127.609C125.809 15.82 123.649 16.348 123.649 20.404V26.5H120.001V12.388H123.481V14.236C124.345 12.964 125.713 12.22 127.681 12.22ZM135.721 26.788C131.497 26.788 128.281 23.692 128.281 19.444C128.281 15.22 131.497 12.1 135.721 12.1C139.945 12.1 143.137 15.22 143.137 19.444C143.137 23.716 139.945 26.788 135.721 26.788ZM135.721 23.332C137.857 23.332 139.465 21.724 139.465 19.444C139.465 17.116 137.833 15.508 135.721 15.508C133.561 15.508 131.953 17.14 131.953 19.444C131.953 21.724 133.561 23.332 135.721 23.332Z" fill="white"/>
</svg>
