<svg fill="none" height="50" viewBox="0 0 60 50" width="60" xmlns="http://www.w3.org/2000/svg"><g stroke="#111" stroke-linecap="round" stroke-linejoin="round" stroke-width="10"><path d="m45.832 45c5.5229 0 10-4.4772 10-10s-4.4771-10-10-10c-5.5228 0-10 4.4772-10 10s4.4772 10 10 10z"/><path d="m14.166 45c5.5229 0 10-4.4772 10-10s-4.4771-10-10-10c-5.52283 0-9.99998 4.4772-9.99998 10s4.47715 10 9.99998 10z"/><path d="m25.87 17.7333-.2467-.6233c-.5033-1.2733-1.7333-2.11-3.1-2.11h-5.0233"/><path d="m45.8325 35-10.52-30h11.3533c2.3 0 4.1667 1.86667 4.1667 4.16667 0 2.30003-1.8667 4.16663-4.1667 4.16663"/><path d="m14.166 35.0001 25.61-17.2667"/></g></svg>