<svg fill="none" height="24" viewBox="0 0 24 24" width="24" xmlns="http://www.w3.org/2000/svg"><path d="m21.7723 18.5763-8.0938-14.95125c-.1638-.30179-.4061-.55377-.7012-.72935-.2952-.17558-.6322-.26826-.9756-.26826s-.6805.09268-.9756.26826c-.2952.17558-.5374.42756-.7013.72935l-8.09376 14.95125c-.15769.2879-.23705.6121-.23014.9403.00691.3281.09985.6487.26952.9297.16799.2844.40757.5198.69488.6828.28731.1629.61232.2477.94262.246h16.18748c.3289.0008.6525-.0838.9389-.2456.2864-.1617.5258-.3951.6949-.6773.169-.2822.2619-.6034.2694-.9323.0076-.3288-.0704-.654-.2263-.9436z" fill="#111"/><g fill="#d1d1d1"><path d="m13.0263 13.3691.8456-5.34212h-3.5762l.6804 5.34212z"/><path d="m14.249 16.6038c0 1.1951-.9688 2.1638-2.1638 2.1638s-2.16381-.9687-2.16381-2.1638c0-1.195.96881-2.1638 2.16381-2.1638s2.1638.9688 2.1638 2.1638z"/></g></svg>