<svg fill="none" height="60" viewBox="0 0 53 60" width="53" xmlns="http://www.w3.org/2000/svg"><g stroke="#111" stroke-linecap="round" stroke-linejoin="round" stroke-width="10"><path d="m26.0449 37.5v20"/><path d="m26.0462 50-10.8333 5.8333"/><path d="m26.0449 50 10.8334 5.8333"/><path d="m46.2257 24.7867.5-1.4167c.4267-1.2066.4867-2.52.14-3.7533-4.1533-14.89332-5.2-17.06665-20.82-17.06665s-16.66665 2.17333-20.82332 17.06665c-.34333 1.2333-.28333 2.5467.14 3.7533l.5 1.4167"/><path d="m26.0456 37.5001h13.3333c1.84 0 3.3333-1.4534 3.3333-3.3334s-2.3833-5-10-5h-6.6666c-2.0067 0-4.2834 0-6.6667 0-7.6167 0-9.99999 3.0934-9.99999 5 0 1.88 1.49329 3.3334 3.33329 3.3334z"/></g></svg>