<svg fill="none" height="59" viewBox="0 0 59 59" width="59" xmlns="http://www.w3.org/2000/svg"><path d="m29.1667 53.3333c13.3468 0 24.1666-10.8198 24.1666-24.1666 0-13.3469-10.8198-24.1667-24.1666-24.1667-13.3469 0-24.1667 10.8198-24.1667 24.1667 0 13.3468 10.8198 24.1666 24.1667 24.1666z" stroke="#111" stroke-linecap="round" stroke-linejoin="round" stroke-width="10"/><path d="m36.666 38.3601c-1.5733 2.4867-4.3467 4.14-7.5 4.14s-5.9267-1.6533-7.5-4.14" stroke="#111" stroke-linecap="round" stroke-linejoin="round" stroke-width="10"/><g fill="#111"><path d="m19.1673 32.4999c1.841 0 3.3334-1.4924 3.3334-3.3333 0-1.841-1.4924-3.3333-3.3334-3.3333-1.8409 0-3.3333 1.4923-3.3333 3.3333 0 1.8409 1.4924 3.3333 3.3333 3.3333z"/><path d="m39.1673 32.4999c1.841 0 3.3334-1.4924 3.3334-3.3333 0-1.841-1.4924-3.3333-3.3334-3.3333-1.8409 0-3.3333 1.4923-3.3333 3.3333 0 1.8409 1.4924 3.3333 3.3333 3.3333z"/></g></svg>