<svg fill="none" height="60" viewBox="0 0 60 60" width="60" xmlns="http://www.w3.org/2000/svg"><path d="m36.666 39.1934c-1.5733 2.4866-4.3467 4.14-7.5 4.14s-5.9267-1.6534-7.5-4.14" stroke="#111" stroke-linecap="round" stroke-linejoin="round" stroke-width="10"/><path d="m19.1673 33.3334c1.841 0 3.3334-1.4924 3.3334-3.3333 0-1.841-1.4924-3.3334-3.3334-3.3334-1.8409 0-3.3333 1.4924-3.3333 3.3334 0 1.8409 1.4924 3.3333 3.3333 3.3333z" fill="#111"/><path d="m39.1673 33.3334c1.841 0 3.3334-1.4924 3.3334-3.3333 0-1.841-1.4924-3.3334-3.3334-3.3334-1.8409 0-3.3333 1.4924-3.3333 3.3334 0 1.8409 1.4924 3.3333 3.3333 3.3333z" fill="#111"/><g stroke="#111" stroke-linecap="round" stroke-linejoin="round" stroke-width="10"><path d="m48.334 4.16675v16.66665"/><path d="m56.6667 12.5h-16.6667"/><path d="m34.3567 6.40683c-1.6734-.36667-3.4067-.57333-5.19-.57333-13.3467 0-24.1667 10.82-24.1667 24.1667 0 13.3466 10.82 24.1666 24.1667 24.1666 13.3466 0 24.1666-10.82 24.1666-24.1666 0-.8234-.0433-1.6367-.1233-2.44"/></g></svg>