<svg fill="none" height="24" viewBox="0 0 24 24" width="24" xmlns="http://www.w3.org/2000/svg"><path d="m14 5.95c1.0769 0 1.95-.87305 1.95-1.95h.9c0 1.07695.873 1.95 1.95 1.95v.9c-1.077 0-1.95.87305-1.95 1.95h-.9c0-1.07695-.8731-1.95-1.95-1.95zm-10.40002 5.25c2.65096 0 4.8-2.14903 4.8-4.8h1.6c0 2.65097 2.14902 4.8 4.80002 4.8v1.6c-2.651 0-4.80002 2.149-4.80002 4.8h-1.6c0-2.651-2.14904-4.8-4.8-4.8zm13.00002 2.4c0 1.4359-1.1641 2.6-2.6 2.6v1.2c1.4359 0 2.6 1.1641 2.6 2.6h1.2c0-1.4359 1.1641-2.6 2.6-2.6v-1.2c-1.4359 0-2.6-1.1641-2.6-2.6z" fill="#111"/></svg>