<svg width="124" height="124" viewBox="0 0 124 124" fill="none" xmlns="http://www.w3.org/2000/svg">
<path fill-rule="evenodd" clip-rule="evenodd" d="M62.9475 57.0213C62.7952 57.0298 62.6422 57.0353 62.4884 57.0376L62.9475 57.0213Z" fill="#111111"/>
<path d="M50.3344 44.3107C50.4427 51.4399 55.8843 57.138 62.4884 57.0376L62.9475 57.0213C69.3349 56.6636 74.3559 50.9104 74.25 43.9472C74.1417 36.8179 68.7001 31.1199 62.096 31.2202C55.4919 31.3206 50.226 37.1814 50.3344 44.3107Z" fill="#F6B51E"/>
<path d="M62.4884 57.0376C55.8843 57.138 50.4427 51.4399 50.3344 44.3107C50.226 37.1814 55.4919 31.3206 62.096 31.2202C68.7001 31.1199 74.1417 36.8179 74.25 43.9472C74.3559 50.9104 69.3349 56.6636 62.9475 57.0213M62.4884 57.0376L62.9475 57.0213M62.4884 57.0376C62.6422 57.0353 62.7952 57.0298 62.9475 57.0213" stroke="#111111" stroke-width="1.5"/>
<path fill-rule="evenodd" clip-rule="evenodd" d="M61.5809 63.0435C48.5166 63.2421 38.4512 75.2191 38.6655 89.3222C38.6793 90.2306 38.7369 91.1273 38.836 92.0099L85.8187 92.0099C85.9392 90.8944 85.9928 89.7572 85.9753 88.6031C85.7609 74.5001 74.6451 62.845 61.5809 63.0435Z" fill="#01CBEA"/>
<path fill-rule="evenodd" clip-rule="evenodd" d="M61.5809 63.0435C48.5166 63.2421 38.4512 75.2191 38.6655 89.3222C38.6793 90.2306 38.7369 91.1273 38.836 92.0099L85.8187 92.0099C85.9392 90.8944 85.9928 89.7572 85.9753 88.6031C85.7609 74.5001 74.6451 62.845 61.5809 63.0435Z" stroke="#111111" stroke-width="1.5"/>
<path d="M27.1672 21.1688V35.974H20.9984V15H41.9724V21.1688H27.1672Z" fill="#1FC16B" stroke="black" stroke-width="1.5"/>
<path d="M97.4932 21.1688V35.974H103.662V15H82.688V21.1688H97.4932Z" fill="#1FC16B" stroke="black" stroke-width="1.5"/>
<path d="M27.1672 103.831V89.026H20.9984V110H41.9724V103.831H27.1672Z" fill="#1FC16B" stroke="black" stroke-width="1.5"/>
<path d="M97.4932 103.831V89.026H103.662V110H82.688V103.831H97.4932Z" fill="#1FC16B" stroke="black" stroke-width="1.5"/>
</svg>
