<svg width="92" height="92" viewBox="0 0 92 92" fill="none" xmlns="http://www.w3.org/2000/svg">
<path d="M21.0537 73.3407C22.5465 68.1869 22.4807 65.1231 21.102 59.4212C41.2743 56.2895 50.4341 51.653 63.9402 39.5844C65.969 44.8439 66.7258 47.7927 65.9578 53.0519C51.5591 65.8525 41.9545 70.644 21.0537 73.3407Z" fill="#F6B51E" stroke="#111111" stroke-width="1.2"/>
<path d="M26.2672 62.2376C27.2184 56.8062 27.1172 53.7636 25.2426 48.3558C45.1135 43.6787 53.8887 38.35 66.4245 25.2764C68.6128 29.8176 69.353 32.676 69.4741 38.5483C56.1048 52.4206 46.898 57.938 26.2672 62.2376Z" fill="#1FC16B" stroke="#111111" stroke-width="1.2"/>
<path d="M28.6991 54.1506C28.9745 48.5064 28.6444 45.4587 26.3963 40.4229C45.75 33.9298 53.9954 27.8131 65.2696 13.6372C67.9385 17.4752 69.0074 20.1443 69.5324 26.5705C57.502 41.6188 48.8444 47.9633 28.6991 54.1506Z" fill="#01CBEA" stroke="#111111" stroke-width="1.2"/>
<path d="M30.5351 55.8711L29.9984 53.9681C46.6011 49.1776 54.733 43.6495 67.472 29.5469L68.6186 33.2552C55.3654 45.6418 47.0527 50.6692 30.5351 55.8711Z" fill="#111111"/>
<path d="M25.9301 63.2331L25.7268 61.4522C41.2801 59.5825 49.3611 55.8197 62.8127 45.0552L63.2989 48.5403C49.637 57.6945 41.4671 60.9829 25.9301 63.2331Z" fill="#111111"/>
<ellipse cx="49.3094" cy="37.6915" rx="5.73326" ry="2.73853" transform="rotate(-30.5281 49.3094 37.6915)" fill="#111111"/>
<ellipse cx="44.7712" cy="60.332" rx="5.73326" ry="2.73853" transform="rotate(-26.3622 44.7712 60.332)" fill="#111111"/>
<ellipse cx="50.1615" cy="48.7141" rx="5.73326" ry="2.02525" transform="rotate(-26.3622 50.1615 48.7141)" fill="#111111"/>
<ellipse cx="45.8829" cy="77.4606" rx="22.5427" ry="0.805097" fill="#111111"/>
<path d="M26.2552 35.655C26.2988 36.7329 26.6031 37.1948 27.9058 37.6375C26.509 37.5875 26.1406 38.0246 25.9234 39.2881C25.7926 37.8088 25.3468 37.4912 24.2727 37.3057C25.6152 37.1707 25.9455 36.7233 26.2552 35.655Z" fill="#F6B51E"/>
<path d="M69.0221 52.2827C69.0657 53.3606 69.37 53.8225 70.6727 54.2652C69.2759 54.2152 68.9075 54.6523 68.6903 55.9158C68.5595 54.4364 68.1137 54.1189 67.0396 53.9334C68.3822 53.7983 68.7124 53.351 69.0221 52.2827Z" fill="#F6B51E"/>
</svg>
