<svg width="92" height="92" viewBox="0 0 92 92" fill="none" xmlns="http://www.w3.org/2000/svg">
<path d="M28.4696 21.9274C25.5304 25.4087 26.1566 33.5094 27.3131 38.1182C27.7556 39.8818 32.4317 45.9687 38.0365 52.8119C40.7531 50.2569 43.275 47.7199 45.7804 45.0265C40.5156 39.6076 36.7134 34.7371 33.0954 29.2917C31.553 26.9704 30.0441 24.5446 28.4696 21.9274Z" fill="#01CBEA"/>
<path d="M63.1641 22.4882L58.5382 30.0228C53.8283 35.9211 49.8258 40.6777 45.7804 45.0265C43.275 47.7199 40.7531 50.2569 38.0365 52.8119C34.235 56.3873 30.0523 59.998 24.9999 64.1219L33.0954 78C37.5418 73.498 42.2696 68.2634 46.6671 63.1274C49.5267 59.7877 52.2466 56.4897 54.6588 53.4619C59.9661 46.8003 63.7836 41.4469 64.3206 39.8358C66.0328 29.2469 65.5835 25.8207 63.1641 22.4882Z" fill="#01CBEA"/>
<path d="M58.5382 30.0228L63.1641 22.4882L57.0754 28.2709C57.5755 28.8178 58.0638 29.4019 58.5382 30.0228Z" fill="#111111"/>
<path fill-rule="evenodd" clip-rule="evenodd" d="M63.1641 22.4882C51.0015 11.2446 39.3782 11.2866 28.4696 21.9274L34.357 27.6927C40.8453 20.2408 50.1154 20.6601 57.0754 28.2709L63.1641 22.4882Z" fill="#1FC16B"/>
<path d="M28.4696 21.9274C30.0441 24.5446 31.553 26.9704 33.0954 29.2917C33.5025 28.7235 33.9235 28.1905 34.357 27.6927L28.4696 21.9274Z" fill="#111111"/>
<path fill-rule="evenodd" clip-rule="evenodd" d="M66.6337 63.561L58.5383 76.8607C58.5383 76.8607 53.0468 70.6268 46.6671 63.1274L57.3817 55.8481C60.1431 58.2346 63.2061 60.7872 66.6337 63.561Z" fill="#01CBEA"/>
<path d="M54.6588 53.4619C52.2466 56.4897 49.5267 59.7877 46.6671 63.1274L57.3817 55.8481C56.4398 55.0342 55.533 54.2395 54.6588 53.4619Z" fill="#111111"/>
<path d="M28.4696 21.9274C25.5304 25.4087 26.1566 33.5094 27.3131 38.1182C27.7556 39.8818 32.4317 45.9687 38.0365 52.8119M28.4696 21.9274C39.3782 11.2866 51.0015 11.2446 63.1641 22.4882M28.4696 21.9274C30.0441 24.5446 31.553 26.9704 33.0954 29.2917M28.4696 21.9274L34.357 27.6927M63.1641 22.4882L58.5382 30.0228M63.1641 22.4882C65.5835 25.8207 66.0328 29.2469 64.3206 39.8358C63.7836 41.4469 59.9661 46.8003 54.6588 53.4619M63.1641 22.4882L57.0754 28.2709M58.5382 30.0228C53.8283 35.9211 49.8258 40.6777 45.7804 45.0265M58.5382 30.0228C58.0638 29.4019 57.5755 28.8178 57.0754 28.2709M33.0954 29.2917C36.7134 34.7371 40.5156 39.6076 45.7804 45.0265M33.0954 29.2917C33.5025 28.7235 33.9235 28.1905 34.357 27.6927M38.0365 52.8119C40.7531 50.2569 43.275 47.7199 45.7804 45.0265M38.0365 52.8119C34.235 56.3873 30.0523 59.998 24.9999 64.1219L33.0954 78C37.5418 73.498 42.2696 68.2634 46.6671 63.1274M54.6588 53.4619C52.2466 56.4897 49.5267 59.7877 46.6671 63.1274M54.6588 53.4619C55.533 54.2395 56.4398 55.0342 57.3817 55.8481M46.6671 63.1274C53.0468 70.6268 58.5383 76.8607 58.5383 76.8607L66.6337 63.561C63.2061 60.7872 60.1431 58.2346 57.3817 55.8481M46.6671 63.1274L57.3817 55.8481M57.0754 28.2709C50.1154 20.6601 40.8453 20.2408 34.357 27.6927" stroke="#111111" stroke-width="1.2" stroke-linejoin="round"/>
</svg>
