<svg width="124" height="124" viewBox="0 0 124 124" fill="none" xmlns="http://www.w3.org/2000/svg">
<ellipse cx="69.5834" cy="98.5374" rx="21.0774" ry="5.13102" fill="#111111"/>
<path d="M61.2848 32.2284C66.3732 36.4457 64.5618 47.0269 57.2391 55.8622C49.9163 64.6974 42.4141 68.5858 34.7667 64.2237C20.6226 56.1556 27.4441 44.9662 34.7668 36.131C42.0896 27.2957 51.5859 21.7616 61.2848 32.2284Z" fill="#1FC16B" stroke="#111111" stroke-width="1.5"/>
<ellipse cx="42.4724" cy="43.6342" rx="20.7785" ry="11.9665" transform="rotate(-50.3477 42.4724 43.6342)" fill="#01CBEA" stroke="#111111" stroke-width="1.5"/>
<ellipse cx="42.4724" cy="43.6342" rx="20.7785" ry="11.9665" transform="rotate(-50.3477 42.4724 43.6342)" fill="#F6B51E" stroke="#111111" stroke-width="1.5"/>
<ellipse cx="42.5234" cy="43.5749" rx="15.8745" ry="9.14223" transform="rotate(-50.3477 42.5234 43.5749)" fill="#01CBEA" stroke="#111111" stroke-width="1.5"/>
<path d="M39.074 65.6255L29.0206 59.7117C34.9923 62.8324 37.7394 62.5814 45.7918 57.8729L49.7188 62.6663L39.074 65.6255Z" fill="#111111" stroke="#111111" stroke-width="1.5"/>
<path d="M84.9048 86.2428C85.0142 93.4144 75.0082 99.3822 62.5558 99.5722C50.1033 99.7622 40.7543 95.3143 39.8105 86.9309C37.7473 68.6056 50.5324 67.3098 62.9848 67.1198C75.4372 66.9298 86.6993 70.8607 84.9048 86.2428Z" fill="#1FC16B" stroke="#111111" stroke-width="1.5"/>
<ellipse cx="62.2287" cy="78.768" rx="22.5503" ry="12.9868" transform="rotate(-0.874219 62.2287 78.768)" fill="#01CBEA" stroke="#111111" stroke-width="1.5"/>
<ellipse cx="62.2287" cy="78.768" rx="22.5503" ry="12.9868" transform="rotate(-0.874219 62.2287 78.768)" fill="#F6B51E" stroke="#111111" stroke-width="1.5"/>
<ellipse cx="62.3144" cy="78.7622" rx="17.2282" ry="9.92179" transform="rotate(-0.874219 62.3144 78.7622)" fill="#01CBEA" stroke="#111111" stroke-width="1.5"/>
<path d="M99.4412 59.1115C97.5347 63.2951 90.1003 64.003 82.836 60.6926C75.5717 57.3822 71.3787 52.2381 73.1348 47.1235C76.9735 35.9432 84.7342 38.7045 91.9985 42.0149C99.2628 45.3253 104.706 50.6955 99.4412 59.1115Z" fill="#1FC16B" stroke="#111111" stroke-width="1.5"/>
<ellipse cx="88.3631" cy="48.5518" rx="14.4549" ry="8.32468" transform="rotate(24.4991 88.3631 48.5518)" fill="#01CBEA" stroke="#111111" stroke-width="1.5"/>
<ellipse cx="88.3631" cy="48.5518" rx="14.4549" ry="8.32468" transform="rotate(24.4991 88.3631 48.5518)" fill="#F6B51E" stroke="#111111" stroke-width="1.5"/>
<ellipse cx="88.4135" cy="48.5741" rx="11.0434" ry="6.35995" transform="rotate(24.4991 88.4135 48.5741)" fill="#01CBEA" stroke="#111111" stroke-width="1.5"/>
<path d="M72.9646 98.0313L72.2604 90.4857C77.6536 88.1179 79.801 86.0788 84.5112 82.2163L84.0818 90.4857C80.3893 95.1569 77.8522 96.5353 72.9646 98.0313Z" fill="#111111"/>
<path d="M90.2191 62.3067L91.6445 57.7643C95.241 58.8784 97.3056 58.4356 101.073 56.2015L98.4928 60.6367C95.2187 62.4455 93.414 62.6276 90.2191 62.3067Z" fill="#111111"/>
<path d="M46.6329 44.3744L46.0935 45.0209L39.4992 39.5184L40.0387 38.8719L46.6329 44.3744ZM45.4677 45.7708L44.9282 46.4173L38.334 40.9148L38.8734 40.2683L45.4677 45.7708ZM48.1236 41.5168L42.5995 48.137L41.3906 47.1282L41.9905 40.5609L41.9388 40.5177L38.462 44.6844L37.0655 43.5192L42.5896 36.899L43.8147 37.9213L43.2013 44.4719L43.2563 44.5177L46.7304 40.3543L48.1236 41.5168Z" fill="#111111"/>
<path d="M61.4905 74.0405L62.3298 74.1087L61.6341 82.669L60.7949 82.6008L61.4905 74.0405ZM63.3033 74.1878L64.1425 74.256L63.4469 82.8163L62.6077 82.7481L63.3033 74.1878ZM58.2962 74.4694L66.89 75.1678L66.7625 76.7371L61.0501 80.0322L61.0446 80.0994L66.4535 80.5389L66.3062 82.3517L57.7124 81.6533L57.8416 80.063L63.5481 76.7885L63.5539 76.7172L58.1492 76.278L58.2962 74.4694Z" fill="#111111"/>
<path d="M90.0065 45.9025L90.4572 46.1959L87.4645 50.7926L87.0139 50.4992L90.0065 45.9025ZM90.9799 46.5363L91.4306 46.8297L88.4379 51.4263L87.9873 51.1329L90.9799 46.5363ZM88.082 45.1725L92.6966 48.1769L92.148 49.0196L87.9379 49.1341L87.9144 49.1701L90.8189 51.0611L90.1851 52.0345L85.5705 49.0301L86.1265 48.1761L90.3269 48.0714L90.3519 48.0331L87.4497 46.1437L88.082 45.1725Z" fill="#111111"/>
<path d="M60.1603 20.6554C60.2225 22.1947 60.6571 22.8543 62.5175 23.4865C60.5227 23.4151 59.9966 24.0393 59.6864 25.8437C59.4996 23.731 58.8631 23.2776 57.3292 23.0126C59.2464 22.8198 59.718 22.181 60.1603 20.6554Z" fill="#F6B51E"/>
<path d="M36.7454 70.3473C36.8076 71.8866 37.2423 72.5462 39.1026 73.1783C37.1078 73.107 36.5817 73.7312 36.2716 75.5356C36.0848 73.4229 35.4482 72.9694 33.9143 72.7045C35.8316 72.5117 36.3031 71.8729 36.7454 70.3473Z" fill="#F6B51E"/>
<path d="M101.009 39.9768C101.071 41.5161 101.506 42.1757 103.366 42.8079C101.372 42.7366 100.845 43.3607 100.535 45.1651C100.348 43.0525 99.7119 42.599 98.1781 42.334C100.095 42.1412 100.567 41.5024 101.009 39.9768Z" fill="#F6B51E"/>
</svg>
