<svg width="124" height="124" viewBox="0 0 124 124" fill="none" xmlns="http://www.w3.org/2000/svg">
<path d="M29.2653 59.2117C36.8137 65.3585 40.0379 70.0434 43.5391 81.1984L35.095 89.3534C33.0185 78.2958 30.0371 73.5698 21.6785 68.2431L29.2653 59.2117Z" fill="#1FC16B" stroke="#111111" stroke-width="1.5"/>
<ellipse cx="34.4174" cy="73.5603" rx="4.19428" ry="2.00342" transform="rotate(53.1378 34.4174 73.5603)" fill="#111111"/>
<path d="M53.6701 33.7457C50.1114 40.7241 46.9712 44.0533 38.7877 48.6949L30.9433 43.4315C39.2913 39.9271 42.5049 36.7821 45.2814 29.305L53.6701 33.7457Z" fill="#1FC16B" stroke="#111111" stroke-width="1.5"/>
<ellipse cx="43.2552" cy="40.2283" rx="3.37516" ry="1.61216" transform="rotate(131.001 43.2552 40.2283)" fill="#111111"/>
<path d="M93.5253 27.32C94.1392 24.7983 92.2293 22.3676 89.6339 22.3676H62.9559C61.131 22.3676 59.5369 23.6011 59.0789 25.3676L43.1091 86.974C42.4601 89.4777 44.3189 91.9308 46.9047 91.9833L74.4183 92.5418C76.2953 92.5799 77.9469 91.3091 78.391 89.4849L93.5253 27.32Z" fill="#01CBEA" stroke="#111111" stroke-width="1.5"/>
<path d="M91.381 27.859C91.9316 25.549 90.1801 23.3311 87.8055 23.3311H62.6337C60.9519 23.3311 59.4847 24.4725 59.071 26.1025L44.0235 85.3937C43.4416 87.6863 45.1452 89.9237 47.51 89.9728L73.4689 90.511C75.1988 90.5469 76.7195 89.3715 77.1207 87.6884L91.381 27.859Z" fill="#01CBEA"/>
<path d="M88.717 33.0158C89.2566 30.8912 87.6511 28.8269 85.4591 28.8269H62.5755C61.0571 28.8269 59.7272 29.8449 59.3308 31.3106L45.7398 81.5602C45.169 83.6708 46.7332 85.756 48.9192 85.7985L72.513 86.2575C74.0748 86.2879 75.4517 85.2384 75.8363 83.7244L88.717 33.0158Z" fill="#111111"/>
<rect width="5.8802" height="0.45939" rx="0.229695" transform="matrix(-1 0 0 1 77.0781 25.5238)" fill="#111111" stroke="#111111" stroke-width="1.5"/>
<path d="M94.1128 25.4062C93.9698 24.5514 91.0533 22.0006 91.0533 22.0006L92.9953 26.0245L79.0699 86.8891L77.6904 90.4161L73.5845 93.1534C73.0628 94.0996 77.9177 93.7533 79.6261 91.3331C81.3346 88.9128 94.2559 26.261 94.1128 25.4062Z" fill="#111111"/>
<path d="M66.028 83.4607C73.7633 74.2655 79.6091 70.3784 93.4458 66.277L103.345 76.8597C89.6561 79.2046 83.7643 82.7911 77.0252 93.0026L66.028 83.4607Z" fill="#1FC16B" stroke="#111111" stroke-width="1.5"/>
<ellipse cx="84.833" cy="76.0564" rx="5.17735" ry="2.47299" transform="rotate(-20.4159 84.833 76.0564)" fill="#111111"/>
<path d="M104.801 51.5032C100.774 51.8163 99.0878 53.0194 97.6129 57.9553C97.6053 52.7218 95.9186 51.4042 91.1608 50.7674C96.6779 50.072 97.804 48.36 98.3487 44.3153C99.0408 49.3198 100.76 50.4931 104.801 51.5032Z" fill="#F6B51E"/>
<path d="M43.0569 66.8417C40.9629 67.0045 40.0862 67.6301 39.3193 70.1967C39.3153 67.4753 38.4383 66.7902 35.9643 66.4591C38.8331 66.0975 39.4187 65.2073 39.7019 63.1041C40.0618 65.7063 40.9559 66.3164 43.0569 66.8417Z" fill="#F6B51E"/>
<path d="M53.606 27.9851C52.1814 28.0959 51.585 28.5215 51.0632 30.2675C51.0606 28.4162 50.4639 27.9501 48.7808 27.7248C50.7325 27.4788 51.1309 26.8732 51.3235 25.4424C51.5684 27.2127 52.1767 27.6278 53.606 27.9851Z" fill="#F6B51E"/>
</svg>
