<svg width="92" height="92" viewBox="0 0 92 92" fill="none" xmlns="http://www.w3.org/2000/svg">
<path d="M63.5801 34.313C58.6877 27.8871 52.5344 25.2415 40.7334 20.7742L5.19403 41.5054C6.81518 42.2028 8.36776 42.8537 9.84799 43.4733C9.93635 43.5103 10.0244 43.5472 10.1123 43.5839C18.8449 47.239 25.0215 49.8242 27.8499 54.5116L28.0407 54.6211L63.5801 34.313Z" fill="#01CBEA"/>
<path d="M28.0407 54.6211L50.8874 68.1599L86.4268 47.8517L63.5801 34.313L28.0407 54.6211Z" fill="#01CBEA"/>
<path d="M50.8874 68.1599L28.0407 54.6211L27.8499 54.5116V58.4289L50.8874 71.9677L86.4268 51.2364V47.8517L50.8874 68.1599Z" fill="#1FC16B"/>
<path d="M27.8499 58.4289V54.5116C25.0215 49.8242 18.8449 47.239 10.1123 43.5839L9.84799 43.4733L5.19403 46.1594C15.0268 48.8571 20.5916 50.2595 27.8499 58.4289Z" fill="#111111"/>
<path d="M28.0407 54.6211L50.8874 68.1599L86.4268 47.8517M28.0407 54.6211L27.8499 54.5116M28.0407 54.6211L63.5801 34.313M86.4268 47.8517L63.5801 34.313M86.4268 47.8517V51.2364L50.8874 71.9677L27.8499 58.4289M63.5801 34.313C58.6877 27.8871 52.5344 25.2415 40.7334 20.7742L5.19403 41.5054C6.81518 42.2028 8.36776 42.8537 9.84799 43.4733M27.8499 54.5116V58.4289M27.8499 54.5116C25.0215 49.8242 18.8449 47.239 10.1123 43.5839M27.8499 58.4289C20.5916 50.2595 15.0268 48.8571 5.19403 46.1594L9.84799 43.4733M9.84799 43.4733L10.1123 43.5839M9.84799 43.4733C9.93635 43.5103 10.0244 43.5472 10.1123 43.5839" stroke="#111111" stroke-width="1.2"/>
<path d="M38.6179 52.5056L48.772 46.5824L64.4262 55.0441L54.2722 61.3904L38.6179 52.5056Z" fill="#1FC16B"/>
<path d="M54.2722 47.0055L65.6955 39.813L78.3881 47.0055L66.5417 53.7749L54.2722 47.0055Z" fill="#F6B51E"/>
<path d="M34.3871 55.4672L36.5025 54.198L47.0797 60.1212L44.9642 61.8135L34.3871 55.4672Z" fill="#F6B51E"/>
<path d="M38.6179 52.5056L48.772 46.5824L64.4262 55.0441L54.2722 61.3904L38.6179 52.5056Z" stroke="#111111" stroke-width="1.2"/>
<path d="M54.2722 47.0055L65.6955 39.813L78.3881 47.0055L66.5417 53.7749L54.2722 47.0055Z" stroke="#111111" stroke-width="1.2"/>
<path d="M34.3871 55.4672L36.5025 54.198L47.0797 60.1212L44.9642 61.8135L34.3871 55.4672Z" stroke="#111111" stroke-width="1.2"/>
<path d="M67.2424 26.6809C67.2869 27.7822 67.5979 28.2541 68.9288 28.7063C67.5017 28.6553 67.1253 29.1019 66.9034 30.3927C66.7698 28.8813 66.3144 28.5569 65.217 28.3673C66.5886 28.2294 66.926 27.7724 67.2424 26.6809Z" fill="#F6B51E"/>
<path d="M81.6836 46.5825C81.7281 47.6838 82.039 48.1557 83.37 48.6079C81.9428 48.5569 81.5665 49.0035 81.3446 50.2944C81.2109 48.7829 80.7555 48.4585 79.6581 48.2689C81.0298 48.131 81.3671 47.674 81.6836 46.5825Z" fill="#F6B51E"/>
</svg>
