<svg width="124" height="124" viewBox="0 0 124 124" fill="none" xmlns="http://www.w3.org/2000/svg">
<path d="M85.6947 46.2479C79.1007 37.587 70.807 34.0211 54.9013 28L7.00049 55.9422C9.18551 56.8821 11.2781 57.7594 13.2732 58.5945C13.3923 58.6444 13.5111 58.694 13.6294 58.7436C25.3995 63.67 33.7245 67.1544 37.5366 73.4722L37.7939 73.6198L85.6947 46.2479Z" fill="#01CBEA"/>
<path d="M37.7939 73.6198L68.5873 91.8678L116.488 64.4959L85.6947 46.2479L37.7939 73.6198Z" fill="#01CBEA"/>
<path d="M68.5873 91.8678L37.7939 73.6198L37.5366 73.4722V78.7521L68.5873 97L116.488 69.0579V64.4959L68.5873 91.8678Z" fill="#1FC16B"/>
<path d="M37.5366 78.7521V73.4722C33.7245 67.1544 25.3995 63.67 13.6294 58.7436L13.2732 58.5945L7.00049 62.2149C20.2534 65.8509 27.7538 67.741 37.5366 78.7521Z" fill="#111111"/>
<path d="M37.7939 73.6198L68.5873 91.8678L116.488 64.4959M37.7939 73.6198L37.5366 73.4722M37.7939 73.6198L85.6947 46.2479M116.488 64.4959L85.6947 46.2479M116.488 64.4959V69.0579L68.5873 97L37.5366 78.7521M85.6947 46.2479C79.1007 37.587 70.807 34.0211 54.9013 28L7.00049 55.9421C9.18551 56.8821 11.2781 57.7594 13.2732 58.5945M37.5366 73.4722V78.7521M37.5366 73.4722C33.7245 67.1544 25.3995 63.67 13.6294 58.7436M37.5366 78.7521C27.7538 67.741 20.2534 65.8509 7.00049 62.2149L13.2732 58.5945M13.2732 58.5945L13.6294 58.7436M13.2732 58.5945C13.3923 58.6444 13.5111 58.694 13.6294 58.7436" stroke="#111111" stroke-width="1.5"/>
<path d="M52.0501 70.7686L65.7361 62.7851L86.8353 74.1901L73.1493 82.7438L52.0501 70.7686Z" fill="#1FC16B"/>
<path d="M73.1493 63.3553L88.546 53.6611L105.653 63.3553L89.6865 72.4793L73.1493 63.3553Z" fill="#F6B51E"/>
<path d="M46.3477 74.7603L49.1989 73.0496L63.4551 81.033L60.6039 83.314L46.3477 74.7603Z" fill="#F6B51E"/>
<path d="M52.0501 70.7686L65.7361 62.7851L86.8353 74.1901L73.1493 82.7438L52.0501 70.7686Z" stroke="#111111" stroke-width="1.5"/>
<path d="M73.1493 63.3553L88.546 53.6611L105.653 63.3553L89.6865 72.4793L73.1493 63.3553Z" stroke="#111111" stroke-width="1.5"/>
<path d="M46.3477 74.7603L49.1989 73.0496L63.4551 81.033L60.6039 83.314L46.3477 74.7603Z" stroke="#111111" stroke-width="1.5"/>
<path d="M90.6311 35.9612C90.6911 37.4455 91.1102 38.0815 92.9041 38.6911C90.9806 38.6223 90.4733 39.2242 90.1742 40.9641C89.9941 38.9269 89.3802 38.4897 87.9012 38.2342C89.7499 38.0482 90.2046 37.4323 90.6311 35.9612Z" fill="#F6B51E"/>
<path d="M110.095 62.7852C110.155 64.2695 110.574 64.9055 112.368 65.5151C110.445 65.4463 109.937 66.0482 109.638 67.7881C109.458 65.7509 108.844 65.3136 107.365 65.0582C109.214 64.8722 109.669 64.2563 110.095 62.7852Z" fill="#F6B51E"/>
</svg>
