<svg width="124" height="124" viewBox="0 0 124 124" fill="none" xmlns="http://www.w3.org/2000/svg">
<rect x="35.8584" y="12" width="51.8649" height="101" rx="8.18919" fill="#01CBEA" stroke="#111111" stroke-width="1.5" stroke-linejoin="bevel"/>
<rect x="52.2358" y="12" width="19.1081" height="4.09459" rx="1.36486" fill="#111111"/>
<path d="M34 39.3264C34 38.717 34.4941 38.2229 35.1035 38.2229V43.7404C34.4941 43.7404 34 43.2464 34 42.6369V39.3264Z" fill="#111111"/>
<path d="M89.9314 50.6234C89.9314 49.8696 89.3203 49.2585 88.5665 49.2585H87.7244V58.0866H88.5665C89.3203 58.0866 89.9314 57.4755 89.9314 56.7217V50.6234Z" fill="#111111"/>
<path d="M34 48.1562C34 47.5468 34.4941 47.0527 35.1035 47.0527V52.5703C34.4941 52.5703 34 52.0762 34 51.4668V48.1562Z" fill="#111111"/>
</svg>
