<svg width="124" height="124" viewBox="0 0 124 124" fill="none" xmlns="http://www.w3.org/2000/svg">
<ellipse cx="47.4325" cy="54.2133" rx="11.3825" ry="2.03987" fill="#111111"/>
<ellipse cx="82.2725" cy="59.2308" rx="11.3009" ry="3.0598" fill="#111111"/>
<ellipse cx="101.523" cy="72.3296" rx="15.0984" ry="2.03987" transform="rotate(-6.51815 101.523 72.3296)" fill="#111111"/>
<path d="M30.8652 71.7083C29.5444 66.3927 12.5212 61.8473 9.46234 58.6243C2.0962 50.863 12.588 40.9063 23.3585 40.0904L21.8239 45.8956C12.7512 48.2091 11.5871 54.344 16.9283 55.8093C42.1661 62.7329 49.8838 77.4517 20.804 86.2322L16.9283 79.4598C16.9283 79.4598 32.186 77.0239 30.8652 71.7083Z" fill="#1FC16B" stroke="#111111" stroke-width="1.5"/>
<path d="M21.3353 40.352L31.7795 38.1897V46.4308L21.6617 45.9004L21.3353 40.352Z" fill="#F6B51E" stroke="#111111" stroke-width="1.5"/>
<path d="M40.9569 29.2159C43.6426 28.5833 48.0148 29.5423 48.0148 29.5423L47.0765 54.7959C47.0765 54.7959 43.2488 54.7625 40.9569 54.0207C36.4444 52.5601 31.5735 46.31 31.5735 46.31V38.0281C31.5735 38.0281 36.0637 30.3685 40.9569 29.2159Z" fill="#01CBEA" stroke="#111111" stroke-width="1.5"/>
<path d="M96.8123 44.5834C106.262 44.0531 127.721 58.0874 111.687 68.7495C109.544 69.9621 106.903 70.8142 104.155 71.4726C98.6794 72.784 91.7362 73.5488 85.357 74.3976C78.7663 75.2746 72.7667 76.241 68.4795 77.8709C64.0352 79.5605 63.0835 81.2605 63.1426 82.8252C63.1827 83.8858 63.6931 85.0574 65.0945 85.9496C66.5623 86.8839 69.3014 87.6741 73.9284 87.0706L74.8571 94.1907C69.1624 94.9335 64.5671 94.1255 61.2387 92.0068C57.8439 89.8457 56.0963 86.5092 55.9674 83.0963C55.7205 76.5628 60.8986 73.0713 65.9278 71.1593C71.1141 69.1875 77.9318 68.1421 84.41 67.2801C91.0996 66.3899 97.4771 65.6885 102.482 64.4897C117.442 60.9063 105.72 51.5598 96.8123 50.0911V44.5834Z" fill="#01CBEA" stroke="#111111" stroke-width="1.5"/>
<ellipse cx="47.6098" cy="42.1906" rx="7.09874" ry="13.1367" fill="#01CBEA" stroke="#111111" stroke-width="1.5"/>
<path d="M98.7678 44.5977L88.3237 42.4354V50.6765L98.2222 50.2566L98.7678 44.5977Z" fill="#F6B51E" stroke="#111111" stroke-width="1.5"/>
<path d="M79.1482 33.4609C76.8122 33.2926 73.151 33.4609 73.151 33.4609L72.9317 58.5394C72.9317 58.5394 76.8296 58.7831 79.1482 58.2657C85.7829 56.7851 88.5316 50.555 88.5316 50.555V42.2731C88.5316 42.2731 85.2117 33.8978 79.1482 33.4609Z" fill="#1FC16B" stroke="#111111" stroke-width="1.5"/>
<rect x="45.5668" y="39.6575" width="3.99814" height="0.897542" fill="#111111" stroke="#111111" stroke-width="1.5"/>
<rect x="45.6514" y="44.1456" width="3.99814" height="0.897542" fill="#111111" stroke="#111111" stroke-width="1.5"/>
<rect x="68.4189" y="39.6575" width="4.73249" height="3.59017" fill="#111111"/>
<rect x="68.4189" y="48.8761" width="4.73249" height="3.59017" fill="#111111"/>
</svg>
