<svg width="92" height="92" viewBox="0 0 92 92" fill="none" xmlns="http://www.w3.org/2000/svg">
<path d="M3.00003 31.6539L47.6478 24L89.1065 34.843L47.6478 41.8591L3.00003 31.6539Z" fill="#1FC16B" stroke="#111111" stroke-width="1.2" stroke-linejoin="round"/>
<path d="M27.2374 33.5595L26.5996 53.34C41.6271 58.004 48.9928 57.8621 64.8691 54.6157V33.5595C64.2196 33.4777 63.582 33.3978 62.9557 33.32C48.4092 31.513 39.895 30.8342 27.2374 33.5595Z" fill="#01CBEA"/>
<path d="M27.2374 33.5595C39.895 30.8342 48.4092 31.513 62.9557 33.32L47.01 29.7405L27.2374 33.5595Z" fill="#111111"/>
<path d="M27.2374 33.5595L26.5996 53.34C41.6271 58.004 48.9928 57.8621 64.8691 54.6157V33.5595C64.2196 33.4777 63.582 33.3978 62.9557 33.32M27.2374 33.5595C39.895 30.8342 48.4092 31.513 62.9557 33.32M27.2374 33.5595L47.01 29.7405L62.9557 33.32" stroke="#111111" stroke-width="1.2" stroke-linejoin="round"/>
<path d="M68.0582 29.1025L69.9717 37.3943H71.8852L70.6095 29.7404L68.0582 29.1025Z" fill="#F6B51E" stroke="#111111" stroke-width="1.2" stroke-linejoin="round"/>
<circle cx="71.2474" cy="40.5834" r="3.18913" fill="#F6B51E" stroke="#111111" stroke-width="1.2" stroke-linejoin="round"/>
<path d="M76.35 46.3239C74.66 48.3349 84.4578 64.5544 84.0039 65.4587C83.5499 66.3629 69.9717 48.0852 69.9717 46.3239C69.9717 44.5626 71.3995 43.1348 73.1609 43.1348C74.9222 43.1348 76.35 44.5626 76.35 46.3239Z" fill="#111111"/>
<path d="M76.35 46.3239C74.66 48.3349 84.4578 64.5544 84.0039 65.4587C83.5499 66.3629 69.9717 48.0852 69.9717 46.3239C69.9717 44.5626 71.3995 43.1348 73.1609 43.1348C74.9222 43.1348 76.35 44.5626 76.35 46.3239Z" fill="#111111"/>
<path d="M76.0163 47.4371C73.8052 48.8552 78.3415 67.2534 77.6393 67.9819C76.9372 68.7104 69.4028 47.2238 69.9261 45.5421C70.4494 43.8603 72.237 42.9212 73.9188 43.4445C75.6005 43.9678 76.5396 45.7554 76.0163 47.4371Z" fill="#111111"/>
<path d="M76.0163 47.4371C73.8052 48.8552 78.3415 67.2534 77.6393 67.9819C76.9372 68.7104 69.4028 47.2238 69.9261 45.5421C70.4494 43.8603 72.237 42.9212 73.9188 43.4445C75.6005 43.9678 76.5396 45.7554 76.0163 47.4371Z" fill="#111111"/>
<path d="M76.9878 46.9617C77.6256 48.8752 89.7697 61.5072 89.757 62.8451C89.7443 64.183 71.8418 49.5115 71.4034 47.8056C70.965 46.0997 71.9924 44.3614 73.6983 43.923C75.4042 43.4846 76.5494 45.2559 76.9878 46.9617Z" fill="#111111"/>
<path d="M76.9878 46.9617C77.6256 48.8752 89.7697 61.5072 89.757 62.8451C89.7443 64.183 71.8418 49.5115 71.4034 47.8056C70.965 46.0997 71.9924 44.3614 73.6983 43.923C75.4042 43.4846 76.5494 45.2559 76.9878 46.9617Z" fill="#111111"/>
<ellipse cx="46.3546" cy="77.0146" rx="21.3546" ry="2.01459" fill="#111111"/>
</svg>
