<svg width="92" height="92" viewBox="0 0 92 92" fill="none" xmlns="http://www.w3.org/2000/svg">
<path d="M15.4994 61.4223C9.42188 55.0619 23.3445 51.1819 30.0288 50.8286L47.8034 67.5265C49.5528 69.17 48.1919 72.0079 45.8276 71.5933C35.559 69.7929 20.1488 66.288 15.4994 61.4223Z" fill="#111111"/>
<path d="M51.4173 24.4126C57.3006 18.5295 66.839 18.5294 72.7221 24.4126C78.6053 30.2957 78.6052 39.8341 72.7221 45.7174L67.7522 50.6866C67.752 50.6868 67.752 50.6871 67.7522 50.6873C67.7524 50.6875 67.7527 50.6875 67.7525 50.6877C67.7451 50.6949 56.1847 61.9353 47.8794 70.1972C46.9102 71.1614 45.3467 71.1625 44.3813 70.1946C34.1808 59.9674 20.1726 45.7174 20.1726 45.7174C14.2896 39.8341 14.2895 30.2957 20.1726 24.4126C26.0558 18.5294 35.5942 18.5295 41.4774 24.4126L45.8636 28.7988C46.1858 29.121 46.7082 29.121 47.0305 28.7988L51.4173 24.4126Z" fill="#1FC16B" stroke="#111111" stroke-width="1.41445"/>
<path d="M43.6848 33.8623H49.9689V55.8569H43.6848V33.8623Z" fill="#111111"/>
<path d="M35.8295 48.0017V41.7175H57.8242V48.0017H35.8295Z" fill="#111111"/>
</svg>
