<svg width="92" height="92" viewBox="0 0 92 92" fill="none" xmlns="http://www.w3.org/2000/svg">
<path fill-rule="evenodd" clip-rule="evenodd" d="M22.8401 21.7096V30.2258H24.6143H33.8401H45.5498H55.8401V42.2903H45.5498H33.8401H24.6143H22.8401V61.4516V70.6774H38.0982V50.4516H50.8724V70.6774H65.4208V21.7096H22.8401ZM27.8079 64.6451V50.4516H33.1304V64.6451H27.8079ZM61.1627 50.4516H55.8401V64.6451H61.1627V50.4516Z" fill="#01CBEA"/>
<path d="M19.2917 70.6774H22.8401V61.4516C20.3219 60.9658 19.4992 61.9496 18.5821 64.9999C15.7792 65.1416 15.005 65.9772 14.6788 68.5483C11.6637 69.9695 11.0939 71.3081 11.1304 74.2257H19.2917V70.6774Z" fill="#1A7544"/>
<path d="M69.6788 61.4516V74.9354H80.6788C80.7412 71.8433 80.1204 70.5889 77.4853 69.6128C77.192 66.783 76.3941 65.9511 73.9369 65.7096C73.1527 62.7597 72.1817 61.8822 69.6788 61.4516Z" fill="#1A7544"/>
<path d="M19.2917 17.8064V21.7096H22.8401H65.4208V70.6774H50.8724H38.0982H22.8401H19.2917V74.2257L69.6788 74.9354V61.4516V17.8064H19.2917Z" fill="#1FC16B"/>
<path d="M38.0982 50.4516V70.6774H50.8724V50.4516H38.0982Z" fill="#F6B51E"/>
<path d="M22.8401 21.7096H19.2917V17.8064H69.6788V61.4516M22.8401 21.7096V30.2258H24.6143M22.8401 21.7096H65.4208V70.6774H50.8724M24.6143 30.2258V42.2903M24.6143 30.2258H33.8401M24.6143 42.2903H22.8401V61.4516M24.6143 42.2903H33.8401M22.8401 70.6774H19.2917V74.2257M22.8401 70.6774H38.0982M22.8401 70.6774V61.4516M19.2917 74.2257L69.6788 74.9354M19.2917 74.2257H11.1304C11.0939 71.3081 11.6637 69.9695 14.6788 68.5483C15.005 65.9772 15.7792 65.1416 18.5821 64.9999C19.4992 61.9496 20.3219 60.9658 22.8401 61.4516M69.6788 74.9354V61.4516M69.6788 74.9354H80.6788C80.7412 71.8433 80.1204 70.5889 77.4853 69.6128C77.192 66.783 76.3941 65.9511 73.9369 65.7096C73.1527 62.7597 72.1817 61.8822 69.6788 61.4516M33.8401 30.2258V42.2903M33.8401 30.2258H45.5498M33.8401 42.2903H45.5498M45.5498 30.2258H55.8401V42.2903H45.5498M45.5498 30.2258V42.2903M38.0982 70.6774V50.4516H50.8724V70.6774M38.0982 70.6774H50.8724M27.8079 50.4516V64.6451H33.1304V50.4516H27.8079ZM55.8401 50.4516H61.1627V64.6451H55.8401V50.4516Z" stroke="#111111" stroke-width="1.2"/>
</svg>
