<svg width="124" height="124" viewBox="0 0 124 124" fill="none" xmlns="http://www.w3.org/2000/svg">
<path d="M18.359 88.8417L31.7158 65.1212C32.5122 63.7069 34.3434 63.2685 35.6939 64.1689L37.2333 65.1952C38.0662 65.7505 39.1328 65.8169 40.0282 65.3692L42.8129 63.9768C43.9103 63.4281 45.2373 63.6608 46.0825 64.5501L58.3042 77.4099C59.484 78.6512 61.4933 78.5463 62.5374 77.1889L72.8912 63.7287C73.738 62.6277 75.2657 62.3175 76.4749 63.001L79.3239 64.6113C80.19 65.1009 81.2514 65.0921 82.1093 64.5883L87.0197 61.7043C88.3494 60.9234 90.0604 61.3694 90.8396 62.7001L105.772 88.1999C106.627 89.6612 105.994 91.5417 104.429 92.1879L93.3924 96.7444C92.7118 97.0254 91.9493 97.0264 91.2682 96.7467C85.307 94.2989 75.0939 90.136 74.7818 90.136C74.4858 90.136 67.3416 95.2007 62.6661 98.5486C61.7232 99.2238 60.4633 99.2461 59.4969 98.6049L48.078 91.0287C47.2457 90.4765 46.185 90.4099 45.2912 90.8559C39.0032 93.9939 28.6622 99.1175 28.3554 99.1175C28.0764 99.1175 22.8879 95.2707 19.1089 92.4315C17.993 91.5931 17.6741 90.0579 18.359 88.8417Z" fill="#1FC16B" stroke="#111111" stroke-width="1.5"/>
<path d="M26.8396 97.4631L30.2939 68.7222L18.8247 89.1124C18.2727 90.0938 18.5383 91.3328 19.4441 92.0017L26.8396 97.4631Z" fill="#1A7544"/>
<path d="M59.4488 24.9181C69.0639 24.9183 76.858 32.7085 76.858 42.3175C76.8576 53.4569 65.4081 64.1661 61.0795 67.8167C60.13 68.6175 58.769 68.6187 57.8194 67.818C53.4919 64.1687 42.039 53.4583 42.0386 42.3175C42.0386 32.7084 49.8336 24.9181 59.4488 24.9181ZM59.3121 32.9327C54.1994 32.9329 50.0552 37.0777 50.0552 42.1906C50.0553 47.3033 54.1995 51.4482 59.3121 51.4484C64.4249 51.4484 68.5698 47.3035 68.5699 42.1906C68.5699 37.0776 64.4249 32.9327 59.3121 32.9327Z" fill="#01CBEA"/>
<path d="M59.4488 24.9181L59.4488 24.1681H59.4488V24.9181ZM76.858 42.3175L77.608 42.3175V42.3175H76.858ZM42.0386 42.3175H41.2886V42.3175L42.0386 42.3175ZM59.3121 32.9327V32.1827H59.312L59.3121 32.9327ZM50.0552 42.1906H49.3052V42.1906L50.0552 42.1906ZM59.3121 51.4484L59.312 52.1984H59.3121V51.4484ZM68.5699 42.1906L69.3199 42.1906V42.1906H68.5699ZM57.8194 67.818L57.3359 68.3913L57.8194 67.818ZM59.4488 24.9181L59.4488 25.6681C68.65 25.6683 76.108 33.1231 76.108 42.3175H76.858H77.608C77.608 32.2939 69.4777 24.1683 59.4488 24.1681L59.4488 24.9181ZM76.858 42.3175L76.108 42.3175C76.1078 47.6447 73.3607 52.9454 69.9924 57.4246C66.6363 61.8876 62.7387 65.4363 60.596 67.2434L61.0795 67.8167L61.5631 68.39C63.7489 66.5465 67.7403 62.9153 71.1913 58.3261C74.63 53.7532 77.6078 48.1297 77.608 42.3175L76.858 42.3175ZM57.8194 67.818L58.3029 67.2446C56.1608 65.4382 52.2625 61.8895 48.9057 57.4262C45.5368 52.9467 42.7888 47.6453 42.7886 42.3175L42.0386 42.3175L41.2886 42.3175C41.2888 48.1305 44.2675 53.7546 47.7069 58.3278C51.1586 62.9173 55.1506 66.5485 57.3359 68.3913L57.8194 67.818ZM42.0386 42.3175H42.7886C42.7886 33.123 50.2474 25.6681 59.4488 25.6681V24.9181V24.1681C49.4198 24.1681 41.2886 32.2937 41.2886 42.3175H42.0386ZM59.3121 32.9327L59.312 32.1827C53.7851 32.183 49.3052 36.6635 49.3052 42.1906H50.0552H50.8052C50.8052 37.4918 54.6137 33.6829 59.3121 33.6827L59.3121 32.9327ZM50.0552 42.1906L49.3052 42.1906C49.3053 47.7175 53.7852 52.1981 59.312 52.1984L59.3121 51.4484L59.3121 50.6984C54.6137 50.6982 50.8053 46.8892 50.8052 42.1905L50.0552 42.1906ZM59.3121 51.4484V52.1984C64.8391 52.1984 69.3198 47.7177 69.3199 42.1906L68.5699 42.1906L67.8199 42.1905C67.8198 46.8892 64.0107 50.6984 59.3121 50.6984V51.4484ZM68.5699 42.1906H69.3199C69.3199 36.6633 64.8391 32.1827 59.3121 32.1827V32.9327V33.6827C64.0107 33.6827 67.8199 37.4918 67.8199 42.1906H68.5699ZM61.0795 67.8167L60.596 67.2434C59.9253 67.8091 58.9727 67.8094 58.3029 67.2446L57.8194 67.818L57.3359 68.3913C58.5653 69.428 60.3347 69.426 61.5631 68.39L61.0795 67.8167Z" fill="#111111"/>
</svg>
