<svg width="124" height="124" viewBox="0 0 124 124" fill="none" xmlns="http://www.w3.org/2000/svg">
<path d="M95.1908 52.4141C95.1908 42.3343 87.0195 34.1631 76.9397 34.1631H50.4757C40.3959 34.1631 32.2247 42.3344 32.2247 52.4141V68.0188H95.1908V52.4141Z" fill="#01CBEA" stroke="#111111" stroke-width="1.5"/>
<path d="M94.5536 49.3968C94.5536 41.2826 87.9757 34.7047 79.8615 34.7047C71.7473 34.7047 65.1694 41.2826 65.1694 49.3968V68.0129H94.5536V49.3968Z" fill="#111111"/>
<rect width="11.0419" height="37.0496" transform="matrix(-1 0 0 1 67.9793 68.0127)" fill="#1FC16B" stroke="#111111" stroke-width="1.5"/>
<path d="M99.5287 75.8583C96.3805 69.2423 95.1485 67.9191 95.1485 67.9191L66.9048 68.2841C66.9048 68.2841 70.7833 73.3031 78.5855 78.8241C86.3876 84.345 102.677 82.4743 99.5287 75.8583Z" fill="#F6B51E" stroke="#111111" stroke-width="1.5"/>
<rect width="82.8597" height="3.4677" transform="matrix(-1 0 0 1 103.86 102.876)" fill="#111111"/>
<rect width="1.73385" height="25.0039" transform="matrix(-1 0 0 1 53.3969 17.0004)" fill="#111111"/>
<path d="M39.0714 23.5251L51.6646 30.0499V17.0004L39.0714 23.5251Z" fill="#111111"/>
<path d="M57.1438 77.414L66.9081 68.5623H57.1438V77.414Z" fill="#111111"/>
<mask id="mask0_176978_3068" style="mask-type:alpha" maskUnits="userSpaceOnUse" x="65" y="34" width="46" height="35">
<path d="M110.605 52.9561C110.605 42.8763 102.433 34.7051 92.3535 34.7051H85.1763C75.5952 34.7051 67.6452 42.1137 66.9705 51.671L65.8049 68.183L110.605 68.0132V52.9561Z" fill="#111111"/>
</mask>
<g mask="url(#mask0_176978_3068)">
<path d="M64.0793 64.7582C64.1342 59.4322 64.1888 51.8505 64.1453 47.8599C64.1304 46.4882 65.3345 45.217 66.7062 45.217H95.3703C96.5714 45.217 97.545 46.1907 97.545 47.3917V64.9907C97.545 66.1978 96.5618 67.174 95.3548 67.1653L66.2398 66.9566C65.0349 66.948 64.0669 65.963 64.0793 64.7582Z" fill="#1FC16B"/>
<path d="M64.7594 46.1956L79.4548 60.2992C79.9133 60.7393 80.5166 60.9395 81.1069 60.9C81.5997 60.8669 82.0835 60.6667 82.4664 60.2992L88.6426 54.3717M88.6426 54.3717L97.1617 46.1956M88.6426 54.3717L88.6279 54.351M88.6426 54.3717L97.109 66.2572M73.1341 54.351L64.6529 66.2572M64.1453 47.8599C64.1888 51.8505 64.1342 59.4322 64.0793 64.7582C64.0669 65.963 65.0349 66.948 66.2398 66.9566L95.3548 67.1653C96.5618 67.174 97.545 66.1978 97.545 64.9907V47.3917C97.545 46.1907 96.5714 45.217 95.3703 45.217H66.7062C65.3345 45.217 64.1304 46.4882 64.1453 47.8599Z" stroke="#111111" stroke-width="1.5"/>
</g>
</svg>
