<svg width="124" height="124" viewBox="0 0 124 124" fill="none" xmlns="http://www.w3.org/2000/svg">
<path d="M22.5232 71.8671C24.6676 60.7731 27.671 44.9716 29.1012 36.6268C29.5928 33.7587 32.5902 31.5647 35.4529 32.0875L95.2726 43.0118C97.7791 43.4695 99.4399 45.8725 98.9821 48.3789L92.2749 85.1067C91.8148 87.6258 89.3911 89.2883 86.8753 88.8102L26.1941 77.2785C23.6831 76.8013 22.0382 74.3767 22.5232 71.8671Z" fill="#1FC16B" stroke="#111111" stroke-width="1.5"/>
<path d="M94.7271 55.1677C91.0494 54.7218 86.2637 54.1484 83.075 53.7714C81.3966 53.573 80.0177 55.0359 80.2957 56.7029C82.2804 68.6026 85.5593 89.8241 85.5593 90.2889C85.5593 90.7858 90.9273 88.2421 91.9703 86.0817C92.0332 85.9512 92.0673 85.8096 92.0924 85.667L96.9259 58.1365C97.1784 56.6988 96.1763 55.3434 94.7271 55.1677Z" fill="#111111"/>
<path d="M31.0223 33.3886L56.3152 68.4223C57.7635 70.4283 60.5363 70.9347 62.6001 69.5701L98.6433 45.7376" stroke="#111111" stroke-width="1.5"/>
<path d="M45.3863 53.5962L23.1492 75.2112" stroke="#111111" stroke-width="1.5"/>
<path d="M77.724 59.5054L90.8858 87.585" stroke="#111111" stroke-width="1.5"/>
<path d="M18.6024 87.7566C18.7188 76.4578 18.8346 60.3739 18.7424 51.9079C18.7108 48.9981 21.2652 46.3013 24.1752 46.3013H84.9843C87.5322 46.3013 89.5977 48.3668 89.5977 50.9147V88.2499C89.5977 90.8107 87.512 92.8815 84.9512 92.8632L23.1856 92.4204C20.6297 92.4021 18.576 90.3124 18.6024 87.7566Z" fill="#01CBEA" stroke="#111111" stroke-width="1.5"/>
<path d="M20.048 48.3765L51.2233 78.2964C53.0083 80.0096 55.8271 80.0096 57.6122 78.2964L88.7874 48.3765" stroke="#111111" stroke-width="1.5"/>
<path d="M37.8137 65.679L19.8215 90.9373" stroke="#111111" stroke-width="1.5"/>
<path d="M70.6811 65.679L88.6732 90.9373" stroke="#111111" stroke-width="1.5"/>
<circle cx="93.3725" cy="48.2284" r="12.6868" fill="#F6B51E" stroke="#111111" stroke-width="1.5"/>
<path d="M87.6489 49.2282L91.4725 52.7685C91.7408 53.0169 92.1625 52.9892 92.396 52.7079L99.7115 43.8927" stroke="#111111" stroke-width="1.5"/>
</svg>
