<svg width="124" height="124" viewBox="0 0 124 124" fill="none" xmlns="http://www.w3.org/2000/svg">
<path d="M77.9243 25.6694H44.088L44.2182 98.3306H98.0525V46.1881L77.9243 25.6694Z" fill="#01CBEA" stroke="#111111" stroke-width="1.5"/>
<path d="M77.6663 47.0129L78.2448 26.5879L97.121 46.5017L77.6663 47.0129Z" fill="#1FC16B" stroke="#111111" stroke-width="1.5"/>
<path d="M97.5767 46.1505L83.8708 46.9858L97.5767 55.3904V46.1505Z" fill="#111111" stroke="#111111" stroke-width="1.5"/>
<line x1="47.438" y1="54.5516" x2="56.9815" y2="72.077" stroke="#111111" stroke-width="1.5"/>
<line x1="44.7575" y1="55.2697" x2="49.269" y2="64.2059" stroke="#111111" stroke-width="1.5"/>
<line x1="47.4488" y1="76.6957" x2="51.9603" y2="85.6319" stroke="#111111" stroke-width="1.5"/>
<path d="M35.606 55.512L29.2864 60.989L41.9256 75.7347L29.0638 90.5606L36.0273 95.9574L46.0237 84.5822L48.2452 82.0543L61.727 95.9574L67.6253 89.6378L54.5648 75.7347L67.6253 60.5677L60.8844 54.6694L48.2452 68.9938L35.606 55.512Z" fill="#F6B51E"/>
<path d="M61.727 95.9574L48.2452 82.0543L46.0237 84.5822L58.7778 97.6427L61.727 95.9574Z" fill="#1FC16B"/>
<path d="M36.0273 95.9574L29.0638 90.5606L41.9256 75.7347L29.2864 60.989L27.6012 63.9382L38.5551 76.5774L25.9478 91.3396L33.9208 98.064L36.0273 95.9574Z" fill="#111111"/>
<path d="M29.2864 60.989L35.606 55.512L48.2452 68.9938L60.8844 54.6694L67.6253 60.5677L54.5648 75.7347L67.6253 89.6378L61.727 95.9574M29.2864 60.989L41.9256 75.7347L29.0638 90.5606L36.0273 95.9574M29.2864 60.989L27.6012 63.9382L38.5551 76.5774L25.9478 91.3396L33.9208 98.064L36.0273 95.9574M61.727 95.9574L48.2452 82.0543L46.0237 84.5822M61.727 95.9574L58.7778 97.6427L46.0237 84.5822M36.0273 95.9574L46.0237 84.5822" stroke="black" stroke-width="1.5" stroke-linejoin="round"/>
</svg>
