<svg width="124" height="124" viewBox="0 0 124 124" fill="none" xmlns="http://www.w3.org/2000/svg">
<path fill-rule="evenodd" clip-rule="evenodd" d="M61.3542 56.1682C61.1546 56.1784 60.9539 56.185 60.7523 56.1878L61.3542 56.1682Z" fill="#111111"/>
<path d="M44.8166 40.921C44.9586 49.473 52.0933 56.3082 60.7523 56.1878L61.3542 56.1682C69.729 55.7391 76.3123 48.8378 76.1735 40.4849C76.0314 31.9329 68.8968 25.0977 60.2378 25.2181C51.5788 25.3385 44.6745 32.369 44.8166 40.921Z" fill="#F6B51E"/>
<path d="M60.7523 56.1878C52.0933 56.3082 44.9586 49.473 44.8166 40.921C44.6745 32.369 51.5788 25.3385 60.2378 25.2181C68.8968 25.0977 76.0314 31.9329 76.1735 40.4849C76.3123 48.8378 69.729 55.7391 61.3542 56.1682M60.7523 56.1878L61.3542 56.1682M60.7523 56.1878C60.9539 56.185 61.1546 56.1784 61.3542 56.1682" stroke="#111111" stroke-width="1.5"/>
<path fill-rule="evenodd" clip-rule="evenodd" d="M59.562 63.3953C42.4329 63.6335 29.2356 78.0008 29.5166 94.9183C29.5347 96.008 29.6102 97.0837 29.7402 98.1424L91.3414 98.1424C91.4993 96.8043 91.5697 95.4401 91.5467 94.0558C91.2656 77.1382 76.6911 63.1571 59.562 63.3953Z" fill="#01CBEA"/>
<path fill-rule="evenodd" clip-rule="evenodd" d="M59.562 63.3953C42.4329 63.6335 29.2356 78.0008 29.5166 94.9183C29.5347 96.008 29.6102 97.0837 29.7402 98.1424L91.3414 98.1424C91.4993 96.8043 91.5697 95.4401 91.5467 94.0558C91.2656 77.1382 76.6911 63.1571 59.562 63.3953Z" stroke="#111111" stroke-width="1.5"/>
<path fill-rule="evenodd" clip-rule="evenodd" d="M63.452 78.2896C63.8063 78.5426 73.2187 87.6781 77.4998 91.9999L97 64.5866L90.4302 59.3517L75.7418 79.3437L72.531 75.7598L69.3201 72.1759L63.452 78.2896Z" fill="#01CBEA"/>
<path d="M77.4998 91.9999C73.2187 87.6781 63.8063 78.5426 63.452 78.2896L57.4998 77.9999L72.531 92.4999L77.4998 91.9999Z" fill="#111111"/>
<path d="M63.452 78.2896L69.3201 72.1759H63.7084L57.4998 77.9999L63.452 78.2896Z" fill="#F6B51E"/>
<path d="M75.7418 79.3437L90.4302 59.3517L85.4998 58.9999L72.531 75.7598L75.7418 79.3437Z" fill="#1FC16B"/>
<path d="M63.452 78.2896C63.8063 78.5426 73.2187 87.6781 77.4998 91.9999M63.452 78.2896L69.3201 72.1759M63.452 78.2896L57.4998 77.9999M77.4998 91.9999L97 64.5866L90.4302 59.3517M77.4998 91.9999L72.531 92.4999L57.4998 77.9999M90.4302 59.3517L75.7418 79.3437L72.531 75.7598M90.4302 59.3517L85.4998 58.9999L72.531 75.7598M69.3201 72.1759H63.7084L57.4998 77.9999M69.3201 72.1759L72.531 75.7598" stroke="#111111" stroke-width="1.5"/>
</svg>
