<svg width="124" height="124" viewBox="0 0 124 124" fill="none" xmlns="http://www.w3.org/2000/svg">
<path fill-rule="evenodd" clip-rule="evenodd" d="M79.118 42.8684C79.0038 42.9349 78.8873 42.9984 78.7685 43.0588L79.118 42.8684Z" fill="#111111"/>
<path d="M62.3827 33.6822C66.3318 41.4529 73.668 45.6509 78.7685 43.0588L79.118 42.8684C83.9098 40.0758 84.7103 31.885 80.8531 24.2952C76.904 16.5245 69.5678 12.3265 64.4673 14.9186C59.3668 17.5107 58.4335 25.9114 62.3827 33.6822Z" fill="#01CBEA"/>
<path d="M64.4673 14.9186C69.5678 12.3265 76.904 16.5245 80.8531 24.2952C84.7103 31.885 83.9098 40.0758 79.118 42.8684L87.0629 38.5393C94.8325 30.1223 83.1781 10.0509 72.1724 10.6993L64.4673 14.9186Z" fill="#1FC16B"/>
<path d="M78.7685 43.0588C73.668 45.6509 66.3318 41.4529 62.3827 33.6822C58.4335 25.9114 59.3668 17.5107 64.4673 14.9186M78.7685 43.0588L79.118 42.8684M78.7685 43.0588C78.8873 42.9984 79.0038 42.9349 79.118 42.8684M64.4673 14.9186C69.5678 12.3265 76.904 16.5245 80.8531 24.2952C84.7103 31.885 83.9098 40.0758 79.118 42.8684M64.4673 14.9186L72.1724 10.6993C83.1781 10.0509 94.8325 30.1223 87.0629 38.5393L79.118 42.8684" stroke="#111111" stroke-width="1.72999"/>
<path fill-rule="evenodd" clip-rule="evenodd" d="M88.0847 95.5168C81.5467 90.8382 72.7451 86.1596 61.8231 80.8123C59.1419 79.4997 56.3329 78.1467 53.3983 76.7436C46.2792 62.7354 51.7428 52.5875 58.1872 49.3124C59.5693 48.61 61.3296 48.4391 63.3125 48.7423C70.5756 49.8528 80.8258 57.323 86.4181 68.327C88.7859 72.9859 89.7114 77.8368 89.9948 82.1072C90.2625 86.1407 89.9574 89.6563 89.7537 92.0031C89.582 93.9811 89.4824 95.1288 89.8586 95.0565C89.8586 95.0565 90.2639 95.0565 89.2338 95.2845C89.0562 95.3238 97.0312 93.3742 96.7588 93.4282C96.6143 93.4569 88.26 95.4835 88.0847 95.5168Z" fill="#01CBEA"/>
<path fill-rule="evenodd" clip-rule="evenodd" d="M76.9093 47.3412L63.3125 48.7423C70.5756 49.8528 80.8258 57.323 86.4181 68.327C88.7859 72.9859 89.7114 77.8368 89.9948 82.1072C90.2625 86.1407 89.9574 89.6563 89.7537 92.0031C89.582 93.9811 89.4824 95.1288 89.8586 95.0565C89.8586 95.0565 90.2639 95.0565 89.2338 95.2845C89.2251 95.2913 89.2168 95.2983 89.2091 95.3054L96.7588 93.4282C101.642 76.4491 91.0415 54.4966 76.9093 47.3412Z" fill="#1FC16B"/>
<path d="M58.1872 49.3124C59.5693 48.61 61.3296 48.4391 63.3125 48.7423L76.9093 47.3412C69.4435 43.5611 64.9684 45.7408 58.1872 49.3124Z" fill="#111111"/>
<path d="M58.1872 49.3124C51.7428 52.5875 46.2792 62.7354 53.3983 76.7436C56.3329 78.1467 59.1419 79.4997 61.8231 80.8123C72.7451 86.1596 81.5467 90.8382 88.0847 95.5168C88.26 95.4835 96.6143 93.4569 96.7588 93.4282M58.1872 49.3124C59.5693 48.61 61.3296 48.4391 63.3125 48.7423M58.1872 49.3124C64.9684 45.7408 69.4435 43.5611 76.9093 47.3412M96.7588 93.4282L89.2091 95.3054C89.2168 95.2983 89.2251 95.2913 89.2338 95.2845M96.7588 93.4282C101.642 76.4491 91.0415 54.4966 76.9093 47.3412M96.7588 93.4282C97.0312 93.3742 89.0562 95.3238 89.2338 95.2845M89.8586 95.0565C89.8586 95.0565 90.2639 95.0565 89.2338 95.2845M89.8586 95.0565C89.8586 95.0565 89.4267 95.1341 89.2338 95.2845M89.8586 95.0565C89.4824 95.1288 89.582 93.9811 89.7537 92.0031C89.9574 89.6563 90.2625 86.1407 89.9948 82.1073C89.7114 77.8368 88.7859 72.9859 86.4181 68.327C80.8258 57.323 70.5756 49.8528 63.3125 48.7423M63.3125 48.7423L76.9093 47.3412" stroke="#111111" stroke-width="1.72999"/>
<path fill-rule="evenodd" clip-rule="evenodd" d="M47.024 67.4301C46.9346 67.4821 46.8435 67.5318 46.7506 67.579L47.024 67.4301Z" fill="#111111"/>
<path d="M33.934 60.2448C37.023 66.3229 42.7611 69.6065 46.7506 67.579L47.024 67.4301C50.772 65.2458 51.3981 58.8392 48.3811 52.9026C45.2922 46.8246 39.554 43.541 35.5645 45.5685C31.5751 47.5959 30.8451 54.1668 33.934 60.2448Z" fill="#F6B51E"/>
<path d="M35.5645 45.5685C39.554 43.541 45.2922 46.8246 48.3811 52.9026C51.3981 58.8392 50.772 65.2458 47.024 67.4301L53.2382 64.044C59.3154 57.4604 50.1997 41.7611 41.5913 42.2682L35.5645 45.5685Z" fill="#1FC16B"/>
<path d="M46.7506 67.579C42.7611 69.6065 37.023 66.3229 33.934 60.2448C30.8451 54.1668 31.5751 47.5959 35.5645 45.5685M46.7506 67.579L47.024 67.4301M46.7506 67.579C46.8435 67.5318 46.9346 67.4821 47.024 67.4301M35.5645 45.5685C39.554 43.541 45.2922 46.8246 48.3811 52.9026C51.3981 58.8392 50.772 65.2458 47.024 67.4301M35.5645 45.5685L41.5913 42.2682C50.1997 41.7611 59.3154 57.4604 53.2382 64.044L47.024 67.4301" stroke="#111111" stroke-width="1.72999"/>
<path fill-rule="evenodd" clip-rule="evenodd" d="M54.0359 108.611C48.9221 104.951 42.0377 101.291 33.4947 97.109C31.3976 96.0823 29.2005 95.024 26.9051 93.9265C21.3367 82.9697 25.6102 75.0323 30.6508 72.4705C31.7319 71.9212 33.1087 71.7875 34.6597 72.0247C40.3408 72.8933 48.3582 78.7363 52.7324 87.3433C54.5844 90.9874 55.3082 94.7817 55.5299 98.1219C55.7393 101.277 55.5007 104.027 55.3414 105.862C55.2071 107.409 55.1292 108.307 55.4234 108.25C55.4234 108.25 55.7404 108.25 54.9347 108.429C54.7958 108.46 61.0336 106.935 60.8206 106.977C60.8206 106.977 54.173 108.584 54.0359 108.611Z" fill="#F6B51E"/>
<path fill-rule="evenodd" clip-rule="evenodd" d="M45.2948 70.9287L34.6597 72.0247C40.3408 72.8933 48.3582 78.7363 52.7324 87.3433C54.5844 90.9874 55.3082 94.7817 55.5299 98.1219C55.7393 101.277 55.5007 104.027 55.3414 105.862C55.2071 107.409 55.1292 108.307 55.4234 108.25C55.4234 108.25 55.7404 108.25 54.9347 108.429C54.9279 108.434 54.9214 108.44 54.9154 108.445L60.8206 106.977C64.6401 93.6962 56.3486 76.5255 45.2948 70.9287Z" fill="#1FC16B"/>
<path d="M30.6508 72.4705C31.7319 71.9212 33.1087 71.7875 34.6597 72.0247L45.2948 70.9287C39.4552 67.9721 35.955 69.677 30.6508 72.4705Z" fill="#111111"/>
<path d="M30.6508 72.4705C25.6102 75.0323 21.3367 82.9697 26.9051 93.9265C29.2005 95.024 31.3976 96.0823 33.4947 97.109C42.0377 101.291 48.9221 104.951 54.0359 108.611C54.173 108.584 60.8206 106.977 60.8206 106.977M30.6508 72.4705C31.7319 71.9212 33.1087 71.7875 34.6597 72.0247M30.6508 72.4705C35.955 69.677 39.4552 67.9721 45.2948 70.9287M60.8206 106.977L54.9154 108.445C54.9214 108.44 54.9279 108.434 54.9347 108.429M60.8206 106.977C64.6401 93.6962 56.3486 76.5255 45.2948 70.9287M60.8206 106.977C61.0336 106.935 54.7958 108.46 54.9347 108.429M55.4234 108.25C55.4234 108.25 55.7404 108.25 54.9347 108.429M55.4234 108.25C55.4234 108.25 55.0856 108.311 54.9347 108.429M55.4234 108.25C55.1292 108.307 55.2071 107.409 55.3414 105.862C55.5007 104.027 55.7393 101.277 55.5299 98.1219C55.3082 94.7817 54.5844 90.9874 52.7324 87.3433C48.3582 78.7363 40.3408 72.8933 34.6597 72.0247M34.6597 72.0247L45.2948 70.9287" stroke="#111111" stroke-width="1.72999"/>
</svg>
