<svg width="124" height="124" viewBox="0 0 124 124" fill="none" xmlns="http://www.w3.org/2000/svg">
<rect x="44.101" y="69.3846" width="50.2618" height="10.0721" fill="#F6B51E" stroke="#111111" stroke-width="1.5"/>
<path d="M47.7051 64.8379H89.5735L93.165 67.9814L44.9047 68.0253L47.7051 64.8379Z" fill="#1FC16B" stroke="#111111" stroke-width="1.5"/>
<path d="M44.0252 79.411H94.3364L97.7538 82.4005H41.1864L44.0252 79.411Z" fill="#1FC16B" stroke="#111111" stroke-width="1.5"/>
<path d="M40.2543 93.8724H98.9096L101.828 96.8616L37.2175 96.8176L40.2543 93.8724Z" fill="#1FC16B" stroke="#111111" stroke-width="1.5"/>
<rect x="40.2487" y="83.7965" width="58.6552" height="10.0721" fill="#F6B51E" stroke="#111111" stroke-width="1.5"/>
<rect x="36.203" y="98.2133" width="66.5549" height="10.0721" fill="#F6B51E" stroke="#111111" stroke-width="1.5"/>
<path d="M102.749 110.751L64.7736 108.289H102.749V110.751Z" fill="#111111" stroke="#111111" stroke-width="1.5"/>
<path d="M86.7573 64.8418H51.5043V13H86.7573V64.8418ZM53.8764 16.4551V61.3848H84.4282V16.4551H53.8764Z" fill="#01CBEA"/>
<path d="M86.7573 64.8418V65.5918H87.5073V64.8418H86.7573ZM51.5043 64.8418H50.7543V65.5918H51.5043V64.8418ZM51.5043 13V12.25H50.7543V13H51.5043ZM86.7573 13H87.5073V12.25H86.7573V13ZM53.8764 16.4551V15.7051H53.1264V16.4551H53.8764ZM53.8764 61.3848H53.1264V62.1348H53.8764V61.3848ZM84.4282 61.3848V62.1348H85.1782V61.3848H84.4282ZM84.4282 16.4551H85.1782V15.7051H84.4282V16.4551ZM86.7573 64.8418V64.0918H51.5043V64.8418V65.5918H86.7573V64.8418ZM51.5043 64.8418H52.2543V13H51.5043H50.7543V64.8418H51.5043ZM51.5043 13V13.75H86.7573V13V12.25H51.5043V13ZM86.7573 13H86.0073V64.8418H86.7573H87.5073V13H86.7573ZM53.8764 16.4551H53.1264V61.3848H53.8764H54.6264V16.4551H53.8764ZM53.8764 61.3848V62.1348H84.4282V61.3848V60.6348H53.8764V61.3848ZM84.4282 61.3848H85.1782V16.4551H84.4282H83.6782V61.3848H84.4282ZM84.4282 16.4551V15.7051H53.8764V16.4551V17.2051H84.4282V16.4551Z" fill="#111111"/>
<rect x="20.9999" y="16.4529" width="30.552" height="44.9295" fill="#01CBEA" stroke="#111111" stroke-width="1.5"/>
<circle cx="24.7961" cy="40.2991" r="1.33307" fill="#111111" stroke="#111111" stroke-width="1.5"/>
</svg>
