<svg width="124" height="124" viewBox="0 0 124 124" fill="none" xmlns="http://www.w3.org/2000/svg">
<path d="M69.0993 100.213C67.3893 99.7472 65.778 99.2322 64.2586 98.6689C38.6831 87.3084 36.988 66.1671 34.6653 40.4462C46.1976 38.5079 52.9015 33.7441 65.0904 23.1245C74.7229 50.2655 74.5311 69.562 69.0993 100.213Z" fill="#01CBEA"/>
<path d="M30.003 37.8721C42.8506 34.0595 49.7086 29.643 61.4387 18.8555L65.0904 22.7364C64.6956 23.0876 65.472 22.7852 65.0904 23.1245C52.9015 33.7441 46.1976 38.5079 34.6653 40.4462L32.3341 39.1592L30.003 37.8721Z" fill="#1FC16B"/>
<path d="M86.6649 25.065L90.3166 26.6174C82.3634 30.1615 73.419 27.447 65.0904 22.7364L61.4387 18.8555C71.2777 22.3256 76.8526 26.2889 86.6649 25.065Z" fill="#1FC16B"/>
<path d="M69.5888 100.355C69.4261 100.308 69.2617 100.261 69.0993 100.213C74.5311 69.562 74.7229 50.2655 65.0904 23.1245C65.472 22.7852 64.6956 23.0876 65.0904 22.7364C73.419 27.447 82.3634 30.1615 90.3166 26.6174C95.8352 54.953 98.6638 71.0211 73.6564 96.3815C72.3742 97.6818 70.9186 99.1039 69.5888 100.355Z" fill="#F6B51E"/>
<path d="M30.003 37.8721L32.3341 39.1592L34.6653 40.4462C36.988 66.1671 38.6831 87.3084 64.2586 98.6689C31.7297 87.3947 32.5399 67.8868 30.003 37.8721Z" fill="#1FC16B"/>
<path d="M90.3166 26.6174L86.6649 25.065C76.8526 26.2889 71.2777 22.3256 61.4387 18.8555M90.3166 26.6174C82.3634 30.1615 73.419 27.447 65.0904 22.7364M90.3166 26.6174C95.8352 54.953 98.6638 71.0211 73.6564 96.3815C72.3742 97.6818 70.9186 99.1039 69.5888 100.355M61.4387 18.8555C49.7086 29.643 42.8506 34.0595 30.003 37.8721M61.4387 18.8555L65.0904 22.7364M30.003 37.8721C32.5399 67.8868 31.7297 87.3947 64.2586 98.6689M30.003 37.8721L32.3341 39.1592L34.6653 40.4462M69.5888 100.355C69.4261 100.308 69.2617 100.261 69.0993 100.213M69.5888 100.355C67.874 99.8638 65.9441 99.2531 64.2586 98.6689M65.0904 22.7364C64.6956 23.0876 65.472 22.7852 65.0904 23.1245M34.6653 40.4462C46.1976 38.5079 52.9015 33.7441 65.0904 23.1245M34.6653 40.4462C36.988 66.1671 38.6831 87.3084 64.2586 98.6689M69.0993 100.213C74.5311 69.562 74.7229 50.2655 65.0904 23.1245M69.0993 100.213C67.3893 99.7472 65.778 99.2322 64.2586 98.6689" stroke="#111111" stroke-width="1.5"/>
<path d="M90.2149 104.367C90.2164 105.195 78.749 105.873 64.6019 105.88C50.4547 105.887 38.985 105.222 38.9836 104.393C38.9821 103.565 50.4495 102.887 64.5966 102.88C78.7438 102.873 90.2135 103.538 90.2149 104.367Z" fill="#111111"/>
<path d="M59.2888 62.7161L77.7497 38.8348L83.6007 39.3674L64.7848 67.9486L59.2888 62.7161Z" fill="#1FC16B" stroke="#111111" stroke-width="1.5" stroke-linejoin="bevel"/>
<path d="M50.2712 54.9362C50.2712 54.9362 54.5931 55.2545 56.707 55.6123L49.2847 63.2544L42.2385 62.7177C44.8691 60.1686 50.2712 54.9362 50.2712 54.9362Z" fill="#F6B51E" stroke="#111111" stroke-width="1.5" stroke-linejoin="bevel"/>
<path d="M60.2559 80.3776L42.2385 62.6254L51.388 62.8943L66.0271 80.2432L60.2559 80.3776Z" fill="#111111" stroke="#111111" stroke-width="1.5" stroke-linejoin="bevel"/>
<path d="M66.0372 80.2008C60.6 74.7122 49.6133 63.6546 49.1633 63.3333L56.6159 55.5688L64.7716 64.672L83.426 39.2819L91.7698 45.9302L66.0372 80.2008Z" fill="#01CBEA" stroke="#111111" stroke-width="1.5" stroke-linejoin="bevel"/>
</svg>
