<svg width="124" height="124" viewBox="0 0 124 124" fill="none" xmlns="http://www.w3.org/2000/svg">
<path d="M42.564 97.1184C31.876 91.6659 30.1855 73.5758 38.7881 56.713C47.3907 39.8502 63.0287 30.6004 73.7167 36.0529C44.5772 12.5991 4.0028 78.5906 42.564 97.1184Z" fill="#1FC16B"/>
<path d="M77.4927 76.4583C86.0953 59.5955 84.4047 41.5054 73.7167 36.0529C63.0287 30.6004 47.3907 39.8502 38.7881 56.713C30.1855 73.5758 31.876 91.6659 42.564 97.1184C53.252 102.571 68.8901 93.3211 77.4927 76.4583Z" fill="#01CBEA"/>
<path d="M73.7167 36.0529C84.4047 41.5054 86.0953 59.5955 77.4927 76.4583C68.8901 93.3211 53.252 102.571 42.564 97.1184M73.7167 36.0529C63.0287 30.6004 47.3907 39.8502 38.7881 56.713C30.1855 73.5758 31.876 91.6659 42.564 97.1184M73.7167 36.0529C44.5772 12.5991 4.0028 78.5906 42.564 97.1184" stroke="black" stroke-width="1.5"/>
<ellipse cx="58.5794" cy="67.3615" rx="15.0528" ry="25.0929" transform="rotate(28.2175 58.5794 67.3615)" fill="#1FC16B" stroke="black" stroke-width="1.5"/>
<ellipse cx="58.7363" cy="67.7883" rx="11.1259" ry="18.5468" transform="rotate(28.2175 58.7363 67.7883)" fill="#F6B51E" stroke="black" stroke-width="1.5"/>
<ellipse cx="59.0497" cy="67.059" rx="7.29327" ry="12.1578" transform="rotate(28.2175 59.0497 67.059)" fill="#01CBEA" stroke="black" stroke-width="1.5"/>
<path d="M99.8902 29.4083L97.2059 27.3951L86.1716 38.8034C86.8242 39.0208 58.4632 66.5775 57.6123 68.3309C56.7614 70.0842 59.3513 71.1074 60.2966 70.3441C60.9203 69.8405 77.8381 52.1546 89.3556 40.1966C95.2947 34.0302 99.7979 29.3869 99.8902 29.4083Z" fill="#01CBEA"/>
<path d="M86.1716 38.8034L97.2059 27.3951L95.1927 18L85.1251 29.4083L86.1716 38.8034Z" fill="#1FC16B"/>
<path d="M99.8902 29.4083C99.7979 29.3869 95.2947 34.0302 89.3556 40.1966L97.2059 42.1588L107.943 30.0794L99.8902 29.4083Z" fill="#1FC16B"/>
<path d="M97.2059 27.3951L99.8902 29.4083M97.2059 27.3951L86.1716 38.8034M97.2059 27.3951L95.1927 18L85.1251 29.4083L86.1716 38.8034M99.8902 29.4083L107.943 30.0794L97.2059 42.1588L89.3556 40.1966M99.8902 29.4083C99.7979 29.3869 95.2947 34.0302 89.3556 40.1966M86.1716 38.8034C86.8242 39.0208 58.4632 66.5775 57.6123 68.3309C56.7614 70.0842 59.3513 71.1074 60.2966 70.3441C60.9203 69.8405 77.8381 52.1546 89.3556 40.1966M89.1516 40.1456L89.3556 40.1966" stroke="black" stroke-width="1.5"/>
<path d="M60.2944 70.342L83.1111 52.2229L82.44 48.8675L60.2944 70.342Z" fill="#111111" stroke="black" stroke-width="1.5"/>
</svg>
