<svg width="52" height="52" viewBox="0 0 52 52" fill="none" xmlns="http://www.w3.org/2000/svg">
<path d="M15 5H10C7.23858 5 5 7.23858 5 10V41.6667C5 44.4281 7.23858 46.6667 10 46.6667H15C17.7614 46.6667 20 44.4281 20 41.6667V10C20 7.23858 17.7614 5 15 5Z" stroke="#111111" stroke-width="10" stroke-linecap="round" stroke-linejoin="round"/>
<path d="M41.666 15H36.666C33.9046 15 31.666 17.2386 31.666 20V31.6667C31.666 34.4281 33.9046 36.6667 36.666 36.6667H41.666C44.4274 36.6667 46.666 34.4281 46.666 31.6667V20C46.666 17.2386 44.4274 15 41.666 15Z" stroke="#111111" stroke-width="10" stroke-linecap="round" stroke-linejoin="round"/>
</svg>
