<svg width="52" height="52" viewBox="0 0 52 52" fill="none" xmlns="http://www.w3.org/2000/svg">
<path d="M15 5H10C7.23858 5 5 7.23858 5 10V41.6667C5 44.4281 7.23858 46.6667 10 46.6667H15C17.7614 46.6667 20 44.4281 20 41.6667V10C20 7.23858 17.7614 5 15 5Z" stroke="#111111" stroke-width="10" stroke-linecap="round" stroke-linejoin="round"/>
<path d="M41.666 5H36.666C33.9046 5 31.666 7.23858 31.666 10V21.6667C31.666 24.4281 33.9046 26.6667 36.666 26.6667H41.666C44.4274 26.6667 46.666 24.4281 46.666 21.6667V10C46.666 7.23858 44.4274 5 41.666 5Z" stroke="#111111" stroke-width="10" stroke-linecap="round" stroke-linejoin="round"/>
</svg>
