<svg width="52" height="52" viewBox="0 0 52 52" fill="none" xmlns="http://www.w3.org/2000/svg">
<path d="M46.666 15V10C46.666 7.23858 44.4274 5 41.666 5L9.99935 5C7.23793 5 4.99935 7.23858 4.99935 10V15C4.99935 17.7614 7.23793 20 9.99935 20H41.666C44.4274 20 46.666 17.7614 46.666 15Z" stroke="#111111" stroke-width="10" stroke-linecap="round" stroke-linejoin="round"/>
<path d="M26.666 41.6667V36.6667C26.666 33.9053 24.4274 31.6667 21.666 31.6667H9.99935C7.23792 31.6667 4.99935 33.9053 4.99935 36.6667V41.6667C4.99935 44.4282 7.23792 46.6667 9.99935 46.6667H21.666C24.4274 46.6667 26.666 44.4282 26.666 41.6667Z" stroke="#111111" stroke-width="10" stroke-linecap="round" stroke-linejoin="round"/>
</svg>
