<svg width="55" height="55" viewBox="0 0 55 55" fill="none" xmlns="http://www.w3.org/2000/svg">
<path d="M33.3333 16.6667V8.33333C33.3333 6.49333 31.84 5 30 5H8.33333C6.49333 5 5 6.49333 5 8.33333V46.6667C5 48.5067 6.49333 50 8.33333 50H30C31.84 50 33.3333 48.5067 33.3333 46.6667V38.3333" stroke="#111111" stroke-width="10" stroke-linecap="round" stroke-linejoin="round"/>
<path d="M42.5 18.3333L51.6667 27.4999L42.5 36.6666" stroke="#111111" stroke-width="10" stroke-linecap="round" stroke-linejoin="round"/>
<path d="M51.666 27.5H31.666" stroke="#111111" stroke-width="10" stroke-linecap="round" stroke-linejoin="round"/>
<path d="M5.69083 6.32666L16.7608 13.19C17.7408 13.7967 18.3375 14.87 18.3375 16.0233V38.98C18.3375 40.1333 17.7408 41.2033 16.7608 41.8133L5.6875 48.68" stroke="#111111" stroke-width="10" stroke-linecap="round" stroke-linejoin="round"/>
</svg>
