<svg fill="none" height="55" viewBox="0 0 55 55" width="55" xmlns="http://www.w3.org/2000/svg"><g stroke="#111" stroke-linecap="round" stroke-linejoin="round" stroke-width="10"><path d="m33.3333 16.6667v-8.33337c0-1.84-1.4933-3.33333-3.3333-3.33333h-21.66667c-1.84 0-3.33333 1.49333-3.33333 3.33333v38.33337c0 1.84 1.49333 3.3333 3.33333 3.3333h21.66667c1.84 0 3.3333-1.4933 3.3333-3.3333v-8.3334"/><path d="m42.5 18.3333 9.1667 9.1666-9.1667 9.1667"/><path d="m51.666 27.5h-20"/><path d="m5.69083 6.32666 11.06997 6.86334c.98.6067 1.5767 1.68 1.5767 2.8333v22.9567c0 1.1533-.5967 2.2233-1.5767 2.8333l-11.0733 6.8667"/></g></svg>