<svg fill="none" height="55" viewBox="0 0 58 55" width="58" xmlns="http://www.w3.org/2000/svg"><g stroke="#111" stroke-linecap="round" stroke-linejoin="round" stroke-width="10"><path d="m24.166 16.6667v-8.33337c0-1.84 1.4933-3.33333 3.3333-3.33333h21.6667c1.84 0 3.3333 1.49333 3.3333 3.33333v38.33337c0 1.84-1.4933 3.3333-3.3333 3.3333h-21.6667c-1.84 0-3.3333-1.4933-3.3333-3.3333v-8.3334"/><path d="m13.334 36.6666 9.1667-9.1667-9.1667-9.1666"/><path d="m22.5 27.5h-20"/><path d="m51.8107 6.32666-11.07 6.86334c-.98.6067-1.5766 1.68-1.5766 2.8333v22.9567c0 1.1533.5966 2.2233 1.5766 2.8333l11.0734 6.8667"/></g></svg>