<svg fill="none" height="59" viewBox="0 0 57 59" width="57" xmlns="http://www.w3.org/2000/svg"><g stroke="#111" stroke-linecap="round" stroke-linejoin="round" stroke-width="10"><path d="m27.8197 39.1656c5.2927 0 9.5833-4.6637 9.5833-10.4167 0-5.7529-4.2906-10.4166-9.5833-10.4166-5.2928 0-9.5834 4.6637-9.5834 10.4166 0 5.753 4.2906 10.4167 9.5834 10.4167z"/><path d="m37.402 18.3323v17.2766c0 5.18 7.7867 6.0734 11.9067-.93 3.4933-5.9266 2.6367-14.9666-1.7267-20.9133-6.42-8.75668-21.2633-12.03001-32.0433-4.79334-9.90999 6.65334-13.43666 20.11004-7.96332 30.98664 5.41662 10.7634 18.13332 15.98 29.64332 12.0867"/></g></svg>