<svg width="57" height="59" viewBox="0 0 57 59" fill="none" xmlns="http://www.w3.org/2000/svg">
<path d="M27.8197 39.1656C33.1124 39.1656 37.403 34.5019 37.403 28.7489C37.403 22.996 33.1124 18.3323 27.8197 18.3323C22.5269 18.3323 18.2363 22.996 18.2363 28.7489C18.2363 34.5019 22.5269 39.1656 27.8197 39.1656Z" stroke="#111111" stroke-width="10" stroke-linecap="round" stroke-linejoin="round"/>
<path d="M37.402 18.3323V35.6089C37.402 40.7889 45.1887 41.6823 49.3087 34.6789C52.802 28.7523 51.9454 19.7123 47.582 13.7656C41.162 5.00892 26.3187 1.73559 15.5387 8.97226C5.62871 15.6256 2.10204 29.0823 7.57538 39.9589C12.992 50.7223 25.7087 55.9389 37.2187 52.0456" stroke="#111111" stroke-width="10" stroke-linecap="round" stroke-linejoin="round"/>
</svg>
