<svg fill="none" height="60" viewBox="0 0 58 60" width="58" xmlns="http://www.w3.org/2000/svg"><path d="m45.8327 47.5001c-2.74 0-5.1467-1.34-6.6667-3.38v13.38c0 .6734.4067 1.2834 1.03 1.54.6233.2634 1.3367.1167 1.8167-.36l3.82-3.82 3.82 3.82c.32.32.7466.4867 1.18.4867.2133 0 .4333-.04.6366-.1267.6234-.2566 1.03-.8666 1.03-1.54v-13.38c-1.52 2.04-3.9266 3.38-6.6666 3.38z" fill="#111"/><g stroke="#111" stroke-linecap="round" stroke-linejoin="round" stroke-width="10"><path d="m33.3333 53.3333h-21.6666c-3.68337 0-6.6667-2.9833-6.6667-6.6666v-35c0-3.68337 2.98333-6.6667 6.6667-6.6667h28.3333c3.6833 0 6.6667 2.98333 6.6667 6.6667v10.8333"/><path d="m15 18.3333h21.6667"/><path d="m15 29.1667h10"/><path d="m15 40h10"/><path d="m45.8333 47.4999c4.6024 0 8.3334-3.7309 8.3334-8.3333s-3.731-8.3333-8.3334-8.3333c-4.6023 0-8.3333 3.7309-8.3333 8.3333s3.731 8.3333 8.3333 8.3333z"/></g></svg>