<svg fill="none" height="60" viewBox="0 0 49 60" width="49" xmlns="http://www.w3.org/2000/svg"><g stroke="#111" stroke-linecap="round" stroke-linejoin="round" stroke-width="10"><path d="m26.1911 40.4432 2.59-2.1733c.6-.5033 1.36-.78 2.1433-.78h3.38c1.6167 0 3.0033-1.16 3.2833-2.7533l.5867-3.33c.1367-.7734.54-1.47 1.14-1.9734l2.59-2.1733c1.24-1.04 1.5533-2.82.7433-4.22l-1.69-2.93c-.3933-.68-.5333-1.4733-.3966-2.2467l.5866-3.33c.28-1.5933-.6233-3.1566-2.1433-3.71l-3.1767-1.15665c-.7366-.26666-1.3533-.78666-1.7466-1.46666l-1.69-2.93c-.81-1.4-2.5067-2.02-4.0267-1.46667l-3.1767 1.15667c-.7366.26666-1.5433.26666-2.28 0l-3.1766-1.15667c-1.52-.55333-3.2167.06333-4.0267 1.46667l-1.69 2.93c-.3933.68-1.01 1.19666-1.7467 1.46666l-3.17663 1.15665c-1.52.5534-2.42334 2.1167-2.14334 3.71l.58667 3.33c.13667.7734-.00333 1.5667-.39667 2.2467l-1.69 2.93c-.81 1.4-.49667 3.18.74333 4.22l2.59001 2.1733c.6.5034 1.00333 1.2034 1.14 1.9734l.58663 3.33c.28 1.5933 1.6667 2.7533 3.2834 2.7533h3.38c.7833 0 1.5433.2767 2.1433.78l2.59 2.1733c1.24 1.04 3.0467 1.04 4.2867 0z"/><path d="m34.8815 45.8333v11.6666l-10.8333-8.3333-10.8334 8.3333v-11.6666"/><path d="m24.0475 29.0799c3.6819 0 6.6667-2.9848 6.6667-6.6667 0-3.6818-2.9848-6.6666-6.6667-6.6666s-6.6666 2.9848-6.6666 6.6666c0 3.6819 2.9847 6.6667 6.6666 6.6667z"/></g></svg>