<svg fill="none" height="59" viewBox="0 0 59 59" width="59" xmlns="http://www.w3.org/2000/svg"><g stroke="#111" stroke-linecap="round" stroke-linejoin="round" stroke-width="10"><path d="m28.0059 5.03003c-1.6467 1.45667-11.32 10.30337-11.6534 24.86337-.2866 12.53 6.53 20.97 8.2767 23.01"/><path d="m5.06641 30.9401c3.97 1.37 8.74999 2.6066 14.22669 3.2233 14.93 1.68 27.1166-2.14 34.04-4.9967"/><path d="m9.65625 43.4234s3.82335-2.2266 8.39995-2.2266c7.3434 0 15.5534 7.6233 27.46 5.7566"/><path d="m9.65625 14.9067c2.32335 5.0933.48335 10.6733 7.07995 10.6733 13.5434 0 15.7634-13.29 29.7267-13.29"/><path d="m29.1667 53.3333c13.3468 0 24.1666-10.8198 24.1666-24.1666 0-13.3469-10.8198-24.1667-24.1666-24.1667-13.3469 0-24.1667 10.8198-24.1667 24.1667 0 13.3468 10.8198 24.1666 24.1667 24.1666z"/></g></svg>