<svg fill="none" height="56" viewBox="0 0 55 56" width="55" xmlns="http://www.w3.org/2000/svg"><path d="m50 43.3333c-3.6833 0-6.6667-2.9833-6.6667-6.6666v-15.8334c0-8.7433-7.09-15.8333-15.8333-15.8333s-15.8333 7.09-15.8333 15.8333v15.8334c0 3.6833-2.98337 6.6666-6.6667 6.6666z" stroke="#111" stroke-linecap="round" stroke-linejoin="round" stroke-width="10"/><path d="m32.7936 49.7834c-.3166-.39-.79-.6167-1.2933-.6167h-7.9967c-.5033 0-.9766.2267-1.2933.6167s-.44.9033-.3367 1.3933c.5767 2.74 2.8934 4.6567 5.63 4.6567 2.7367 0 5.0534-1.9167 5.63-4.6567.1034-.49-.0233-1.0033-.34-1.3933z" fill="#111"/></svg>