<svg fill="none" height="51" viewBox="0 0 59 51" width="59" xmlns="http://www.w3.org/2000/svg"><g stroke="#111" stroke-linecap="round" stroke-linejoin="round" stroke-width="10"><path d="m29.1635 45.9567c.5667 0 1.13-.15 1.6467-.4467 2.1433-1.2367 5.7733-2.8233 10.47-2.8167 2.9966.0034 5.5566.6567 7.5666 1.45 2.16.85 4.48-.8 4.48-3.1233v-30.2767c0-1.17997-.6033-2.26663-1.62-2.86663-2.1233-1.25334-5.7533-2.87667-10.4666-2.87667-6.3 0-10.66 2.90667-12.08 3.94"/><path d="m29.1633 45.9567c-.5666 0-1.13-.15-1.6466-.4466-2.1434-1.2367-5.7734-2.8234-10.47-2.8167-2.9967.0033-5.5567.6567-7.5667 1.45-2.16.85-4.48-.79-4.48-3.11 0-8.6433 0-24.9066 0-30.3 0-1.17998.60333-2.25332 1.62-2.85332 2.12333-1.25333 5.7533-2.87666 10.4667-2.87666 6.3 0 10.66 2.90666 12.08 3.94v37.01328z"/></g></svg>