<svg fill="none" height="58" viewBox="0 0 52 58" width="52" xmlns="http://www.w3.org/2000/svg"><path d="m5 44.1667v-32.5c0-3.68337 2.98333-6.6667 6.6667-6.6667h35v33.3333" stroke="#111" stroke-linecap="round" stroke-linejoin="round" stroke-width="10"/><path d="m32.4993 44.1667h-13.3333v11.6667c0 .6733.4067 1.2833 1.03 1.54.6233.2633 1.3367.1167 1.8167-.36l3.82-3.82 3.82 3.82c.32.32.7466.4867 1.18.4867.2133 0 .4333-.04.6366-.1267.6234-.2567 1.03-.8667 1.03-1.54z" fill="#111"/><path d="m13.3333 49.9999h-2.5c-3.21997 0-5.8333-2.61-5.8333-5.8333s2.61333-5.8333 5.8333-5.8333h35.8334c-2.1367 2.8133-2.4467 8.49 0 11.6666h-8.3334" stroke="#111" stroke-linecap="round" stroke-linejoin="round" stroke-width="10"/><g fill="#111"><path d="m15 32.5c1.3807 0 2.5-1.1193 2.5-2.5s-1.1193-2.5-2.5-2.5-2.5 1.1193-2.5 2.5 1.1193 2.5 2.5 2.5z"/><path d="m15 15.8333c1.3807 0 2.5-1.1193 2.5-2.5 0-1.3808-1.1193-2.5-2.5-2.5s-2.5 1.1192-2.5 2.5c0 1.3807 1.1193 2.5 2.5 2.5z"/><path d="m15 24.1667c1.3807 0 2.5-1.1192 2.5-2.5 0-1.3807-1.1193-2.5-2.5-2.5s-2.5 1.1193-2.5 2.5c0 1.3808 1.1193 2.5 2.5 2.5z"/></g></svg>