<svg width="59" height="54" viewBox="0 0 59 54" fill="none" xmlns="http://www.w3.org/2000/svg">
<path d="M29.166 48.3333V33.3333" stroke="#111111" stroke-width="10" stroke-linecap="round" stroke-linejoin="round"/>
<path d="M21.666 16.6667V12.5C21.666 8.35667 25.0227 5 29.166 5C33.3093 5 36.666 8.35667 36.666 12.5V16.6667" stroke="#111111" stroke-width="10" stroke-linecap="round" stroke-linejoin="round"/>
<path d="M15 30H5" stroke="#111111" stroke-width="10" stroke-linecap="round" stroke-linejoin="round"/>
<path d="M15.0007 21.6667C9.93732 21.6667 5.83398 17.5633 5.83398 12.5" stroke="#111111" stroke-width="10" stroke-linecap="round" stroke-linejoin="round"/>
<path d="M15.0007 38.3333C9.93732 38.3333 5.83398 42.4366 5.83398 47.4999" stroke="#111111" stroke-width="10" stroke-linecap="round" stroke-linejoin="round"/>
<path d="M43.334 30H53.334" stroke="#111111" stroke-width="10" stroke-linecap="round" stroke-linejoin="round"/>
<path d="M43.334 21.6667C48.3973 21.6667 52.5007 17.5633 52.5007 12.5" stroke="#111111" stroke-width="10" stroke-linecap="round" stroke-linejoin="round"/>
<path d="M43.334 38.3333C48.3973 38.3333 52.5007 42.4366 52.5007 47.4999" stroke="#111111" stroke-width="10" stroke-linecap="round" stroke-linejoin="round"/>
<path d="M21.6667 16.6667H36.6667C40.3467 16.6667 43.3333 19.6534 43.3333 23.3334V34.1667C43.3333 41.9867 36.9867 48.3334 29.1667 48.3334C21.3467 48.3334 15 41.9867 15 34.1667V23.3334C15 19.6534 17.9867 16.6667 21.6667 16.6667Z" stroke="#111111" stroke-width="10" stroke-linecap="round" stroke-linejoin="round"/>
</svg>
