<svg fill="none" height="54" viewBox="0 0 59 54" width="59" xmlns="http://www.w3.org/2000/svg"><g stroke="#111" stroke-linecap="round" stroke-linejoin="round" stroke-width="10"><path d="m29.166 48.3333v-15"/><path d="m21.666 16.6667v-4.1667c0-4.14333 3.3567-7.5 7.5-7.5s7.5 3.35667 7.5 7.5v4.1667"/><path d="m15 30h-10"/><path d="m15.0007 21.6667c-5.06338 0-9.16672-4.1034-9.16672-9.1667"/><path d="m15.0007 38.3333c-5.06338 0-9.16672 4.1033-9.16672 9.1666"/><path d="m43.334 30h10"/><path d="m43.334 21.6667c5.0633 0 9.1667-4.1034 9.1667-9.1667"/><path d="m43.334 38.3333c5.0633 0 9.1667 4.1033 9.1667 9.1666"/><path d="m21.6667 16.6667h15c3.68 0 6.6666 2.9867 6.6666 6.6667v10.8333c0 7.82-6.3466 14.1667-14.1666 14.1667s-14.1667-6.3467-14.1667-14.1667v-10.8333c0-3.68 2.9867-6.6667 6.6667-6.6667z"/></g></svg>