<svg width="59" height="57" viewBox="0 0 59 57" fill="none" xmlns="http://www.w3.org/2000/svg">
<path d="M21.666 17.4999V13.3333C21.666 9.18992 25.0227 5.83325 29.166 5.83325C33.3093 5.83325 36.666 9.18992 36.666 13.3333V17.4999" stroke="#111111" stroke-width="10" stroke-linecap="round" stroke-linejoin="round"/>
<path d="M29.166 49.1666V40.8333" stroke="#111111" stroke-width="10" stroke-linecap="round" stroke-linejoin="round"/>
<path d="M16.3967 41.1433C15.5 39.2867 15 37.2033 15 35V24.1667C15 20.4833 17.9833 17.5 21.6667 17.5H36.6667C37.6433 17.5 38.5733 17.71 39.41 18.09" stroke="#111111" stroke-width="10" stroke-linecap="round" stroke-linejoin="round"/>
<path d="M43.3332 25.8333V34.9999C43.3332 42.8233 36.9899 49.1666 29.1665 49.1666C26.5665 49.1666 24.1265 48.4666 22.0332 47.2399" stroke="#111111" stroke-width="10" stroke-linecap="round" stroke-linejoin="round"/>
<path d="M15 30.8333H5" stroke="#111111" stroke-width="10" stroke-linecap="round" stroke-linejoin="round"/>
<path d="M15.0007 22.4999C9.93732 22.4999 5.83398 18.3966 5.83398 13.3333" stroke="#111111" stroke-width="10" stroke-linecap="round" stroke-linejoin="round"/>
<path d="M43.334 30.8333H53.334" stroke="#111111" stroke-width="10" stroke-linecap="round" stroke-linejoin="round"/>
<path d="M43.334 39.1667C48.3973 39.1667 52.5007 43.2701 52.5007 48.3334" stroke="#111111" stroke-width="10" stroke-linecap="round" stroke-linejoin="round"/>
<path d="M5.83398 51.6667L52.5006 5" stroke="#111111" stroke-width="10" stroke-linecap="round" stroke-linejoin="round"/>
</svg>
