<svg fill="none" height="57" viewBox="0 0 59 57" width="59" xmlns="http://www.w3.org/2000/svg"><g stroke="#111" stroke-linecap="round" stroke-linejoin="round" stroke-width="10"><path d="m21.666 17.4999v-4.1666c0-4.14338 3.3567-7.50005 7.5-7.50005s7.5 3.35667 7.5 7.50005v4.1666"/><path d="m29.166 49.1666v-8.3333"/><path d="m16.3967 41.1433c-.8967-1.8566-1.3967-3.94-1.3967-6.1433v-10.8333c0-3.6834 2.9833-6.6667 6.6667-6.6667h15c.9766 0 1.9066.21 2.7433.59"/><path d="m43.3332 25.8333v9.1666c0 7.8234-6.3433 14.1667-14.1667 14.1667-2.6 0-5.04-.7-7.1333-1.9267"/><path d="m15 30.8333h-10"/><path d="m15.0007 22.4999c-5.06338 0-9.16672-4.1033-9.16672-9.1666"/><path d="m43.334 30.8333h10"/><path d="m43.334 39.1667c5.0633 0 9.1667 4.1034 9.1667 9.1667"/><path d="m5.83398 51.6667 46.66662-46.6667"/></g></svg>