<svg fill="none" height="60" viewBox="0 0 60 60" width="60" xmlns="http://www.w3.org/2000/svg"><path d="m28.5173 35.0002 3.2734 15.49c.38 1.8-.77 3.57-2.5734 3.95l-3.26.69c-1.8.38-3.57-.77-3.95-2.5733l-3.6733-17.5567" stroke="#111" stroke-linecap="round" stroke-linejoin="round" stroke-width="10"/><path d="m53.1167 18.8735c-.39.3167-.6167.79-.6167 1.2934v7.9966c0 .5034.2267.9767.6167 1.2934.39.3166.9033.44 1.3933.3366 2.74-.5766 4.6567-2.8933 4.6567-5.63 0-2.7366-1.9167-5.0533-4.6567-5.63-.49-.1033-1.0033.02-1.3933.3367z" fill="#111"/><g stroke="#111" stroke-linecap="round" stroke-linejoin="round" stroke-width="10"><path d="m46.6667 43.3336s-6.4567-8.3334-14.1667-8.3334c-7.7067 0-16.6667 0-16.6667 0-5.9833 0-10.8333-4.85-10.8333-10.8333s4.85-10.8333 10.8333-10.8333h16.6667c7.7067 0 14.1667-8.33336 14.1667-8.33336z"/><path d="m18.334 13.3335v21.6667"/></g></svg>