<svg fill="none" height="56" viewBox="0 0 55 56" width="55" xmlns="http://www.w3.org/2000/svg"><path d="m16.666 9.16667v-6.66667" stroke="#111" stroke-linecap="round" stroke-linejoin="round" stroke-width="10"/><path d="m38.334 9.16667v-6.66667" stroke="#111" stroke-linecap="round" stroke-linejoin="round" stroke-width="10"/><path d="m43.3333 9.16675h-31.6666c-3.68193 0-6.6667 2.98475-6.6667 6.66665v28.3333c0 3.6819 2.98477 6.6667 6.6667 6.6667h31.6666c3.6819 0 6.6667-2.9848 6.6667-6.6667v-28.3333c0-3.6819-2.9848-6.66665-6.6667-6.66665z" stroke="#111" stroke-linecap="round" stroke-linejoin="round" stroke-width="10"/><path d="m5 20.8333h45" stroke="#111" stroke-linecap="round" stroke-linejoin="round" stroke-width="10"/><g fill="#111"><path d="m27.4993 27.5c-1.8366 0-3.3333 1.4967-3.3333 3.3333 0 1.8367 1.4967 3.3334 3.3333 3.3334 1.8367 0 3.3334-1.4967 3.3334-3.3334 0-1.8366-1.4967-3.3333-3.3334-3.3333z"/><path d="m39.1673 34.1667c1.8367 0 3.3334-1.4967 3.3334-3.3334 0-1.8366-1.4967-3.3333-3.3334-3.3333-1.8366 0-3.3333 1.4967-3.3333 3.3333 0 1.8367 1.4967 3.3334 3.3333 3.3334z"/><path d="m27.4993 37.5c-1.8366 0-3.3333 1.4967-3.3333 3.3333 0 1.8367 1.4967 3.3334 3.3333 3.3334 1.8367 0 3.3334-1.4967 3.3334-3.3334 0-1.8366-1.4967-3.3333-3.3334-3.3333z"/><path d="m15.8333 37.5c-1.8366 0-3.3333 1.4967-3.3333 3.3333 0 1.8367 1.4967 3.3334 3.3333 3.3334 1.8367 0 3.3334-1.4967 3.3334-3.3334 0-1.8366-1.4967-3.3333-3.3334-3.3333z"/><path d="m39.1673 37.5c-1.8366 0-3.3333 1.4967-3.3333 3.3333 0 1.8367 1.4967 3.3334 3.3333 3.3334 1.8367 0 3.3334-1.4967 3.3334-3.3334 0-1.8366-1.4967-3.3333-3.3334-3.3333z"/></g></svg>