<svg width="55" height="56" viewBox="0 0 55 56" fill="none" xmlns="http://www.w3.org/2000/svg">
<path d="M16.666 9.16667V2.5" stroke="#111111" stroke-width="10" stroke-linecap="round" stroke-linejoin="round"/>
<path d="M38.334 9.16667V2.5" stroke="#111111" stroke-width="10" stroke-linecap="round" stroke-linejoin="round"/>
<path d="M43.3333 9.16675H11.6667C7.98477 9.16675 5 12.1515 5 15.8334V44.1667C5 47.8486 7.98477 50.8334 11.6667 50.8334H43.3333C47.0152 50.8334 50 47.8486 50 44.1667V15.8334C50 12.1515 47.0152 9.16675 43.3333 9.16675Z" stroke="#111111" stroke-width="10" stroke-linecap="round" stroke-linejoin="round"/>
<path d="M5 20.8333H50" stroke="#111111" stroke-width="10" stroke-linecap="round" stroke-linejoin="round"/>
<path d="M27.4993 27.5C25.6627 27.5 24.166 28.9967 24.166 30.8333C24.166 32.67 25.6627 34.1667 27.4993 34.1667C29.336 34.1667 30.8327 32.67 30.8327 30.8333C30.8327 28.9967 29.336 27.5 27.4993 27.5Z" fill="#111111"/>
<path d="M39.1673 34.1667C41.004 34.1667 42.5007 32.67 42.5007 30.8333C42.5007 28.9967 41.004 27.5 39.1673 27.5C37.3307 27.5 35.834 28.9967 35.834 30.8333C35.834 32.67 37.3307 34.1667 39.1673 34.1667Z" fill="#111111"/>
<path d="M27.4993 37.5C25.6627 37.5 24.166 38.9967 24.166 40.8333C24.166 42.67 25.6627 44.1667 27.4993 44.1667C29.336 44.1667 30.8327 42.67 30.8327 40.8333C30.8327 38.9967 29.336 37.5 27.4993 37.5Z" fill="#111111"/>
<path d="M15.8333 37.5C13.9967 37.5 12.5 38.9967 12.5 40.8333C12.5 42.67 13.9967 44.1667 15.8333 44.1667C17.67 44.1667 19.1667 42.67 19.1667 40.8333C19.1667 38.9967 17.67 37.5 15.8333 37.5Z" fill="#111111"/>
<path d="M39.1673 37.5C37.3307 37.5 35.834 38.9967 35.834 40.8333C35.834 42.67 37.3307 44.1667 39.1673 44.1667C41.004 44.1667 42.5007 42.67 42.5007 40.8333C42.5007 38.9967 41.004 37.5 39.1673 37.5Z" fill="#111111"/>
</svg>
