<svg fill="none" height="53" viewBox="0 0 59 53" width="59" xmlns="http://www.w3.org/2000/svg"><path d="m32.5007 39.1668c5.0626 0 9.1666-4.104 9.1666-9.1666s-4.104-9.1667-9.1666-9.1667c-5.0627 0-9.1667 4.1041-9.1667 9.1667s4.104 9.1666 9.1667 9.1666z" stroke="#111" stroke-linecap="round" stroke-linejoin="round" stroke-width="10"/><path d="m46.6667 12.5h-35c-3.68193 0-6.6667 2.9848-6.6667 6.6667v21.6666c0 3.6819 2.98477 6.6667 6.6667 6.6667h35c3.6819 0 6.6666-2.9848 6.6666-6.6667v-21.6666c0-3.6819-2.9847-6.6667-6.6666-6.6667z" stroke="#111" stroke-linecap="round" stroke-linejoin="round" stroke-width="10"/><path d="m13.334 23.3335c1.3807 0 2.5-1.1193 2.5-2.5s-1.1193-2.5-2.5-2.5-2.5 1.1193-2.5 2.5 1.1193 2.5 2.5 2.5z" fill="#111"/><path d="m13.334 4.16675h8.3333" stroke="#111" stroke-linecap="round" stroke-linejoin="round" stroke-width="10"/></svg>