<svg fill="none" height="52" viewBox="0 0 59 52" width="59" xmlns="http://www.w3.org/2000/svg"><path d="m46.6667 11.6667h-7.5l-1.69-4.50337c-.4867-1.3-1.73-2.16333-3.12-2.16333h-10.38c-1.39 0-2.6334.86333-3.12 2.16333l-1.69 4.50337h-7.5c-3.68337 0-6.6667 2.9833-6.6667 6.6666v21.6667c0 3.6833 2.98333 6.6667 6.6667 6.6667h35c3.6833 0 6.6666-2.9834 6.6666-6.6667v-21.6667c0-3.6833-2.9833-6.6666-6.6666-6.6666z" stroke="#111" stroke-linecap="round" stroke-linejoin="round" stroke-width="10"/><path d="m29.1667 38.3333c5.0626 0 9.1666-4.104 9.1666-9.1666s-4.104-9.1667-9.1666-9.1667-9.1667 4.1041-9.1667 9.1667 4.1041 9.1666 9.1667 9.1666z" stroke="#111" stroke-linecap="round" stroke-linejoin="round" stroke-width="10"/><path d="m13.334 22.5c1.3807 0 2.5-1.1193 2.5-2.5s-1.1193-2.5-2.5-2.5-2.5 1.1193-2.5 2.5 1.1193 2.5 2.5 2.5z" fill="#111"/></svg>