<svg width="59" height="53" viewBox="0 0 59 53" fill="none" xmlns="http://www.w3.org/2000/svg">
<path d="M32.5007 39.1668C37.5633 39.1668 41.6673 35.0628 41.6673 30.0002C41.6673 24.9376 37.5633 20.8335 32.5007 20.8335C27.438 20.8335 23.334 24.9376 23.334 30.0002C23.334 35.0628 27.438 39.1668 32.5007 39.1668Z" stroke="#111111" stroke-width="10" stroke-linecap="round" stroke-linejoin="round"/>
<path d="M46.6667 12.5H11.6667C7.98477 12.5 5 15.4848 5 19.1667V40.8333C5 44.5152 7.98477 47.5 11.6667 47.5H46.6667C50.3486 47.5 53.3333 44.5152 53.3333 40.8333V19.1667C53.3333 15.4848 50.3486 12.5 46.6667 12.5Z" stroke="#111111" stroke-width="10" stroke-linecap="round" stroke-linejoin="round"/>
<path d="M13.334 23.3335C14.7147 23.3335 15.834 22.2142 15.834 20.8335C15.834 19.4528 14.7147 18.3335 13.334 18.3335C11.9533 18.3335 10.834 19.4528 10.834 20.8335C10.834 22.2142 11.9533 23.3335 13.334 23.3335Z" fill="#111111"/>
<path d="M13.334 4.16675H21.6673" stroke="#111111" stroke-width="10" stroke-linecap="round" stroke-linejoin="round"/>
</svg>
