<svg fill="none" height="56" viewBox="0 0 56 56" width="56" xmlns="http://www.w3.org/2000/svg"><path d="m5.00195 5.00122 4.50334 1.12667c1.31001.32666 2.29331 1.41333 2.49001 2.75l3.8433 26.12671" stroke="#111" stroke-linecap="round" stroke-linejoin="round" stroke-width="10"/><path d="m50.0019 43.3346h-35.8333c-2.3 0-4.1666-1.8667-4.1666-4.1667s1.8666-4.1667 4.1666-4.1667h28.43c1.4334 0 2.71-.9166 3.1633-2.28l4.4434-13.3333c.72-2.16-.8867-4.3867-3.1633-4.3867h-34.1467" stroke="#111" stroke-linecap="round" stroke-linejoin="round" stroke-width="10"/><g fill="#111"><path d="m11.6686 55.8346c2.3012 0 4.1667-1.8655 4.1667-4.1667s-1.8655-4.1667-4.1667-4.1667c-2.30117 0-4.16665 1.8655-4.16665 4.1667s1.86548 4.1667 4.16665 4.1667z"/><path d="m46.6686 55.8346c2.3012 0 4.1667-1.8655 4.1667-4.1667s-1.8655-4.1667-4.1667-4.1667-4.1666 1.8655-4.1666 4.1667 1.8654 4.1667 4.1666 4.1667z"/></g></svg>