<svg width="53" height="60" viewBox="0 0 53 60" fill="none" xmlns="http://www.w3.org/2000/svg">
<path d="M26.0449 37.5V57.5" stroke="#111111" stroke-width="10" stroke-linecap="round" stroke-linejoin="round"/>
<path d="M26.0462 50L15.2129 55.8333" stroke="#111111" stroke-width="10" stroke-linecap="round" stroke-linejoin="round"/>
<path d="M26.0449 50L36.8783 55.8333" stroke="#111111" stroke-width="10" stroke-linecap="round" stroke-linejoin="round"/>
<path d="M46.2257 24.7867L46.7257 23.37C47.1524 22.1634 47.2124 20.85 46.8657 19.6167C42.7124 4.72338 41.6657 2.55005 26.0457 2.55005C10.4257 2.55005 9.37905 4.72338 5.22238 19.6167C4.87905 20.85 4.93905 22.1634 5.36238 23.37L5.86238 24.7867" stroke="#111111" stroke-width="10" stroke-linecap="round" stroke-linejoin="round"/>
<path d="M26.0456 37.5001H39.3789C41.2189 37.5001 42.7122 36.0467 42.7122 34.1667C42.7122 32.2867 40.3289 29.1667 32.7122 29.1667H26.0456C24.0389 29.1667 21.7622 29.1667 19.3789 29.1667C11.7622 29.1667 9.37891 32.2601 9.37891 34.1667C9.37891 36.0467 10.8722 37.5001 12.7122 37.5001H26.0456Z" stroke="#111111" stroke-width="10" stroke-linecap="round" stroke-linejoin="round"/>
</svg>
