<svg fill="none" height="52" viewBox="0 0 55 52" width="55" xmlns="http://www.w3.org/2000/svg"><g stroke="#111" stroke-linecap="round" stroke-linejoin="round" stroke-width="10"><path d="m46.666 5h-1.6667c-1.8409 0-3.3333 1.49238-3.3333 3.33333v34.99997c0 1.841 1.4924 3.3334 3.3333 3.3334h1.6667c1.841 0 3.3333-1.4924 3.3333-3.3334v-34.99997c0-1.84095-1.4923-3.33333-3.3333-3.33333z"/><path d="m28.334 21.6667h-1.6667c-1.8409 0-3.3333 1.4924-3.3333 3.3334v18.3333c0 1.841 1.4924 3.3333 3.3333 3.3333h1.6667c1.8409 0 3.3333-1.4923 3.3333-3.3333v-18.3333c0-1.841-1.4924-3.3334-3.3333-3.3334z"/><path d="m10 35h-1.66667c-1.84095 0-3.33333 1.4924-3.33333 3.3333v5c0 1.841 1.49238 3.3334 3.33333 3.3334h1.66667c1.8409 0 3.3333-1.4924 3.3333-3.3334v-5c0-1.8409-1.4924-3.3333-3.3333-3.3333z"/><path d="m18.334 5h8.3333v8.3333"/><path d="m25.8327 5.83325-19.16668 19.16665"/></g></svg>