<svg width="55" height="52" viewBox="0 0 55 52" fill="none" xmlns="http://www.w3.org/2000/svg">
<path d="M46.666 5H44.9993C43.1584 5 41.666 6.49238 41.666 8.33333V43.3333C41.666 45.1743 43.1584 46.6667 44.9993 46.6667H46.666C48.507 46.6667 49.9993 45.1743 49.9993 43.3333V8.33333C49.9993 6.49238 48.507 5 46.666 5Z" stroke="#111111" stroke-width="10" stroke-linecap="round" stroke-linejoin="round"/>
<path d="M28.334 21.6667H26.6673C24.8264 21.6667 23.334 23.1591 23.334 25.0001V43.3334C23.334 45.1744 24.8264 46.6667 26.6673 46.6667H28.334C30.1749 46.6667 31.6673 45.1744 31.6673 43.3334V25.0001C31.6673 23.1591 30.1749 21.6667 28.334 21.6667Z" stroke="#111111" stroke-width="10" stroke-linecap="round" stroke-linejoin="round"/>
<path d="M10 35H8.33333C6.49238 35 5 36.4924 5 38.3333V43.3333C5 45.1743 6.49238 46.6667 8.33333 46.6667H10C11.8409 46.6667 13.3333 45.1743 13.3333 43.3333V38.3333C13.3333 36.4924 11.8409 35 10 35Z" stroke="#111111" stroke-width="10" stroke-linecap="round" stroke-linejoin="round"/>
<path d="M18.334 5H26.6673V13.3333" stroke="#111111" stroke-width="10" stroke-linecap="round" stroke-linejoin="round"/>
<path d="M25.8327 5.83325L6.66602 24.9999" stroke="#111111" stroke-width="10" stroke-linecap="round" stroke-linejoin="round"/>
</svg>
