<svg width="59" height="59" viewBox="0 0 59 59" fill="none" xmlns="http://www.w3.org/2000/svg">
<path d="M53.1067 25.8333C53.2567 26.9233 53.3333 28.0367 53.3333 29.1667C53.3333 42.5133 42.5133 53.3333 29.1667 53.3333C15.82 53.3333 5 42.5133 5 29.1667C5 15.82 15.82 5 29.1667 5C30.2967 5 31.41 5.07667 32.5 5.22667" stroke="#111111" stroke-width="10" stroke-linecap="round" stroke-linejoin="round"/>
<path d="M21.666 36.6667C21.666 36.6667 28.7327 36.2667 31.1194 33.88L51.9527 13.0467C53.7927 11.2067 53.7927 8.22 51.9527 6.38C50.1127 4.54 47.126 4.54 45.286 6.38L24.4527 27.2133C22.066 29.6 21.666 36.6667 21.666 36.6667Z" stroke="#111111" stroke-width="10" stroke-linecap="round" stroke-linejoin="round"/>
</svg>
