<svg fill="none" height="59" viewBox="0 0 59 59" width="59" xmlns="http://www.w3.org/2000/svg"><g stroke="#111" stroke-linecap="round" stroke-linejoin="round" stroke-width="10"><path d="m53.1067 25.8333c.15 1.09.2266 2.2034.2266 3.3334 0 13.3466-10.82 24.1666-24.1666 24.1666-13.3467 0-24.1667-10.82-24.1667-24.1666 0-13.3467 10.82-24.1667 24.1667-24.1667 1.13 0 2.2433.07667 3.3333.22667"/><path d="m21.666 36.6667s7.0667-.4 9.4534-2.7867l20.8333-20.8333c1.84-1.84 1.84-4.8267 0-6.6667s-4.8267-1.84-6.6667 0l-20.8333 20.8333c-2.3867 2.3867-2.7867 9.4534-2.7867 9.4534z"/></g></svg>