<svg fill="none" height="60" viewBox="0 0 56 60" width="56" xmlns="http://www.w3.org/2000/svg"><g stroke="#111" stroke-linecap="round" stroke-linejoin="round" stroke-width="10"><path d="m46.076 13.0901c-1.0467-2.3134-3.3733-3.92335-6.0767-3.92335h-3.3333"/><path d="m16.7832 54.1668h23.2167c3.6833 0 6.6666-2.9834 6.6666-6.6667v-23.2167"/><path d="m18.334 9.16675h-3.3333c-3.6834 0-6.66672 2.98335-6.66672 6.66665v31.6667c0 .9766.21 1.9066.59 2.7433"/><path d="m33.334 4.16675h-11.6667c-1.8409 0-3.3333 1.49238-3.3333 3.33333v3.33332c0 1.841 1.4924 3.3333 3.3333 3.3333h11.6667c1.8409 0 3.3333-1.4923 3.3333-3.3333v-3.33332c0-1.84095-1.4924-3.33333-3.3333-3.33333z"/><path d="m5 54.1668 45.8333-45.8333"/></g></svg>