<svg fill="none" height="60" viewBox="0 0 49 60" width="49" xmlns="http://www.w3.org/2000/svg"><g stroke="#111" stroke-linecap="round" stroke-linejoin="round" stroke-width="10"><path d="m15 9.16675h-3.3333c-3.68337 0-6.6667 2.98335-6.6667 6.66665v31.6667c0 3.6833 2.98333 6.6666 6.6667 6.6666h25c3.6833 0 6.6666-2.9833 6.6666-6.6666v-31.6667c0-3.6833-2.9833-6.66665-6.6666-6.66665h-3.3334"/><path d="m30 4.16675h-11.6667c-1.8409 0-3.3333 1.49238-3.3333 3.33333v3.33332c0 1.841 1.4924 3.3333 3.3333 3.3333h11.6667c1.841 0 3.3333-1.4923 3.3333-3.3333v-3.33332c0-1.84095-1.4923-3.33333-3.3333-3.33333z"/></g></svg>