<svg width="56" height="60" viewBox="0 0 56 60" fill="none" xmlns="http://www.w3.org/2000/svg">
<path d="M46.076 13.0901C45.0293 10.7767 42.7027 9.16675 39.9993 9.16675H36.666" stroke="#111111" stroke-width="10" stroke-linecap="round" stroke-linejoin="round"/>
<path d="M16.7832 54.1668H39.9999C43.6832 54.1668 46.6665 51.1834 46.6665 47.5001V24.2834" stroke="#111111" stroke-width="10" stroke-linecap="round" stroke-linejoin="round"/>
<path d="M18.334 9.16675H15.0007C11.3173 9.16675 8.33398 12.1501 8.33398 15.8334V47.5001C8.33398 48.4767 8.54398 49.4067 8.92398 50.2434" stroke="#111111" stroke-width="10" stroke-linecap="round" stroke-linejoin="round"/>
<path d="M33.334 4.16675H21.6673C19.8264 4.16675 18.334 5.65913 18.334 7.50008V10.8334C18.334 12.6744 19.8264 14.1667 21.6673 14.1667H33.334C35.1749 14.1667 36.6673 12.6744 36.6673 10.8334V7.50008C36.6673 5.65913 35.1749 4.16675 33.334 4.16675Z" stroke="#111111" stroke-width="10" stroke-linecap="round" stroke-linejoin="round"/>
<path d="M5 54.1668L50.8333 8.3335" stroke="#111111" stroke-width="10" stroke-linecap="round" stroke-linejoin="round"/>
</svg>
