<svg width="59" height="49" viewBox="0 0 59 49" fill="none" xmlns="http://www.w3.org/2000/svg">
<path d="M44.0467 18.8033C43.4267 11.09 37.04 5 29.1667 5C20.8833 5 14.1667 11.7167 14.1667 20C14.1667 21.1667 14.33 22.2867 14.58 23.3767C9.25667 23.6 5 27.9567 5 33.3333C5 38.8567 9.47667 43.3333 15 43.3333H40.8333C47.7367 43.3333 53.3333 37.7367 53.3333 30.8333C53.3333 25.0467 49.3833 20.2267 44.0467 18.8033Z" stroke="#111111" stroke-width="10" stroke-linecap="round" stroke-linejoin="round"/>
<path d="M31.5176 22.4999C33.8076 19.9433 37.1309 18.3333 40.8342 18.3333C41.9442 18.3333 43.0242 18.5299 44.0476 18.8033" stroke="#111111" stroke-width="10" stroke-linecap="round" stroke-linejoin="round"/>
</svg>
