<svg fill="none" height="49" viewBox="0 0 59 49" width="59" xmlns="http://www.w3.org/2000/svg"><g stroke="#111" stroke-linecap="round" stroke-linejoin="round" stroke-width="10"><path d="m44.0467 18.8033c-.62-7.7133-7.0067-13.8033-14.88-13.8033-8.2834 0-15 6.7167-15 15 0 1.1667.1633 2.2867.4133 3.3767-5.32333.2233-9.58 4.58-9.58 9.9566 0 5.5234 4.47667 10 10 10h25.8333c6.9034 0 12.5-5.5966 12.5-12.5 0-5.7866-3.95-10.6066-9.2866-12.03z"/><path d="m31.5176 22.4999c2.29-2.5566 5.6133-4.1666 9.3166-4.1666 1.11 0 2.19.1966 3.2134.47"/></g></svg>