<svg width="59" height="52" viewBox="0 0 59 52" fill="none" xmlns="http://www.w3.org/2000/svg">
<path d="M16.6667 31.6667H8.33333C6.49333 31.6667 5 30.1733 5 28.3333V13.3333C5 11.4933 6.49333 10 8.33333 10H16.6667" stroke="#111111" stroke-width="10" stroke-linecap="round" stroke-linejoin="round"/>
<path d="M48.3333 5H30C27.2386 5 25 7.23858 25 10V41.6667C25 44.4281 27.2386 46.6667 30 46.6667H48.3333C51.0948 46.6667 53.3333 44.4281 53.3333 41.6667V10C53.3333 7.23858 51.0948 5 48.3333 5Z" stroke="#111111" stroke-width="10" stroke-linecap="round" stroke-linejoin="round"/>
<path d="M16.6673 40C11.5273 40 8.33398 42.5 8.33398 42.5" stroke="#111111" stroke-width="10" stroke-linecap="round" stroke-linejoin="round"/>
<path d="M39.1673 39.1667C41.0083 39.1667 42.5007 37.6743 42.5007 35.8333C42.5007 33.9924 41.0083 32.5 39.1673 32.5C37.3264 32.5 35.834 33.9924 35.834 35.8333C35.834 37.6743 37.3264 39.1667 39.1673 39.1667Z" fill="#111111"/>
<path d="M35 15H43.3333" stroke="#111111" stroke-width="10" stroke-linecap="round" stroke-linejoin="round"/>
<path d="M35 23.3333H43.3333" stroke="#111111" stroke-width="10" stroke-linecap="round" stroke-linejoin="round"/>
</svg>
