<svg fill="none" height="52" viewBox="0 0 59 52" width="59" xmlns="http://www.w3.org/2000/svg"><g stroke="#111" stroke-linecap="round" stroke-linejoin="round" stroke-width="10"><path d="m16.6667 31.6667h-8.33337c-1.84 0-3.33333-1.4934-3.33333-3.3334v-15c0-1.84 1.49333-3.3333 3.33333-3.3333h8.33337"/><path d="m48.3333 5h-18.3333c-2.7614 0-5 2.23858-5 5v31.6667c0 2.7614 2.2386 5 5 5h18.3333c2.7615 0 5-2.2386 5-5v-31.6667c0-2.76142-2.2385-5-5-5z"/><path d="m16.6673 40c-5.14 0-8.33332 2.5-8.33332 2.5"/></g><path d="m39.1673 39.1667c1.841 0 3.3334-1.4924 3.3334-3.3334 0-1.8409-1.4924-3.3333-3.3334-3.3333-1.8409 0-3.3333 1.4924-3.3333 3.3333 0 1.841 1.4924 3.3334 3.3333 3.3334z" fill="#111"/><path d="m35 15h8.3333" stroke="#111" stroke-linecap="round" stroke-linejoin="round" stroke-width="10"/><path d="m35 23.3333h8.3333" stroke="#111" stroke-linecap="round" stroke-linejoin="round" stroke-width="10"/></svg>