<svg fill="none" height="58" viewBox="0 0 59 58" width="59" xmlns="http://www.w3.org/2000/svg"><path d="m48.3333 25.4567c-6.3666 0-11.5633-4.7767-12.3433-10.9334-.33.0334-.65.1-.99.1-5.3933 0-9.76-4.2766-9.9633-9.6233-11.3767 1.96333-20.0367 11.8533-20.0367 23.79 0 13.3467 10.82 24.1667 24.1667 24.1667 13.3466 0 24.1666-10.82 24.1666-24.1667 0-1.4467-.15-2.8567-.3933-4.2367-1.4267.5667-2.9767.9034-4.6067.9034z" stroke="#111" stroke-linecap="round" stroke-linejoin="round" stroke-width="10"/><g fill="#111"><path d="m40 7.12329c1.3807 0 2.5-1.11929 2.5-2.5s-1.1193-2.5-2.5-2.5-2.5 1.11929-2.5 2.5 1.1193 2.5 2.5 2.5z"/><path d="m48.334 15.4565c1.3807 0 2.5-1.1192 2.5-2.5 0-1.3807-1.1193-2.5-2.5-2.5s-2.5 1.1193-2.5 2.5c0 1.3808 1.1193 2.5 2.5 2.5z"/><path d="m36.666 40.4565c1.3807 0 2.5-1.1192 2.5-2.5 0-1.3807-1.1193-2.5-2.5-2.5s-2.5 1.1193-2.5 2.5c0 1.3808 1.1193 2.5 2.5 2.5z"/><path d="m22.4993 25.4567c1.841 0 3.3334-1.4924 3.3334-3.3333 0-1.841-1.4924-3.3334-3.3334-3.3334-1.8409 0-3.3333 1.4924-3.3333 3.3334 0 1.8409 1.4924 3.3333 3.3333 3.3333z"/><path d="m23.3327 40.4566c2.3012 0 4.1666-1.8655 4.1666-4.1666 0-2.3012-1.8654-4.1667-4.1666-4.1667s-4.1667 1.8655-4.1667 4.1667c0 2.3011 1.8655 4.1666 4.1667 4.1666z"/></g></svg>