<svg width="59" height="58" viewBox="0 0 59 58" fill="none" xmlns="http://www.w3.org/2000/svg">
<path d="M48.3333 25.4567C41.9667 25.4567 36.77 20.68 35.99 14.5233C35.66 14.5567 35.34 14.6233 35 14.6233C29.6067 14.6233 25.24 10.3467 25.0367 5C13.66 6.96333 5 16.8533 5 28.79C5 42.1367 15.82 52.9567 29.1667 52.9567C42.5133 52.9567 53.3333 42.1367 53.3333 28.79C53.3333 27.3433 53.1833 25.9333 52.94 24.5533C51.5133 25.12 49.9633 25.4567 48.3333 25.4567Z" stroke="#111111" stroke-width="10" stroke-linecap="round" stroke-linejoin="round"/>
<path d="M40 7.12329C41.3807 7.12329 42.5 6.004 42.5 4.62329C42.5 3.24258 41.3807 2.12329 40 2.12329C38.6193 2.12329 37.5 3.24258 37.5 4.62329C37.5 6.004 38.6193 7.12329 40 7.12329Z" fill="#111111"/>
<path d="M48.334 15.4565C49.7147 15.4565 50.834 14.3373 50.834 12.9565C50.834 11.5758 49.7147 10.4565 48.334 10.4565C46.9533 10.4565 45.834 11.5758 45.834 12.9565C45.834 14.3373 46.9533 15.4565 48.334 15.4565Z" fill="#111111"/>
<path d="M36.666 40.4565C38.0467 40.4565 39.166 39.3373 39.166 37.9565C39.166 36.5758 38.0467 35.4565 36.666 35.4565C35.2853 35.4565 34.166 36.5758 34.166 37.9565C34.166 39.3373 35.2853 40.4565 36.666 40.4565Z" fill="#111111"/>
<path d="M22.4993 25.4567C24.3403 25.4567 25.8327 23.9643 25.8327 22.1234C25.8327 20.2824 24.3403 18.79 22.4993 18.79C20.6584 18.79 19.166 20.2824 19.166 22.1234C19.166 23.9643 20.6584 25.4567 22.4993 25.4567Z" fill="#111111"/>
<path d="M23.3327 40.4566C25.6339 40.4566 27.4993 38.5911 27.4993 36.29C27.4993 33.9888 25.6339 32.1233 23.3327 32.1233C21.0315 32.1233 19.166 33.9888 19.166 36.29C19.166 38.5911 21.0315 40.4566 23.3327 40.4566Z" fill="#111111"/>
</svg>
