<svg width="60" height="60" viewBox="0 0 60 60" fill="none" xmlns="http://www.w3.org/2000/svg">
<path d="M30.0007 51.6666C41.9668 51.6666 51.6673 41.9661 51.6673 29.9999C51.6673 18.0337 41.9668 8.33325 30.0007 8.33325C18.0345 8.33325 8.33398 18.0337 8.33398 29.9999C8.33398 41.9661 18.0345 51.6666 30.0007 51.6666Z" stroke="#111111" stroke-width="10" stroke-linecap="round" stroke-linejoin="round"/>
<path d="M30 37.5C34.1421 37.5 37.5 34.1421 37.5 30C37.5 25.8579 34.1421 22.5 30 22.5C25.8579 22.5 22.5 25.8579 22.5 30C22.5 34.1421 25.8579 37.5 30 37.5Z" stroke="#111111" stroke-width="10" stroke-linecap="round" stroke-linejoin="round"/>
<path d="M30 3.33325V8.33325" stroke="#111111" stroke-width="10" stroke-linecap="round" stroke-linejoin="round"/>
<path d="M56.668 30H51.668" stroke="#111111" stroke-width="10" stroke-linecap="round" stroke-linejoin="round"/>
<path d="M30 56.6665V51.6665" stroke="#111111" stroke-width="10" stroke-linecap="round" stroke-linejoin="round"/>
<path d="M3.33398 30H8.33398" stroke="#111111" stroke-width="10" stroke-linecap="round" stroke-linejoin="round"/>
</svg>
