<svg fill="none" height="60" viewBox="0 0 60 60" width="60" xmlns="http://www.w3.org/2000/svg"><g stroke="#111" stroke-linecap="round" stroke-linejoin="round" stroke-width="10"><path d="m50.0414 21.7466c1.05 2.5433 1.6266 5.3333 1.6266 8.2533 0 11.9667-9.7 21.6667-21.6666 21.6667-2.9234 0-5.71-.58-8.2534-1.6267"/><path d="m14.6807 45.3199c-3.92-3.92-6.34672-9.3366-6.34672-15.32 0-11.9666 9.70002-21.66665 21.66672-21.66665 5.9833 0 11.3999 2.42665 15.3199 6.34665"/><path d="m24.6967 35.3033c-1.3567-1.3566-2.1967-3.2333-2.1967-5.3033 0-4.1433 3.3567-7.5 7.5-7.5 2.07 0 3.9467.84 5.3033 2.1967"/><path d="m30 3.33325v5"/><path d="m56.668 30h-5"/><path d="m30 56.6665v-5"/><path d="m3.33398 30h5"/><path d="m6.66797 53.3332 46.66663-46.6667"/></g></svg>