<svg fill="none" height="59" viewBox="0 0 59 59" width="59" xmlns="http://www.w3.org/2000/svg"><g stroke="#111" stroke-linecap="round" stroke-linejoin="round" stroke-width="10"><path d="m23.334 25c2.7614 0 5-2.2386 5-5s-2.2386-5-5-5-5 2.2386-5 5 2.2386 5 5 5z"/><path d="m53.334 20.8333v17.9366c0 .8834-.35 1.7334-.9767 2.3567l-11.23 11.23c-.6266.6267-1.4733.9767-2.3567.9767h-20.4366"/><path d="m21.666 33.3333v7.7866c0 .8834.35 1.7334.9767 2.3567l2.3566 2.3567"/><path d="m10 46.6666 2.64-3.4167c.45-.5833.6933-1.3.6933-2.0366v-10.59c0-.93.3867-1.8167 1.07-2.4467l5.22-4.8333"/><path d="m35 43.3333c2.7614 0 5-2.2386 5-5 0-2.7615-2.2386-5-5-5s-5 2.2385-5 5c0 2.7614 2.2386 5 5 5z"/><path d="m36.6673 25v-7.7867c0-.8833-.35-1.7333-.9766-2.3566l-2.3567-2.3567"/><path d="m48.3343 11.6667-2.64 3.4167c-.45.5833-.6934 1.3-.6934 2.0367v10.59c0 .93-.3866 1.8166-1.07 2.4466l-5.22 4.8334"/><path d="m40 5h-20.4367c-.8833 0-1.7333.35-2.3566.97667l-11.23003 11.23003c-.62667.6266-.97667 1.4733-.97667 2.3566v17.9367"/></g></svg>