<svg width="59" height="59" viewBox="0 0 59 59" fill="none" xmlns="http://www.w3.org/2000/svg">
<path d="M29.166 19.1667V39.1667C34.6893 39.1667 39.166 34.6901 39.166 29.1667C39.166 23.6434 34.6893 19.1667 29.166 19.1667Z" fill="#111111"/>
<path d="M29.1667 39.1667C23.6433 39.1667 19.1667 34.69 19.1667 29.1667C19.1667 23.6433 23.6433 19.1667 29.1667 19.1667V5C15.82 5 5 15.82 5 29.1667C5 42.5133 15.82 53.3333 29.1667 53.3333V39.1667Z" fill="#111111"/>
<path d="M29.1667 53.3333C42.5135 53.3333 53.3333 42.5135 53.3333 29.1667C53.3333 15.8198 42.5135 5 29.1667 5C15.8198 5 5 15.8198 5 29.1667C5 42.5135 15.8198 53.3333 29.1667 53.3333Z" stroke="#111111" stroke-width="10" stroke-linecap="round" stroke-linejoin="round"/>
</svg>
