<svg fill="none" height="59" viewBox="0 0 59 59" width="59" xmlns="http://www.w3.org/2000/svg"><path d="m29.166 19.1667v20c5.5233 0 10-4.4766 10-10 0-5.5233-4.4767-10-10-10z" fill="#111"/><path d="m29.1667 39.1667c-5.5234 0-10-4.4767-10-10 0-5.5234 4.4766-10 10-10v-14.1667c-13.3467 0-24.1667 10.82-24.1667 24.1667 0 13.3466 10.82 24.1666 24.1667 24.1666z" fill="#111"/><path d="m29.1667 53.3333c13.3468 0 24.1666-10.8198 24.1666-24.1666 0-13.3469-10.8198-24.1667-24.1666-24.1667-13.3469 0-24.1667 10.8198-24.1667 24.1667 0 13.3468 10.8198 24.1666 24.1667 24.1666z" stroke="#111" stroke-linecap="round" stroke-linejoin="round" stroke-width="10"/></svg>