<svg fill="none" height="56" viewBox="0 0 58 56" width="58" xmlns="http://www.w3.org/2000/svg"><path d="m5 10.1833 1.36 9.8167 9.8133-1.3567" stroke="#111" stroke-linecap="round" stroke-linejoin="round" stroke-width="10"/><path d="m52.8679 27.4467c-.8834-12.5434-11.3367-22.4467-24.1067-22.4467-10.1033 0-18.7567 6.2-22.36667 15" stroke="#111" stroke-linecap="round" stroke-linejoin="round" stroke-width="10"/><g fill="#111"><path d="m45.8496 48.7566c1.3807 0 2.5-1.1193 2.5-2.5s-1.1193-2.5-2.5-2.5-2.5 1.1193-2.5 2.5 1.1193 2.5 2.5 2.5z"/><path d="m28.7598 55.8333c1.3807 0 2.5-1.1193 2.5-2.5 0-1.3808-1.1193-2.5-2.5-2.5s-2.5 1.1192-2.5 2.5c0 1.3807 1.1193 2.5 2.5 2.5z"/><path d="m11.6699 48.7566c1.3807 0 2.5-1.1193 2.5-2.5s-1.1193-2.5-2.5-2.5-2.49998 1.1193-2.49998 2.5 1.11928 2.5 2.49998 2.5z"/><path d="m4.59375 31.6667c1.38071 0 2.5-1.1192 2.5-2.5 0-1.3807-1.11929-2.5-2.5-2.5s-2.5 1.1193-2.5 2.5c0 1.3808 1.11929 2.5 2.5 2.5z"/><path d="m51.0879 40.9133c1.3807 0 2.5-1.1193 2.5-2.5s-1.1193-2.5-2.5-2.5-2.5 1.1193-2.5 2.5 1.1193 2.5 2.5 2.5z"/><path d="m38.0078 53.9934c1.3807 0 2.5-1.1193 2.5-2.5s-1.1193-2.5-2.5-2.5-2.5 1.1193-2.5 2.5 1.1193 2.5 2.5 2.5z"/><path d="m19.5137 53.9934c1.3807 0 2.5-1.1193 2.5-2.5s-1.1193-2.5-2.5-2.5-2.5 1.1193-2.5 2.5 1.1193 2.5 2.5 2.5z"/><path d="m6.43359 40.9133c1.38072 0 2.5-1.1193 2.5-2.5s-1.11928-2.5-2.5-2.5c-1.38071 0-2.5 1.1193-2.5 2.5s1.11929 2.5 2.5 2.5z"/></g></svg>