<svg width="59" height="59" viewBox="0 0 59 59" fill="none" xmlns="http://www.w3.org/2000/svg">
<path d="M18.4028 32.1233C18.2561 31.9066 15.5528 27.7133 17.6028 23.54C17.8261 23.0833 19.2161 20.3766 22.0828 19.58C26.3261 18.4033 29.4261 22.6433 31.4328 21.3633C33.6761 19.9333 30.5328 14.1766 33.1228 10.9333C35.0961 8.4633 39.4428 8.64664 42.7328 9.1633" stroke="#111111" stroke-width="10" stroke-linecap="round" stroke-linejoin="round"/>
<path d="M18.4043 32.1233C23.701 30.66 27.1076 31.3766 29.3776 32.7066C32.5076 34.54 32.731 37.1 35.4176 37.6033C39.2943 38.33 41.5643 33.5133 45.001 34.1666C46.5976 34.47 48.541 35.9733 50.2276 41.0233" stroke="#111111" stroke-width="10" stroke-linecap="round" stroke-linejoin="round"/>
<path d="M27.8366 53.2665C28.3299 51.3365 28.6166 48.7899 27.2932 46.8065C25.8832 44.6899 23.8899 45.0832 22.5532 42.8665C21.1599 40.5532 22.5999 38.9165 21.5632 36.0432C20.5899 33.3465 18.3599 32.1299 16.6866 30.9065C13.8999 28.8699 10.4399 25.2032 7.72656 18.0432" stroke="#111111" stroke-width="10" stroke-linecap="round" stroke-linejoin="round"/>
<path d="M29.1667 53.3333C42.5135 53.3333 53.3333 42.5135 53.3333 29.1667C53.3333 15.8198 42.5135 5 29.1667 5C15.8198 5 5 15.8198 5 29.1667C5 42.5135 15.8198 53.3333 29.1667 53.3333Z" stroke="#111111" stroke-width="10" stroke-linecap="round" stroke-linejoin="round"/>
</svg>
