<svg fill="none" height="59" viewBox="0 0 59 59" width="59" xmlns="http://www.w3.org/2000/svg"><g stroke="#111" stroke-linecap="round" stroke-linejoin="round" stroke-width="10"><path d="m18.4028 32.1233c-.1467-.2167-2.85-4.41-.8-8.5833.2233-.4567 1.6133-3.1634 4.48-3.96 4.2433-1.1767 7.3433 3.0633 9.35 1.7833 2.2433-1.43-.9-7.1867 1.69-10.43 1.9733-2.47 6.32-2.28666 9.61-1.77"/><path d="m18.4043 32.1233c5.2967-1.4633 8.7033-.7467 10.9733.5833 3.13 1.8334 3.3534 4.3934 6.04 4.8967 3.8767.7267 6.1467-4.09 9.5834-3.4367 1.5966.3034 3.54 1.8067 5.2266 6.8567"/><path d="m27.8366 53.2665c.4933-1.93.78-4.4766-.5434-6.46-1.41-2.1166-3.4033-1.7233-4.74-3.94-1.3933-2.3133.0467-3.95-.99-6.8233-.9733-2.6967-3.2033-3.9133-4.8766-5.1367-2.7867-2.0366-6.2467-5.7033-8.96004-12.8633"/><path d="m29.1667 53.3333c13.3468 0 24.1666-10.8198 24.1666-24.1666 0-13.3469-10.8198-24.1667-24.1666-24.1667-13.3469 0-24.1667 10.8198-24.1667 24.1667 0 13.3468 10.8198 24.1666 24.1667 24.1666z"/></g></svg>