<svg width="52" height="52" viewBox="0 0 52 52" fill="none" xmlns="http://www.w3.org/2000/svg">
<path d="M25.8333 16.6667V25.0001C25.8333 26.8401 24.34 28.3334 22.5 28.3334" stroke="#111111" stroke-width="10" stroke-linecap="round" stroke-linejoin="round"/>
<path d="M15 16.6667V20.8334" stroke="#111111" stroke-width="10" stroke-linecap="round" stroke-linejoin="round"/>
<path d="M36.666 16.6667V20.8334" stroke="#111111" stroke-width="10" stroke-linecap="round" stroke-linejoin="round"/>
<path d="M33.334 35.8333C31.244 37.4033 28.6473 38.3333 25.834 38.3333C23.0207 38.3333 20.4207 37.4033 18.334 35.8333" stroke="#111111" stroke-width="10" stroke-linecap="round" stroke-linejoin="round"/>
<path d="M5 18.3333V11.6667C5 7.98333 7.98333 5 11.6667 5H18.3333" stroke="#111111" stroke-width="10" stroke-linecap="round" stroke-linejoin="round"/>
<path d="M33.334 5H40.0007C43.684 5 46.6673 7.98333 46.6673 11.6667V18.3333" stroke="#111111" stroke-width="10" stroke-linecap="round" stroke-linejoin="round"/>
<path d="M46.6673 33.3333V39.9999C46.6673 43.6833 43.684 46.6666 40.0007 46.6666H33.334" stroke="#111111" stroke-width="10" stroke-linecap="round" stroke-linejoin="round"/>
<path d="M18.3333 46.6666H11.6667C7.98333 46.6666 5 43.6833 5 39.9999V33.3333" stroke="#111111" stroke-width="10" stroke-linecap="round" stroke-linejoin="round"/>
</svg>
