<svg fill="none" height="52" viewBox="0 0 52 52" width="52" xmlns="http://www.w3.org/2000/svg"><g stroke="#111" stroke-linecap="round" stroke-linejoin="round" stroke-width="10"><path d="m25.8333 16.6667v8.3334c0 1.84-1.4933 3.3333-3.3333 3.3333"/><path d="m15 16.6667v4.1667"/><path d="m36.666 16.6667v4.1667"/><path d="m33.334 35.8333c-2.09 1.57-4.6867 2.5-7.5 2.5s-5.4133-.93-7.5-2.5"/><path d="m5 18.3333v-6.6666c0-3.68337 2.98333-6.6667 6.6667-6.6667h6.6666"/><path d="m33.334 5h6.6667c3.6833 0 6.6666 2.98333 6.6666 6.6667v6.6666"/><path d="m46.6673 33.3333v6.6666c0 3.6834-2.9833 6.6667-6.6666 6.6667h-6.6667"/><path d="m18.3333 46.6666h-6.6666c-3.68337 0-6.6667-2.9833-6.6667-6.6667v-6.6666"/></g></svg>