<svg fill="none" height="18" viewBox="0 0 18 18" width="18" xmlns="http://www.w3.org/2000/svg"><g fill="#111"><path d="m16.0096 2.32028-1.0096-.33857-.3372-1.017873c-.1089-.328899-.65-.328899-.7589 0l-.3372 1.017873-1.0096.33857c-.1633.05482-.2743.20852-.2743.38264s.111.32783.2743.38264l1.0096.33858.3372 1.01786c.0545.16445.2071.27516.3789.27516s.3255-.11178.3789-.27516l.3372-1.01786 1.0096-.33858c.1633-.05481.2743-.20852.2743-.38264s-.1099-.32782-.2732-.38264z"/><path d="m1.75 3c.41421 0 .75-.33579.75-.75s-.33579-.75-.75-.75-.75.33579-.75.75.33579.75.75.75z"/><path clip-rule="evenodd" d="m5.41101 2.5c-.485 0-.953.202-1.285.554l-2.403 2.556c-.581.618-.633 1.557-.123 2.234l5.993 7.956c.335.445.848.7 1.407.7s1.07199-.255 1.40699-.7l5.993-7.956c.2468-.32765.362-.71691.3493-1.10134-.0041-.4107-.3391-.74266-.7508-.74266h-3.6005l-1.6128-3.09646c-.1292-.24799-.3856-.40354-.6652-.40354zm3.588 11.405 1.93399-6.405h-3.86799zm-3.589-9.905c-.073 0-.143.03-.192.082l-1.803 1.918h2.186l1.042-2z" fill-rule="evenodd"/></g></svg>