<svg fill="none" height="59" viewBox="0 0 56 59" width="56" xmlns="http://www.w3.org/2000/svg"><path d="m26.666 5c13.3467 0 24.1667 10.82 24.1667 24.1667 0 13.3466-10.82 24.1666-24.1667 24.1666" stroke="#111" stroke-linecap="round" stroke-linejoin="round" stroke-width="10"/><path d="m15.834 30 7.5 8.3333 14.1667-18.3333" stroke="#111" stroke-linecap="round" stroke-linejoin="round" stroke-width="10"/><g fill="#111"><path d="m9.57617 48.7568c1.38073 0 2.50003-1.1193 2.50003-2.5s-1.1193-2.5-2.50003-2.5c-1.38071 0-2.5 1.1193-2.5 2.5s1.11929 2.5 2.5 2.5z"/><path d="m2.5 31.6667c1.38071 0 2.5-1.1192 2.5-2.5 0-1.3807-1.11929-2.5-2.5-2.5s-2.5 1.1193-2.5 2.5c0 1.3808 1.11929 2.5 2.5 2.5z"/><path d="m9.57617 14.5767c1.38073 0 2.50003-1.1193 2.50003-2.5 0-1.3808-1.1193-2.50004-2.50003-2.50004-1.38071 0-2.5 1.11924-2.5 2.50004 0 1.3807 1.11929 2.5 2.5 2.5z"/><path d="m17.4199 53.9934c1.3807 0 2.5-1.1193 2.5-2.5s-1.1193-2.5-2.5-2.5-2.5 1.1193-2.5 2.5 1.1193 2.5 2.5 2.5z"/><path d="m4.33984 40.9133c1.38072 0 2.5-1.1193 2.5-2.5s-1.11928-2.5-2.5-2.5c-1.38071 0-2.5 1.1193-2.5 2.5s1.11929 2.5 2.5 2.5z"/><path d="m4.33984 22.4202c1.38072 0 2.5-1.1193 2.5-2.5s-1.11928-2.5-2.5-2.5c-1.38071 0-2.5 1.1193-2.5 2.5s1.11929 2.5 2.5 2.5z"/><path d="m17.4199 9.34009c1.3807 0 2.5-1.11929 2.5-2.5s-1.1193-2.5-2.5-2.5-2.5 1.11929-2.5 2.5 1.1193 2.5 2.5 2.5z"/></g></svg>