<svg fill="none" height="19" viewBox="0 0 19 19" width="19" xmlns="http://www.w3.org/2000/svg"><g fill="#111"><path d="m17.2001 16.6h1.8v2.4h-1.8z"/><path d="m15.4 14.2001h1.8v2.4h-1.8z"/><path d="m17.2001 12.4h1.8v1.8h-1.8z"/><path d="m13 16.6h2.4v2.4h-2.4z"/><path d="m10.6 12.4h2.4v4.2h-2.4z"/><path d="m13 10.6h4.2v1.8h-4.2z"/><g stroke="#111" stroke-linecap="round" stroke-linejoin="round" stroke-width="2"><path d="m5.2 1h-2.4c-.99411 0-1.8.80589-1.8 1.8v2.4c0 .99411.80589 1.8 1.8 1.8h2.4c.99411 0 1.8-.80589 1.8-1.8v-2.4c0-.99411-.80589-1.8-1.8-1.8z"/><path d="m16 1h-2.4c-.9941 0-1.8.80589-1.8 1.8v2.4c0 .99411.8059 1.8 1.8 1.8h2.4c.9942 0 1.8-.80589 1.8-1.8v-2.4c0-.99411-.8058-1.8-1.8-1.8z"/><path d="m5.2 11.8h-2.4c-.99411 0-1.8.8059-1.8 1.8v2.4c0 .9942.80589 1.8 1.8 1.8h2.4c.99411 0 1.8-.8058 1.8-1.8v-2.4c0-.9941-.80589-1.8-1.8-1.8z"/></g></g></svg>